<svg width="406" height="244" viewBox="0 0 406 244" fill="none" xmlns="http://www.w3.org/2000/svg">
<g style="mix-blend-mode:multiply">
<path d="M344.712 9.92773L295.084 15.8923L307.657 29.6427L238.884 95.5386L218.6 78.5017L213.729 74.4106L209.487 78.7239L128.783 160.772L104.101 143.355L101.892 141.796L100.043 143.561L0.000228882 239.123L102.312 150.066L126.882 169.164L129.476 171.18L132.019 168.822L214.176 92.6845L234.267 111.211L239.076 115.646L244.265 111.114L320.938 44.1657L333.511 57.9161L344.712 9.92773Z" fill="white"/>
<path d="M346.233 10.0859L296.603 16.0505L309.176 29.7989L240.405 95.6968L220.121 78.6599L215.25 74.5688L211.008 78.8821L130.304 160.928L105.622 143.513L103.411 141.952L101.562 143.719L1.52116 239.282L103.833 150.222L128.403 169.323L130.997 171.338L133.54 168.98L215.697 92.8427L235.788 111.369L240.597 115.802L245.786 111.273L322.457 44.3239L335.03 58.0723L346.233 10.0859Z" fill="#F7FDFB"/>
<path d="M347.754 10.2422L298.123 16.2067L310.697 29.9571L241.923 95.8531L221.64 78.8162L216.771 74.7271L212.529 79.0383L131.825 161.087L107.143 143.669L104.932 142.11L103.083 143.875L3.03998 239.438L105.354 150.38L129.924 169.479L132.517 171.494L135.061 169.137L217.215 92.9989L237.307 111.525L242.118 115.96L247.305 111.429L323.978 44.4801L336.551 58.2306L347.754 10.2422Z" fill="#EFFBF7"/>
<path d="M349.272 10.4004L299.644 16.3649L312.217 30.1133L243.444 96.0113L223.161 78.9744L218.29 74.8833L214.05 79.1965L133.344 161.245L108.662 143.828L106.453 142.266L104.603 144.034L4.56071 239.596L106.873 150.539L131.443 169.637L134.036 171.653L136.582 169.295L218.736 93.1571L238.828 111.683L243.636 116.117L248.825 111.587L325.499 44.6383L338.072 58.3888L349.272 10.4004Z" fill="#E7F9F3"/>
<path d="M350.793 10.5566L301.165 16.5212L313.738 30.2716L244.965 96.1695L224.682 79.1306L219.811 75.0415L215.568 79.3528L134.865 161.401L110.183 143.984L107.973 142.425L106.124 144.192L6.08167 239.752L108.394 150.695L132.964 169.793L135.557 171.811L138.101 169.453L220.257 93.3154L240.349 111.839L245.157 116.275L250.346 111.745L327.02 44.7966L339.593 58.545L350.793 10.5566Z" fill="#DFF6F0"/>
<path d="M352.314 10.7139L302.684 16.6784L315.257 30.4288L246.486 96.3247L226.201 79.2878L221.332 75.1967L217.089 79.51L136.386 161.558L111.704 144.141L109.492 142.582L107.643 144.347L7.6026 239.91L109.915 150.852L134.485 169.951L137.078 171.966L139.621 169.608L221.778 93.4706L241.869 111.997L246.678 116.432L251.867 111.901L328.539 44.9518L341.112 58.7022L352.314 10.7139Z" fill="#D7F4EC"/>
<path d="M353.835 10.873L304.205 16.8376L316.778 30.586L248.005 96.4839L227.721 79.447L222.853 75.3559L218.61 79.6692L137.904 161.715L113.224 144.3L111.013 142.739L109.164 144.506L9.1214 240.067L111.435 151.009L136.005 170.11L138.597 172.125L141.142 169.767L223.297 93.6298L243.388 112.156L248.199 116.589L253.386 112.06L330.059 45.111L342.633 58.8594L353.835 10.873Z" fill="#CFF2E8"/>
<path d="M355.354 11.0293L305.726 16.9938L318.299 30.7442L249.526 96.6402L229.242 79.6033L224.372 75.5142L220.131 79.8254L139.425 161.874L114.743 144.456L112.534 142.897L110.685 144.663L10.6423 240.225L112.954 151.168L137.524 170.266L140.118 172.282L142.663 169.924L224.818 93.786L244.909 112.312L249.718 116.747L254.907 112.216L331.58 45.2673L344.154 59.0177L355.354 11.0293Z" fill="#C7F0E4"/>
<path d="M356.875 11.1865L307.246 17.151L319.82 30.8995L251.047 96.7974L230.763 79.7605L225.892 75.6694L221.65 79.9827L140.946 162.031L116.264 144.614L114.055 143.052L112.206 144.82L12.1631 240.382L114.475 151.325L139.045 170.423L141.639 172.439L144.182 170.081L226.339 93.9433L246.43 112.469L251.239 116.903L256.428 112.373L333.101 45.4245L345.674 59.1749L356.875 11.1865Z" fill="#BEEEE0"/>
<path d="M358.396 11.3428L308.765 17.3073L321.339 31.0577L252.568 96.9537L232.282 79.9168L227.413 75.8277L223.171 80.1389L142.467 162.187L117.785 144.77L115.574 143.211L113.725 144.978L13.684 240.538L115.996 151.481L140.566 170.579L143.159 172.597L145.703 170.239L227.858 94.1015L247.951 112.626L252.76 117.061L257.949 112.531L334.62 45.5827L347.193 59.3312L358.396 11.3428Z" fill="#B6ECDC"/>
<path d="M359.914 11.501L310.286 17.4655L322.859 31.2159L254.086 97.1119L233.803 80.075L228.934 75.9838L224.692 80.2971L143.986 162.345L119.306 144.928L117.095 143.369L115.246 145.134L15.2028 240.697L117.517 151.639L142.087 170.738L144.678 172.753L147.224 170.395L229.378 94.2577L249.47 112.784L254.28 117.219L259.467 112.688L336.141 45.7389L348.714 59.4894L359.914 11.501Z" fill="#AEEAD9"/>
<path d="M361.435 11.6592L311.807 17.6237L324.38 31.3721L255.607 97.2701L235.324 80.2331L230.453 76.1421L226.213 80.4553L145.507 162.502L120.825 145.084L118.616 143.525L116.767 145.292L16.7238 240.853L119.036 151.795L143.606 170.896L146.199 172.911L148.745 170.554L230.899 94.4159L250.991 112.942L255.799 117.375L260.988 112.846L337.662 45.8971L350.235 59.6456L361.435 11.6592Z" fill="#A6E8D5"/>
<path d="M362.956 11.8154L313.328 17.78L325.901 31.5304L257.128 97.4263L236.845 80.3894L231.974 76.3003L227.731 80.6116L147.028 162.66L122.346 145.243L120.136 143.683L118.287 145.449L18.2445 241.011L120.557 151.954L145.126 171.052L147.72 173.068L150.263 170.71L232.42 94.5722L252.511 113.098L257.32 117.534L262.509 113.002L339.181 46.0534L351.756 59.8038L362.956 11.8154Z" fill="#9EE5D1"/>
<path d="M364.477 11.9736L314.847 17.9382L327.42 31.6866L258.649 97.5845L238.363 80.5476L233.495 76.4565L229.252 80.7698L148.549 162.816L123.866 145.401L121.655 143.84L119.806 145.607L19.7655 241.169L122.077 152.11L146.647 171.21L149.241 173.226L151.784 170.868L233.939 94.7304L254.03 113.256L258.841 117.69L264.03 113.16L340.701 46.2116L353.275 59.962L364.477 11.9736Z" fill="#96E3CD"/>
<path d="M365.996 12.1299L316.368 18.0944L328.941 31.8448L260.168 97.7408L239.884 80.7039L235.016 76.6148L230.773 80.926L150.067 162.974L125.387 145.557L123.176 143.998L121.327 145.765L21.2843 241.326L123.596 152.268L148.168 171.367L150.76 173.384L153.305 171.026L235.46 94.8886L255.551 113.413L260.362 117.848L265.549 113.317L342.222 46.3678L354.795 60.1183L365.996 12.1299Z" fill="#8EE1C9"/>
<path d="M367.517 12.2871L317.889 18.2516L330.462 32.0021L261.689 97.898L241.405 80.8611L236.534 76.77L232.292 81.0833L151.588 163.131L126.906 145.714L124.697 144.155L122.848 145.92L22.8052 241.483L125.117 152.425L149.687 171.524L152.281 173.539L154.826 171.182L236.981 95.0438L257.072 113.57L261.881 118.005L267.07 113.474L343.743 46.5251L356.316 60.2755L367.517 12.2871Z" fill="#86DFC5"/>
<path d="M369.038 12.4453L319.407 18.4098L331.982 32.1583L263.209 98.0562L242.926 81.0193L238.055 76.9282L233.813 81.2415L153.109 163.288L128.427 145.87L126.218 144.311L124.369 146.079L24.326 241.639L126.638 152.582L151.208 171.682L153.801 173.698L156.345 171.34L238.501 95.202L258.593 113.728L263.402 118.161L268.59 113.632L345.262 46.6833L357.835 60.4317L369.038 12.4453Z" fill="#7EDDC2"/>
<path d="M370.558 12.6016L320.928 18.5661L333.501 32.3165L264.728 98.2124L244.445 81.1755L239.576 77.0864L235.334 81.3977L154.63 163.446L129.948 146.029L127.737 144.47L125.888 146.235L25.8469 241.797L128.159 152.74L152.729 171.838L155.322 173.854L157.866 171.496L240.02 95.3583L260.112 113.884L264.922 118.32L270.109 113.788L346.783 46.8395L359.356 60.5899L370.558 12.6016Z" fill="#76DBBE"/>
<path d="M372.077 12.7598L322.449 18.7243L335.022 32.4727L266.249 98.3707L245.966 81.3337L241.097 77.2426L236.855 81.5559L156.149 163.602L131.469 146.187L129.257 144.626L127.408 146.393L27.3657 241.955L129.678 152.896L154.248 171.996L156.841 174.012L159.387 171.654L241.541 95.5165L261.633 114.043L266.441 118.476L271.63 113.946L348.304 46.9977L360.877 60.7481L372.077 12.7598Z" fill="#6ED9BA"/>
<path d="M373.598 12.916L323.97 18.8805L336.543 32.631L267.77 98.5269L247.487 81.49L242.616 77.4009L238.373 81.7122L157.67 163.76L132.988 146.343L130.778 144.784L128.929 146.549L28.8866 242.112L131.199 153.054L155.769 172.153L158.362 174.17L160.906 171.812L243.062 95.6747L263.154 114.199L267.962 118.634L273.151 114.103L349.825 47.154L362.398 60.9044L373.598 12.916Z" fill="#66D7B6"/>
<path d="M375.119 13.0742L325.489 19.0387L338.062 32.7892L269.291 98.6851L249.007 81.6482L244.137 77.5571L239.894 81.8704L159.19 163.919L134.508 146.501L132.299 144.942L130.448 146.708L30.4074 242.27L132.719 153.212L157.289 172.311L159.883 174.326L162.426 171.969L244.583 95.8309L264.674 114.357L269.483 118.792L274.672 114.261L351.343 47.3122L363.917 61.0626L375.119 13.0742Z" fill="#5ED4B2"/>
<path d="M376.64 13.2324L327.01 19.1949L339.583 32.9454L270.81 98.8433L250.526 81.8044L245.658 77.7153L241.415 82.0286L160.711 164.075L136.029 146.658L133.818 145.098L131.969 146.866L31.9264 242.426L134.24 153.369L158.81 172.469L161.404 174.485L163.947 172.127L246.102 95.9891L266.193 114.515L271.004 118.949L276.191 114.419L352.864 47.4704L365.438 61.2188L376.64 13.2324Z" fill="#56D2AE"/>
<path d="M378.159 13.3887L328.531 19.3532L341.104 33.1036L272.331 98.9996L252.047 81.9627L247.176 77.8736L242.936 82.1848L162.23 164.233L137.548 146.816L135.339 145.257L133.49 147.022L33.4471 242.584L135.759 153.527L160.329 172.625L162.923 174.641L165.468 172.283L247.623 96.1454L267.714 114.671L272.523 119.107L277.712 114.575L354.385 47.6266L366.958 61.377L378.159 13.3887Z" fill="#4ED0AB"/>
<path d="M379.68 13.5459L330.051 19.5104L342.625 33.2588L273.852 99.1568L253.568 82.1199L248.697 78.0288L244.455 82.342L163.751 164.388L139.069 146.973L136.86 145.412L135.011 147.179L34.9681 242.742L137.28 153.682L161.85 172.783L164.444 174.798L166.987 172.44L249.144 96.3026L269.235 114.829L274.044 119.262L279.233 114.733L355.906 47.7839L368.479 61.5343L379.68 13.5459Z" fill="#46CEA7"/>
<path d="M381.201 13.7021L331.57 19.6667L344.144 33.4171L275.373 99.313L255.087 82.2761L250.218 78.187L245.976 82.4983L165.272 164.546L140.59 147.129L138.379 145.57L136.53 147.335L36.489 242.898L138.801 153.84L163.371 172.939L165.964 174.954L168.508 172.597L250.665 96.4609L270.756 114.985L275.565 119.42L280.754 114.889L357.425 47.9401L369.998 61.6905L381.201 13.7021Z" fill="#3DCCA3"/>
<path d="M382.721 13.8604L333.091 19.8249L345.664 33.5753L276.891 99.4712L256.608 82.4343L251.739 78.3432L247.497 82.6565L166.791 164.705L142.111 147.287L139.9 145.728L138.051 147.494L38.0078 243.056L140.322 153.999L164.892 173.097L167.485 175.113L170.029 172.755L252.183 96.6171L272.275 115.143L277.085 119.578L282.272 115.047L358.946 48.0983L371.519 61.8487L382.721 13.8604Z" fill="#35CA9F"/>
<path d="M384.24 14.0186L334.612 19.9811L347.185 33.7315L278.412 99.6294L258.129 82.5905L253.258 78.5014L249.017 82.8147L168.312 164.861L143.63 147.444L141.42 145.884L139.571 147.652L39.5286 243.212L141.841 154.155L166.411 173.253L169.004 175.271L171.549 172.913L253.704 96.7753L273.795 115.299L278.604 119.735L283.793 115.205L360.467 48.2565L373.04 62.0049L384.24 14.0186Z" fill="#2DC89B"/>
<path d="M385.761 14.1748L336.133 20.1393L348.706 33.8897L279.933 99.7857L259.649 82.7488L254.779 78.6577L250.536 82.971L169.833 165.019L145.151 147.602L142.941 146.043L141.092 147.808L41.0495 243.371L143.362 154.313L167.931 173.412L170.525 175.427L173.068 173.069L255.225 96.9315L275.316 115.458L280.125 119.893L285.314 115.362L361.988 48.4128L374.561 62.1632L385.761 14.1748Z" fill="#25C697"/>
<path d="M387.282 14.333L337.652 20.2975L350.225 34.046L281.454 99.9439L261.168 82.907L256.3 78.8159L252.057 83.1292L171.354 165.175L146.672 147.76L144.46 146.199L142.611 147.966L42.5704 243.529L144.882 154.469L169.452 173.57L172.046 175.585L174.589 173.227L256.746 97.0897L276.837 115.616L281.646 120.049L286.835 115.52L363.506 48.571L376.08 62.3214L387.282 14.333Z" fill="#1DC394"/>
<path d="M388.801 14.4893L339.173 20.4538L351.746 34.2042L282.973 100.1L262.689 83.0632L257.82 78.9741L253.578 83.2854L172.872 165.334L148.192 147.916L145.981 146.357L144.132 148.123L44.0892 243.685L146.403 154.627L170.973 173.726L173.565 175.741L176.11 173.384L258.265 97.246L278.356 115.772L283.167 120.207L288.354 115.676L365.027 48.7272L377.6 62.4776L388.801 14.4893Z" fill="#15C190"/>
<path d="M390.322 14.6475L340.694 20.612L353.267 34.3604L284.494 100.258L264.21 83.2214L259.339 79.1303L255.099 83.4436L174.393 165.492L149.711 148.075L147.502 146.515L145.653 148.281L45.6102 243.843L147.922 154.786L172.492 173.884L175.086 175.9L177.631 173.542L259.786 97.4042L279.877 115.93L284.686 120.366L289.875 115.834L366.548 48.8854L379.121 62.6358L390.322 14.6475Z" fill="#0DBF8C"/>
<path d="M391.842 14.8047L342.214 20.7672L354.787 34.5176L286.014 100.416L265.731 83.3767L260.86 79.2876L256.618 83.5988L175.914 165.647L151.232 148.23L149.023 146.671L147.174 148.438L47.1309 243.998L149.443 154.941L174.013 174.039L176.606 176.057L179.15 173.699L261.306 97.5614L281.398 116.085L286.207 120.521L291.395 115.991L368.069 49.0426L380.642 62.7911L391.842 14.8047Z" fill="#05BD88"/>
</g>
<path d="M391.842 14.8057L342.214 20.7682L354.787 34.5186L286.014 100.417L265.731 83.3776L260.86 79.2885L256.618 83.5998L175.914 165.648L151.232 148.231L149.023 146.672L147.174 148.439L47.1308 243.999L149.443 154.942L174.013 174.04L176.606 176.058L179.15 173.7L261.306 97.5624L281.398 116.086L286.206 120.522L291.395 115.992L368.069 49.0436L380.642 62.792L391.842 14.8057Z" fill="#05BD88"/>
<path d="M392.297 14.3496L342.668 20.3141L355.242 34.0646L286.469 99.9605L266.185 82.9236L261.314 78.8345L257.072 83.1458L176.368 165.194L151.686 147.777L149.477 146.218L147.628 147.985L47.5851 243.545L149.897 154.488L174.467 173.586L177.061 175.604L179.604 173.246L261.761 97.1083L281.852 115.632L286.661 120.068L291.85 115.538L368.523 48.5896L381.096 62.338L392.297 14.3496Z" fill="#05BB86"/>
<path d="M392.751 13.8945L343.123 19.8591L355.696 33.6095L286.923 99.5054L266.639 82.4685L261.768 78.3794L257.526 82.6907L176.822 164.739L152.14 147.322L149.931 145.762L148.082 147.528L48.0392 243.09L150.351 154.033L174.921 173.131L177.515 175.149L180.058 172.791L262.215 96.6533L282.306 115.177L287.115 119.613L292.304 115.081L368.977 48.1325L381.55 61.8829L392.751 13.8945Z" fill="#05B983"/>
<path d="M393.205 13.4414L343.577 19.4059L356.15 33.1563L287.377 99.0523L267.094 82.0154L262.223 77.9263L257.98 82.2375L177.277 164.286L152.595 146.869L150.385 145.309L148.536 147.075L48.4935 242.637L150.806 153.58L175.376 172.678L177.969 174.696L180.512 172.336L262.669 96.2001L282.76 114.724L287.569 119.16L292.758 114.628L369.432 47.6794L382.005 61.4298L393.205 13.4414Z" fill="#05B781"/>
<path d="M393.659 12.9873L344.031 18.9518L356.604 32.7022L287.831 98.5982L267.548 81.5613L262.677 77.4722L258.435 81.7835L177.731 163.832L153.049 146.414L150.84 144.855L148.991 146.621L48.9479 242.183L151.26 153.126L175.83 172.224L178.423 174.24L180.969 171.882L263.123 95.744L283.215 114.27L288.023 118.705L293.212 114.174L369.886 47.2253L382.459 60.9757L393.659 12.9873Z" fill="#04B57F"/>
<path d="M394.114 12.5322L344.485 18.4967L357.059 32.2472L288.285 98.1431L268.002 81.1062L263.131 77.0171L258.891 81.3284L178.185 163.377L153.503 145.959L151.294 144.4L149.445 146.166L49.402 241.728L151.714 152.67L176.284 171.769L178.877 173.784L181.423 171.427L263.577 95.289L283.669 113.815L288.478 118.25L293.667 113.719L370.34 46.7702L382.913 60.5206L394.114 12.5322Z" fill="#04B37D"/>
<path d="M394.568 12.0781L344.94 18.0426L357.513 31.7931L288.74 97.689L268.456 80.6521L263.586 76.563L259.345 80.8743L178.639 162.922L153.957 145.505L151.748 143.946L149.899 145.711L49.8563 241.274L152.168 152.216L176.738 171.315L179.332 173.33L181.877 170.973L264.032 94.8349L284.123 113.361L288.932 117.796L294.121 113.265L370.794 46.3161L383.367 60.0665L394.568 12.0781Z" fill="#04B17A"/>
<path d="M395.022 11.624L345.394 17.5885L357.967 31.339L289.194 97.2349L268.911 80.198L264.04 76.1089L259.799 80.4202L179.094 162.468L154.412 145.051L152.202 143.492L150.353 145.257L50.3106 240.82L152.623 151.762L177.193 170.861L179.786 172.876L182.331 170.518L264.486 94.3808L284.577 112.907L289.386 117.342L294.575 112.811L371.249 45.862L383.822 59.6124L395.022 11.624Z" fill="#04AF78"/>
<path d="M395.476 11.1699L345.848 17.1344L358.421 30.8849L289.648 96.7808L269.365 79.7439L264.496 75.6528L260.254 79.9661L179.548 162.014L154.866 144.597L152.657 143.038L150.807 144.803L50.7648 240.366L153.077 151.308L177.647 170.407L180.24 172.422L182.786 170.064L264.94 93.9267L285.032 112.453L289.84 116.888L295.029 112.357L371.703 45.4079L384.276 59.1583L395.476 11.1699Z" fill="#04AD76"/>
<path d="M395.931 10.7148L346.302 16.6794L358.876 30.4298L290.103 96.3257L269.819 79.2888L264.95 75.1977L260.708 79.511L180.002 161.559L155.322 144.142L153.111 142.583L151.262 144.348L51.2191 239.911L153.531 150.853L178.101 169.952L180.695 171.967L183.24 169.609L265.395 93.4716L285.486 111.998L290.295 116.433L295.484 111.902L372.157 44.9528L384.73 58.7032L395.931 10.7148Z" fill="#04AB74"/>
<path d="M396.385 10.2607L346.757 16.2253L359.33 29.9757L290.557 95.8716L270.273 78.8347L265.405 74.7436L261.162 79.0569L180.456 161.105L155.776 143.688L153.565 142.129L151.716 143.894L51.6734 239.456L153.987 150.399L178.557 169.497L181.149 171.513L183.694 169.155L265.849 93.0175L285.94 111.544L290.751 115.979L295.938 111.447L372.611 44.4987L385.185 58.2491L396.385 10.2607Z" fill="#03A971"/>
<path d="M396.839 9.80664L347.211 15.7712L359.784 29.5216L291.011 95.4175L270.728 78.3806L265.859 74.2895L261.616 78.6028L180.911 160.651L156.231 143.234L154.019 141.675L152.17 143.44L52.1275 239.002L154.442 149.945L179.011 169.043L181.603 171.059L184.148 168.701L266.303 92.5634L286.394 111.089L291.205 115.525L296.392 110.993L373.066 44.0446L385.639 57.795L396.839 9.80664Z" fill="#03A76F"/>
<path d="M397.295 9.35156L347.665 15.3161L360.238 29.0645L291.465 94.9624L271.182 77.9255L266.313 73.8344L262.071 78.1477L181.365 160.196L156.685 142.779L154.474 141.22L152.625 142.985L52.5818 238.547L154.896 149.49L179.466 168.588L182.059 170.604L184.603 168.246L266.757 92.1083L286.849 110.634L291.659 115.07L296.846 110.538L373.52 43.5895L386.093 57.3399L397.295 9.35156Z" fill="#03A56D"/>
<path d="M397.75 8.89746L348.12 14.862L360.693 28.6104L291.92 94.5084L271.636 77.4714L266.767 73.3803L262.525 77.6936L181.821 159.742L157.139 142.325L154.928 140.765L153.079 142.531L53.0362 238.093L155.35 149.036L179.92 168.134L182.514 170.15L185.057 167.792L267.212 91.6542L287.303 110.18L292.114 114.614L297.301 110.084L373.974 43.1354L386.547 56.8858L397.75 8.89746Z" fill="#03A36B"/>
<path d="M398.204 8.44336L348.574 14.4079L361.147 28.1563L292.374 94.0542L272.09 77.0173L267.222 72.9262L262.979 77.2395L182.275 159.286L157.593 141.87L155.382 140.309L153.533 142.077L53.4924 237.639L155.804 148.58L180.374 167.68L182.968 169.696L185.511 167.338L267.666 91.2001L287.757 109.726L292.568 114.16L297.757 109.63L374.428 42.6813L387.002 56.4317L398.204 8.44336Z" fill="#03A168"/>
<path d="M398.658 7.98926L349.028 13.9538L361.601 27.7022L292.83 93.6001L272.545 76.5632L267.676 72.4721L263.433 76.7854L182.73 158.832L158.048 141.416L155.836 139.855L153.987 141.623L53.9465 237.185L156.259 148.125L180.829 167.226L183.422 169.241L185.965 166.884L268.12 90.746L288.213 109.272L293.022 113.705L298.211 109.176L374.883 42.2272L387.456 55.9776L398.658 7.98926Z" fill="#039F66"/>
<path d="M399.112 7.53418L349.482 13.4987L362.055 27.2471L293.284 93.1451L272.999 76.1082L268.13 72.0171L263.888 76.3303L183.184 158.377L158.502 140.961L156.291 139.4L154.442 141.167L54.4009 236.73L156.713 147.67L181.283 166.771L183.876 168.786L186.42 166.429L268.574 90.2909L288.668 108.817L293.476 113.25L298.665 108.721L375.337 41.7721L387.91 55.5226L399.112 7.53418Z" fill="#029E64"/>
<path d="M399.567 7.08008L349.937 13.0446L362.51 26.793L293.739 92.691L273.453 75.654L268.584 71.563L264.342 75.8762L183.638 157.922L158.956 140.507L156.745 138.946L154.896 140.713L54.8552 236.274L157.167 147.216L181.737 166.317L184.331 168.332L186.874 165.975L269.031 89.8368L289.122 108.363L293.931 112.796L299.12 108.267L375.791 41.318L388.364 55.0664L399.567 7.08008Z" fill="#029C62"/>
<path d="M400.021 6.62598L350.391 12.5905L362.964 26.3389L294.193 92.2369L273.91 75.2L269.039 71.1088L264.796 75.4221L184.093 157.468L159.411 140.051L157.199 138.492L155.35 140.259L55.3095 235.82L157.622 146.762L182.191 165.863L184.785 167.878L187.328 165.52L269.485 89.3827L289.576 107.909L294.385 112.342L299.574 107.813L376.246 40.8639L388.819 54.6123L400.021 6.62598Z" fill="#029A5F"/>
<path d="M400.475 6.17188L350.845 12.1344L363.418 25.8848L294.647 91.7828L274.364 74.7458L269.493 70.6547L265.25 74.968L184.547 157.014L159.865 139.597L157.655 138.038L155.806 139.805L55.7636 235.366L158.076 146.308L182.646 165.409L185.239 167.424L187.783 165.066L269.939 88.9286L290.03 107.455L294.839 111.888L300.028 107.359L376.7 40.4098L389.273 54.1582L400.475 6.17188Z" fill="#02985D"/>
<path d="M400.929 5.7168L351.299 11.6793L363.874 25.4297L295.101 91.3277L274.818 74.2888L269.947 70.1997L265.705 74.5129L185.001 156.559L160.319 139.142L158.11 137.583L156.261 139.35L56.2179 234.911L158.53 145.853L183.1 164.951L185.693 166.969L188.237 164.611L270.393 88.4735L290.485 106.998L295.294 111.433L300.483 106.903L377.156 39.9547L389.729 53.7032L400.929 5.7168Z" fill="#02965B"/>
<path d="M401.384 5.26074L351.756 11.2253L364.329 24.9757L295.556 90.8736L275.272 73.8347L270.402 69.7456L266.159 74.0569L185.455 156.105L160.773 138.688L158.564 137.129L156.715 138.896L56.6723 234.456L158.984 145.399L183.554 164.497L186.148 166.515L188.691 164.157L270.848 88.0195L290.939 106.543L295.748 110.979L300.937 106.449L377.61 39.5007L390.183 53.2491L401.384 5.26074Z" fill="#029459"/>
<path d="M401.838 4.80566L352.21 10.7702L364.783 24.5206L296.01 90.4186L275.726 73.3796L270.856 69.2905L266.613 73.6018L185.909 155.65L161.227 138.233L159.018 136.674L157.169 138.441L57.1264 234.001L159.438 144.944L184.008 164.042L186.602 166.06L189.145 163.702L271.302 87.5644L291.393 106.088L296.202 110.524L301.391 105.994L378.064 39.0456L390.638 52.794L401.838 4.80566Z" fill="#019256"/>
<path d="M402.292 4.35254L352.664 10.3171L365.237 24.0675L296.464 89.9634L276.181 72.9265L271.31 68.8374L267.068 73.1487L186.364 155.197L161.682 137.78L159.473 136.221L157.623 137.986L57.5807 233.548L159.893 144.491L184.463 163.589L187.056 165.607L189.6 163.249L271.756 87.1113L291.848 105.635L296.656 110.071L301.845 105.539L378.519 38.5905L391.092 52.3409L402.292 4.35254Z" fill="#019054"/>
<path d="M402.747 3.89844L353.118 9.86296L365.692 23.6134L296.919 89.5093L276.635 72.4724L271.764 68.3833L267.522 72.6946L186.818 154.743L162.136 137.326L159.927 135.766L158.078 137.532L58.035 233.094L160.347 144.037L184.917 163.135L187.51 165.151L190.056 162.793L272.211 86.6572L292.302 105.181L297.111 109.617L302.3 105.085L378.973 38.1364L391.546 51.8868L402.747 3.89844Z" fill="#018E52"/>
<path d="M403.201 3.44336L353.573 9.40788L366.146 23.1583L297.373 89.0543L277.089 72.0173L272.218 67.9282L267.978 72.2395L187.272 154.288L162.59 136.87L160.381 135.311L158.532 137.077L58.4892 232.639L160.801 143.582L185.371 162.68L187.965 164.696L190.51 162.338L272.665 86.2021L292.756 104.726L297.565 109.161L302.754 104.63L379.427 37.6813L392 51.4317L403.201 3.44336Z" fill="#018C50"/>
<path d="M403.655 2.98926L354.027 8.95378L366.6 22.7042L297.827 88.6001L277.544 71.5632L272.673 67.4741L268.432 71.7854L187.727 153.834L163.045 136.416L160.835 134.857L158.986 136.623L58.9435 232.185L161.256 143.127L185.825 162.226L188.419 164.241L190.964 161.884L273.119 85.746L293.21 104.272L298.019 108.707L303.208 104.176L379.882 37.2272L392.455 50.9776L403.655 2.98926Z" fill="#018A4D"/>
<path d="M404.109 2.53516L354.481 8.49968L367.054 22.2501L298.281 88.146L277.998 71.1091L273.127 67.02L268.887 71.3313L188.181 153.379L163.499 135.962L161.29 134.403L159.441 136.168L59.3978 231.731L161.71 142.673L186.28 161.772L188.873 163.787L191.419 161.43L273.573 85.2919L293.665 103.818L298.473 108.253L303.662 103.722L380.336 36.7731L392.909 50.5235L404.109 2.53516Z" fill="#01884B"/>
<path d="M404.563 2.08008L354.935 8.0446L367.508 21.795L298.735 87.691L278.452 70.6541L273.581 66.563L269.341 70.8762L188.635 152.924L163.953 135.507L161.744 133.948L159.895 135.713L59.8519 231.276L162.164 142.218L186.734 161.317L189.327 163.332L191.873 160.975L274.027 84.8368L294.119 103.363L298.928 107.798L304.116 103.267L380.79 36.318L393.363 50.0685L404.563 2.08008Z" fill="#008649"/>
<path d="M405.018 1.62598L355.39 7.5905L367.963 21.3409L299.19 87.2369L278.906 70.2L274.035 66.1088L269.795 70.4221L189.089 152.47L164.409 135.053L162.198 133.494L160.349 135.259L60.3062 230.822L162.618 141.764L187.188 160.863L189.782 162.878L192.327 160.52L274.482 84.3827L294.573 102.909L299.382 107.344L304.571 102.813L381.244 35.8639L393.817 49.6144L405.018 1.62598Z" fill="#008447"/>
<path d="M405.472 1.17188L355.844 7.1364L368.417 20.8868L299.644 86.7828L279.361 69.7459L274.492 65.6548L270.249 69.968L189.544 152.016L164.864 134.599L162.652 133.04L160.803 134.805L60.7606 230.368L163.073 141.31L187.643 160.409L190.236 162.424L192.781 160.066L274.936 83.9286L295.027 102.455L299.838 106.89L305.025 102.359L381.699 35.4098L394.272 49.1602L405.472 1.17188Z" fill="#008244"/>
<path d="M405.926 0.717773L356.298 6.68229L368.871 20.4327L300.098 86.3287L279.815 69.2917L274.946 65.2007L270.704 69.5139L189.998 151.562L165.318 134.145L163.106 132.586L161.257 134.351L61.2147 229.913L163.529 140.856L188.099 159.954L190.69 161.97L193.236 159.612L275.39 83.4745L295.482 102.001L300.292 106.436L305.479 101.904L382.153 34.9557L394.726 48.7061L405.926 0.717773Z" fill="#008042"/>
<path d="M405.926 0.717773L356.298 6.68229L368.871 20.4327L300.098 86.3287L279.815 69.2917L274.946 65.2007L270.704 69.5139L189.998 151.562L165.318 134.145L163.107 132.586L161.258 134.351L61.2149 229.913L163.529 140.856L188.099 159.954L190.69 161.97L193.236 159.612L275.39 83.4745L295.482 102.001L300.293 106.436L305.479 101.904L382.153 34.9557L394.726 48.7061L405.926 0.717773Z" fill="white"/>
</svg>
