<svg width="30" height="72" viewBox="0 0 30 72" fill="none" xmlns="http://www.w3.org/2000/svg">
<path fill-rule="evenodd" clip-rule="evenodd" d="M20.7564 68.3804L21.2256 69.5374C21.2256 69.5374 25.3606 68.1749 29.3551 66.5392L28.8431 65.35C28.8431 65.35 26.8507 66.6514 20.7546 68.3679L20.7564 68.3804Z" fill="url(#paint0_radial_161_4850)"/>
<path fill-rule="evenodd" clip-rule="evenodd" d="M20.7563 68.3806C20.7563 68.3806 24.5644 66.1468 28.8448 65.3627C28.8448 65.3627 27.1518 66.711 20.7563 68.3806Z" fill="url(#paint1_radial_161_4850)"/>
<path fill-rule="evenodd" clip-rule="evenodd" d="M20.7537 67.5525L10.1287 44.7275L20.9455 40.6609L28.5426 64.6662C28.5426 64.6662 24.5102 66.7533 20.768 67.5632L20.7537 67.5525Z" fill="url(#paint2_linear_161_4850)"/>
<path style="mix-blend-mode:multiply" opacity="0.51" fill-rule="evenodd" clip-rule="evenodd" d="M20.7537 67.5525L10.1287 44.7275L20.9455 40.6609L28.5426 64.6662C28.5426 64.6662 24.5102 66.7533 20.768 67.5632L20.7537 67.5525Z" fill="url(#paint3_linear_161_4850)"/>
<path fill-rule="evenodd" clip-rule="evenodd" d="M10.1269 44.7148C10.1269 44.7148 16.9994 43.6277 20.9437 40.6482L16.3968 36.041C16.3968 36.041 14.0047 37.6667 10.6797 38.3665L10.1269 44.7148Z" fill="url(#paint4_linear_161_4850)"/>
<path fill-rule="evenodd" clip-rule="evenodd" d="M10.6673 38.3681L6.40623 28.5846C6.40623 28.5846 11.2734 27.5391 13.0846 25.7663L16.3968 36.0409C16.3968 36.0409 13.7798 37.9659 10.6797 38.3664L10.6673 38.3681Z" fill="url(#paint5_linear_161_4850)"/>
<path fill-rule="evenodd" clip-rule="evenodd" d="M6.40623 28.5846C6.40623 28.5846 8.09827 26.5993 13.0846 25.7663C13.0846 25.7663 10.8772 27.9775 6.40623 28.5846Z" fill="url(#paint6_radial_161_4850)"/>
<path fill-rule="evenodd" clip-rule="evenodd" d="M6.59528 28.4815C6.59528 28.4815 -0.943738 3.53763 0.474178 2.76352C1.90634 2.00013 12.9864 25.9714 12.9864 25.9714C12.9864 25.9714 10.1164 27.7284 6.59528 28.4815Z" fill="url(#paint7_linear_161_4850)"/>
<path fill-rule="evenodd" clip-rule="evenodd" d="M20.9998 67.4922L21.384 68.1387C21.384 68.1387 26.1517 66.8397 28.2992 65.5545L28.1931 64.8049C28.1931 64.8049 25.1541 66.3564 20.9998 67.4922Z" fill="url(#paint8_linear_161_4850)"/>
<path style="mix-blend-mode:screen" opacity="0.53" fill-rule="evenodd" clip-rule="evenodd" d="M7.0052 28.4995C7.0052 28.4995 7.49001 28.5073 7.75893 28.6987C8.01537 28.8918 11.7445 37.7947 11.7158 37.9517C11.6871 38.1087 11.129 38.3024 11.129 38.3024C11.129 38.3024 11.7885 38.2855 11.9042 38.3838C12.02 38.4822 13.1581 43.7373 12.8852 43.9671C12.6122 44.1969 11.3535 44.477 11.3535 44.477C11.3535 44.477 12.5745 44.3806 12.788 44.72C13.0015 45.0594 22.1979 67.1434 22.1979 67.1434L23.25 66.7524C23.25 66.7524 14.1451 44.1457 14.2879 43.9853C14.4182 43.8267 15.4382 43.3892 15.4382 43.3892C15.4382 43.3892 14.2757 43.7194 14.0336 43.4478C13.7915 43.1762 12.3533 38.4095 12.5444 38.1403C12.7372 37.8837 13.174 37.7326 13.174 37.7326C13.174 37.7326 12.4003 37.8421 12.226 37.5992C12.0533 37.3687 8.67332 28.684 8.77513 28.5039C8.86445 28.3256 9.36226 27.8856 9.36226 27.8856L7.01591 28.4852L7.0052 28.4995Z" fill="url(#paint9_linear_161_4850)"/>
<path style="mix-blend-mode:screen" fill-rule="evenodd" clip-rule="evenodd" d="M7.55793 28.3583C7.55793 28.3583 1.76814 8.93995 1.60654 8.42757C1.45741 7.91342 1.02824 7.57908 1.02824 7.57908L0.447144 4.55176C0.447144 4.55176 1.67548 7.38555 2.26313 9.37967C2.83124 11.3256 8.50508 27.7655 8.83286 27.923L7.55793 28.3583Z" fill="url(#paint10_linear_161_4850)"/>
<defs>
<radialGradient id="paint0_radial_161_4850" cx="0" cy="0" r="1" gradientUnits="userSpaceOnUse" gradientTransform="translate(24.9082 66.9928) rotate(-20.4581) scale(2.5712 2.574)">
<stop stop-color="#7A7701"/>
<stop offset="0.98" stop-color="#5B5E04"/>
</radialGradient>
<radialGradient id="paint1_radial_161_4850" cx="0" cy="0" r="1" gradientUnits="userSpaceOnUse" gradientTransform="translate(24.7392 66.6117) rotate(-20.4581) scale(2.47037 2.47306)">
<stop offset="0.02" stop-color="#988E00"/>
<stop offset="1" stop-color="#8F8100"/>
</radialGradient>
<linearGradient id="paint2_linear_161_4850" x1="14.5242" y1="56.5916" x2="25.355" y2="52.5574" gradientUnits="userSpaceOnUse">
<stop stop-color="#7A7701"/>
<stop offset="0.62" stop-color="#636403"/>
<stop offset="0.9" stop-color="#7A7701"/>
<stop offset="0.98" stop-color="#5B4504"/>
</linearGradient>
<linearGradient id="paint3_linear_161_4850" x1="24.3707" y1="66.4528" x2="15.5019" y2="42.6791" gradientUnits="userSpaceOnUse">
<stop stop-color="#57004F"/>
<stop offset="1" stop-color="white"/>
</linearGradient>
<linearGradient id="paint4_linear_161_4850" x1="9.17309" y1="42.2252" x2="20.0039" y2="38.191" gradientUnits="userSpaceOnUse">
<stop offset="0.02" stop-color="#BEA700"/>
<stop offset="1" stop-color="#8F8100"/>
</linearGradient>
<linearGradient id="paint5_linear_161_4850" x1="13.5995" y1="37.5707" x2="9.67443" y2="27.0492" gradientUnits="userSpaceOnUse">
<stop stop-color="#6A7204"/>
<stop offset="0.98" stop-color="#5B3B04"/>
</linearGradient>
<radialGradient id="paint6_radial_161_4850" cx="0" cy="0" r="1" gradientUnits="userSpaceOnUse" gradientTransform="translate(9.63888 26.7931) rotate(-20.4581) scale(2.13006 2.13238)">
<stop offset="0.02" stop-color="#988E00"/>
<stop offset="1" stop-color="#8F8100"/>
</radialGradient>
<linearGradient id="paint7_linear_161_4850" x1="2.04305" y1="16.2944" x2="8.48014" y2="13.8968" gradientUnits="userSpaceOnUse">
<stop stop-color="#FAAE0C"/>
<stop offset="0.7" stop-color="#C54536"/>
<stop offset="0.87" stop-color="#FF8631"/>
<stop offset="1" stop-color="#FFD300"/>
</linearGradient>
<linearGradient id="paint8_linear_161_4850" x1="21.1567" y1="67.9346" x2="28.3497" y2="65.2553" gradientUnits="userSpaceOnUse">
<stop stop-color="#575900"/>
<stop offset="0.22" stop-color="#424000"/>
<stop offset="0.46" stop-color="#342E00"/>
<stop offset="0.7" stop-color="#2B2300"/>
<stop offset="0.98" stop-color="#292000"/>
</linearGradient>
<linearGradient id="paint9_linear_161_4850" x1="22.0401" y1="67.2002" x2="7.52633" y2="28.2946" gradientUnits="userSpaceOnUse">
<stop/>
<stop offset="0.1" stop-color="#060600"/>
<stop offset="0.25" stop-color="#191900"/>
<stop offset="0.43" stop-color="#373900"/>
<stop offset="0.62" stop-color="#626400"/>
<stop offset="0.84" stop-color="#989C00"/>
<stop offset="1" stop-color="#C7CC00"/>
</linearGradient>
<linearGradient id="paint10_linear_161_4850" x1="8.36055" y1="28.0918" x2="-0.318626" y2="4.82643" gradientUnits="userSpaceOnUse">
<stop/>
<stop offset="0.1" stop-color="#060600"/>
<stop offset="0.25" stop-color="#191900"/>
<stop offset="0.43" stop-color="#373900"/>
<stop offset="0.62" stop-color="#626400"/>
<stop offset="0.84" stop-color="#989C00"/>
<stop offset="1" stop-color="#C7CC00"/>
</linearGradient>
</defs>
</svg>
