<svg width="919" height="458" viewBox="0 0 919 458" fill="none" xmlns="http://www.w3.org/2000/svg">
<path style="mix-blend-mode:multiply" opacity="0.57" fill-rule="evenodd" clip-rule="evenodd" d="M609.52 347.727C643.079 342.722 744.269 333.175 744.269 333.175V332.296H733.372C733.372 332.296 511.01 347.104 499.166 351.166C498.813 351.293 498.909 351.437 499.39 351.597L498.78 351.549C498.78 351.549 498.78 352.333 500.803 353.452C500.803 353.452 525.695 358.378 711.449 369.284C703.761 370.627 687.68 373.058 670.154 375.632H574.966C546.029 377.407 500.674 382.78 452.703 389.209L319.928 390.248L316.558 390.28L186.655 391.304H186.719L181.552 391.352L174.779 391.4C82.2229 411.453 34.3481 437.966 34.3481 437.966L23.3383 446.122L393.209 457.028C393.209 457.028 424.569 436.751 460.262 423.526H544.794C544.794 423.526 600.645 402.082 665.901 387.434H757.462C757.462 387.434 835.349 377.199 859.984 369.396L859.792 368.66C867.656 363.735 650.494 350.83 609.52 347.743V347.727Z" fill="url(#paint0_linear_161_4089)"/>
<path fill-rule="evenodd" clip-rule="evenodd" d="M681.832 184.684V186.439C681.832 186.439 577.885 207.025 549.861 216.658L539.678 214.888C539.678 214.888 635.139 190.487 681.832 184.684Z" fill="url(#paint1_linear_161_4089)"/>
<path fill-rule="evenodd" clip-rule="evenodd" d="M462.233 223.23C462.233 223.23 462.233 224.812 464.162 227.046C464.162 227.046 473.242 236.984 652.096 258.934L660.422 255.858L462.233 223.245V223.23Z" fill="url(#paint2_linear_161_4089)"/>
<path fill-rule="evenodd" clip-rule="evenodd" d="M695.96 290.981C695.96 290.981 773.115 268.247 781.34 257.454C789.565 246.66 550.731 216.687 546.873 214.381C543.014 212.074 681.832 184.684 681.832 184.684H671.417C671.417 184.684 473.924 214.337 462.61 222.476C454.835 228.061 651.457 255.481 654.924 256.627C658.391 257.787 546.365 290.981 546.365 290.981H695.96Z" fill="url(#paint3_linear_161_4089)"/>
<path fill-rule="evenodd" clip-rule="evenodd" d="M648.426 278.461C648.426 278.461 715.934 255.466 717.907 253.058C719.88 250.65 503.559 221.649 502.239 218.689C500.919 215.73 675.304 184.684 675.304 184.684H675.841C675.841 184.684 507.954 216.484 506.547 218.53C505.14 220.575 720.373 250.954 723.434 252.71C726.494 254.465 655.693 278.91 655.693 278.91L648.411 278.475L648.426 278.461Z" fill="url(#paint4_linear_161_4089)"/>
<path fill-rule="evenodd" clip-rule="evenodd" d="M654.939 271.439C654.939 271.439 676.943 282.697 694.423 295.043H571.706C571.706 295.043 548.947 276.067 520.153 271.439H654.939Z" fill="url(#paint5_linear_161_4089)"/>
<path fill-rule="evenodd" clip-rule="evenodd" d="M491.36 357.731C543.406 319.271 583.122 297.669 654.924 271.454H520.139C444.318 281.218 250.394 345.037 210.649 359.196L491.345 357.731H491.36Z" fill="url(#paint6_linear_161_4089)"/>
<path fill-rule="evenodd" clip-rule="evenodd" d="M411.71 348.692C411.71 348.692 499.614 289.429 582.28 271.439H576.797C576.797 271.439 487.066 289.269 391.852 353.581L411.71 348.692Z" fill="url(#paint7_linear_161_4089)"/>
<path fill-rule="evenodd" clip-rule="evenodd" d="M523.838 271.439C523.838 271.439 409.259 289.269 322.356 338.842H329.769C329.769 338.842 420.994 289.284 527.769 271.439H523.838Z" fill="url(#paint8_linear_161_4089)"/>
<path fill-rule="evenodd" clip-rule="evenodd" d="M462.479 297.654C475.331 313.613 487.24 336.868 491.374 367.305H257.357C257.357 367.305 175.401 315.005 138.049 302.993L462.494 297.654H462.479Z" fill="url(#paint9_linear_161_4089)"/>
<path fill-rule="evenodd" clip-rule="evenodd" d="M0 416.152C0 416.152 49.6814 343.165 138.035 302.993L462.479 297.654C462.479 297.654 407.315 341.627 365.902 420.708L0 416.152Z" fill="url(#paint10_linear_161_4089)"/>
<path fill-rule="evenodd" clip-rule="evenodd" d="M0 416.153L15.2743 436.594L364.147 445.487C364.147 445.487 420.007 335.128 463.814 309.943C463.814 309.943 483.454 330.427 491.36 367.32C491.36 367.32 574.825 300.092 654.924 276.445C654.924 276.445 672.461 280.608 694.408 295.058C694.408 295.058 757.174 275.603 780.702 259.979L781.543 256.772C781.543 256.772 769.75 269.075 695.946 290.212C695.946 290.212 670.822 274.631 654.91 271.44C654.91 271.44 567.369 289.951 494.885 350.883C494.885 350.883 481.09 311.248 462.45 297.655C462.45 297.655 408.853 326.554 360.665 419.91L0 416.153Z" fill="url(#paint11_linear_161_4089)"/>
<g style="mix-blend-mode:multiply" opacity="0.5">
<path fill-rule="evenodd" clip-rule="evenodd" d="M360.694 419.911L364.147 445.488L15.2743 436.594L0 416.153L360.694 419.911Z" fill="#401734"/>
</g>
<path fill-rule="evenodd" clip-rule="evenodd" d="M163.013 417.85C163.013 417.85 214.479 335.258 270.702 300.817L281.131 300.716C281.131 300.716 233.669 333.561 181.159 418.039L163.013 417.85Z" fill="url(#paint12_linear_161_4089)"/>
<path fill-rule="evenodd" clip-rule="evenodd" d="M345.26 419.722C345.26 419.722 382.989 339.118 445.581 298.004H438.676C438.676 298.004 386.993 321.143 331.437 420.332L345.26 419.708V419.722Z" fill="url(#paint13_linear_161_4089)"/>
<path fill-rule="evenodd" clip-rule="evenodd" d="M11.1112 416.153C11.1112 416.153 62.7654 342.411 144.504 302.892L151.162 302.776C151.162 302.776 84.0305 338.392 27.2704 416.951L11.1112 416.139V416.153Z" fill="url(#paint14_linear_161_4089)"/>
<path fill-rule="evenodd" clip-rule="evenodd" d="M493.043 345.965C493.043 345.965 564.975 288.791 647.846 271.439L641.666 271.904C641.666 271.904 560.899 291.503 492.39 342.991L493.043 345.965Z" fill="url(#paint15_linear_161_4089)"/>
<path fill-rule="evenodd" clip-rule="evenodd" d="M690.927 287.209C690.927 287.209 767.603 261.27 770.678 256.294C774.914 249.446 540.418 218.516 540.113 215.136C539.808 211.756 679.003 184.67 679.003 184.67H680.091C680.091 184.67 543.42 212.8 542.898 214.541C542.376 216.296 771.563 248.706 774.827 255.888C776.698 260.008 694.408 289.255 694.408 289.255L690.912 287.195L690.927 287.209Z" fill="url(#paint16_linear_161_4089)"/>
<path fill-rule="evenodd" clip-rule="evenodd" d="M619.879 271.44C619.879 271.44 660.204 257.803 660.422 255.844C660.639 253.886 470.777 225.639 470.109 222.491C469.442 219.343 671.91 184.67 671.91 184.67H672.36C672.36 184.67 473.17 220.126 473.373 222.462C473.707 226.249 661.539 251.202 664.802 255.249C666.499 257.353 627.146 271.44 627.146 271.44H619.893H619.879Z" fill="url(#paint17_linear_161_4089)"/>
<g style="mix-blend-mode:soft-light" opacity="0.8">
<path fill-rule="evenodd" clip-rule="evenodd" d="M520.153 271.439C520.153 271.439 584.21 277.257 654.939 271.439H520.153Z" fill="#FBF9FA"/>
</g>
<g style="mix-blend-mode:soft-light" opacity="0.8">
<path fill-rule="evenodd" clip-rule="evenodd" d="M138.034 303.008L247.899 308.709L462.479 297.654L138.034 303.008Z" fill="#FBF9FA"/>
</g>
<path fill-rule="evenodd" clip-rule="evenodd" d="M0 416.153C0 416.153 220.295 429.37 360.694 419.911L0 416.153Z" fill="url(#paint18_linear_161_4089)"/>
<mask id="mask0_161_4089" style="mask-type:alpha" maskUnits="userSpaceOnUse" x="0" y="184" width="782" height="262">
<path fill-rule="evenodd" clip-rule="evenodd" d="M681.832 184.684V186.439C681.832 186.439 577.885 207.025 549.861 216.658L539.678 214.888C539.678 214.888 635.139 190.487 681.832 184.684Z" fill="url(#paint19_linear_161_4089)"/>
<path fill-rule="evenodd" clip-rule="evenodd" d="M462.233 223.231C462.233 223.231 462.233 224.813 464.162 227.047C464.162 227.047 473.242 236.985 652.096 258.935L660.422 255.859L462.233 223.246V223.231Z" fill="url(#paint20_linear_161_4089)"/>
<path fill-rule="evenodd" clip-rule="evenodd" d="M695.96 290.981C695.96 290.981 773.115 268.247 781.34 257.454C789.565 246.66 550.731 216.687 546.873 214.381C543.014 212.074 681.832 184.684 681.832 184.684H671.417C671.417 184.684 473.924 214.337 462.61 222.476C454.835 228.061 651.457 255.481 654.924 256.627C658.391 257.787 546.365 290.981 546.365 290.981H695.96Z" fill="url(#paint21_linear_161_4089)"/>
<path fill-rule="evenodd" clip-rule="evenodd" d="M648.426 278.461C648.426 278.461 715.934 255.466 717.907 253.058C719.88 250.65 503.559 221.649 502.239 218.689C500.919 215.73 675.304 184.684 675.304 184.684H675.841C675.841 184.684 507.954 216.484 506.547 218.53C505.14 220.575 720.373 250.954 723.434 252.71C726.494 254.465 655.693 278.91 655.693 278.91L648.411 278.475L648.426 278.461Z" fill="url(#paint22_linear_161_4089)"/>
<path fill-rule="evenodd" clip-rule="evenodd" d="M654.939 271.439C654.939 271.439 676.943 282.697 694.423 295.043H571.706C571.706 295.043 548.947 276.067 520.153 271.439H654.939Z" fill="url(#paint23_linear_161_4089)"/>
<path fill-rule="evenodd" clip-rule="evenodd" d="M491.36 357.731C543.406 319.271 583.122 297.669 654.924 271.454H520.139C444.318 281.218 250.394 345.037 210.649 359.196L491.345 357.731H491.36Z" fill="url(#paint24_linear_161_4089)"/>
<path fill-rule="evenodd" clip-rule="evenodd" d="M411.71 348.692C411.71 348.692 499.614 289.429 582.28 271.439H576.797C576.797 271.439 487.066 289.269 391.852 353.581L411.71 348.692Z" fill="url(#paint25_linear_161_4089)"/>
<path fill-rule="evenodd" clip-rule="evenodd" d="M523.838 271.439C523.838 271.439 409.259 289.269 322.356 338.842H329.769C329.769 338.842 420.994 289.284 527.769 271.439H523.838Z" fill="url(#paint26_linear_161_4089)"/>
<path fill-rule="evenodd" clip-rule="evenodd" d="M462.479 297.655C475.331 313.614 487.24 336.869 491.374 367.306H257.357C257.357 367.306 175.401 315.006 138.049 302.994L462.494 297.655H462.479Z" fill="url(#paint27_linear_161_4089)"/>
<path fill-rule="evenodd" clip-rule="evenodd" d="M0 416.153C0 416.153 49.6814 343.166 138.035 302.994L462.479 297.655C462.479 297.655 407.315 341.628 365.902 420.709L0 416.153Z" fill="url(#paint28_linear_161_4089)"/>
<path fill-rule="evenodd" clip-rule="evenodd" d="M0 416.153L15.2743 436.594L364.147 445.487C364.147 445.487 420.007 335.128 463.814 309.943C463.814 309.943 483.454 330.427 491.36 367.32C491.36 367.32 574.825 300.092 654.924 276.445C654.924 276.445 672.461 280.608 694.408 295.058C694.408 295.058 757.174 275.603 780.702 259.979L781.543 256.772C781.543 256.772 769.75 269.075 695.946 290.212C695.946 290.212 670.822 274.631 654.91 271.44C654.91 271.44 567.369 289.951 494.885 350.883C494.885 350.883 481.09 311.248 462.45 297.655C462.45 297.655 408.853 326.554 360.665 419.91L0 416.153Z" fill="url(#paint29_linear_161_4089)"/>
<g style="mix-blend-mode:multiply" opacity="0.5">
<path fill-rule="evenodd" clip-rule="evenodd" d="M360.694 419.911L364.147 445.488L15.2743 436.594L0 416.153L360.694 419.911Z" fill="#401734"/>
</g>
<path fill-rule="evenodd" clip-rule="evenodd" d="M163.013 417.851C163.013 417.851 214.479 335.259 270.702 300.818L281.131 300.717C281.131 300.717 233.669 333.562 181.159 418.04L163.013 417.851Z" fill="url(#paint30_linear_161_4089)"/>
<path fill-rule="evenodd" clip-rule="evenodd" d="M345.26 419.722C345.26 419.722 382.989 339.118 445.581 298.004H438.676C438.676 298.004 386.993 321.143 331.437 420.332L345.26 419.708V419.722Z" fill="url(#paint31_linear_161_4089)"/>
<path fill-rule="evenodd" clip-rule="evenodd" d="M11.1112 416.153C11.1112 416.153 62.7654 342.411 144.504 302.892L151.162 302.776C151.162 302.776 84.0305 338.392 27.2704 416.951L11.1112 416.139V416.153Z" fill="url(#paint32_linear_161_4089)"/>
<path fill-rule="evenodd" clip-rule="evenodd" d="M493.043 345.965C493.043 345.965 564.975 288.791 647.846 271.439L641.666 271.904C641.666 271.904 560.899 291.503 492.39 342.991L493.043 345.965Z" fill="url(#paint33_linear_161_4089)"/>
<path fill-rule="evenodd" clip-rule="evenodd" d="M690.927 287.209C690.927 287.209 767.603 261.27 770.678 256.294C774.914 249.446 540.418 218.516 540.113 215.136C539.808 211.756 679.003 184.67 679.003 184.67H680.091C680.091 184.67 543.42 212.8 542.898 214.541C542.376 216.296 771.563 248.706 774.827 255.888C776.698 260.008 694.408 289.255 694.408 289.255L690.912 287.195L690.927 287.209Z" fill="url(#paint34_linear_161_4089)"/>
<path fill-rule="evenodd" clip-rule="evenodd" d="M619.879 271.44C619.879 271.44 660.204 257.803 660.422 255.844C660.639 253.886 470.777 225.639 470.109 222.491C469.442 219.343 671.91 184.67 671.91 184.67H672.36C672.36 184.67 473.17 220.126 473.373 222.462C473.707 226.249 661.539 251.202 664.802 255.249C666.499 257.353 627.146 271.44 627.146 271.44H619.893H619.879Z" fill="url(#paint35_linear_161_4089)"/>
<g style="mix-blend-mode:soft-light" opacity="0.8">
<path fill-rule="evenodd" clip-rule="evenodd" d="M520.153 271.439C520.153 271.439 584.21 277.257 654.939 271.439H520.153Z" fill="#FBF9FA"/>
</g>
<g style="mix-blend-mode:soft-light" opacity="0.8">
<path fill-rule="evenodd" clip-rule="evenodd" d="M138.034 303.009L247.899 308.71L462.479 297.655L138.034 303.009Z" fill="#FBF9FA"/>
</g>
<path fill-rule="evenodd" clip-rule="evenodd" d="M0 416.153C0 416.153 220.295 429.37 360.694 419.911L0 416.153Z" fill="url(#paint36_linear_161_4089)"/>
</mask>
<g mask="url(#mask0_161_4089)">
<g style="mix-blend-mode:color">
<rect x="-30.6326" y="145.116" width="829.634" height="384.61" fill="url(#paint37_linear_161_4089)"/>
</g>
</g>
<g filter="url(#filter0_f_161_4089)">
<ellipse cx="613.036" cy="166.758" rx="205.431" ry="66.7583" fill="#14110E"/>
</g>
<ellipse opacity="0.5" cx="224.088" cy="369.658" rx="22.5761" ry="4.59883" fill="#14110E"/>
<ellipse opacity="0.5" cx="373.759" cy="321.161" rx="22.5761" ry="4.59883" fill="#14110E"/>
<ellipse opacity="0.5" cx="537.645" cy="299.422" rx="17.5592" ry="4.59883" fill="#14110E"/>
<ellipse opacity="0.5" cx="690.66" cy="270.992" rx="17.5592" ry="4.59883" fill="#14110E"/>
<path fill-rule="evenodd" clip-rule="evenodd" d="M266.498 259.318C266.498 294.754 237.769 355.283 227.73 367.105C224.619 370.774 216.639 366.822 216.639 366.822C216.639 366.822 172.331 307.785 165.989 268.322C157.153 213.421 187.953 184.67 219.621 184.67C247.84 184.67 266.498 219.343 266.498 259.318Z" fill="url(#paint38_linear_161_4089)"/>
<path fill-rule="evenodd" clip-rule="evenodd" d="M275.713 257.032C275.713 296.997 227.73 367.105 227.73 367.105C227.73 367.105 173.513 297.007 173.513 257.032C173.513 217.057 196.388 184.67 224.608 184.67C252.828 184.67 275.703 217.068 275.703 257.032H275.713Z" fill="url(#paint39_linear_161_4089)"/>
<path fill-rule="evenodd" clip-rule="evenodd" d="M164.721 242.249H174.586C174.586 242.249 177.221 222.174 189.71 204.201L180.766 202.089C180.766 202.089 166.965 214.543 164.721 242.249Z" fill="url(#paint40_linear_161_4089)"/>
<path fill-rule="evenodd" clip-rule="evenodd" d="M181.839 219.355C181.839 219.355 179.963 210.667 187.541 207.488C187.541 207.488 187.119 216.197 181.839 219.355Z" fill="white"/>
<g style="mix-blend-mode:multiply" opacity="0.5">
<path fill-rule="evenodd" clip-rule="evenodd" d="M237.129 299.107L230.83 304.005H215.468L217.68 252.61L205.158 245.458L202.329 234.234L225.009 225.198L236.555 278.912L237.129 299.107Z" fill="#AC5C6E"/>
</g>
<path d="M219.263 297.942C220.043 284.932 220.444 273.436 220.444 263.453C220.444 253.47 220.054 245.023 219.263 238.11L214.558 246.906L202.329 234.234L217.853 214.954H223.133L234.787 216.609L237.14 299.107L219.274 297.942H219.263Z" fill="url(#paint41_linear_161_4089)"/>
<path d="M224.542 297.942C225.323 284.932 225.724 273.436 225.724 263.453C225.724 253.47 225.334 245.023 224.542 238.11L219.837 246.906L207.608 234.234L223.133 214.954L240.067 216.609L242.42 299.107L224.553 297.942H224.542Z" fill="url(#paint42_radial_161_4089)"/>
<path fill-rule="evenodd" clip-rule="evenodd" d="M237.129 299.107H242.409L224.597 296.962L219.263 297.942L237.129 299.107Z" fill="#5C001B"/>
<path fill-rule="evenodd" clip-rule="evenodd" d="M214.558 246.894H219.837L207.608 234.233H202.329L214.558 246.894Z" fill="#5C001B"/>
<g style="mix-blend-mode:multiply" opacity="0.5">
<path fill-rule="evenodd" clip-rule="evenodd" d="M220.173 251.26L225.551 252.806C225.551 252.806 225.356 240.983 224.542 238.109L219.989 246.612L220.173 251.26Z" fill="#AC2A41"/>
</g>
<mask id="mask1_161_4089" style="mask-type:alpha" maskUnits="userSpaceOnUse" x="202" y="214" width="41" height="91">
<g style="mix-blend-mode:multiply" opacity="0.5">
<path fill-rule="evenodd" clip-rule="evenodd" d="M237.129 299.107L230.83 304.005H215.468L217.68 252.61L205.158 245.458L202.329 234.234L225.009 225.198L236.555 278.912L237.129 299.107Z" fill="#AC5C6E"/>
</g>
<path d="M219.263 297.942C220.043 284.932 220.444 273.436 220.444 263.453C220.444 253.47 220.054 245.023 219.263 238.11L214.558 246.906L202.329 234.234L217.853 214.954H223.133L234.787 216.609L237.14 299.107L219.274 297.942H219.263Z" fill="url(#paint43_linear_161_4089)"/>
<path d="M224.542 297.942C225.323 284.932 225.724 273.436 225.724 263.453C225.724 253.47 225.334 245.023 224.542 238.11L219.837 246.906L207.608 234.234L223.133 214.954L240.067 216.609L242.42 299.107L224.553 297.942H224.542Z" fill="url(#paint44_radial_161_4089)"/>
<path fill-rule="evenodd" clip-rule="evenodd" d="M237.129 299.107H242.409L224.597 296.962L219.263 297.942L237.129 299.107Z" fill="#5C001B"/>
<path fill-rule="evenodd" clip-rule="evenodd" d="M214.558 246.894H219.837L207.608 234.233H202.329L214.558 246.894Z" fill="#5C001B"/>
<g style="mix-blend-mode:multiply" opacity="0.5">
<path fill-rule="evenodd" clip-rule="evenodd" d="M220.173 251.261L225.551 252.807C225.551 252.807 225.356 240.984 224.542 238.11L219.989 246.613L220.173 251.261Z" fill="#AC2A41"/>
</g>
</mask>
<g mask="url(#mask1_161_4089)">
<g style="mix-blend-mode:color">
<rect x="181.821" y="194.438" width="86.2973" height="128.632" fill="#02995F"/>
</g>
</g>
<path fill-rule="evenodd" clip-rule="evenodd" d="M342.403 226.036C340.192 255.796 360.644 308.437 368.378 319.004C370.78 322.28 377.751 319.463 377.751 319.463C377.751 319.463 418.805 272.651 426.614 239.907C437.482 194.342 413.312 168.264 386.596 166.274C362.793 164.511 344.899 192.469 342.403 226.036Z" fill="url(#paint45_linear_161_4089)"/>
<path fill-rule="evenodd" clip-rule="evenodd" d="M334.777 223.546C332.282 257.113 368.389 319.002 368.389 319.002C368.389 319.002 418.484 263.52 420.978 229.942C423.474 196.375 406.199 167.728 382.395 165.954C358.582 164.192 337.262 189.98 334.777 223.546Z" fill="url(#paint46_linear_161_4089)"/>
<path fill-rule="evenodd" clip-rule="evenodd" d="M429.314 218.078L421.002 217.46C421.002 217.46 420.035 200.429 410.619 184.559L418.294 183.347C418.294 183.347 429.151 194.666 429.314 218.078Z" fill="url(#paint47_linear_161_4089)"/>
<path fill-rule="evenodd" clip-rule="evenodd" d="M416.299 197.781C416.299 197.781 418.425 190.602 412.227 187.463C412.227 187.463 412.044 194.8 416.299 197.781Z" fill="white"/>
<g style="mix-blend-mode:multiply" opacity="0.5">
<path d="M376.251 249.682L389.731 244.908L390.137 260.866L385.75 265.692L365.745 265.057L361.775 262.017L363.534 248.76C377.254 236.425 383.957 227.053 383.643 220.633C383.329 214.213 381.251 210.604 377.419 209.794C376.964 209.701 376.513 209.641 376.08 209.632C372.682 209.511 369.394 211.645 366.213 216.023L364.714 212.879L362.671 199.714C369.764 196.256 375.643 194.607 380.322 194.778C388.148 195.059 392.659 200.351 393.836 210.678C394.125 213.234 394.233 215.737 394.141 218.191C393.683 231.15 387.709 241.648 376.24 249.683L376.251 249.682Z" fill="#AC5C6E"/>
</g>
<path d="M374.752 246.539L390.815 244.768L391.221 260.727L361.787 262.028L362.047 245.626C375.767 233.291 382.47 223.919 382.156 217.499C381.842 211.079 379.764 207.47 375.932 206.66C375.477 206.568 375.026 206.507 374.593 206.499C371.195 206.378 367.907 208.511 364.726 212.889L361.184 196.581C364.128 191.456 371.801 189.888 378.231 191.485C386.86 193.628 391.161 197.219 392.348 207.534C392.636 210.089 392.745 212.593 392.653 215.046C392.195 228.005 386.221 238.504 374.752 246.539Z" fill="url(#paint48_linear_161_4089)"/>
<path d="M385.101 244.115L390.814 244.768L391.221 260.726L361.787 262.027L356.074 261.375L360.632 245.874C360.632 245.874 380.001 230.537 379.838 218.534C379.674 206.53 380.828 204.512 380.828 204.512C380.828 204.512 370.86 204.044 368.867 205.836C366.874 207.629 364.724 212.878 364.724 212.878L359.011 212.225L360.937 201.172C360.937 201.172 378.605 196.373 383.243 199.564C387.883 202.765 389.816 212.335 389.816 212.335C389.816 212.335 369.639 246.099 364.628 247.7L385.1 244.105L385.101 244.115Z" fill="url(#paint49_linear_161_4089)"/>
<path d="M369.038 245.886L385.101 244.115L385.507 260.074L356.074 261.375L356.334 244.973C370.053 232.638 376.757 223.266 376.443 216.846C376.128 210.426 374.05 206.817 370.218 206.007C369.763 205.915 369.312 205.854 368.879 205.846C365.482 205.725 362.193 207.858 359.012 212.236L355.471 195.928C362.563 192.469 368.442 190.82 373.121 190.991C380.947 191.273 385.458 196.565 386.636 206.892C386.924 209.447 387.033 211.95 386.94 214.404C386.482 227.363 380.508 237.862 369.04 245.896L369.038 245.886Z" fill="#AA9B62"/>
<g style="mix-blend-mode:soft-light">
<path d="M386.634 206.88L392.348 207.533C392.348 207.533 392.07 200.309 387.632 196.001L382.799 195.721C382.799 195.721 386.315 199.921 386.634 206.88Z" fill="#FFFFB0"/>
</g>
<path d="M356.074 261.374L361.787 262.027L391.231 260.724L385.518 260.072L356.074 261.374Z" fill="url(#paint50_linear_161_4089)"/>
<mask id="mask2_161_4089" style="mask-type:alpha" maskUnits="userSpaceOnUse" x="355" y="190" width="40" height="76">
<g style="mix-blend-mode:multiply" opacity="0.5">
<path d="M376.25 249.682L389.73 244.908L390.137 260.866L385.75 265.692L365.745 265.057L361.775 262.017L363.534 248.76C377.253 236.425 383.957 227.053 383.643 220.633C383.328 214.213 381.25 210.604 377.418 209.794C376.963 209.701 376.512 209.641 376.079 209.632C372.682 209.511 369.393 211.645 366.212 216.023L364.713 212.879L362.671 199.714C369.763 196.256 375.643 194.607 380.321 194.778C388.147 195.059 392.658 200.351 393.836 210.678C394.124 213.234 394.233 215.737 394.14 218.191C393.682 231.15 387.708 241.648 376.24 249.683L376.25 249.682Z" fill="#AC5C6E"/>
</g>
<path d="M374.752 246.538L390.814 244.767L391.22 260.726L361.787 262.027L362.047 245.625C375.767 233.29 382.47 223.918 382.156 217.498C381.842 211.078 379.764 207.469 375.931 206.659C375.476 206.567 375.025 206.506 374.592 206.498C371.195 206.377 367.906 208.51 364.725 212.888L361.184 196.58C364.127 191.455 371.8 189.887 378.23 191.484C386.86 193.627 391.161 197.218 392.348 207.533C392.636 210.088 392.744 212.592 392.652 215.045C392.194 228.004 386.22 238.503 374.752 246.538Z" fill="url(#paint51_linear_161_4089)"/>
<path d="M385.1 244.115L390.814 244.768L391.22 260.726L361.787 262.027L356.073 261.375L360.631 245.874C360.631 245.874 380.001 230.537 379.837 218.534C379.674 206.53 380.827 204.512 380.827 204.512C380.827 204.512 370.86 204.044 368.867 205.836C366.874 207.629 364.724 212.878 364.724 212.878L359.01 212.225L360.937 201.172C360.937 201.172 378.605 196.373 383.243 199.564C387.883 202.765 389.815 212.335 389.815 212.335C389.815 212.335 369.638 246.099 364.628 247.7L385.099 244.105L385.1 244.115Z" fill="url(#paint52_linear_161_4089)"/>
<path d="M369.038 245.885L385.101 244.114L385.507 260.073L356.073 261.374L356.333 244.972C370.053 232.637 376.757 223.265 376.442 216.845C376.128 210.425 374.05 206.816 370.218 206.006C369.763 205.914 369.312 205.853 368.879 205.845C365.482 205.724 362.193 207.857 359.012 212.235L355.47 195.927C362.563 192.468 368.442 190.819 373.121 190.99C380.947 191.272 385.458 196.564 386.635 206.891C386.924 209.446 387.032 211.949 386.94 214.403C386.482 227.362 380.508 237.861 369.04 245.895L369.038 245.885Z" fill="#FFD328"/>
<g style="mix-blend-mode:soft-light">
<path d="M386.634 206.88L392.347 207.532C392.347 207.532 392.069 200.308 387.632 196L382.799 195.72C382.799 195.72 386.315 199.92 386.634 206.88Z" fill="#FFFFB0"/>
</g>
<path d="M356.073 261.373L361.787 262.026L391.231 260.723L385.517 260.071L356.073 261.373Z" fill="url(#paint53_linear_161_4089)"/>
</mask>
<g mask="url(#mask2_161_4089)">
<g style="mix-blend-mode:color">
<rect x="316.378" y="172.741" width="142" height="172" fill="#14110E"/>
</g>
</g>
<path fill-rule="evenodd" clip-rule="evenodd" d="M509.696 225.643C508.98 248.845 526.612 289.057 532.978 297.008C534.947 299.471 540.273 297.052 540.273 297.052C540.273 297.052 570.571 259.304 575.538 233.605C582.441 197.827 562.806 178.376 542.007 177.727C523.468 177.155 510.512 199.473 509.696 225.643Z" fill="url(#paint54_linear_161_4089)"/>
<path fill-rule="evenodd" clip-rule="evenodd" d="M503.688 223.962C502.882 250.132 532.978 296.996 532.978 296.996C532.978 296.996 569.071 254.432 570.817 226.045C572.428 199.92 557.257 178.196 538.729 177.625C520.19 177.054 504.504 197.792 503.688 223.962Z" fill="url(#paint55_linear_161_4089)"/>
<path fill-rule="evenodd" clip-rule="evenodd" d="M576.892 216.538L570.414 216.336C570.414 216.336 569.094 203.134 561.251 191.118L567.169 189.92C567.169 189.92 575.974 198.352 576.892 216.538Z" fill="url(#paint56_linear_161_4089)"/>
<path fill-rule="evenodd" clip-rule="evenodd" d="M566.118 201.208C566.118 201.208 567.527 195.564 562.616 193.324C562.616 193.324 562.716 199.035 566.118 201.208Z" fill="white"/>
<g style="mix-blend-mode:multiply" opacity="0.5">
<path d="M546.907 229.337C551.304 232.663 553.195 236.817 552.58 241.811C551.964 246.806 550.376 250.602 547.802 253.189C545.744 255.249 542.757 256.145 538.83 255.887C537.89 255.82 536.793 255.675 535.54 255.428C529.935 254.331 525.594 251.363 522.495 246.515L529.678 238.474C533.09 243.29 535.898 245.764 538.08 245.91C539.568 246.011 540.776 245.014 541.705 242.942C542.108 242.035 542.343 241.207 542.387 240.457C542.634 236.851 538.885 233.671 531.49 232.831L531.076 230.356C539.836 229.147 545.397 222.898 545.598 219.852C545.8 216.806 543.842 215.115 539.713 214.757C535.585 214.399 532.531 215.261 529.353 218.475L525.896 207.96C532.62 205.676 537.934 203.425 542.029 204.018C548.205 204.903 551.383 208.397 551.931 214.085C552.177 216.65 552.233 218.923 552.099 220.927C551.752 226.179 550.018 228.99 546.896 229.337H546.907Z" fill="#AC5C6E"/>
</g>
<path d="M547.02 225.697C551.607 229.168 553.587 233.513 552.949 238.743C552.312 243.961 550.645 247.925 547.959 250.635C545.811 252.785 542.69 253.726 538.584 253.446C537.599 253.378 536.447 253.222 535.138 252.964C529.286 251.811 524.733 248.709 521.511 243.647L529.018 235.249C532.587 240.277 535.518 242.864 537.801 243.02C539.356 243.121 540.62 242.091 541.593 239.918C542.018 238.967 542.253 238.104 542.309 237.321C542.555 233.558 538.819 231.24 531.088 230.355L531.613 222.45C540.765 221.184 545.453 218.967 545.666 215.787C545.878 212.607 543.831 210.837 539.512 210.457C535.194 210.087 531.379 211.576 528.067 214.936L525.08 203.357C532.117 200.972 537.655 198.62 541.951 199.236C548.407 200.166 551.73 203.816 552.3 209.762C552.558 212.439 552.614 214.824 552.468 216.918C552.099 222.405 550.287 225.339 547.031 225.708L547.02 225.697Z" fill="url(#paint57_linear_161_4089)"/>
<path d="M524.789 213.458L528.056 214.936C528.056 214.936 530.327 209.964 539.725 209.785C549.123 209.606 548.429 219.774 548.429 219.774L527.809 228.855L531.076 230.334C531.076 230.334 540.676 226.918 543.115 230.334C545.565 233.749 543.585 243.726 543.585 243.726C543.585 243.726 535.686 244.913 530.025 238.922L529.007 235.238L525.74 233.76C525.74 233.76 525.18 244.712 531.703 247.276C538.226 249.841 545.677 247.276 545.677 247.276L551.271 235.619L543.753 224.219L551.271 219.774L549.011 208.274L538.024 204.265C538.024 204.265 525.672 209.83 524.777 213.458H524.789Z" fill="url(#paint58_linear_161_4089)"/>
<path d="M543.753 224.22C548.34 227.691 550.32 232.036 549.682 237.265C549.045 242.483 547.377 246.448 544.692 249.157C542.544 251.308 539.423 252.248 535.317 251.968C534.332 251.901 533.18 251.744 531.871 251.487C526.019 250.333 521.466 247.231 518.244 242.17L525.751 233.771C529.32 238.799 532.251 241.386 534.533 241.543C536.089 241.644 537.353 240.613 538.326 238.441C538.751 237.489 538.986 236.627 539.042 235.843C539.288 232.081 535.552 229.751 527.821 228.878L528.346 220.972C537.498 219.707 542.186 217.49 542.399 214.309C542.611 211.129 540.564 209.36 536.245 208.979C531.927 208.61 528.111 210.099 524.8 213.458L521.813 201.88C528.85 199.494 534.522 198.442 538.841 198.733C545.062 199.147 548.452 202.327 549.022 208.274C549.279 210.95 549.335 213.335 549.19 215.429C548.821 220.916 547.008 223.85 543.753 224.22Z" fill="url(#paint59_radial_161_4089)"/>
<g style="mix-blend-mode:soft-light">
<path d="M545.722 201.163L549.257 202.552C549.257 202.552 551.662 204.78 552.043 208.106L548.888 207.244C548.888 207.244 548.451 204.063 545.733 201.163H545.722Z" fill="#FFF3CC"/>
</g>
<g style="mix-blend-mode:soft-light">
<path d="M549.011 230.882C549.011 230.882 549.593 232.427 549.805 235.787L553.072 236.402C553.072 236.402 553.195 233.446 551.763 231.173L549.011 230.882Z" fill="#FFF3CC"/>
</g>
<mask id="mask3_161_4089" style="mask-type:alpha" maskUnits="userSpaceOnUse" x="518" y="198" width="36" height="58">
<g style="mix-blend-mode:multiply" opacity="0.5">
<path d="M546.907 229.338C551.304 232.664 553.195 236.818 552.58 241.812C551.964 246.807 550.376 250.603 547.802 253.19C545.744 255.25 542.757 256.146 538.83 255.888C537.89 255.821 536.793 255.676 535.54 255.429C529.935 254.332 525.594 251.364 522.495 246.516L529.678 238.475C533.09 243.291 535.898 245.765 538.08 245.911C539.568 246.012 540.776 245.015 541.705 242.943C542.108 242.036 542.343 241.208 542.387 240.458C542.634 236.852 538.885 233.672 531.49 232.832L531.076 230.357C539.836 229.148 545.397 222.899 545.598 219.853C545.8 216.807 543.842 215.116 539.713 214.758C535.585 214.4 532.531 215.262 529.353 218.476L525.896 207.961C532.62 205.677 537.934 203.426 542.029 204.019C548.205 204.904 551.383 208.398 551.931 214.086C552.177 216.651 552.233 218.924 552.099 220.928C551.752 226.18 550.018 228.991 546.896 229.338H546.907Z" fill="#AC5C6E"/>
</g>
<path d="M547.02 225.698C551.607 229.169 553.587 233.514 552.949 238.744C552.312 243.962 550.645 247.926 547.959 250.636C545.811 252.786 542.69 253.727 538.584 253.447C537.599 253.379 536.447 253.223 535.138 252.965C529.286 251.812 524.733 248.71 521.511 243.648L529.018 235.25C532.587 240.278 535.518 242.865 537.801 243.021C539.356 243.122 540.62 242.092 541.593 239.919C542.018 238.968 542.253 238.105 542.309 237.322C542.555 233.559 538.819 231.241 531.088 230.356L531.613 222.451C540.765 221.185 545.453 218.968 545.666 215.788C545.878 212.608 543.831 210.838 539.512 210.458C535.194 210.088 531.379 211.577 528.067 214.937L525.08 203.358C532.117 200.973 537.655 198.621 541.951 199.237C548.407 200.167 551.73 203.817 552.3 209.763C552.558 212.44 552.614 214.825 552.468 216.919C552.099 222.406 550.287 225.34 547.031 225.709L547.02 225.698Z" fill="url(#paint60_linear_161_4089)"/>
<path d="M524.789 213.459L528.056 214.937C528.056 214.937 530.327 209.965 539.725 209.786C549.123 209.607 548.429 219.775 548.429 219.775L527.809 228.856L531.076 230.335C531.076 230.335 540.676 226.919 543.115 230.335C545.565 233.75 543.585 243.727 543.585 243.727C543.585 243.727 535.686 244.914 530.025 238.923L529.007 235.239L525.74 233.761C525.74 233.761 525.18 244.713 531.703 247.277C538.226 249.841 545.677 247.277 545.677 247.277L551.271 235.62L543.753 224.22L551.271 219.775L549.011 208.275L538.024 204.266C538.024 204.266 525.672 209.831 524.777 213.459H524.789Z" fill="url(#paint61_linear_161_4089)"/>
<path d="M543.753 224.221C548.34 227.692 550.32 232.037 549.682 237.266C549.045 242.484 547.377 246.449 544.692 249.158C542.544 251.308 539.423 252.249 535.317 251.969C534.332 251.902 533.18 251.745 531.871 251.488C526.019 250.334 521.466 247.232 518.244 242.171L525.751 233.772C529.32 238.8 532.251 241.387 534.533 241.544C536.089 241.645 537.353 240.614 538.326 238.442C538.751 237.49 538.986 236.628 539.042 235.844C539.288 232.082 535.552 229.752 527.821 228.879L528.346 220.973C537.498 219.708 542.186 217.491 542.399 214.31C542.611 211.13 540.564 209.361 536.245 208.98C531.927 208.61 528.111 210.1 524.8 213.459L521.813 201.88C528.85 199.495 534.522 198.443 538.841 198.734C545.062 199.148 548.452 202.328 549.022 208.275C549.279 210.951 549.335 213.336 549.19 215.43C548.821 220.917 547.008 223.851 543.753 224.221Z" fill="url(#paint62_radial_161_4089)"/>
<g style="mix-blend-mode:soft-light">
<path d="M545.722 201.164L549.257 202.553C549.257 202.553 551.662 204.781 552.043 208.107L548.888 207.245C548.888 207.245 548.451 204.064 545.733 201.164H545.722Z" fill="#FFF3CC"/>
</g>
<g style="mix-blend-mode:soft-light">
<path d="M549.011 230.883C549.011 230.883 549.593 232.428 549.805 235.788L553.072 236.403C553.072 236.403 553.195 233.447 551.763 231.174L549.011 230.883Z" fill="#FFF3CC"/>
</g>
</mask>
<g mask="url(#mask3_161_4089)">
<g style="mix-blend-mode:color">
<rect x="503.129" y="179.241" width="67.8438" height="89.5538" fill="#D9D9D9"/>
</g>
</g>
<path fill-rule="evenodd" clip-rule="evenodd" d="M680.963 217.553C680.424 234.595 685.02 263.967 687.831 269.752C690.462 271.268 694.19 269.713 694.19 269.713C694.19 269.713 708.286 241.719 710.768 222.798C714.237 196.486 705.455 183.006 696.064 182.081C694.958 181.973 691.748 181.884 691.17 182.032C683.694 183.97 681.531 199.724 680.972 217.553H680.963Z" fill="url(#paint63_linear_161_4089)"/>
<path fill-rule="evenodd" clip-rule="evenodd" d="M675.201 216.372C674.593 235.599 687.831 269.752 687.831 269.752C687.831 269.752 704.597 238.177 705.644 217.307C706.621 198.11 699.932 182.297 691.519 182.032C683.106 181.766 675.809 197.155 675.201 216.372Z" fill="url(#paint64_linear_161_4089)"/>
<path fill-rule="evenodd" clip-rule="evenodd" d="M711.535 210.272L705.564 210.184C705.564 210.184 705.086 200.501 701.637 191.744L706.88 190.189C706.88 190.189 711.286 196.93 711.535 210.272Z" fill="url(#paint65_linear_161_4089)"/>
<path fill-rule="evenodd" clip-rule="evenodd" d="M703.74 199.114C703.74 199.114 704.428 194.951 702.225 193.357C702.225 193.357 702.225 197.549 703.74 199.114Z" fill="white"/>
<g style="mix-blend-mode:multiply" opacity="0.5">
<path d="M690.054 198.446L694.171 201.172L693.592 218.352L696.842 224.01L696.234 225.535L693.323 225.928L692.636 239.763H688.688L689.246 225.889L684.123 227.276L682.747 226.174L690.064 198.446H690.054ZM689.934 208.729L686.306 219.424L689.496 218.696L689.934 208.729Z" fill="#AC5C6E"/>
</g>
<path d="M686.964 194.756L690.193 194.894L694.619 197.826L693.593 215.931L696.832 216.069L696.852 224.019L693.712 224.452L693.044 237.922L688.778 238.129L685.538 237.981L686.057 225.288L682.747 226.184L679.507 226.046L680.544 214.415L686.964 194.756Z" fill="url(#paint66_linear_161_4089)"/>
<path d="M690.193 194.894L694.619 197.826L694.001 216.295L696.832 216.068L696.852 224.019L693.722 224.442L693.054 237.922L688.788 238.119L689.336 224.403L682.747 226.184L681.93 216.364L690.193 194.894ZM690.074 205.943L686.176 217.436L689.605 216.649L690.084 205.934L690.074 205.943Z" fill="url(#paint67_linear_161_4089)"/>
<path d="M686.964 194.756L691.39 197.688L690.772 216.157L693.603 215.931L693.622 223.881L690.492 224.304L689.825 237.785L685.558 237.981L686.106 224.265L679.517 226.046L678.7 216.226L686.964 194.756ZM686.834 205.796L682.936 217.289L686.366 216.501L686.844 205.786L686.834 205.796Z" fill="url(#paint68_radial_161_4089)"/>
<path d="M696.852 224.019L693.613 223.881L690.473 224.304L693.712 224.452L696.852 224.019Z" fill="#5C001B"/>
<path d="M686.086 224.265L679.507 226.046L682.747 226.183L686.057 225.288L686.086 224.265Z" fill="#5C001B"/>
<g style="mix-blend-mode:multiply" opacity="0.5">
<path d="M685.149 210.745L686.575 211.69L686.834 205.796L685.149 210.745Z" fill="#AC2A41"/>
</g>
<mask id="mask4_161_4089" style="mask-type:alpha" maskUnits="userSpaceOnUse" x="678" y="194" width="19" height="46">
<g style="mix-blend-mode:multiply" opacity="0.5">
<path d="M690.054 198.446L694.171 201.172L693.592 218.352L696.842 224.01L696.234 225.535L693.323 225.928L692.636 239.763H688.688L689.246 225.889L684.123 227.276L682.747 226.174L690.064 198.446H690.054ZM689.934 208.729L686.306 219.424L689.496 218.696L689.934 208.729Z" fill="#AC5C6E"/>
</g>
<path d="M686.964 194.756L690.193 194.894L694.619 197.826L693.593 215.931L696.832 216.069L696.852 224.019L693.712 224.452L693.044 237.922L688.778 238.129L685.538 237.981L686.057 225.288L682.747 226.184L679.507 226.046L680.544 214.415L686.964 194.756Z" fill="url(#paint69_linear_161_4089)"/>
<path d="M690.193 194.894L694.619 197.826L694.001 216.295L696.832 216.068L696.852 224.019L693.722 224.442L693.054 237.922L688.788 238.119L689.336 224.403L682.747 226.184L681.93 216.364L690.193 194.894ZM690.074 205.943L686.176 217.436L689.605 216.649L690.084 205.934L690.074 205.943Z" fill="url(#paint70_linear_161_4089)"/>
<path d="M686.964 194.756L691.39 197.688L690.772 216.157L693.603 215.931L693.622 223.881L690.492 224.304L689.825 237.785L685.558 237.981L686.106 224.265L679.517 226.046L678.7 216.226L686.964 194.756ZM686.834 205.796L682.936 217.289L686.366 216.501L686.844 205.786L686.834 205.796Z" fill="url(#paint71_radial_161_4089)"/>
<path d="M696.852 224.019L693.613 223.881L690.473 224.304L693.712 224.452L696.852 224.019Z" fill="#5C001B"/>
<path d="M686.086 224.265L679.507 226.046L682.747 226.183L686.057 225.288L686.086 224.265Z" fill="#5C001B"/>
<g style="mix-blend-mode:multiply" opacity="0.5">
<path d="M685.149 210.745L686.575 211.69L686.834 205.796L685.149 210.745Z" fill="#AC2A41"/>
</g>
</mask>
<g mask="url(#mask4_161_4089)">
<g style="mix-blend-mode:color">
<rect x="663.783" y="189.01" width="42.8773" height="53.1895" fill="#D9D9D9"/>
</g>
</g>
<defs>
<filter id="filter0_f_161_4089" x="307.605" y="0" width="610.862" height="333.517" filterUnits="userSpaceOnUse" color-interpolation-filters="sRGB">
<feFlood flood-opacity="0" result="BackgroundImageFix"/>
<feBlend mode="normal" in="SourceGraphic" in2="BackgroundImageFix" result="shape"/>
<feGaussianBlur stdDeviation="50" result="effect1_foregroundBlur_161_4089"/>
</filter>
<linearGradient id="paint0_linear_161_4089" x1="23.3383" y1="394.662" x2="860" y2="394.662" gradientUnits="userSpaceOnUse">
<stop/>
<stop offset="1" stop-color="#14110E"/>
</linearGradient>
<linearGradient id="paint1_linear_161_4089" x1="539.678" y1="200.671" x2="681.832" y2="200.671" gradientUnits="userSpaceOnUse">
<stop stop-color="#754F8D"/>
<stop offset="0.99" stop-color="#8C579F"/>
</linearGradient>
<linearGradient id="paint2_linear_161_4089" x1="462.233" y1="241.089" x2="660.422" y2="241.089" gradientUnits="userSpaceOnUse">
<stop stop-color="#754F8D"/>
<stop offset="0.99" stop-color="#662081"/>
</linearGradient>
<linearGradient id="paint3_linear_161_4089" x1="621.968" y1="290.981" x2="621.968" y2="184.684" gradientUnits="userSpaceOnUse">
<stop stop-color="#9054DD"/>
<stop offset="0.99" stop-color="#A87DCE"/>
</linearGradient>
<linearGradient id="paint4_linear_161_4089" x1="502.239" y1="231.79" x2="723.535" y2="231.79" gradientUnits="userSpaceOnUse">
<stop stop-color="#FFBE45"/>
<stop offset="1" stop-color="#FFD398"/>
</linearGradient>
<linearGradient id="paint5_linear_161_4089" x1="520.153" y1="283.249" x2="694.423" y2="283.249" gradientUnits="userSpaceOnUse">
<stop stop-color="#603082"/>
<stop offset="0.99" stop-color="#2A0E51"/>
</linearGradient>
<linearGradient id="paint6_linear_161_4089" x1="210.664" y1="315.311" x2="654.939" y2="315.311" gradientUnits="userSpaceOnUse">
<stop stop-color="#8656F1"/>
<stop offset="0.99" stop-color="#7C3DCC"/>
</linearGradient>
<linearGradient id="paint7_linear_161_4089" x1="391.852" y1="312.51" x2="582.28" y2="312.51" gradientUnits="userSpaceOnUse">
<stop stop-color="#FFA700"/>
<stop offset="1" stop-color="#FFD328"/>
</linearGradient>
<linearGradient id="paint8_linear_161_4089" x1="425.055" y1="338.842" x2="425.055" y2="271.439" gradientUnits="userSpaceOnUse">
<stop stop-color="#B7A8CE"/>
<stop offset="1" stop-color="#EBD7E3"/>
</linearGradient>
<linearGradient id="paint9_linear_161_4089" x1="138.034" y1="332.487" x2="491.36" y2="332.487" gradientUnits="userSpaceOnUse">
<stop stop-color="#603082"/>
<stop offset="0.99" stop-color="#2A0E51"/>
</linearGradient>
<linearGradient id="paint10_linear_161_4089" x1="231.232" y1="420.708" x2="231.232" y2="297.654" gradientUnits="userSpaceOnUse">
<stop stop-color="#713592"/>
<stop offset="1" stop-color="#6D47D3"/>
</linearGradient>
<linearGradient id="paint11_linear_161_4089" x1="0" y1="351.13" x2="781.557" y2="351.13" gradientUnits="userSpaceOnUse">
<stop stop-color="#331C6C"/>
<stop offset="0.99" stop-color="#662081"/>
</linearGradient>
<linearGradient id="paint12_linear_161_4089" x1="163.013" y1="359.384" x2="281.131" y2="359.384" gradientUnits="userSpaceOnUse">
<stop stop-color="#FF8C00"/>
<stop offset="1" stop-color="#FFD328"/>
</linearGradient>
<linearGradient id="paint13_linear_161_4089" x1="388.501" y1="420.332" x2="388.501" y2="298.004" gradientUnits="userSpaceOnUse">
<stop stop-color="#7C64BB"/>
<stop offset="1" stop-color="#E2C4D6"/>
</linearGradient>
<linearGradient id="paint14_linear_161_4089" x1="81.1294" y1="416.966" x2="81.1294" y2="302.791" gradientUnits="userSpaceOnUse">
<stop stop-color="#7C64BB"/>
<stop offset="1" stop-color="#E2C4D6"/>
</linearGradient>
<linearGradient id="paint15_linear_161_4089" x1="570.125" y1="345.965" x2="570.125" y2="184.684" gradientUnits="userSpaceOnUse">
<stop stop-color="#B7A8CE"/>
<stop offset="1" stop-color="#EBD7E3"/>
</linearGradient>
<linearGradient id="paint16_linear_161_4089" x1="657.492" y1="289.284" x2="657.492" y2="184.684" gradientUnits="userSpaceOnUse">
<stop stop-color="#CABFDB"/>
<stop offset="1" stop-color="#A781FF"/>
</linearGradient>
<linearGradient id="paint17_linear_161_4089" x1="571.227" y1="271.44" x2="571.227" y2="184.684" gradientUnits="userSpaceOnUse">
<stop stop-color="#CABFDB"/>
<stop offset="1" stop-color="#A781FF"/>
</linearGradient>
<linearGradient id="paint18_linear_161_4089" x1="0" y1="419.737" x2="360.694" y2="419.737" gradientUnits="userSpaceOnUse">
<stop stop-color="#331C6C"/>
<stop offset="0.99" stop-color="#662081"/>
</linearGradient>
<linearGradient id="paint19_linear_161_4089" x1="539.678" y1="200.671" x2="681.832" y2="200.671" gradientUnits="userSpaceOnUse">
<stop stop-color="#754F8D"/>
<stop offset="0.99" stop-color="#8C579F"/>
</linearGradient>
<linearGradient id="paint20_linear_161_4089" x1="462.233" y1="241.09" x2="660.422" y2="241.09" gradientUnits="userSpaceOnUse">
<stop stop-color="#754F8D"/>
<stop offset="0.99" stop-color="#662081"/>
</linearGradient>
<linearGradient id="paint21_linear_161_4089" x1="621.968" y1="290.981" x2="621.968" y2="184.684" gradientUnits="userSpaceOnUse">
<stop stop-color="#9054DD"/>
<stop offset="0.99" stop-color="#A87DCE"/>
</linearGradient>
<linearGradient id="paint22_linear_161_4089" x1="502.239" y1="231.79" x2="723.535" y2="231.79" gradientUnits="userSpaceOnUse">
<stop stop-color="#FFBE45"/>
<stop offset="1" stop-color="#FFD398"/>
</linearGradient>
<linearGradient id="paint23_linear_161_4089" x1="520.153" y1="283.249" x2="694.423" y2="283.249" gradientUnits="userSpaceOnUse">
<stop stop-color="#603082"/>
<stop offset="0.99" stop-color="#2A0E51"/>
</linearGradient>
<linearGradient id="paint24_linear_161_4089" x1="210.664" y1="315.311" x2="654.939" y2="315.311" gradientUnits="userSpaceOnUse">
<stop stop-color="#8656F1"/>
<stop offset="0.99" stop-color="#7C3DCC"/>
</linearGradient>
<linearGradient id="paint25_linear_161_4089" x1="391.852" y1="312.51" x2="582.28" y2="312.51" gradientUnits="userSpaceOnUse">
<stop stop-color="#FFA700"/>
<stop offset="1" stop-color="#FFD328"/>
</linearGradient>
<linearGradient id="paint26_linear_161_4089" x1="425.055" y1="338.842" x2="425.055" y2="271.439" gradientUnits="userSpaceOnUse">
<stop stop-color="#B7A8CE"/>
<stop offset="1" stop-color="#EBD7E3"/>
</linearGradient>
<linearGradient id="paint27_linear_161_4089" x1="138.034" y1="332.488" x2="491.36" y2="332.488" gradientUnits="userSpaceOnUse">
<stop stop-color="#603082"/>
<stop offset="0.99" stop-color="#2A0E51"/>
</linearGradient>
<linearGradient id="paint28_linear_161_4089" x1="231.232" y1="420.709" x2="231.232" y2="297.655" gradientUnits="userSpaceOnUse">
<stop stop-color="#713592"/>
<stop offset="1" stop-color="#6D47D3"/>
</linearGradient>
<linearGradient id="paint29_linear_161_4089" x1="0" y1="351.13" x2="781.557" y2="351.13" gradientUnits="userSpaceOnUse">
<stop stop-color="#331C6C"/>
<stop offset="0.99" stop-color="#662081"/>
</linearGradient>
<linearGradient id="paint30_linear_161_4089" x1="163.013" y1="359.385" x2="281.131" y2="359.385" gradientUnits="userSpaceOnUse">
<stop stop-color="#FF8C00"/>
<stop offset="1" stop-color="#FFD328"/>
</linearGradient>
<linearGradient id="paint31_linear_161_4089" x1="388.501" y1="420.332" x2="388.501" y2="298.004" gradientUnits="userSpaceOnUse">
<stop stop-color="#7C64BB"/>
<stop offset="1" stop-color="#E2C4D6"/>
</linearGradient>
<linearGradient id="paint32_linear_161_4089" x1="81.1294" y1="416.966" x2="81.1294" y2="302.791" gradientUnits="userSpaceOnUse">
<stop stop-color="#7C64BB"/>
<stop offset="1" stop-color="#E2C4D6"/>
</linearGradient>
<linearGradient id="paint33_linear_161_4089" x1="570.125" y1="345.965" x2="570.125" y2="184.684" gradientUnits="userSpaceOnUse">
<stop stop-color="#B7A8CE"/>
<stop offset="1" stop-color="#EBD7E3"/>
</linearGradient>
<linearGradient id="paint34_linear_161_4089" x1="657.492" y1="289.284" x2="657.492" y2="184.684" gradientUnits="userSpaceOnUse">
<stop stop-color="#CABFDB"/>
<stop offset="1" stop-color="#A781FF"/>
</linearGradient>
<linearGradient id="paint35_linear_161_4089" x1="571.227" y1="271.44" x2="571.227" y2="184.684" gradientUnits="userSpaceOnUse">
<stop stop-color="#CABFDB"/>
<stop offset="1" stop-color="#A781FF"/>
</linearGradient>
<linearGradient id="paint36_linear_161_4089" x1="0" y1="419.737" x2="360.694" y2="419.737" gradientUnits="userSpaceOnUse">
<stop stop-color="#331C6C"/>
<stop offset="0.99" stop-color="#662081"/>
</linearGradient>
<linearGradient id="paint37_linear_161_4089" x1="691.574" y1="169.58" x2="55.0962" y2="405.068" gradientUnits="userSpaceOnUse">
<stop stop-color="#3C4420"/>
<stop offset="1" stop-color="#037D51"/>
</linearGradient>
<linearGradient id="paint38_linear_161_4089" x1="215.469" y1="368.662" x2="215.469" y2="184.67" gradientUnits="userSpaceOnUse">
<stop offset="0.02" stop-color="#BDAFD2"/>
<stop offset="1" stop-color="#CFC8E3"/>
</linearGradient>
<linearGradient id="paint39_linear_161_4089" x1="249.933" y1="361.825" x2="208.519" y2="187.469" gradientUnits="userSpaceOnUse">
<stop offset="0.02" stop-color="#D6D2EB"/>
<stop offset="1" stop-color="#F2EFFF"/>
</linearGradient>
<linearGradient id="paint40_linear_161_4089" x1="181.319" y1="240.649" x2="172.621" y2="204.032" gradientUnits="userSpaceOnUse">
<stop offset="0.02" stop-color="#D6D2EB"/>
<stop offset="1" stop-color="#F2EFFF"/>
</linearGradient>
<linearGradient id="paint41_linear_161_4089" x1="202.343" y1="257.03" x2="237.176" y2="257.03" gradientUnits="userSpaceOnUse">
<stop stop-color="#C73E27"/>
<stop offset="1" stop-color="#A4152C"/>
</linearGradient>
<radialGradient id="paint42_radial_161_4089" cx="0" cy="0" r="1" gradientUnits="userSpaceOnUse" gradientTransform="translate(237.39 222.531) scale(67.4181 78.7201)">
<stop stop-color="#FF6E27"/>
<stop offset="1" stop-color="#E03347"/>
</radialGradient>
<linearGradient id="paint43_linear_161_4089" x1="202.343" y1="257.03" x2="237.176" y2="257.03" gradientUnits="userSpaceOnUse">
<stop stop-color="#C73E27"/>
<stop offset="1" stop-color="#A4152C"/>
</linearGradient>
<radialGradient id="paint44_radial_161_4089" cx="0" cy="0" r="1" gradientUnits="userSpaceOnUse" gradientTransform="translate(237.39 222.531) scale(67.4181 78.7201)">
<stop stop-color="#FF6E27"/>
<stop offset="1" stop-color="#E03347"/>
</radialGradient>
<linearGradient id="paint45_linear_161_4089" x1="378.596" y1="321.082" x2="390.079" y2="166.53" gradientUnits="userSpaceOnUse">
<stop offset="0.02" stop-color="#BDAFD2"/>
<stop offset="1" stop-color="#CFC8E3"/>
</linearGradient>
<linearGradient id="paint46_linear_161_4089" x1="349.961" y1="313.185" x2="395.508" y2="169.232" gradientUnits="userSpaceOnUse">
<stop offset="0.02" stop-color="#D6D2EB"/>
<stop offset="1" stop-color="#F2EFFF"/>
</linearGradient>
<linearGradient id="paint47_linear_161_4089" x1="415.402" y1="215.693" x2="424.964" y2="185.462" gradientUnits="userSpaceOnUse">
<stop offset="0.02" stop-color="#D6D2EB"/>
<stop offset="1" stop-color="#F2EFFF"/>
</linearGradient>
<linearGradient id="paint48_linear_161_4089" x1="380.801" y1="263.878" x2="359.749" y2="194.066" gradientUnits="userSpaceOnUse">
<stop stop-color="#C93347"/>
<stop offset="1" stop-color="#FF7527"/>
</linearGradient>
<linearGradient id="paint49_linear_161_4089" x1="376.281" y1="262.661" x2="368.084" y2="199.434" gradientUnits="userSpaceOnUse">
<stop stop-color="#C93347"/>
<stop offset="1" stop-color="#FF7527"/>
</linearGradient>
<linearGradient id="paint50_linear_161_4089" x1="356.323" y1="263.297" x2="390.982" y2="258.801" gradientUnits="userSpaceOnUse">
<stop stop-color="#BB152C"/>
<stop offset="1" stop-color="#C73E27"/>
</linearGradient>
<linearGradient id="paint51_linear_161_4089" x1="380.801" y1="263.877" x2="359.749" y2="194.065" gradientUnits="userSpaceOnUse">
<stop stop-color="#C93347"/>
<stop offset="1" stop-color="#FF7527"/>
</linearGradient>
<linearGradient id="paint52_linear_161_4089" x1="376.281" y1="262.661" x2="368.084" y2="199.434" gradientUnits="userSpaceOnUse">
<stop stop-color="#C93347"/>
<stop offset="1" stop-color="#FF7527"/>
</linearGradient>
<linearGradient id="paint53_linear_161_4089" x1="356.323" y1="263.296" x2="390.981" y2="258.8" gradientUnits="userSpaceOnUse">
<stop stop-color="#BB152C"/>
<stop offset="1" stop-color="#C73E27"/>
</linearGradient>
<linearGradient id="paint54_linear_161_4089" x1="540.993" y1="298.277" x2="544.74" y2="177.811" gradientUnits="userSpaceOnUse">
<stop offset="0.02" stop-color="#BDAFD2"/>
<stop offset="1" stop-color="#CFC8E3"/>
</linearGradient>
<linearGradient id="paint55_linear_161_4089" x1="518.454" y1="293.082" x2="549.045" y2="179.726" gradientUnits="userSpaceOnUse">
<stop offset="0.02" stop-color="#D6D2EB"/>
<stop offset="1" stop-color="#F2EFFF"/>
</linearGradient>
<linearGradient id="paint56_linear_161_4089" x1="566.028" y1="215.152" x2="572.453" y2="191.346" gradientUnits="userSpaceOnUse">
<stop offset="0.02" stop-color="#D6D2EB"/>
<stop offset="1" stop-color="#F2EFFF"/>
</linearGradient>
<linearGradient id="paint57_linear_161_4089" x1="521.511" y1="226.313" x2="553.072" y2="226.313" gradientUnits="userSpaceOnUse">
<stop stop-color="#003ABA"/>
<stop offset="0.99" stop-color="#3B7CFF"/>
</linearGradient>
<linearGradient id="paint58_linear_161_4089" x1="524.789" y1="226.347" x2="551.271" y2="226.347" gradientUnits="userSpaceOnUse">
<stop stop-color="#003ABA"/>
<stop offset="0.99" stop-color="#3B7CFF"/>
</linearGradient>
<radialGradient id="paint59_radial_161_4089" cx="0" cy="0" r="1" gradientUnits="userSpaceOnUse" gradientTransform="translate(536.324 201.891) scale(49.0153 49.0585)">
<stop stop-color="#00E0FF"/>
<stop offset="0.99" stop-color="#1F84FF"/>
</radialGradient>
<linearGradient id="paint60_linear_161_4089" x1="521.511" y1="226.314" x2="553.072" y2="226.314" gradientUnits="userSpaceOnUse">
<stop stop-color="#003ABA"/>
<stop offset="0.99" stop-color="#3B7CFF"/>
</linearGradient>
<linearGradient id="paint61_linear_161_4089" x1="524.789" y1="226.348" x2="551.271" y2="226.348" gradientUnits="userSpaceOnUse">
<stop stop-color="#003ABA"/>
<stop offset="0.99" stop-color="#3B7CFF"/>
</linearGradient>
<radialGradient id="paint62_radial_161_4089" cx="0" cy="0" r="1" gradientUnits="userSpaceOnUse" gradientTransform="translate(536.324 201.892) scale(49.0153 49.0585)">
<stop stop-color="#00E0FF"/>
<stop offset="0.99" stop-color="#1F84FF"/>
</radialGradient>
<linearGradient id="paint63_linear_161_4089" x1="694.769" y1="270.562" x2="697.483" y2="182.085" gradientUnits="userSpaceOnUse">
<stop offset="0.02" stop-color="#BDAFD2"/>
<stop offset="1" stop-color="#CFC8E3"/>
</linearGradient>
<linearGradient id="paint64_linear_161_4089" x1="681.509" y1="267.024" x2="713.477" y2="190.629" gradientUnits="userSpaceOnUse">
<stop offset="0.02" stop-color="#D6D2EB"/>
<stop offset="1" stop-color="#F2EFFF"/>
</linearGradient>
<linearGradient id="paint65_linear_161_4089" x1="705.26" y1="209.967" x2="712.579" y2="192.48" gradientUnits="userSpaceOnUse">
<stop offset="0.02" stop-color="#D6D2EB"/>
<stop offset="1" stop-color="#F2EFFF"/>
</linearGradient>
<linearGradient id="paint66_linear_161_4089" x1="679.681" y1="216.303" x2="696.983" y2="216.615" gradientUnits="userSpaceOnUse">
<stop stop-color="#C73E27"/>
<stop offset="1" stop-color="#A4152C"/>
</linearGradient>
<linearGradient id="paint67_linear_161_4089" x1="681.923" y1="216.382" x2="678.205" y2="216.315" gradientUnits="userSpaceOnUse">
<stop stop-color="#C73E27"/>
<stop offset="1" stop-color="#A4152C"/>
</linearGradient>
<radialGradient id="paint68_radial_161_4089" cx="0" cy="0" r="1" gradientUnits="userSpaceOnUse" gradientTransform="translate(688.719 201.061) rotate(1.00684) scale(21.322 21.0471)">
<stop stop-color="#FF6E27"/>
<stop offset="1" stop-color="#E03347"/>
</radialGradient>
<linearGradient id="paint69_linear_161_4089" x1="679.681" y1="216.303" x2="696.983" y2="216.615" gradientUnits="userSpaceOnUse">
<stop stop-color="#C73E27"/>
<stop offset="1" stop-color="#A4152C"/>
</linearGradient>
<linearGradient id="paint70_linear_161_4089" x1="681.923" y1="216.382" x2="678.205" y2="216.315" gradientUnits="userSpaceOnUse">
<stop stop-color="#C73E27"/>
<stop offset="1" stop-color="#A4152C"/>
</linearGradient>
<radialGradient id="paint71_radial_161_4089" cx="0" cy="0" r="1" gradientUnits="userSpaceOnUse" gradientTransform="translate(688.719 201.061) rotate(1.00684) scale(21.322 21.0471)">
<stop stop-color="#FF6E27"/>
<stop offset="1" stop-color="#E03347"/>
</radialGradient>
</defs>
</svg>
