<svg width="18" height="18" viewBox="0 0 18 18" fill="none" xmlns="http://www.w3.org/2000/svg">
<g clip-path="url(#clip0_518_9112)">
<circle cx="9" cy="9" r="9" fill="#1F1C1C"/>
<path d="M9 7.29712L10.4919 8.78904L9 10.281L7.50808 8.78904L9 7.29712Z" fill="#FFCF15"/>
<path d="M4.78015 7.3175L6.27207 8.80942L4.78015 10.3013L3.28823 8.80942L4.78015 7.3175Z" fill="#FFCF15"/>
<path d="M8.91479 3.26807L10.4067 4.75998L6.9753 8.19139L5.48338 6.69948L8.91479 3.26807Z" fill="#FFCF15"/>
<path d="M10.8989 8.21167L12.3908 6.71975L8.95937 3.28834L7.46745 4.78026L10.8989 8.21167Z" fill="#FFCF15"/>
<path d="M8.95935 14.5413L7.46743 13.0493L10.8988 9.61793L12.3908 11.1098L8.95935 14.5413Z" fill="#FFCF15"/>
<path d="M6.97528 9.59766L5.48336 11.0896L8.91477 14.521L10.4067 13.0291L6.97528 9.59766Z" fill="#FFCF15"/>
<path d="M13.2197 7.3175L14.7116 8.80942L13.2197 10.3013L11.7278 8.80942L13.2197 7.3175Z" fill="#FFCF15"/>
</g>
<defs>
<clipPath id="clip0_518_9112">
<rect width="18" height="18" fill="white"/>
</clipPath>
</defs>
</svg>
