<svg width="69" height="44" viewBox="0 0 69 44" fill="none" xmlns="http://www.w3.org/2000/svg">
<mask id="path-1-outside-1_592_94" maskUnits="userSpaceOnUse" x="0.727051" y="-0.0159988" width="68" height="44" fill="black">
<rect fill="white" x="0.727051" y="-0.0159988" width="68" height="44"/>
<path d="M12.3611 21.22L11.9211 21.242C11.8111 21.242 11.6791 21.242 11.5691 21.242C8.44505 21.242 6.24505 19.592 5.29905 17.128C4.90305 16.006 4.72705 14.774 4.72705 13.586C4.72705 9.824 6.46505 6.766 11.2831 6.348L11.7451 6.304L11.8551 8.878L11.4371 8.9C10.9971 8.922 10.5791 9.054 10.2051 9.296C8.77505 10.154 8.31305 12.024 8.31305 13.608C8.31305 15.522 8.99505 17.502 10.7771 18.448C11.1071 18.602 11.5471 18.756 11.8331 18.756H12.2291L12.3611 21.22Z"/>
<path d="M17.591 20.89C13.631 20.89 12.311 17.018 12.311 13.586C12.311 10.946 13.037 6.282 17.591 6.282C22.277 6.282 22.893 10.858 22.893 13.586C22.893 16.116 21.925 20.89 17.591 20.89ZM16.007 14.532C16.007 15.456 16.095 18.272 17.437 18.272C19.109 18.272 19.197 14.048 19.197 12.948C19.197 12.068 19.065 9.12 17.811 9.12C16.227 9.12 16.007 13.498 16.007 14.532Z"/>
<path d="M23.2681 20.142L25.0501 5.49L27.8441 5.6L29.4941 12.332L31.5181 5.226L35.2581 5.16L35.8961 20.912H32.3541L32.1781 10.88L30.2641 19.482L28.2841 19.372L26.8981 12.2L25.9741 20.076L23.2681 20.142Z"/>
<path d="M37.455 20.978L37.147 5.468H40.535L40.821 20.978H37.455Z"/>
<path d="M42.6148 20.384L42.1528 6.92L45.6288 6.568L48.6208 13.19L48.3568 4.984L51.9428 5.028L51.6348 19.746L48.6648 20.274L45.4968 12.772L45.8268 20.208L42.6148 20.384Z"/>
<path d="M57.1201 14.774L57.23 11.98L63.236 12.552V12.904C63.236 16.116 62.0701 20.868 58.0661 20.868C58.0001 20.868 57.9121 20.868 57.8241 20.868C56.9881 20.802 56.2621 20.45 55.6681 20.032C53.5121 18.514 52.8521 15.83 52.8521 13.652C52.8521 12.486 53.05 11.276 53.424 10.176C54.15 8.152 55.8221 5.886 58.7481 5.886C60.4641 5.886 62.4221 6.722 63.1261 8.24L63.2581 8.526L60.9041 9.846L60.6621 9.516C60.3541 9.098 59.8481 8.834 59.2761 8.834C56.9001 8.834 56.438 12.046 56.438 13.85C56.438 15.016 56.7461 17.634 58.3301 17.634C59.2761 17.634 59.6501 15.764 59.7601 15.038L57.1201 14.774Z"/>
<path d="M13.3868 37.404L15.0368 35.842L15.3008 36.348C15.4768 36.678 15.8948 36.92 16.3568 36.92C17.2368 36.92 17.7648 36.172 17.7648 35.292C17.7648 34.632 17.5448 34.148 17.1708 33.708C16.9728 33.488 16.7308 33.29 16.5108 33.092C14.7288 31.75 13.3208 30.672 13.3208 28.164C13.3208 26.36 14.8828 24.534 17.1708 24.534C18.2488 24.534 19.7888 25.084 20.1848 26.206L20.2728 26.426L20.0748 26.58C19.6788 26.91 19.2608 27.24 18.8208 27.57L18.4248 27.856L18.1608 27.46C18.0068 27.218 17.8088 27.108 17.5668 27.108C16.8628 27.108 16.4888 27.592 16.4888 28.296C16.4888 28.912 16.7088 29.154 17.1268 29.572C17.3688 29.77 17.5888 29.99 17.8088 30.144C18.1388 30.43 18.4688 30.672 18.7548 30.958C20.0968 32.124 20.9768 33.18 20.9768 35.094C20.9768 37.14 19.5248 39.626 16.6208 39.626C15.2568 39.626 13.8928 38.746 13.4748 37.602L13.3868 37.404Z"/>
<path d="M27.1516 39.89C23.1916 39.89 21.8716 36.018 21.8716 32.586C21.8716 29.946 22.5976 25.282 27.1516 25.282C31.8376 25.282 32.4536 29.858 32.4536 32.586C32.4536 35.116 31.4856 39.89 27.1516 39.89ZM25.5676 33.532C25.5676 34.456 25.6556 37.272 26.9976 37.272C28.6696 37.272 28.7576 33.048 28.7576 31.948C28.7576 31.068 28.6256 28.12 27.3716 28.12C25.7876 28.12 25.5676 32.498 25.5676 33.532Z"/>
<path d="M38.6457 39.89C34.6857 39.89 33.3657 36.018 33.3657 32.586C33.3657 29.946 34.0917 25.282 38.6457 25.282C43.3317 25.282 43.9477 29.858 43.9477 32.586C43.9477 35.116 42.9797 39.89 38.6457 39.89ZM37.0617 33.532C37.0617 34.456 37.1497 37.272 38.4917 37.272C40.1637 37.272 40.2517 33.048 40.2517 31.948C40.2517 31.068 40.1197 28.12 38.8657 28.12C37.2817 28.12 37.0617 32.498 37.0617 33.532Z"/>
<path d="M45.3219 39.384L44.8599 25.92L48.3359 25.568L51.3279 32.19L51.0639 23.984L54.6499 24.028L54.3419 38.746L51.3719 39.274L48.2039 31.772L48.5339 39.208L45.3219 39.384Z"/>
</mask>
<path d="M12.3611 21.22L11.9211 21.242C11.8111 21.242 11.6791 21.242 11.5691 21.242C8.44505 21.242 6.24505 19.592 5.29905 17.128C4.90305 16.006 4.72705 14.774 4.72705 13.586C4.72705 9.824 6.46505 6.766 11.2831 6.348L11.7451 6.304L11.8551 8.878L11.4371 8.9C10.9971 8.922 10.5791 9.054 10.2051 9.296C8.77505 10.154 8.31305 12.024 8.31305 13.608C8.31305 15.522 8.99505 17.502 10.7771 18.448C11.1071 18.602 11.5471 18.756 11.8331 18.756H12.2291L12.3611 21.22Z" fill="#368C58"/>
<path d="M17.591 20.89C13.631 20.89 12.311 17.018 12.311 13.586C12.311 10.946 13.037 6.282 17.591 6.282C22.277 6.282 22.893 10.858 22.893 13.586C22.893 16.116 21.925 20.89 17.591 20.89ZM16.007 14.532C16.007 15.456 16.095 18.272 17.437 18.272C19.109 18.272 19.197 14.048 19.197 12.948C19.197 12.068 19.065 9.12 17.811 9.12C16.227 9.12 16.007 13.498 16.007 14.532Z" fill="#368C58"/>
<path d="M23.2681 20.142L25.0501 5.49L27.8441 5.6L29.4941 12.332L31.5181 5.226L35.2581 5.16L35.8961 20.912H32.3541L32.1781 10.88L30.2641 19.482L28.2841 19.372L26.8981 12.2L25.9741 20.076L23.2681 20.142Z" fill="#368C58"/>
<path d="M37.455 20.978L37.147 5.468H40.535L40.821 20.978H37.455Z" fill="#368C58"/>
<path d="M42.6148 20.384L42.1528 6.92L45.6288 6.568L48.6208 13.19L48.3568 4.984L51.9428 5.028L51.6348 19.746L48.6648 20.274L45.4968 12.772L45.8268 20.208L42.6148 20.384Z" fill="#368C58"/>
<path d="M57.1201 14.774L57.23 11.98L63.236 12.552V12.904C63.236 16.116 62.0701 20.868 58.0661 20.868C58.0001 20.868 57.9121 20.868 57.8241 20.868C56.9881 20.802 56.2621 20.45 55.6681 20.032C53.5121 18.514 52.8521 15.83 52.8521 13.652C52.8521 12.486 53.05 11.276 53.424 10.176C54.15 8.152 55.8221 5.886 58.7481 5.886C60.4641 5.886 62.4221 6.722 63.1261 8.24L63.2581 8.526L60.9041 9.846L60.6621 9.516C60.3541 9.098 59.8481 8.834 59.2761 8.834C56.9001 8.834 56.438 12.046 56.438 13.85C56.438 15.016 56.7461 17.634 58.3301 17.634C59.2761 17.634 59.6501 15.764 59.7601 15.038L57.1201 14.774Z" fill="#368C58"/>
<path d="M13.3868 37.404L15.0368 35.842L15.3008 36.348C15.4768 36.678 15.8948 36.92 16.3568 36.92C17.2368 36.92 17.7648 36.172 17.7648 35.292C17.7648 34.632 17.5448 34.148 17.1708 33.708C16.9728 33.488 16.7308 33.29 16.5108 33.092C14.7288 31.75 13.3208 30.672 13.3208 28.164C13.3208 26.36 14.8828 24.534 17.1708 24.534C18.2488 24.534 19.7888 25.084 20.1848 26.206L20.2728 26.426L20.0748 26.58C19.6788 26.91 19.2608 27.24 18.8208 27.57L18.4248 27.856L18.1608 27.46C18.0068 27.218 17.8088 27.108 17.5668 27.108C16.8628 27.108 16.4888 27.592 16.4888 28.296C16.4888 28.912 16.7088 29.154 17.1268 29.572C17.3688 29.77 17.5888 29.99 17.8088 30.144C18.1388 30.43 18.4688 30.672 18.7548 30.958C20.0968 32.124 20.9768 33.18 20.9768 35.094C20.9768 37.14 19.5248 39.626 16.6208 39.626C15.2568 39.626 13.8928 38.746 13.4748 37.602L13.3868 37.404Z" fill="#368C58"/>
<path d="M27.1516 39.89C23.1916 39.89 21.8716 36.018 21.8716 32.586C21.8716 29.946 22.5976 25.282 27.1516 25.282C31.8376 25.282 32.4536 29.858 32.4536 32.586C32.4536 35.116 31.4856 39.89 27.1516 39.89ZM25.5676 33.532C25.5676 34.456 25.6556 37.272 26.9976 37.272C28.6696 37.272 28.7576 33.048 28.7576 31.948C28.7576 31.068 28.6256 28.12 27.3716 28.12C25.7876 28.12 25.5676 32.498 25.5676 33.532Z" fill="#368C58"/>
<path d="M38.6457 39.89C34.6857 39.89 33.3657 36.018 33.3657 32.586C33.3657 29.946 34.0917 25.282 38.6457 25.282C43.3317 25.282 43.9477 29.858 43.9477 32.586C43.9477 35.116 42.9797 39.89 38.6457 39.89ZM37.0617 33.532C37.0617 34.456 37.1497 37.272 38.4917 37.272C40.1637 37.272 40.2517 33.048 40.2517 31.948C40.2517 31.068 40.1197 28.12 38.8657 28.12C37.2817 28.12 37.0617 32.498 37.0617 33.532Z" fill="#368C58"/>
<path d="M45.3219 39.384L44.8599 25.92L48.3359 25.568L51.3279 32.19L51.0639 23.984L54.6499 24.028L54.3419 38.746L51.3719 39.274L48.2039 31.772L48.5339 39.208L45.3219 39.384Z" fill="#368C58"/>
<path d="M12.3611 21.22L11.9211 21.242C11.8111 21.242 11.6791 21.242 11.5691 21.242C8.44505 21.242 6.24505 19.592 5.29905 17.128C4.90305 16.006 4.72705 14.774 4.72705 13.586C4.72705 9.824 6.46505 6.766 11.2831 6.348L11.7451 6.304L11.8551 8.878L11.4371 8.9C10.9971 8.922 10.5791 9.054 10.2051 9.296C8.77505 10.154 8.31305 12.024 8.31305 13.608C8.31305 15.522 8.99505 17.502 10.7771 18.448C11.1071 18.602 11.5471 18.756 11.8331 18.756H12.2291L12.3611 21.22Z" stroke="white" stroke-width="8" mask="url(#path-1-outside-1_592_94)"/>
<path d="M17.591 20.89C13.631 20.89 12.311 17.018 12.311 13.586C12.311 10.946 13.037 6.282 17.591 6.282C22.277 6.282 22.893 10.858 22.893 13.586C22.893 16.116 21.925 20.89 17.591 20.89ZM16.007 14.532C16.007 15.456 16.095 18.272 17.437 18.272C19.109 18.272 19.197 14.048 19.197 12.948C19.197 12.068 19.065 9.12 17.811 9.12C16.227 9.12 16.007 13.498 16.007 14.532Z" stroke="white" stroke-width="8" mask="url(#path-1-outside-1_592_94)"/>
<path d="M23.2681 20.142L25.0501 5.49L27.8441 5.6L29.4941 12.332L31.5181 5.226L35.2581 5.16L35.8961 20.912H32.3541L32.1781 10.88L30.2641 19.482L28.2841 19.372L26.8981 12.2L25.9741 20.076L23.2681 20.142Z" stroke="white" stroke-width="8" mask="url(#path-1-outside-1_592_94)"/>
<path d="M37.455 20.978L37.147 5.468H40.535L40.821 20.978H37.455Z" stroke="white" stroke-width="8" mask="url(#path-1-outside-1_592_94)"/>
<path d="M42.6148 20.384L42.1528 6.92L45.6288 6.568L48.6208 13.19L48.3568 4.984L51.9428 5.028L51.6348 19.746L48.6648 20.274L45.4968 12.772L45.8268 20.208L42.6148 20.384Z" stroke="white" stroke-width="8" mask="url(#path-1-outside-1_592_94)"/>
<path d="M57.1201 14.774L57.23 11.98L63.236 12.552V12.904C63.236 16.116 62.0701 20.868 58.0661 20.868C58.0001 20.868 57.9121 20.868 57.8241 20.868C56.9881 20.802 56.2621 20.45 55.6681 20.032C53.5121 18.514 52.8521 15.83 52.8521 13.652C52.8521 12.486 53.05 11.276 53.424 10.176C54.15 8.152 55.8221 5.886 58.7481 5.886C60.4641 5.886 62.4221 6.722 63.1261 8.24L63.2581 8.526L60.9041 9.846L60.6621 9.516C60.3541 9.098 59.8481 8.834 59.2761 8.834C56.9001 8.834 56.438 12.046 56.438 13.85C56.438 15.016 56.7461 17.634 58.3301 17.634C59.2761 17.634 59.6501 15.764 59.7601 15.038L57.1201 14.774Z" stroke="white" stroke-width="8" mask="url(#path-1-outside-1_592_94)"/>
<path d="M13.3868 37.404L15.0368 35.842L15.3008 36.348C15.4768 36.678 15.8948 36.92 16.3568 36.92C17.2368 36.92 17.7648 36.172 17.7648 35.292C17.7648 34.632 17.5448 34.148 17.1708 33.708C16.9728 33.488 16.7308 33.29 16.5108 33.092C14.7288 31.75 13.3208 30.672 13.3208 28.164C13.3208 26.36 14.8828 24.534 17.1708 24.534C18.2488 24.534 19.7888 25.084 20.1848 26.206L20.2728 26.426L20.0748 26.58C19.6788 26.91 19.2608 27.24 18.8208 27.57L18.4248 27.856L18.1608 27.46C18.0068 27.218 17.8088 27.108 17.5668 27.108C16.8628 27.108 16.4888 27.592 16.4888 28.296C16.4888 28.912 16.7088 29.154 17.1268 29.572C17.3688 29.77 17.5888 29.99 17.8088 30.144C18.1388 30.43 18.4688 30.672 18.7548 30.958C20.0968 32.124 20.9768 33.18 20.9768 35.094C20.9768 37.14 19.5248 39.626 16.6208 39.626C15.2568 39.626 13.8928 38.746 13.4748 37.602L13.3868 37.404Z" stroke="white" stroke-width="8" mask="url(#path-1-outside-1_592_94)"/>
<path d="M27.1516 39.89C23.1916 39.89 21.8716 36.018 21.8716 32.586C21.8716 29.946 22.5976 25.282 27.1516 25.282C31.8376 25.282 32.4536 29.858 32.4536 32.586C32.4536 35.116 31.4856 39.89 27.1516 39.89ZM25.5676 33.532C25.5676 34.456 25.6556 37.272 26.9976 37.272C28.6696 37.272 28.7576 33.048 28.7576 31.948C28.7576 31.068 28.6256 28.12 27.3716 28.12C25.7876 28.12 25.5676 32.498 25.5676 33.532Z" stroke="white" stroke-width="8" mask="url(#path-1-outside-1_592_94)"/>
<path d="M38.6457 39.89C34.6857 39.89 33.3657 36.018 33.3657 32.586C33.3657 29.946 34.0917 25.282 38.6457 25.282C43.3317 25.282 43.9477 29.858 43.9477 32.586C43.9477 35.116 42.9797 39.89 38.6457 39.89ZM37.0617 33.532C37.0617 34.456 37.1497 37.272 38.4917 37.272C40.1637 37.272 40.2517 33.048 40.2517 31.948C40.2517 31.068 40.1197 28.12 38.8657 28.12C37.2817 28.12 37.0617 32.498 37.0617 33.532Z" stroke="white" stroke-width="8" mask="url(#path-1-outside-1_592_94)"/>
<path d="M45.3219 39.384L44.8599 25.92L48.3359 25.568L51.3279 32.19L51.0639 23.984L54.6499 24.028L54.3419 38.746L51.3719 39.274L48.2039 31.772L48.5339 39.208L45.3219 39.384Z" stroke="white" stroke-width="8" mask="url(#path-1-outside-1_592_94)"/>
</svg>
