<svg width="67" height="40" viewBox="0 0 67 40" fill="none" xmlns="http://www.w3.org/2000/svg">
<mask id="path-1-outside-1_777_86" maskUnits="userSpaceOnUse" x="0.727051" y="-0.016001" width="66" height="40" fill="black">
<rect fill="white" x="0.727051" y="-0.016001" width="66" height="40"/>
<path d="M11.3611 20.22L10.9211 20.242C10.8111 20.242 10.6791 20.242 10.5691 20.242C7.44505 20.242 5.24505 18.592 4.29905 16.128C3.90305 15.006 3.72705 13.774 3.72705 12.586C3.72705 8.824 5.46505 5.766 10.2831 5.348L10.7451 5.304L10.8551 7.878L10.4371 7.9C9.99705 7.922 9.57905 8.054 9.20505 8.296C7.77505 9.154 7.31305 11.024 7.31305 12.608C7.31305 14.522 7.99505 16.502 9.77705 17.448C10.1071 17.602 10.5471 17.756 10.8331 17.756H11.2291L11.3611 20.22Z"/>
<path d="M16.591 19.89C12.631 19.89 11.311 16.018 11.311 12.586C11.311 9.946 12.037 5.282 16.591 5.282C21.277 5.282 21.893 9.858 21.893 12.586C21.893 15.116 20.925 19.89 16.591 19.89ZM15.007 13.532C15.007 14.456 15.095 17.272 16.437 17.272C18.109 17.272 18.197 13.048 18.197 11.948C18.197 11.068 18.065 8.12 16.811 8.12C15.227 8.12 15.007 12.498 15.007 13.532Z"/>
<path d="M22.2681 19.142L24.0501 4.49L26.8441 4.6L28.4941 11.332L30.5181 4.226L34.2581 4.16L34.8961 19.912H31.3541L31.1781 9.88L29.2641 18.482L27.2841 18.372L25.8981 11.2L24.9741 19.076L22.2681 19.142Z"/>
<path d="M36.455 19.978L36.147 4.468H39.535L39.821 19.978H36.455Z"/>
<path d="M41.6148 19.384L41.1528 5.92L44.6288 5.568L47.6208 12.19L47.3568 3.984L50.9428 4.028L50.6348 18.746L47.6648 19.274L44.4968 11.772L44.8268 19.208L41.6148 19.384Z"/>
<path d="M56.1201 13.774L56.23 10.98L62.236 11.552V11.904C62.236 15.116 61.0701 19.868 57.0661 19.868C57.0001 19.868 56.9121 19.868 56.8241 19.868C55.9881 19.802 55.2621 19.45 54.6681 19.032C52.5121 17.514 51.8521 14.83 51.8521 12.652C51.8521 11.486 52.05 10.276 52.424 9.176C53.15 7.152 54.8221 4.886 57.7481 4.886C59.4641 4.886 61.4221 5.722 62.1261 7.24L62.2581 7.526L59.9041 8.846L59.6621 8.516C59.3541 8.098 58.8481 7.834 58.2761 7.834C55.9001 7.834 55.438 11.046 55.438 12.85C55.438 14.016 55.7461 16.634 57.3301 16.634C58.2761 16.634 58.6501 14.764 58.7601 14.038L56.1201 13.774Z"/>
<path d="M12.3868 34.404L14.0368 32.842L14.3008 33.348C14.4768 33.678 14.8948 33.92 15.3568 33.92C16.2368 33.92 16.7648 33.172 16.7648 32.292C16.7648 31.632 16.5448 31.148 16.1708 30.708C15.9728 30.488 15.7308 30.29 15.5108 30.092C13.7288 28.75 12.3208 27.672 12.3208 25.164C12.3208 23.36 13.8828 21.534 16.1708 21.534C17.2488 21.534 18.7888 22.084 19.1848 23.206L19.2728 23.426L19.0748 23.58C18.6788 23.91 18.2608 24.24 17.8208 24.57L17.4248 24.856L17.1608 24.46C17.0068 24.218 16.8088 24.108 16.5668 24.108C15.8628 24.108 15.4888 24.592 15.4888 25.296C15.4888 25.912 15.7088 26.154 16.1268 26.572C16.3688 26.77 16.5888 26.99 16.8088 27.144C17.1388 27.43 17.4688 27.672 17.7548 27.958C19.0968 29.124 19.9768 30.18 19.9768 32.094C19.9768 34.14 18.5248 36.626 15.6208 36.626C14.2568 36.626 12.8928 35.746 12.4748 34.602L12.3868 34.404Z"/>
<path d="M26.1516 36.89C22.1916 36.89 20.8716 33.018 20.8716 29.586C20.8716 26.946 21.5976 22.282 26.1516 22.282C30.8376 22.282 31.4536 26.858 31.4536 29.586C31.4536 32.116 30.4856 36.89 26.1516 36.89ZM24.5676 30.532C24.5676 31.456 24.6556 34.272 25.9976 34.272C27.6696 34.272 27.7576 30.048 27.7576 28.948C27.7576 28.068 27.6256 25.12 26.3716 25.12C24.7876 25.12 24.5676 29.498 24.5676 30.532Z"/>
<path d="M37.6457 36.89C33.6857 36.89 32.3657 33.018 32.3657 29.586C32.3657 26.946 33.0917 22.282 37.6457 22.282C42.3317 22.282 42.9477 26.858 42.9477 29.586C42.9477 32.116 41.9797 36.89 37.6457 36.89ZM36.0617 30.532C36.0617 31.456 36.1497 34.272 37.4917 34.272C39.1637 34.272 39.2517 30.048 39.2517 28.948C39.2517 28.068 39.1197 25.12 37.8657 25.12C36.2817 25.12 36.0617 29.498 36.0617 30.532Z"/>
<path d="M44.3219 36.384L43.8599 22.92L47.3359 22.568L50.3279 29.19L50.0639 20.984L53.6499 21.028L53.3419 35.746L50.3719 36.274L47.2039 28.772L47.5339 36.208L44.3219 36.384Z"/>
</mask>
<path d="M11.3611 20.22L10.9211 20.242C10.8111 20.242 10.6791 20.242 10.5691 20.242C7.44505 20.242 5.24505 18.592 4.29905 16.128C3.90305 15.006 3.72705 13.774 3.72705 12.586C3.72705 8.824 5.46505 5.766 10.2831 5.348L10.7451 5.304L10.8551 7.878L10.4371 7.9C9.99705 7.922 9.57905 8.054 9.20505 8.296C7.77505 9.154 7.31305 11.024 7.31305 12.608C7.31305 14.522 7.99505 16.502 9.77705 17.448C10.1071 17.602 10.5471 17.756 10.8331 17.756H11.2291L11.3611 20.22Z" fill="#2C7C4B"/>
<path d="M16.591 19.89C12.631 19.89 11.311 16.018 11.311 12.586C11.311 9.946 12.037 5.282 16.591 5.282C21.277 5.282 21.893 9.858 21.893 12.586C21.893 15.116 20.925 19.89 16.591 19.89ZM15.007 13.532C15.007 14.456 15.095 17.272 16.437 17.272C18.109 17.272 18.197 13.048 18.197 11.948C18.197 11.068 18.065 8.12 16.811 8.12C15.227 8.12 15.007 12.498 15.007 13.532Z" fill="#2C7C4B"/>
<path d="M22.2681 19.142L24.0501 4.49L26.8441 4.6L28.4941 11.332L30.5181 4.226L34.2581 4.16L34.8961 19.912H31.3541L31.1781 9.88L29.2641 18.482L27.2841 18.372L25.8981 11.2L24.9741 19.076L22.2681 19.142Z" fill="#2C7C4B"/>
<path d="M36.455 19.978L36.147 4.468H39.535L39.821 19.978H36.455Z" fill="#2C7C4B"/>
<path d="M41.6148 19.384L41.1528 5.92L44.6288 5.568L47.6208 12.19L47.3568 3.984L50.9428 4.028L50.6348 18.746L47.6648 19.274L44.4968 11.772L44.8268 19.208L41.6148 19.384Z" fill="#2C7C4B"/>
<path d="M56.1201 13.774L56.23 10.98L62.236 11.552V11.904C62.236 15.116 61.0701 19.868 57.0661 19.868C57.0001 19.868 56.9121 19.868 56.8241 19.868C55.9881 19.802 55.2621 19.45 54.6681 19.032C52.5121 17.514 51.8521 14.83 51.8521 12.652C51.8521 11.486 52.05 10.276 52.424 9.176C53.15 7.152 54.8221 4.886 57.7481 4.886C59.4641 4.886 61.4221 5.722 62.1261 7.24L62.2581 7.526L59.9041 8.846L59.6621 8.516C59.3541 8.098 58.8481 7.834 58.2761 7.834C55.9001 7.834 55.438 11.046 55.438 12.85C55.438 14.016 55.7461 16.634 57.3301 16.634C58.2761 16.634 58.6501 14.764 58.7601 14.038L56.1201 13.774Z" fill="#2C7C4B"/>
<path d="M12.3868 34.404L14.0368 32.842L14.3008 33.348C14.4768 33.678 14.8948 33.92 15.3568 33.92C16.2368 33.92 16.7648 33.172 16.7648 32.292C16.7648 31.632 16.5448 31.148 16.1708 30.708C15.9728 30.488 15.7308 30.29 15.5108 30.092C13.7288 28.75 12.3208 27.672 12.3208 25.164C12.3208 23.36 13.8828 21.534 16.1708 21.534C17.2488 21.534 18.7888 22.084 19.1848 23.206L19.2728 23.426L19.0748 23.58C18.6788 23.91 18.2608 24.24 17.8208 24.57L17.4248 24.856L17.1608 24.46C17.0068 24.218 16.8088 24.108 16.5668 24.108C15.8628 24.108 15.4888 24.592 15.4888 25.296C15.4888 25.912 15.7088 26.154 16.1268 26.572C16.3688 26.77 16.5888 26.99 16.8088 27.144C17.1388 27.43 17.4688 27.672 17.7548 27.958C19.0968 29.124 19.9768 30.18 19.9768 32.094C19.9768 34.14 18.5248 36.626 15.6208 36.626C14.2568 36.626 12.8928 35.746 12.4748 34.602L12.3868 34.404Z" fill="#2C7C4B"/>
<path d="M26.1516 36.89C22.1916 36.89 20.8716 33.018 20.8716 29.586C20.8716 26.946 21.5976 22.282 26.1516 22.282C30.8376 22.282 31.4536 26.858 31.4536 29.586C31.4536 32.116 30.4856 36.89 26.1516 36.89ZM24.5676 30.532C24.5676 31.456 24.6556 34.272 25.9976 34.272C27.6696 34.272 27.7576 30.048 27.7576 28.948C27.7576 28.068 27.6256 25.12 26.3716 25.12C24.7876 25.12 24.5676 29.498 24.5676 30.532Z" fill="#2C7C4B"/>
<path d="M37.6457 36.89C33.6857 36.89 32.3657 33.018 32.3657 29.586C32.3657 26.946 33.0917 22.282 37.6457 22.282C42.3317 22.282 42.9477 26.858 42.9477 29.586C42.9477 32.116 41.9797 36.89 37.6457 36.89ZM36.0617 30.532C36.0617 31.456 36.1497 34.272 37.4917 34.272C39.1637 34.272 39.2517 30.048 39.2517 28.948C39.2517 28.068 39.1197 25.12 37.8657 25.12C36.2817 25.12 36.0617 29.498 36.0617 30.532Z" fill="#2C7C4B"/>
<path d="M44.3219 36.384L43.8599 22.92L47.3359 22.568L50.3279 29.19L50.0639 20.984L53.6499 21.028L53.3419 35.746L50.3719 36.274L47.2039 28.772L47.5339 36.208L44.3219 36.384Z" fill="#2C7C4B"/>
<path d="M11.3611 20.22L10.9211 20.242C10.8111 20.242 10.6791 20.242 10.5691 20.242C7.44505 20.242 5.24505 18.592 4.29905 16.128C3.90305 15.006 3.72705 13.774 3.72705 12.586C3.72705 8.824 5.46505 5.766 10.2831 5.348L10.7451 5.304L10.8551 7.878L10.4371 7.9C9.99705 7.922 9.57905 8.054 9.20505 8.296C7.77505 9.154 7.31305 11.024 7.31305 12.608C7.31305 14.522 7.99505 16.502 9.77705 17.448C10.1071 17.602 10.5471 17.756 10.8331 17.756H11.2291L11.3611 20.22Z" stroke="white" stroke-width="6" mask="url(#path-1-outside-1_777_86)"/>
<path d="M16.591 19.89C12.631 19.89 11.311 16.018 11.311 12.586C11.311 9.946 12.037 5.282 16.591 5.282C21.277 5.282 21.893 9.858 21.893 12.586C21.893 15.116 20.925 19.89 16.591 19.89ZM15.007 13.532C15.007 14.456 15.095 17.272 16.437 17.272C18.109 17.272 18.197 13.048 18.197 11.948C18.197 11.068 18.065 8.12 16.811 8.12C15.227 8.12 15.007 12.498 15.007 13.532Z" stroke="white" stroke-width="6" mask="url(#path-1-outside-1_777_86)"/>
<path d="M22.2681 19.142L24.0501 4.49L26.8441 4.6L28.4941 11.332L30.5181 4.226L34.2581 4.16L34.8961 19.912H31.3541L31.1781 9.88L29.2641 18.482L27.2841 18.372L25.8981 11.2L24.9741 19.076L22.2681 19.142Z" stroke="white" stroke-width="6" mask="url(#path-1-outside-1_777_86)"/>
<path d="M36.455 19.978L36.147 4.468H39.535L39.821 19.978H36.455Z" stroke="white" stroke-width="6" mask="url(#path-1-outside-1_777_86)"/>
<path d="M41.6148 19.384L41.1528 5.92L44.6288 5.568L47.6208 12.19L47.3568 3.984L50.9428 4.028L50.6348 18.746L47.6648 19.274L44.4968 11.772L44.8268 19.208L41.6148 19.384Z" stroke="white" stroke-width="6" mask="url(#path-1-outside-1_777_86)"/>
<path d="M56.1201 13.774L56.23 10.98L62.236 11.552V11.904C62.236 15.116 61.0701 19.868 57.0661 19.868C57.0001 19.868 56.9121 19.868 56.8241 19.868C55.9881 19.802 55.2621 19.45 54.6681 19.032C52.5121 17.514 51.8521 14.83 51.8521 12.652C51.8521 11.486 52.05 10.276 52.424 9.176C53.15 7.152 54.8221 4.886 57.7481 4.886C59.4641 4.886 61.4221 5.722 62.1261 7.24L62.2581 7.526L59.9041 8.846L59.6621 8.516C59.3541 8.098 58.8481 7.834 58.2761 7.834C55.9001 7.834 55.438 11.046 55.438 12.85C55.438 14.016 55.7461 16.634 57.3301 16.634C58.2761 16.634 58.6501 14.764 58.7601 14.038L56.1201 13.774Z" stroke="white" stroke-width="6" mask="url(#path-1-outside-1_777_86)"/>
<path d="M12.3868 34.404L14.0368 32.842L14.3008 33.348C14.4768 33.678 14.8948 33.92 15.3568 33.92C16.2368 33.92 16.7648 33.172 16.7648 32.292C16.7648 31.632 16.5448 31.148 16.1708 30.708C15.9728 30.488 15.7308 30.29 15.5108 30.092C13.7288 28.75 12.3208 27.672 12.3208 25.164C12.3208 23.36 13.8828 21.534 16.1708 21.534C17.2488 21.534 18.7888 22.084 19.1848 23.206L19.2728 23.426L19.0748 23.58C18.6788 23.91 18.2608 24.24 17.8208 24.57L17.4248 24.856L17.1608 24.46C17.0068 24.218 16.8088 24.108 16.5668 24.108C15.8628 24.108 15.4888 24.592 15.4888 25.296C15.4888 25.912 15.7088 26.154 16.1268 26.572C16.3688 26.77 16.5888 26.99 16.8088 27.144C17.1388 27.43 17.4688 27.672 17.7548 27.958C19.0968 29.124 19.9768 30.18 19.9768 32.094C19.9768 34.14 18.5248 36.626 15.6208 36.626C14.2568 36.626 12.8928 35.746 12.4748 34.602L12.3868 34.404Z" stroke="white" stroke-width="6" mask="url(#path-1-outside-1_777_86)"/>
<path d="M26.1516 36.89C22.1916 36.89 20.8716 33.018 20.8716 29.586C20.8716 26.946 21.5976 22.282 26.1516 22.282C30.8376 22.282 31.4536 26.858 31.4536 29.586C31.4536 32.116 30.4856 36.89 26.1516 36.89ZM24.5676 30.532C24.5676 31.456 24.6556 34.272 25.9976 34.272C27.6696 34.272 27.7576 30.048 27.7576 28.948C27.7576 28.068 27.6256 25.12 26.3716 25.12C24.7876 25.12 24.5676 29.498 24.5676 30.532Z" stroke="white" stroke-width="6" mask="url(#path-1-outside-1_777_86)"/>
<path d="M37.6457 36.89C33.6857 36.89 32.3657 33.018 32.3657 29.586C32.3657 26.946 33.0917 22.282 37.6457 22.282C42.3317 22.282 42.9477 26.858 42.9477 29.586C42.9477 32.116 41.9797 36.89 37.6457 36.89ZM36.0617 30.532C36.0617 31.456 36.1497 34.272 37.4917 34.272C39.1637 34.272 39.2517 30.048 39.2517 28.948C39.2517 28.068 39.1197 25.12 37.8657 25.12C36.2817 25.12 36.0617 29.498 36.0617 30.532Z" stroke="white" stroke-width="6" mask="url(#path-1-outside-1_777_86)"/>
<path d="M44.3219 36.384L43.8599 22.92L47.3359 22.568L50.3279 29.19L50.0639 20.984L53.6499 21.028L53.3419 35.746L50.3719 36.274L47.2039 28.772L47.5339 36.208L44.3219 36.384Z" stroke="white" stroke-width="6" mask="url(#path-1-outside-1_777_86)"/>
</svg>
