<svg width="83" height="64" viewBox="0 0 83 64" fill="none" xmlns="http://www.w3.org/2000/svg">
<g clip-path="url(#clip0_52_59696)">
<path d="M64.94 32.9175C64.4279 29.1995 62.1776 26.4331 59.9124 26.7421C59.7105 26.7666 59.5185 26.8255 59.3314 26.8991L3.4519 46.8085L5.29847 60.2776L62.1382 40.123C64.1817 39.5196 65.4226 36.4246 64.9449 32.9175H64.94Z" fill="#ED1E24"/>
<path d="M5.16053 60.4983L3.26965 46.7006L59.4741 26.6734C59.6219 26.6293 59.7597 26.5998 59.8878 26.5802C60.0109 26.5655 60.134 26.5557 60.2571 26.5557C62.5222 26.5557 64.6051 29.2829 65.1025 32.8979C65.59 36.4736 64.3343 39.6521 62.1824 40.2848L5.16053 60.4983ZM3.63404 46.9164L5.43136 60.052L62.0839 39.966C64.0585 39.3872 65.2403 36.297 64.7824 32.9371C64.3146 29.5428 62.3301 26.8794 60.262 26.8794C60.1537 26.8794 60.0453 26.8892 59.937 26.899C59.7745 26.9187 59.5972 26.9677 59.3904 27.0462L59.1885 27.1247V27.1149L3.63404 46.9164Z" fill="#6A110D"/>
<g style="mix-blend-mode:multiply" opacity="0.4">
<path d="M64.9399 32.9175C64.4278 29.1995 62.1774 26.4331 59.9123 26.7421C59.7104 26.7666 59.5184 26.8255 59.3313 26.8991L3.45178 46.8085L3.56504 47.6276C12.8914 45.2045 21.7697 40.7704 31.0173 38.004C40.3781 35.2032 49.7488 32.3976 58.6222 28.2528C62.0543 26.6489 64.2407 32.064 60.8381 33.6533C51.0242 38.2296 40.6145 41.1432 30.2787 44.2873C21.5186 46.9507 13.2164 51.0905 4.36275 53.3959L5.30327 60.2678L62.143 40.1131C64.1865 39.5098 65.4274 36.4148 64.9497 32.9077L64.9399 32.9175Z" fill="#300806"/>
</g>
<path d="M8.47936 52.9839C8.98655 56.7068 7.56346 59.9686 5.29834 60.2776C3.03323 60.5817 0.777956 57.8202 0.270766 54.1022C-0.236423 50.3842 1.18666 47.1175 3.4567 46.8134C5.72675 46.5043 7.97709 49.2708 8.48428 52.9888L8.47936 52.9839Z" fill="#ED1E24"/>
<path d="M4.95369 60.464C2.68857 60.464 0.605645 57.7368 0.108304 54.1218C-0.142828 52.2923 0.0590626 50.5117 0.66966 49.1089C1.29503 47.6766 2.27494 46.8036 3.43212 46.6466C3.55522 46.6319 3.67833 46.6221 3.80143 46.6221C6.06655 46.6221 8.14947 49.3493 8.64682 52.9642C9.16878 56.7656 7.67675 60.1206 5.323 60.4395C5.1999 60.4542 5.07679 60.464 4.95369 60.464ZM3.79651 46.9458C3.68818 46.9458 3.57984 46.9556 3.47151 46.9654C2.43251 47.1077 1.54616 47.9121 0.96511 49.2364C0.374209 50.5853 0.182167 52.3021 0.428375 54.0728C0.896172 57.4719 2.88061 60.1305 4.94876 60.1305C5.0571 60.1305 5.16543 60.1256 5.27376 60.1108C7.44532 59.8165 8.80931 56.6234 8.3169 53.0035C7.85402 49.6092 5.86958 46.9458 3.79651 46.9458Z" fill="#6A110D"/>
<g style="mix-blend-mode:multiply" opacity="0.7">
<path d="M3.85071 56.7509C4.5401 58.0164 5.49539 58.9876 6.61317 59.6939C8.08058 58.551 8.88321 55.9121 8.47943 52.9839C8.12489 50.4087 6.93817 48.2898 5.48554 47.3382C2.5655 47.4903 2.07801 53.5087 3.85071 56.7558V56.7509Z" fill="#300806"/>
</g>
<g style="mix-blend-mode:multiply" opacity="0.7">
<path d="M7.53888 52.7533C7.75555 54.681 7.64721 57.9968 6.65253 59.6547C8.09039 58.4971 8.87826 55.8827 8.4794 52.979C8.13471 50.4529 6.98245 48.3781 5.56921 47.3971C6.45556 49.0353 7.39116 51.4486 7.53888 52.7533Z" fill="#300806"/>
</g>
<path d="M6.53931 47.4854C6.53931 47.4854 56.4015 29.0033 58.7995 28.1743C61.1976 27.3454 61.9953 27.9732 59.8582 28.9886C57.7211 30.0088 7.50444 48.28 7.50444 48.28L6.53931 47.4804V47.4854Z" fill="#FFC7C8"/>
<path d="M69.7509 22.1412C69.2388 18.4232 66.9885 15.6567 64.7234 15.9658C64.5215 15.9952 64.3294 16.0491 64.1423 16.1227L8.26282 36.0321L10.1094 49.4964L66.9491 29.3466C68.9926 28.7433 70.2335 25.6482 69.7559 22.1412H69.7509Z" fill="#ED1E24"/>
<path d="M9.97145 49.7171L8.08057 35.9193L64.2407 15.9069C64.4032 15.853 64.5509 15.8186 64.6987 15.799C64.8218 15.7843 64.9449 15.7745 65.068 15.7745C67.3331 15.7745 69.416 18.5017 69.9134 22.1166C70.4009 25.6924 69.1452 28.8708 66.9933 29.5036L9.97145 49.7171ZM8.44003 36.1401L10.2374 49.2757L66.885 29.1897C68.8596 28.606 70.0414 25.5207 69.5835 22.1608C69.1206 18.7665 67.1312 16.1031 65.0631 16.1031C64.9547 16.1031 64.8464 16.1129 64.7381 16.1227C64.5706 16.1473 64.3983 16.1914 64.1915 16.2699L64.029 16.3336L8.44003 36.1401Z" fill="#6A110D"/>
<g style="mix-blend-mode:multiply" opacity="0.4">
<path d="M69.7509 22.1412C69.2388 18.4232 66.9885 15.6567 64.7234 15.9658C64.5215 15.9952 64.3294 16.0491 64.1423 16.1227L8.26282 36.0321L8.37607 36.8513C17.6975 34.4282 26.5758 29.9941 35.8283 27.2277C45.1892 24.422 54.5599 21.6212 63.4332 17.4765C66.8654 15.8775 69.0517 21.2877 65.6491 22.8769C55.8352 27.4533 45.4255 30.3718 35.0897 33.5159C26.3296 36.1793 18.0274 40.3142 9.17379 42.6245L10.1143 49.4964L66.954 29.3466C68.9975 28.7433 70.2384 25.6482 69.7608 22.1412H69.7509Z" fill="#300806"/>
</g>
<path d="M13.2903 42.2075C13.7975 45.9255 12.3744 49.1923 10.1044 49.4964C7.83433 49.8054 5.58399 47.039 5.0768 43.321C4.56961 39.603 5.99269 36.3412 8.26273 36.0321C10.5328 35.7231 12.7831 38.4895 13.2903 42.2075Z" fill="#ED1E24"/>
<path d="M9.75972 49.6828C7.4946 49.6828 5.41168 46.9556 4.91433 43.3406C4.6632 41.511 4.86509 39.7305 5.47569 38.3277C6.10106 36.8954 7.08097 36.0223 8.23815 35.8654C8.36125 35.8507 8.48436 35.8409 8.60746 35.8409C10.8726 35.8409 12.9555 38.568 13.4528 42.183C13.9699 45.9844 12.4828 49.3394 10.129 49.6583C10.0059 49.673 9.88282 49.6828 9.75972 49.6828ZM8.60746 36.1744C8.49913 36.1744 8.3908 36.1842 8.28247 36.194C7.24347 36.3363 6.35219 37.1407 5.77606 38.465C5.18516 39.8139 4.99312 41.5307 5.23933 43.3014C5.70713 46.7005 7.69157 49.359 9.75972 49.359C9.86805 49.359 9.97638 49.3492 10.0847 49.3394C12.2563 49.0451 13.6203 45.8569 13.1279 42.2321C12.665 38.8378 10.6756 36.1744 8.60746 36.1744Z" fill="#6A110D"/>
<g style="mix-blend-mode:multiply" opacity="0.7">
<path d="M8.6567 45.9746C9.34609 47.2401 10.3014 48.2113 11.4192 48.9176C12.8866 47.7747 13.6892 45.1358 13.2903 42.2075C12.9358 39.6324 11.7491 37.5135 10.2965 36.557C7.37642 36.709 6.88892 42.7275 8.66163 45.9746H8.6567Z" fill="#300806"/>
</g>
<g style="mix-blend-mode:multiply" opacity="0.7">
<path d="M12.3498 41.977C12.5665 43.9047 12.4631 47.2254 11.4634 48.8784C12.9013 47.7159 13.6892 45.1064 13.2903 42.2027C12.9456 39.6766 11.7934 37.6018 10.3801 36.6208C11.2665 38.2541 12.2021 40.6674 12.3498 41.9721V41.977Z" fill="#300806"/>
</g>
<path d="M11.3503 36.7041C11.3503 36.7041 61.2124 18.227 63.6105 17.398C66.0085 16.5691 66.8063 17.1969 64.6692 18.2172C62.537 19.2374 12.3154 37.5085 12.3154 37.5085L11.3453 36.709L11.3503 36.7041Z" fill="#FFC7C8"/>
<path d="M73.8675 34.6195C73.3554 30.9015 71.1051 28.1351 68.8399 28.4441C68.638 28.4687 68.446 28.5324 68.2589 28.6011L12.3794 48.5154L14.226 61.9846L71.0657 41.8299C73.1092 41.2315 74.3501 38.1315 73.8724 34.6244L73.8675 34.6195Z" fill="#ED1E24"/>
<path d="M14.088 62.2004L12.1971 48.4026L68.377 28.3803C68.5346 28.3313 68.6774 28.297 68.8153 28.2822C68.9384 28.2675 69.0615 28.2577 69.1846 28.2577C71.4497 28.2577 73.5326 30.9849 74.0299 34.595C74.5174 38.1707 73.2618 41.3492 71.1099 41.9819L14.088 62.2004ZM12.5615 48.6233L14.3589 61.7589L71.0114 41.6729C72.986 41.0941 74.1678 38.004 73.7099 34.644C73.2421 31.2498 71.2576 28.5864 69.1895 28.5864C69.0812 28.5864 68.9728 28.5962 68.8645 28.606C68.702 28.6256 68.5297 28.6746 68.3179 28.7531L68.1357 28.8218L12.5615 48.6233Z" fill="#6A110D"/>
<g style="mix-blend-mode:multiply" opacity="0.4">
<path d="M73.8674 34.6195C73.3553 30.9015 71.1049 28.1351 68.8398 28.4441C68.6379 28.4687 68.4459 28.5324 68.2588 28.6011L12.3793 48.5154L12.4925 49.3345C21.814 46.9115 30.6972 42.4773 39.9448 39.7109C49.3106 36.9102 58.6763 34.1045 67.5497 29.9598C70.9818 28.3558 73.1682 33.771 69.7656 35.3602C59.9517 39.9415 49.542 42.855 39.2062 45.9991C30.4461 48.6626 22.1439 52.8024 13.2902 55.1077L14.2308 61.9797L71.0705 41.825C73.114 41.2266 74.3549 38.1266 73.8772 34.6195H73.8674Z" fill="#300806"/>
</g>
<path d="M17.4069 54.6908C17.9141 58.4088 16.491 61.6706 14.221 61.9845C11.9559 62.2936 9.70554 59.5271 9.19343 55.8091C8.68131 52.0911 10.1093 48.8293 12.3744 48.5203C14.6445 48.2113 16.8948 50.9777 17.402 54.6957L17.4069 54.6908Z" fill="#ED1E24"/>
<path d="M13.8812 62.166C11.6161 62.166 9.53314 59.4388 9.03579 55.8239C8.78466 53.9943 8.98655 52.2187 9.59715 50.8109C10.2225 49.3787 11.2024 48.5056 12.3596 48.3486C12.4827 48.3339 12.6058 48.3241 12.7289 48.3241C14.994 48.3241 17.077 51.0513 17.5743 54.6663C18.0913 58.4676 16.5993 61.8227 14.2505 62.1415C14.1274 62.1562 14.0043 62.166 13.8812 62.166ZM12.7289 48.6527C12.6206 48.6527 12.5123 48.6625 12.4039 48.6724C11.3649 48.8146 10.4786 49.619 9.89752 50.9434C9.30662 52.2922 9.11951 54.009 9.36079 55.7797C9.82859 59.1789 11.813 61.8374 13.8812 61.8374C13.9895 61.8374 14.0978 61.8325 14.2062 61.8178C16.3777 61.5235 17.7467 58.3352 17.2493 54.7104C16.7815 51.3162 14.7971 48.6527 12.7289 48.6527Z" fill="#6A110D"/>
<g style="mix-blend-mode:multiply" opacity="0.7">
<path d="M12.7781 58.4578C13.4675 59.7233 14.4228 60.6945 15.5406 61.4008C17.008 60.258 17.8106 57.6191 17.4118 54.6908C17.0572 52.1157 15.8705 49.9967 14.4179 49.0451C11.4978 49.1972 11.0054 55.2156 12.783 58.4627L12.7781 58.4578Z" fill="#300806"/>
</g>
<g style="mix-blend-mode:multiply" opacity="0.7">
<path d="M16.4664 54.4603C16.6831 56.3879 16.5797 59.7037 15.5751 61.3616C17.013 60.204 17.8009 57.5897 17.402 54.6859C17.0573 52.1598 15.9051 50.085 14.4918 49.104C15.3782 50.7423 16.3138 53.1555 16.4615 54.4603H16.4664Z" fill="#300806"/>
</g>
<path d="M15.4667 49.1923C15.4667 49.1923 65.3239 30.7102 67.7269 29.8813C70.125 29.0523 70.9227 29.6802 68.7856 30.7004C66.6535 31.7206 16.4319 49.9918 16.4319 49.9918L15.4618 49.1923H15.4667Z" fill="#FFC7C8"/>
<path d="M74.1384 11.5366C73.6312 7.81856 71.3759 5.05213 69.1108 5.36115C68.9089 5.39058 68.7169 5.44453 68.5298 5.51811L12.6503 25.4275L14.4919 38.8918L71.3316 18.742C73.3751 18.1387 74.616 15.0436 74.1335 11.5366H74.1384Z" fill="#ED1E24"/>
<path d="M14.3589 39.1125L12.468 25.3147L68.6479 5.29739C68.8055 5.24834 68.9483 5.21401 69.0911 5.19439C69.2142 5.17967 69.3373 5.16986 69.4604 5.16986C71.7255 5.16986 73.8084 7.89704 74.3058 11.512C74.7932 15.0878 73.5376 18.2613 71.3857 18.899L14.3589 39.1125ZM12.8324 25.5354L14.6297 38.6711L71.2823 18.5851C73.2569 18.0014 74.4387 14.9161 73.9808 11.5562C73.513 8.15701 71.5285 5.4985 69.4604 5.4985C69.352 5.4985 69.2437 5.5034 69.1354 5.51812C68.9679 5.54264 68.7907 5.59169 68.5888 5.66527L68.4115 5.73394L12.8324 25.5354Z" fill="#6A110D"/>
<g style="mix-blend-mode:multiply" opacity="0.4">
<path d="M74.1383 11.5366C73.6311 7.81856 71.3758 5.05213 69.1107 5.36115C68.9088 5.39058 68.7167 5.44453 68.5296 5.51811L12.6501 25.4275L12.7634 26.2467C22.0849 23.8236 30.9681 19.3895 40.2157 16.623C49.5765 13.8174 58.9472 11.0166 67.8205 6.8768C71.2527 5.27286 73.439 10.688 70.0364 12.2772C60.2226 16.8585 49.8129 19.7721 39.477 22.9162C30.7169 25.5796 22.4148 29.7194 13.5611 32.0248L14.5016 38.8967L71.3413 18.7469C73.3849 18.1436 74.6258 15.0485 74.1432 11.5415L74.1383 11.5366Z" fill="#300806"/>
</g>
<path d="M17.6778 31.6029C18.185 35.3209 16.7619 38.5877 14.4918 38.8918C12.2267 39.2008 9.97636 36.4344 9.46425 32.7164C8.95706 28.9984 10.3801 25.7365 12.6502 25.4275C14.9202 25.1185 17.1706 27.8849 17.6778 31.6029Z" fill="#ED1E24"/>
<path d="M14.1471 39.0782C11.882 39.0782 9.79909 36.351 9.30175 32.736C8.77979 28.9346 10.2718 25.5796 12.6256 25.2608C12.7487 25.246 12.8718 25.2362 12.9949 25.2362C15.26 25.2362 17.3429 27.9634 17.8403 31.5784C18.3622 35.3798 16.8702 38.7348 14.5164 39.0536C14.3933 39.0684 14.2702 39.0782 14.1471 39.0782ZM12.9949 25.5649C12.8865 25.5649 12.7782 25.5747 12.6699 25.5845C10.4934 25.8788 9.1294 29.067 9.62674 32.6918C10.0945 36.091 12.079 38.7495 14.1471 38.7495C14.2555 38.7495 14.3638 38.7397 14.4721 38.7299C16.6486 38.4356 18.0126 35.2474 17.5153 31.6226C17.0524 28.2234 15.063 25.5649 12.9949 25.5649Z" fill="#6A110D"/>
<g style="mix-blend-mode:multiply" opacity="0.7">
<path d="M13.0441 35.37C13.7335 36.6355 14.6888 37.6067 15.8066 38.313C17.274 37.1701 18.0766 34.5312 17.6729 31.6029C17.3183 29.0278 16.1316 26.9088 14.679 25.9524C11.7589 26.1044 11.2665 32.1229 13.0441 35.37Z" fill="#300806"/>
</g>
<g style="mix-blend-mode:multiply" opacity="0.7">
<path d="M16.7372 31.3724C16.9539 33.3001 16.8456 36.6159 15.8509 38.2738C17.2888 37.1162 18.0766 34.5018 17.6778 31.598C17.3331 29.072 16.1808 26.9971 14.7676 26.0161C15.6539 27.6544 16.5895 30.0677 16.7372 31.3675V31.3724Z" fill="#300806"/>
</g>
<path d="M15.7376 26.0995C15.7376 26.0995 65.5948 7.62236 67.9929 6.79341C70.391 5.96446 71.1887 6.5923 69.0516 7.61255C66.9194 8.62788 16.6978 26.9039 16.6978 26.9039L15.7327 26.1044L15.7376 26.0995Z" fill="#FFC7C8"/>
<path d="M78.447 23.1516C77.9349 19.4336 75.6845 16.6672 73.4194 16.9762C73.2175 17.0008 73.0255 17.0596 72.8383 17.1332L16.9589 37.0426L18.8054 50.5069L75.6451 30.3571C77.6887 29.7587 78.9296 26.6587 78.4519 23.1516H78.447Z" fill="#ED1E24"/>
<path d="M18.6675 50.7325L16.7766 36.9347L72.9614 16.9125C73.114 16.8634 73.2568 16.834 73.3947 16.8144C73.5178 16.7996 73.6409 16.7898 73.764 16.7898C76.0292 16.7898 78.1121 19.517 78.6094 23.1271C79.0969 26.7028 77.8413 29.8813 75.6894 30.514L18.6675 50.7325ZM17.1361 37.1505L18.9334 50.2861L75.586 30.2001C77.5606 29.6213 78.7424 26.5312 78.2844 23.1712C77.8166 19.777 75.8322 17.1136 73.764 17.1136C73.6557 17.1136 73.5474 17.1234 73.439 17.1332C73.2716 17.1577 73.0993 17.2018 72.8925 17.2803L72.7103 17.349V17.3392L17.1361 37.1407V37.1505Z" fill="#6A110D"/>
<g style="mix-blend-mode:multiply" opacity="0.4">
<path d="M78.4469 23.1516C77.9347 19.4336 75.6844 16.6672 73.4193 16.9762C73.2174 17.0008 73.0253 17.0596 72.8382 17.1332L16.9587 37.0426L17.072 37.8617C26.3935 35.4387 35.2767 31.0045 44.5242 28.2381C53.89 25.4325 63.2558 22.6317 72.1291 18.487C75.5613 16.883 77.7476 22.2982 74.3401 23.8874C64.5262 28.4638 54.1165 31.3822 43.7807 34.5214C35.0206 37.1849 26.7184 41.3247 17.8648 43.63L18.8053 50.5019L75.645 30.3522C77.6885 29.7538 78.9294 26.6538 78.4518 23.1467L78.4469 23.1516Z" fill="#300806"/>
</g>
<path d="M21.9864 43.218C22.4935 46.936 21.0705 50.2027 18.8004 50.5068C16.5353 50.8158 14.28 48.0494 13.7728 44.3314C13.2657 40.6134 14.6887 37.3516 16.9588 37.0426C19.2288 36.7336 21.4792 39.5 21.9864 43.218Z" fill="#ED1E24"/>
<path d="M18.4557 50.6981C16.1906 50.6981 14.1077 47.9709 13.6103 44.356C13.0884 40.5546 14.5804 37.1996 16.9342 36.8807C17.0573 36.866 17.1804 36.8562 17.3035 36.8562C19.5686 36.8562 21.6515 39.5834 22.1489 43.1984C22.6659 46.9998 21.1788 50.3548 18.825 50.6736C18.7019 50.6883 18.5788 50.6981 18.4557 50.6981ZM17.3035 37.1848C17.1951 37.1848 17.0868 37.1946 16.9785 37.2045C14.802 37.4988 13.438 40.687 13.9353 44.3118C14.4031 47.7061 16.3876 50.3695 18.4557 50.3695C18.5641 50.3695 18.6724 50.3597 18.7807 50.345C20.9523 50.0507 22.3212 46.8624 21.8239 43.2376C21.361 39.8434 19.3716 37.1799 17.3035 37.1799V37.1848Z" fill="#6A110D"/>
<g style="mix-blend-mode:multiply" opacity="0.7">
<path d="M17.3527 46.9899C18.0421 48.2554 18.9973 49.2266 20.1151 49.9329C21.5825 48.7901 22.3852 46.1512 21.9814 43.2229C21.6268 40.6478 20.4401 38.5288 18.9875 37.5723C16.0675 37.7244 15.58 43.7428 17.3527 46.9899Z" fill="#300806"/>
</g>
<g style="mix-blend-mode:multiply" opacity="0.7">
<path d="M21.0458 42.9875C21.2625 44.9151 21.1542 48.2309 20.1595 49.8937C21.5973 48.7312 22.3852 46.1218 21.9864 43.218C21.6417 40.6919 20.4894 38.6171 19.0762 37.6361C19.9625 39.2744 20.8981 41.6876 21.0458 42.9875Z" fill="#300806"/>
</g>
<path d="M20.0413 37.7195C20.0413 37.7195 69.9035 19.2374 72.3015 18.4134C74.7045 17.5844 75.4973 18.2123 73.3602 19.2325C71.2281 20.2528 21.0064 38.5239 21.0064 38.5239L20.0364 37.7244L20.0413 37.7195Z" fill="#FFC7C8"/>
<path d="M82.5635 35.6349C82.0563 31.9169 79.801 29.1505 77.5359 29.4595C77.334 29.4889 77.142 29.5478 76.9499 29.6164L21.0704 49.5259L22.9121 62.9901L79.7518 42.8354C81.7953 42.2321 83.0362 39.1371 82.5536 35.63L82.5635 35.6349Z" fill="#ED1E24"/>
<path d="M22.7841 63.2157L20.8932 49.4179L77.1174 29.381C77.2602 29.3417 77.3882 29.3123 77.5162 29.2976C77.6393 29.2829 77.7624 29.2731 77.8855 29.2731C80.1507 29.2731 82.2336 32.0003 82.7309 35.6152C83.2184 39.191 81.9628 42.3645 79.8109 42.9973L22.789 63.2157H22.7841ZM21.2576 49.6338L23.0549 62.7694L79.7075 42.6834C81.6821 42.1046 82.8639 39.0144 82.4059 35.6545C81.9431 32.2602 79.9586 29.5968 77.8905 29.5968C77.7821 29.5968 77.6738 29.6017 77.5655 29.6164C77.403 29.636 77.2257 29.6851 77.0189 29.7636L76.7973 29.847V29.8371L21.2625 49.6239L21.2576 49.6338Z" fill="#6A110D"/>
<g style="mix-blend-mode:multiply" opacity="0.4">
<path d="M82.5635 35.6349C82.0563 31.9169 79.801 29.1505 77.5359 29.4595C77.334 29.4889 77.142 29.5478 76.9499 29.6164L21.0704 49.5259L21.1837 50.345C30.5051 47.9219 39.3883 43.4878 48.6359 40.7214C58.0017 37.9157 67.3675 35.1149 76.2408 30.9702C79.673 29.3663 81.8593 34.7814 78.4567 36.3706C68.6428 40.9519 58.2331 43.8655 47.8973 47.0096C39.1372 49.673 30.8351 53.8079 21.9814 56.1182L22.9219 62.9901L79.7616 42.8354C81.8052 42.2321 83.046 39.1371 82.5635 35.63V35.6349Z" fill="#300806"/>
</g>
<path d="M26.1029 55.7013C26.6101 59.4192 25.187 62.6811 22.917 62.9901C20.6519 63.2942 18.4015 60.5327 17.8894 56.8147C17.3822 53.0967 18.8053 49.8349 21.0754 49.5259C23.3454 49.2168 25.5957 51.9833 26.1029 55.7013Z" fill="#ED1E24"/>
<path d="M22.5723 63.1814C20.3072 63.1814 18.2243 60.4542 17.727 56.8392C17.4758 55.0096 17.6777 53.234 18.2883 51.8263C18.9137 50.394 19.8936 49.5209 21.0508 49.364C21.1739 49.3493 21.297 49.3394 21.4201 49.3394C23.6852 49.3394 25.7681 52.0666 26.2655 55.6816C26.7825 59.483 25.2905 62.838 22.9417 63.1568C22.8185 63.1716 22.6954 63.1814 22.5723 63.1814ZM21.425 49.6681C21.3167 49.6681 21.2083 49.6779 21.1 49.6877C20.061 49.83 19.1747 50.6344 18.5936 51.9587C18.0027 53.3076 17.8107 55.0244 18.0569 56.7951C18.5247 60.1942 20.5091 62.8527 22.5773 62.8527C22.6856 62.8527 22.7939 62.8478 22.9023 62.8331C25.0738 62.5388 26.4427 59.3506 25.9454 55.7258C25.4825 52.3315 23.4932 49.6681 21.4299 49.6681H21.425Z" fill="#6A110D"/>
<g style="mix-blend-mode:multiply" opacity="0.7">
<path d="M21.4742 59.4683C22.1636 60.7338 23.1189 61.705 24.2367 62.4113C25.7041 61.2684 26.5067 58.6295 26.1079 55.7012C25.7533 53.1261 24.5666 51.0071 23.114 50.0507C20.1939 50.2027 19.7064 56.2212 21.4791 59.4683H21.4742Z" fill="#300806"/>
</g>
<g style="mix-blend-mode:multiply" opacity="0.7">
<path d="M25.1624 55.4707C25.3791 57.3984 25.2757 60.7142 24.2761 62.3721C25.7139 61.2145 26.5018 58.6001 26.1029 55.7012C25.7582 53.1752 24.606 51.1003 23.1927 50.1144C24.0791 51.7527 25.0147 54.166 25.1624 55.4707Z" fill="#300806"/>
</g>
<path d="M24.1629 50.2027C24.1629 50.2027 74.025 31.7207 76.4231 30.8917C78.8212 30.0628 79.6189 30.6906 77.4818 31.706C75.3447 32.7262 25.128 50.9973 25.128 50.9973L24.158 50.1978L24.1629 50.2027Z" fill="#FFC7C8"/>
<g style="mix-blend-mode:multiply" opacity="0.7">
<path d="M21.1001 22.0186C21.1001 22.0186 23.9463 21.1749 25.0296 23.8972C26.1129 26.6195 30.5053 37.1505 31.3621 39.397C32.2189 41.6435 36.7442 54.3229 37.0741 55.6179C37.404 56.9128 36.8377 58.3009 36.109 58.7816C36.109 58.7816 62.3006 49.7269 63.6449 49.1089C64.9843 48.4909 65.1173 46.5289 63.5464 42.5607C61.9756 38.5975 54.5697 16.1914 53.9295 14.4894C53.2894 12.7824 52.6296 11.2227 50.2857 11.6249C47.9467 12.0271 21.1001 22.0186 21.1001 22.0186Z" fill="#300806"/>
</g>
<path d="M23.4243 21.2485C23.4243 21.2485 26.2705 20.4048 27.3538 23.1271C28.4371 25.8494 32.8295 36.3804 33.6863 38.6269C34.5431 40.8734 39.0684 53.5528 39.3983 54.8478C39.7282 56.1427 39.162 57.5308 38.4332 58.0115C38.4332 58.0115 64.6249 48.9568 65.9692 48.3388C67.3085 47.7208 67.4415 45.7588 65.8707 41.7955C64.2999 37.8323 56.8939 15.4262 56.2538 13.7193C55.6136 12.0172 54.9489 10.4525 52.6099 10.8548C50.2709 11.257 23.4243 21.2485 23.4243 21.2485Z" fill="#99A2A9"/>
<path d="M38.4332 58.2028C38.3643 58.2028 38.2953 58.1635 38.2609 58.0949C38.2165 58.0115 38.2461 57.9036 38.3249 57.8545C38.9896 57.418 39.5165 56.0936 39.2112 54.8919C38.8813 53.6068 34.3954 41.0254 33.5041 38.6907C33.0117 37.3957 31.3129 33.2755 29.8159 29.636C28.6932 26.9137 27.6345 24.3435 27.1765 23.1908C26.5561 21.636 25.33 21.3073 24.4141 21.3073C23.8774 21.3073 23.4785 21.4201 23.4785 21.425C23.38 21.4545 23.2766 21.4005 23.2421 21.3024C23.2077 21.2043 23.2618 21.1013 23.3554 21.067C24.4535 20.6599 50.2414 11.0657 52.5754 10.6635C52.8315 10.6193 53.0777 10.5948 53.3091 10.5948C55.2837 10.5948 55.8943 12.2183 56.431 13.6457C56.6576 14.2441 57.7015 17.3588 59.031 21.3024C61.562 28.8267 65.0287 39.137 66.048 41.7171C67.5744 45.5773 67.5744 47.7993 66.048 48.5056C64.7135 49.1187 39.5658 57.8153 38.4972 58.1881C38.4775 58.193 38.4578 58.1979 38.4332 58.1979V58.2028ZM24.7637 20.9493C25.6353 21.0277 26.886 21.4447 27.5262 23.0535C27.9841 24.2062 29.0428 26.7764 30.1655 29.4938C31.6674 33.1333 33.3662 37.2584 33.8587 38.5533C34.7499 40.893 39.2506 53.5038 39.5805 54.7938C39.8366 55.8042 39.5805 56.8686 39.1078 57.57C43.382 56.0936 64.6938 48.7067 65.8855 48.1573C67.1953 47.554 67.1313 45.4939 65.6934 41.8544C64.6692 39.2645 61.2026 28.9542 58.6666 21.4201C57.342 17.4765 56.2932 14.3667 56.0716 13.7781C55.4561 12.135 54.8947 10.9725 53.3042 10.9725C53.0974 10.9725 52.8709 10.9921 52.6345 11.0313C50.6304 11.3747 30.1261 18.9529 24.7637 20.9394V20.9493Z" fill="#2F373A"/>
<g style="mix-blend-mode:multiply" opacity="0.5">
<path d="M65.8953 41.874C66.171 43.6153 65.6638 45.1653 63.6893 46.009C59.6564 47.7355 55.2492 48.9323 51.108 50.4087C49.9902 50.811 46.6467 52.5032 45.5732 51.0807C44.5687 49.7466 46.3069 48.1623 47.4641 47.7551C53.6144 45.6116 58.2087 42.3498 58.4352 35.2376C58.6075 29.9009 56.6625 22.5826 51.3936 19.8604C43.574 15.8137 36.2961 19.2374 32.5439 25.9965C32.1598 26.6881 31.5 25.972 31.2587 25.251C30.781 23.8236 31.0666 22.0088 28.9542 22.0039C28.4716 22.0039 28.0826 21.8027 27.6148 21.6409C27.1273 21.4741 26.7235 20.6059 26.8171 20.1301C26.8269 20.0811 26.8417 20.0369 26.8565 19.9879C24.7637 20.7629 23.4243 21.2583 23.4243 21.2583C23.4243 21.2583 26.2705 20.4146 27.3538 23.1369C28.4371 25.8592 32.8295 36.3902 33.6863 38.6367C34.5431 40.8832 39.0684 53.5627 39.3983 54.8576C39.7282 56.1525 39.162 57.5406 38.4332 58.0213C38.4332 58.0213 64.6249 48.9667 65.9692 48.3486C67.2987 47.7355 67.4366 45.7931 65.9002 41.8838L65.8953 41.874Z" fill="#717F89"/>
</g>
<path d="M58.9522 34.0064C57.9526 41.0059 51.3689 45.8667 44.2535 44.8563C37.1332 43.8459 32.1745 37.3516 33.1741 30.3522C34.1737 23.3527 40.7574 18.4919 47.8728 19.5023C54.9931 20.5127 59.9518 27.007 58.9522 34.0064Z" fill="#8E9FA3"/>
<path d="M58.9916 34.0162C58.9916 34.0162 58.9325 34.3301 58.8242 34.9089C58.7798 35.2032 58.6764 35.5564 58.5484 35.9684C58.4401 36.3902 58.2677 36.8562 58.0511 37.3663C57.603 38.3817 56.9973 39.6177 55.9632 40.8047C54.9488 41.9918 53.5898 43.2033 51.8269 44.0568C50.0739 44.9053 47.9516 45.44 45.7012 45.3468C45.135 45.3124 44.5884 45.2634 43.9925 45.1702C43.446 45.0476 42.8945 44.9593 42.3282 44.7533C41.1808 44.4246 40.1172 43.8753 39.0881 43.2376C38.0638 42.5853 37.1578 41.7514 36.301 40.8538C35.4737 39.9268 34.7942 38.8722 34.2181 37.7538C33.6616 36.6208 33.2726 35.4043 33.0461 34.1487C32.8295 32.8832 32.8048 31.6079 32.9378 30.3031C33.1101 29.072 33.445 27.7721 33.9669 26.59C34.5184 25.4226 35.2226 24.3288 36.0646 23.3576C36.9313 22.4061 37.9161 21.582 38.9847 20.91C40.0729 20.2675 41.2153 19.7377 42.402 19.4091C44.7706 18.7371 47.2622 18.8107 49.3993 19.3552C51.625 19.9339 53.4863 21.0425 54.9341 22.357C56.3818 23.6765 57.3469 25.2215 57.987 26.644C58.6518 28.0713 58.8783 29.43 59.0359 30.5288C59.0999 31.083 59.1442 31.5784 59.1245 32.0101C59.1245 32.4417 59.1245 32.8096 59.0802 33.1039C59.0211 33.6974 58.9866 34.0113 58.9866 34.0113L58.9916 34.0162ZM58.9079 33.9966C58.9079 33.9966 58.9325 33.6827 58.9768 33.0941C59.0162 32.7998 59.0063 32.4368 58.9916 32.0101C58.9965 31.5784 58.9423 31.0928 58.8635 30.5484C58.706 29.4644 58.3514 28.1596 57.6325 26.8108C56.9283 25.4668 55.8746 24.0836 54.4515 22.9015C53.0383 21.7194 51.2114 20.758 49.2122 20.2233C47.1292 19.6936 44.8691 19.6985 42.6384 20.2773C41.5255 20.5667 40.4472 21.0425 39.418 21.6262C38.4036 22.2393 37.4729 23.0045 36.626 23.8727C35.8037 24.7605 35.1094 25.7758 34.548 26.8696C34.0014 27.9831 33.637 29.1308 33.4007 30.3914C33.2332 31.598 33.1938 32.8635 33.3563 34.0947C33.5632 35.3209 33.9226 36.5178 34.4495 37.6312C35.0059 38.7348 35.7199 39.7404 36.5324 40.6282C37.3695 41.4964 38.3101 42.2468 39.3244 42.8256C40.3388 43.3848 41.4024 43.8655 42.4759 44.1205C42.9929 44.2873 43.574 44.3511 44.1206 44.4492C44.6327 44.5227 45.1891 44.562 45.7111 44.5865C47.8285 44.6012 49.8277 44.1745 51.5216 43.4191C53.2155 42.6686 54.614 41.6288 55.6678 40.5301C56.7314 39.4362 57.4355 38.2738 57.8984 37.283C58.1249 36.7826 58.3219 36.3314 58.4302 35.9145C58.5582 35.5073 58.6666 35.1591 58.7109 34.8648C58.8291 34.286 58.8882 33.9721 58.8882 33.9721L58.9079 33.9966Z" fill="#605C58"/>
<path d="M58.3909 33.2658C57.4651 39.7306 51.4576 44.2236 44.9676 43.3063C38.4775 42.3842 33.9621 36.4001 34.8878 29.9353C35.8086 23.4705 41.821 18.9775 48.3111 19.8947C54.8012 20.812 59.3117 26.801 58.3909 33.2658Z" fill="white"/>
<path d="M58.4351 33.2756C58.4351 33.2756 58.381 33.5601 58.2825 34.0947C58.2431 34.3645 58.1495 34.6882 58.0314 35.0659C57.9329 35.4534 57.7802 35.8801 57.5833 36.351C57.1795 37.283 56.6329 38.4258 55.6973 39.5245C54.7765 40.6233 53.5405 41.7514 51.9303 42.5607C50.325 43.3603 48.3701 43.8655 46.302 43.7821C45.78 43.7478 45.2778 43.7085 44.7312 43.6202C44.2289 43.5074 43.7217 43.424 43.1998 43.2278C42.146 42.9188 41.171 42.4087 40.2305 41.8152C39.29 41.2119 38.4676 40.432 37.6945 39.603C36.9411 38.7496 36.3305 37.7686 35.8086 36.7385C34.7991 34.649 34.3904 32.2651 34.6563 29.8862C34.8139 28.7581 35.1094 27.5563 35.587 26.4723C36.0893 25.3932 36.7196 24.3779 37.4927 23.4852C38.2805 22.6023 39.1767 21.8322 40.1566 21.2043C41.1513 20.6059 42.1952 20.1007 43.2884 19.7917C45.46 19.1541 47.7645 19.2178 49.7292 19.7279C51.7826 20.2626 53.4864 21.2975 54.806 22.5238C56.1208 23.7599 56.9924 25.1872 57.5636 26.4968C58.1594 27.8163 58.3564 29.0622 58.4942 30.0726C58.5533 30.5827 58.5878 31.034 58.5681 31.4362C58.5681 31.8335 58.5681 32.167 58.5287 32.4417C58.4696 32.9862 58.4401 33.2756 58.4401 33.2756H58.4351ZM58.3514 33.2608C58.3514 33.2608 58.3711 32.9764 58.4155 32.4319C58.4499 32.1621 58.445 31.8286 58.4302 31.4362C58.4352 31.0438 58.3908 30.5974 58.317 30.0971C58.1791 29.1014 57.8541 27.9046 57.2041 26.6685C56.564 25.4325 55.6038 24.1621 54.3185 23.0633C53.0333 21.9744 51.364 21.0866 49.5421 20.5961C47.6364 20.1105 45.5683 20.1203 43.5346 20.6599C42.5153 20.9248 41.5354 21.376 40.5998 21.9156C39.6741 22.4796 38.832 23.1909 38.0639 23.9904C37.3154 24.8046 36.69 25.7415 36.1779 26.747C35.6756 27.7672 35.3506 28.8169 35.1241 29.9745C34.9715 31.0781 34.9222 32.2406 35.07 33.3688C35.2522 34.492 35.5722 35.5907 36.0449 36.6208C36.5472 37.6361 37.1874 38.5632 37.9309 39.3823C38.6942 40.1867 39.546 40.8832 40.4718 41.413C41.3975 41.9329 42.3725 42.3744 43.3573 42.6049C43.8301 42.7569 44.3619 42.8158 44.8641 42.909C45.3319 42.9728 45.844 43.0071 46.3217 43.0316C48.2618 43.0414 50.0838 42.6392 51.6299 41.9427C53.1761 41.2364 54.4515 40.2848 55.4068 39.2695C56.3768 38.264 57.017 37.1996 57.4405 36.2823C57.6522 35.8213 57.8295 35.4092 57.928 35.0267C58.0461 34.6539 58.1446 34.335 58.184 34.0653C58.2924 33.5306 58.3465 33.2461 58.3465 33.2461L58.3514 33.2608Z" fill="#605C58"/>
<path d="M56.3523 32.5398C56.3523 32.5398 56.3326 32.5692 56.3227 32.5839C56.3818 32.4074 56.4458 32.2406 56.4951 32.0591C56.7068 31.3479 55.8845 30.7789 55.3527 31.3773C54.6633 32.1474 54.0034 32.9371 53.3584 33.7415C53.8902 32.633 54.4023 31.5146 54.8553 30.3669C55.1458 29.6213 54.1807 29.0425 53.6588 29.6507C53.6194 29.6949 53.5849 29.7439 53.5455 29.7881C54.0133 29.1014 54.4959 28.4245 54.9981 27.7623C55.5546 27.0364 54.5254 26.281 53.9099 26.9039C53.0728 27.7525 52.2701 28.6305 51.497 29.5281C52.4917 27.934 53.4766 26.3301 54.4466 24.7212C54.1216 24.2994 53.7819 23.9021 53.4125 23.544C52.8118 24.1915 52.211 24.8438 51.6103 25.4913C52.1076 24.7506 52.6148 24.01 53.122 23.2742C52.6394 22.8377 52.1224 22.4551 51.566 22.1265C50.4236 23.2154 49.2812 24.3043 48.1388 25.403C48.9463 24.1571 49.6997 22.872 50.3891 21.5526C49.8376 21.3318 49.2467 21.1749 48.6262 21.0621C47.2081 22.5041 45.7801 23.9462 44.3915 25.4226C44.8691 24.6378 45.3369 23.8432 45.7752 23.0339C46.1051 22.4257 45.1892 21.9499 44.7706 22.4355C43.6184 23.7647 42.4021 25.0351 41.2154 26.3251C41.5896 25.7365 41.9589 25.1479 42.3578 24.5741C42.6877 24.0983 42.0771 23.3625 41.6093 23.8089C41.5748 23.8383 41.5453 23.8726 41.5108 23.907C40.5654 24.8046 39.6495 25.7218 38.7681 26.6636C39.2408 25.8101 39.7381 24.9714 40.3093 24.1718C40.5506 23.8383 40.068 23.4508 39.8071 23.7745C38.0491 25.9573 36.8919 28.4784 35.3802 30.823C35.0208 31.3822 35.8185 32.0346 36.2075 31.4754C36.9412 30.4061 37.7537 29.4006 38.6006 28.4294C37.6158 30.0922 36.6851 31.7795 35.7545 33.4766C35.3704 34.1683 36.5029 34.644 36.8772 33.9622C38.1525 31.6667 39.812 29.6704 41.5551 27.7378C39.7233 30.514 37.8078 33.2363 36.2469 36.1842C36.2469 36.1842 36.2469 36.1891 36.2469 36.194C36.3257 36.4491 36.4143 36.7041 36.5276 36.9445C36.8132 37.0671 37.1923 37.0181 37.3794 36.6698C40.2207 31.4656 44.3078 27.1443 48.4194 22.8965C46.9077 25.4815 45.1301 27.8997 43.2688 30.2688C41.0135 32.6428 38.8912 35.1247 37.0298 37.8078C37.3105 38.2198 37.6404 38.6024 38.0097 38.9604C39.8021 36.5276 41.6979 34.1683 43.5494 31.7795C45.8687 29.2829 48.3406 26.9088 50.8027 24.5544C48.8429 27.4386 46.8782 30.3227 44.9036 33.1922C43.0718 35.4632 41.3582 37.8274 39.812 40.3191C40.2207 40.5644 40.6491 40.7802 41.0824 40.9715C42.6335 38.7888 44.1502 36.5864 45.652 34.3694C47.3016 32.2945 49.0399 30.2835 50.8126 28.3068C48.4884 31.9708 46.0706 35.5858 43.7612 39.2596C43.2983 40.0003 44.2684 40.8243 44.8494 40.118C46.174 38.5141 47.4395 36.8611 48.71 35.2179C48.0058 36.5864 47.346 37.9794 46.7403 39.397C46.4202 40.1425 47.4789 40.8047 47.9713 40.1327C48.9069 38.8623 49.7785 37.5478 50.6501 36.2382C50.2069 37.2094 49.7933 38.1904 49.4387 39.2008C49.1925 39.9071 50.1823 40.6281 50.6402 39.9169C51.5364 38.5337 52.472 37.1848 53.4569 35.8752C52.93 36.9445 52.3982 38.0089 51.9599 39.1174C51.6792 39.8335 52.6739 40.4908 53.1516 39.8286C54.6633 37.7342 55.9485 35.4877 57.4504 33.3884C57.9625 32.6722 56.8939 31.8188 56.372 32.5398H56.3523Z" fill="#AEE7F4"/>
<path d="M48.5524 31.7648C48.4194 32.6869 47.5626 33.3295 46.6369 33.1971C45.7111 33.0646 45.0661 32.2112 45.199 31.289C45.332 30.362 46.1888 29.7243 47.1145 29.8568C48.0403 29.9892 48.6853 30.8427 48.5573 31.7648H48.5524Z" fill="#333B3E"/>
<path d="M46.7698 31.0683L40.718 30.102C40.718 30.102 39.5805 30.7102 40.8657 31.0045C42.1509 31.2988 46.6221 32.0984 46.6221 32.0984L46.7698 31.0732V31.0683Z" fill="#333B3E"/>
<path d="M47.607 31.4067C47.607 31.4067 46.1494 24.9812 45.7998 23.9413C45.4502 22.9015 44.5097 22.9309 44.8544 24.3583C45.204 25.7856 46.3513 31.6716 46.3513 31.6716L47.607 31.4067Z" fill="#333B3E"/>
<path d="M35.7643 35.8114C35.7643 35.8114 36.4881 35.576 37.4582 35.2277C38.2411 34.9482 38.6548 35.6545 37.6502 36.1597C36.6457 36.6698 36.1878 36.9592 36.1878 36.9592L35.7643 35.8065V35.8114Z" fill="#333B3E"/>
<path d="M50.7633 42.4528C50.7633 42.4528 50.5368 41.7318 50.2019 40.7606C49.9311 39.9758 50.6451 39.5736 51.1424 40.584C51.6348 41.5944 51.9254 42.0506 51.9254 42.0506L50.7633 42.4528Z" fill="#333B3E"/>
<path d="M57.6326 28.1596C57.6326 28.1596 56.8989 28.3509 55.9042 28.6403C55.1065 28.8709 54.7372 28.1449 55.7712 27.6986C56.8053 27.2522 57.278 26.9873 57.278 26.9873L57.6277 28.1596H57.6326Z" fill="#333B3E"/>
<path d="M43.0767 20.6059C43.0767 20.6059 43.2589 21.3417 43.5297 22.3325C43.7513 23.132 43.0127 23.4852 42.5843 22.4502C42.151 21.4103 41.8949 20.9395 41.8949 20.9395L43.0767 20.6108V20.6059Z" fill="#333B3E"/>
<path d="M27.6147 21.6311C27.6147 21.6311 27.856 22.2687 28.5996 22.6415C28.8064 22.7445 55.0818 13.1111 55.0818 13.1111C55.0818 13.1111 54.7617 11.7426 53.3682 12.2085C51.9746 12.6696 27.6147 21.6311 27.6147 21.6311Z" fill="#DFE5EA"/>
<path d="M53.0482 0.166767C52.5656 0.304107 52.1421 0.505212 51.7679 0.750463C51.3543 0.412017 50.8865 0.171672 50.399 0.0833817C48.3801 -0.284494 46.4005 0.608217 44.8051 2.01105C44.1354 1.34397 43.1851 0.922138 41.9836 0.936853C40.201 0.961378 38.2707 1.65789 36.6999 2.79585C35.6954 1.57941 34.1591 0.760273 32.603 0.760273C30.4167 0.760273 28.9 2.92338 28.3091 5.17478C26.8811 4.81671 25.394 5.2925 24.5126 7.17112C23.9168 8.45132 24.0399 9.83944 24.5618 11.1295C23.7641 11.5758 23.1437 12.341 22.8778 13.479C22.5232 14.9995 23.4342 16.5544 24.4683 17.5648C25.1331 18.2123 26.0933 18.6439 26.8959 19.0756C27.0535 19.1589 27.2061 19.257 27.3588 19.3502C27.4277 19.3355 27.4967 19.3208 27.5705 19.3061C27.994 19.1344 28.4175 18.9578 28.8508 18.8009C28.3879 18.4821 27.9201 18.1779 27.4129 17.8984C26.3887 17.3343 25.4187 16.834 24.6751 15.8971C23.6558 14.612 24.0547 13.0228 25.1478 12.2772C25.9849 13.6408 27.2209 14.8033 28.4126 15.4704C31.2489 17.0449 32.2436 13.8027 30.2049 12.0418C28.9493 10.9578 27.216 10.4575 25.7387 10.7223C25.2217 9.27046 25.2168 7.66162 26.2853 6.66099C26.8811 6.10182 27.5164 5.9792 28.1171 6.11654C27.9891 6.99944 28.0137 7.85291 28.2107 8.53961C28.5012 9.56476 29.6781 11.62 31.0224 11.409C32.2534 11.2177 32.2879 9.93263 32.017 8.92711C31.6477 7.55861 30.6629 6.35688 29.4909 5.67018C29.9587 3.76214 31.3277 1.8639 33.4155 2.09934C34.3856 2.20725 35.1882 2.79095 35.7545 3.58065C34.42 4.84614 33.5091 6.48441 33.4746 8.30417C33.4549 9.33913 34.0901 10.0062 35.1045 9.93754C36.503 9.84434 37.3942 8.06383 37.6995 6.93077C37.9999 5.82714 37.8226 4.73823 37.3401 3.78666C37.5961 3.60027 37.8522 3.42369 38.1082 3.25692C39.6594 2.24158 42.5597 1.43226 44.0566 2.72718C43.0373 3.80628 42.2396 5.07668 41.7866 6.28331C41.5158 7.00435 41.3336 8.623 42.343 8.96144C43.6233 9.39308 44.5885 8.40718 45.2089 7.39184C46.1248 5.89581 46.1396 4.13982 45.4206 2.84C46.9914 1.45188 49.1088 0.451257 50.9899 1.41264C50.5122 1.94728 50.1823 2.61927 50.0001 3.41388C49.8081 4.26245 50.3891 6.06749 51.566 5.85167C53.9641 5.40531 53.6883 3.03129 52.4474 1.45678C54.033 0.412017 56.0175 1.51074 56.7315 3.09015C57.4455 4.65975 56.5197 6.53837 55.1311 7.48994C53.9247 6.15578 51.8664 5.66528 51.1179 6.93568C51.0096 7.12207 50.8421 7.68614 51.1721 8.09816C52.1667 9.34403 53.6883 9.16745 54.8307 8.69657C55.5841 9.90811 55.3379 11.3796 54.166 12.3067C54.0724 11.875 53.9148 11.4679 53.6588 11.1196C52.3292 9.29008 47.996 10.2269 49.6062 12.6402C50.399 13.8272 51.694 14.1804 52.9448 13.9695C52.866 15.3281 52.3489 16.7898 51.2558 17.5452C50.8914 17.7954 51.6399 18.7862 51.9993 18.5753C53.3436 17.815 54.097 15.3576 54.2349 13.5378C55.5595 12.8658 56.5591 11.566 56.3917 10.016C56.3277 9.43723 56.0716 8.79958 55.6925 8.21588C56.5345 7.60276 57.2288 6.67571 57.6178 5.62604C58.642 2.84981 56.1701 -0.730849 53.0383 0.166767H53.0482ZM26.8811 11.8701C27.8167 11.9878 28.7228 12.4195 29.4909 12.9443C30.3231 13.5133 29.8307 14.769 28.9099 14.352C28.4372 14.1362 28.0137 13.7929 27.605 13.4691C27.1224 13.0866 26.6595 12.5225 26.2853 11.8652C26.4774 11.8456 26.6743 11.8407 26.8811 11.8652V11.8701ZM30.8894 8.82901C31.628 10.7076 30.4265 9.87377 29.8553 9.23122C29.3137 8.623 29.2989 7.63219 29.3235 6.88172C29.3235 6.83267 29.3334 6.78362 29.3334 6.73457C30.0474 7.30846 30.6235 8.14721 30.8894 8.82901ZM36.3799 7.5439C36.0992 8.07364 35.6954 8.49056 35.1636 8.78486C34.2231 9.3146 34.9518 6.54818 34.9962 6.44027C35.2867 5.74866 35.7643 5.14535 36.3257 4.62051C36.695 5.5868 36.7492 6.66099 36.3799 7.53899V7.5439ZM43.643 7.73519C42.8502 8.26003 42.5794 7.8382 42.6483 7.07302C42.7616 6.59723 42.9241 6.14106 43.1358 5.69961C43.3919 5.11592 43.8154 4.6058 44.2093 4.11039C44.357 3.92891 44.5195 3.74252 44.6869 3.56103C44.7608 3.7229 44.8199 3.89457 44.8691 4.08587C45.1892 5.32193 44.5146 6.89153 43.6381 7.73519H43.643ZM52.2899 3.99758C51.8664 5.20911 50.9702 5.00801 51.0293 3.55613C51.1376 2.9381 51.3937 2.42307 51.8024 2.00614C52.2603 2.51626 52.4277 3.17844 52.2899 4.00248V3.99758ZM53.6785 8.08345C53.1023 8.10307 52.2308 8.05402 52.1569 7.57333C52.1126 7.29374 52.6247 7.10245 53.0186 7.2545C53.7425 7.53409 53.8656 7.60766 54.1463 7.87744C54.1709 7.90196 54.1906 7.92649 54.2152 7.95101C54.0379 8.00987 53.8607 8.05892 53.6785 8.08345ZM51.3395 11.3747C52.4031 11.1442 52.7872 11.9878 52.9152 12.8266C51.7039 12.7923 49.8081 11.7082 51.3395 11.3747Z" fill="#033262"/>
<path d="M49.7243 19.8751L51.4625 16.5985C51.4625 16.5985 52.6886 16.3337 53.1367 17.4422L51.8614 20.758L49.7194 19.8751H49.7243Z" fill="#8E9FA3"/>
<path d="M51.8663 20.9444C51.8416 20.9444 51.817 20.9444 51.7924 20.9296L49.6504 20.0467C49.6012 20.0271 49.5618 19.9879 49.5421 19.9339C49.5224 19.8849 49.5273 19.826 49.5519 19.7819L51.2901 16.5053C51.3148 16.4563 51.364 16.4219 51.4182 16.4072C51.4231 16.4072 51.5708 16.3729 51.7776 16.3729C52.2011 16.3729 52.9594 16.5004 53.3091 17.3637C53.3287 17.4079 53.3287 17.4569 53.3091 17.501L52.0337 20.8168C52.014 20.8659 51.9795 20.9051 51.9303 20.9247C51.9057 20.9345 51.881 20.9395 51.8564 20.9395L51.8663 20.9444ZM49.9902 19.7819L51.7579 20.5078L52.9348 17.4471C52.6738 16.883 52.1666 16.7604 51.7826 16.7604C51.7038 16.7604 51.6348 16.7653 51.5856 16.7702L49.9902 19.777V19.7819Z" fill="#605C58"/>
<path d="M51.3198 10.3299C50.6353 10.3348 49.2762 11.1049 49.9952 11.9388C50.0641 12.0172 50.1724 11.9829 50.1971 11.8897C50.2955 11.5218 50.266 11.3943 50.6451 11.1687C51.8762 10.4378 53.0974 11.3305 53.5356 12.3017C53.575 12.3949 53.7326 12.3606 53.7129 12.2527C53.4667 11.0559 52.5656 10.3201 51.3198 10.3348V10.3299Z" fill="#04B7FF"/>
<path d="M53.4618 6.45007C52.925 6.24406 51.7777 6.21463 51.3985 6.81304C51.1326 7.22996 51.1572 7.72537 51.6743 7.98043C51.7186 8.00495 51.7777 7.96081 51.7678 7.90685C51.4625 6.00862 53.8212 7.18091 54.5008 7.74989C55.5742 8.65241 55.589 9.84924 55.6432 11.1343C55.6481 11.2717 55.8549 11.2913 55.9041 11.1736C56.7609 9.17235 55.3625 7.17601 53.4667 6.45007H53.4618Z" fill="#04B7FF"/>
<path d="M53.4666 0.289378C51.5019 0.534629 50.064 2.58983 50.5909 4.49787C50.6106 4.56164 50.7091 4.54202 50.714 4.48316C50.8913 2.73698 51.5167 1.03984 53.5257 0.779879C55.3624 0.544439 56.3867 2.11895 57.0958 3.52178C57.1548 3.63459 57.3715 3.6444 57.3715 3.48744C57.3961 1.49601 55.3477 0.0539379 53.4617 0.289378H53.4666Z" fill="#04B7FF"/>
<path d="M42.3529 8.21096C42.2839 8.13738 42.2495 8.09814 42.1707 8.03928C42.1017 7.98533 41.9885 8.03928 42.0033 8.13248C42.0279 8.28453 42.0377 8.30415 42.1658 8.39244C42.2839 8.47092 42.4563 8.32868 42.3529 8.21096Z" fill="#04B7FF"/>
<path d="M47.4444 0.848546C44.9823 1.77559 41.7816 4.46844 41.885 7.35749C41.8899 7.48992 42.1115 7.52916 42.1509 7.39673C42.9191 4.8216 45.0956 2.32005 47.5823 1.18699C47.794 1.08889 47.666 0.770065 47.4444 0.853451V0.848546Z" fill="#04B7FF"/>
<path d="M48.2076 0.407114C47.8531 0.358063 47.7743 0.902519 48.1288 0.951569C48.4834 1.00062 48.5621 0.456164 48.2076 0.407114Z" fill="#04B7FF"/>
<path d="M38.5218 1.94729C36.7786 2.47703 35.5476 3.96815 34.6661 5.4789C34.1639 6.34218 33.2283 8.0295 34.0802 8.93202C34.1442 9.00069 34.2673 8.96635 34.2574 8.85844C33.9571 5.84677 36.626 3.87496 38.6695 2.20235C38.8074 2.08954 38.6843 1.89334 38.5218 1.94239V1.94729Z" fill="#04B7FF"/>
<path d="M38.9404 1.70203C38.9404 1.70203 38.9305 1.71184 38.9256 1.71675C38.8764 1.77561 38.8616 1.87371 38.8911 1.94238C38.8911 1.94728 38.8961 1.95709 38.901 1.962C39.0093 2.19253 39.3688 2.16801 39.4032 1.89823C39.4426 1.62846 39.1078 1.51074 38.9355 1.69713L38.9404 1.70203Z" fill="#04B7FF"/>
<path d="M31.3621 1.52053C28.8458 2.61926 27.4966 6.9749 29.033 9.27535C29.0625 9.31949 29.1413 9.29006 29.1314 9.23611C28.5455 6.17538 29.2053 3.90927 31.5 1.76088C31.6083 1.65787 31.5197 1.45186 31.3621 1.52053Z" fill="#04B7FF"/>
<path d="M31.9973 1.25567H31.9579C31.6871 1.29982 31.8249 1.71675 32.0465 1.60393C32.0564 1.59903 32.0711 1.58922 32.0859 1.58431C32.2484 1.50093 32.1992 1.22624 31.9973 1.25567Z" fill="#04B7FF"/>
<path d="M25.7436 6.82285C25.8322 6.61684 25.5614 6.47459 25.4186 6.62665C23.7444 8.47093 24.5667 11.8603 26.3542 13.3661C26.3837 13.3907 26.4379 13.3563 26.4182 13.3171C25.2955 11.1785 24.7243 9.13311 25.7485 6.81794L25.7436 6.82285Z" fill="#04B7FF"/>
<path d="M26.241 6.17539C26.1868 5.93013 25.8175 5.9007 25.7781 6.17539C25.7289 6.52855 26.3099 6.49912 26.241 6.17539Z" fill="#04B7FF"/>
<path d="M25.1478 17.4667C24.2811 16.2601 23.3406 15.0142 23.6262 13.4446C23.6508 13.3024 23.4588 13.268 23.3997 13.3808C22.6167 14.8474 23.5868 16.9713 25.0148 17.6433C25.1231 17.6923 25.2216 17.5599 25.1527 17.4667H25.1478Z" fill="#04B7FF"/>
</g>
<defs>
<clipPath id="clip0_52_59696">
<rect width="82.8344" height="63.2157" fill="white"/>
</clipPath>
</defs>
</svg>
