<svg width="64" height="105" viewBox="0 0 64 105" fill="none" xmlns="http://www.w3.org/2000/svg">
<path d="M46.6851 26.6409C39.9578 26.6409 34.4735 21.1566 34.4735 14.4293C34.4735 7.70192 39.9578 2.21765 46.6851 2.21765C53.4125 2.21765 58.8968 7.70192 58.8968 14.4293C58.8968 21.1566 53.4125 26.6409 46.6851 26.6409ZM46.6851 4.35286C41.1278 4.35286 36.6087 8.87189 36.6087 14.4293C36.6087 19.9867 41.1278 24.5057 46.6851 24.5057C52.2425 24.5057 56.7616 19.9867 56.7616 14.4293C56.7616 8.87189 52.2425 4.35286 46.6851 4.35286Z" fill="url(#paint0_linear_52_59346)"/>
<path fill-rule="evenodd" clip-rule="evenodd" d="M41.2448 23.0432C41.2448 23.0432 48.6595 38.7062 54.0414 71.6557L62.9332 70.9537C62.9332 70.9537 62.0411 38.8086 46.6851 23.4527L41.2448 23.0286V23.0432Z" fill="url(#paint1_linear_52_59346)"/>
<path fill-rule="evenodd" clip-rule="evenodd" d="M26.269 0.448051L27.3366 22.6922H32.7332L33.7423 1.03304C33.7423 1.03304 30.4371 0.00930974 26.269 0.448051Z" fill="url(#paint2_linear_52_59346)"/>
<path fill-rule="evenodd" clip-rule="evenodd" d="M42.3417 33.0757L29.706 32.6808L17.0702 33.0757C17.0702 33.0757 -3.09723 66.6393 15.0228 104.43H29.706H44.3892C62.5092 66.6393 42.3417 33.0757 42.3417 33.0757Z" fill="url(#paint3_radial_52_59346)"/>
<path fill-rule="evenodd" clip-rule="evenodd" d="M25.7866 5.30336C25.7866 5.30336 32.7334 3.89939 36.565 5.05474C36.565 5.05474 34.0496 17.4419 35.7899 19.9573C37.5449 22.4874 47.6359 21.2297 47.6359 21.2297C47.6359 21.2297 62.6847 38.0042 63.9571 70.9537H62.9334C62.9334 70.9537 60.1693 41.8213 46.2758 24.14C45.7347 23.4672 35.6437 22.4874 32.7334 21.2297L33.2452 10.9485C31.929 9.26666 26.2692 10.7876 26.2692 10.7876L25.7866 5.30336Z" fill="url(#paint4_linear_52_59346)"/>
<path fill-rule="evenodd" clip-rule="evenodd" d="M32.7334 21.2298V22.6777L46.2759 24.1255C46.2759 24.1255 40.8501 21.8002 32.7334 21.2152V21.2298Z" fill="url(#paint5_linear_52_59346)"/>
<path fill-rule="evenodd" clip-rule="evenodd" d="M19.6586 32.9733L20.9748 22.6775C20.9748 22.6775 40.0893 22.1364 46.2755 24.1254L45.1933 33.2073C45.1933 33.2073 27.7168 32.5638 19.6586 32.9587V32.9733Z" fill="url(#paint6_linear_52_59346)"/>
<path fill-rule="evenodd" clip-rule="evenodd" d="M35.2486 63.4073C29.545 63.3781 26.7078 63.3781 21.0042 63.4073C21.2381 54.4424 21.6623 50.4206 22.3935 44.2782C27.0442 44.2343 29.3841 44.2197 34.0348 44.2782C34.6782 50.4206 35.0439 54.4278 35.2486 63.4073Z" fill="url(#paint7_radial_52_59346)"/>
<path fill-rule="evenodd" clip-rule="evenodd" d="M14.6861 63.4512C8.98248 63.4804 6.14529 63.4951 0.44165 63.5243C1.33376 54.574 2.86935 50.5814 5.57492 44.4683C10.2256 44.4244 12.5655 44.3952 17.2162 44.3513C15.8707 50.4791 15.1249 54.4862 14.6715 63.4512H14.6861Z" fill="url(#paint8_radial_52_59346)"/>
<path fill-rule="evenodd" clip-rule="evenodd" d="M56.7175 63.5243C51.0285 63.4951 48.1767 63.4804 42.473 63.4512C42.0343 54.4862 41.2738 50.4791 39.9283 44.3513C44.579 44.3952 46.919 44.4244 51.5696 44.4683C54.2898 50.5814 55.8108 54.574 56.7029 63.5243H56.7175Z" fill="url(#paint9_radial_52_59346)"/>
<path fill-rule="evenodd" clip-rule="evenodd" d="M33.3181 38.2676C29.2817 38.2091 27.2488 38.2237 23.2124 38.2676C23.8998 33.7778 24.2361 32.4031 24.2361 32.3738C27.5121 32.3007 29.1354 32.2861 32.4113 32.3738C32.4113 32.4031 32.7185 33.7632 33.3181 38.2676Z" fill="url(#paint10_radial_52_59346)"/>
<path fill-rule="evenodd" clip-rule="evenodd" d="M18.7227 38.3406C14.6863 38.3991 12.6535 38.4283 8.61707 38.4868C11.1764 34.0263 12.4341 32.6662 12.4341 32.6662C15.71 32.5931 17.3334 32.5492 20.6093 32.4761C20.6093 32.4907 19.9805 33.8508 18.7227 38.3406Z" fill="url(#paint11_radial_52_59346)"/>
<path fill-rule="evenodd" clip-rule="evenodd" d="M48.557 38.4722C44.5205 38.4137 42.4877 38.3844 38.4513 38.3259C37.1936 33.8361 36.5647 32.4761 36.5647 32.4614C39.8406 32.5345 41.464 32.5784 44.7399 32.6515C44.7399 32.6515 46.0123 33.997 48.557 38.4722Z" fill="url(#paint12_radial_52_59346)"/>
<path fill-rule="evenodd" clip-rule="evenodd" d="M33.0257 100.51C29.2232 100.51 27.322 100.51 23.5342 100.51C22.0279 91.7793 21.2089 82.9314 21.0042 74.0834C26.7078 74.0688 29.5596 74.0542 35.2632 74.0834C35.0731 82.9314 34.3565 91.7647 33.0257 100.525V100.51Z" fill="url(#paint13_radial_52_59346)"/>
<path fill-rule="evenodd" clip-rule="evenodd" d="M19.3076 100.51C15.5051 100.51 13.6039 100.51 9.81614 100.51C5.06311 92.0132 1.31918 83.9257 0.397827 74.1418C6.10146 74.1272 8.95328 74.1125 14.6569 74.0979C15.0664 83.0482 16.602 91.9547 19.3076 100.51Z" fill="url(#paint14_radial_52_59346)"/>
<path fill-rule="evenodd" clip-rule="evenodd" d="M47.3434 100.51C43.5409 100.51 41.6397 100.51 37.8519 100.51C40.5721 91.9547 42.0931 83.0482 42.5026 74.0979C48.2062 74.1125 51.058 74.1272 56.7617 74.1418C55.8403 83.9111 52.0964 91.9985 47.3434 100.51Z" fill="url(#paint15_radial_52_59346)"/>
<path fill-rule="evenodd" clip-rule="evenodd" d="M38.4516 38.3407L36.7405 43.6933L50.5316 44.059L48.5572 38.4723L38.4516 38.3407Z" fill="#575900"/>
<path fill-rule="evenodd" clip-rule="evenodd" d="M33.318 38.2675L36.7402 43.6932L19.6586 43.2691L23.2124 38.2675H33.318Z" fill="#575900"/>
<path fill-rule="evenodd" clip-rule="evenodd" d="M18.7228 38.3407L19.6588 43.2692L7.47644 44.1467L8.61717 38.4723L18.7228 38.3407Z" fill="#575900"/>
<path fill-rule="evenodd" clip-rule="evenodd" d="M49.4786 43.6641L51.5846 44.4684L39.9433 44.3514L36.7405 43.6933L49.4786 43.6641Z" fill="#A29100"/>
<path fill-rule="evenodd" clip-rule="evenodd" d="M19.6586 43.2692L22.3934 44.2929L34.0347 44.2783L36.7402 43.6933L19.6586 43.2692Z" fill="#A29100"/>
<path fill-rule="evenodd" clip-rule="evenodd" d="M8.61701 43.6933L5.57507 44.4684L17.2163 44.3514L19.6587 43.2692L8.61701 43.6933Z" fill="#A29100"/>
<path fill-rule="evenodd" clip-rule="evenodd" d="M0.442017 63.5244L3.77645 70.2225L18.5035 70.9538L14.6865 63.4513L0.442017 63.5244Z" fill="#575400"/>
<path fill-rule="evenodd" clip-rule="evenodd" d="M42.4732 63.4513L39.5044 70.9538H55.9426L56.7177 63.5244L42.4732 63.4513Z" fill="#575400"/>
<path fill-rule="evenodd" clip-rule="evenodd" d="M21.004 63.422L18.5032 70.9537H40.645L35.2485 63.4073L21.004 63.422Z" fill="#575400"/>
<path fill-rule="evenodd" clip-rule="evenodd" d="M3.77626 70.2227L0.397949 74.1421L14.657 74.0982L18.5033 70.9539L3.77626 70.2227Z" fill="#A29100"/>
<path fill-rule="evenodd" clip-rule="evenodd" d="M40.645 70.9539L35.2631 74.0689H20.9894L18.5032 70.9539H40.645Z" fill="#A29100"/>
<path fill-rule="evenodd" clip-rule="evenodd" d="M55.9425 70.9539L56.7615 74.142L42.5024 74.0982L39.9431 70.9539H55.9425Z" fill="#A29100"/>
<path style="mix-blend-mode:multiply" opacity="0.51" fill-rule="evenodd" clip-rule="evenodd" d="M14.4377 103.187C14.4377 103.187 33.1719 99.2525 45.0179 103.07L46.1294 100.51H13.2677L14.4377 103.187Z" fill="url(#paint16_radial_52_59346)"/>
<path fill-rule="evenodd" clip-rule="evenodd" d="M23.2125 23.0432C23.2125 23.0432 35.3657 22.4875 44.4037 24.4764L44.1697 31.5402H43.6432C43.6432 31.5402 43.7164 26.2899 43.2776 25.5587C37.925 22.9555 24.3386 23.6721 24.3386 23.6721L23.2125 23.0432Z" fill="url(#paint17_linear_52_59346)"/>
<path fill-rule="evenodd" clip-rule="evenodd" d="M26.269 10.7877L26.7809 11.0802C26.7809 11.0802 30.8612 10.5245 33.245 10.9486L33.6838 10.0126C33.6838 10.0126 29.4719 9.61774 26.269 10.7877Z" fill="url(#paint18_linear_52_59346)"/>
<path fill-rule="evenodd" clip-rule="evenodd" d="M36.5649 32.4761L34.7222 32.7832L36.7404 43.6932L38.4515 38.3406L36.5649 32.4761Z" fill="#6F7400"/>
<path fill-rule="evenodd" clip-rule="evenodd" d="M24.2361 32.3885L22.291 32.8858L19.6586 43.2693L23.2124 38.2677L24.2361 32.3885Z" fill="#6F7400"/>
<path fill-rule="evenodd" clip-rule="evenodd" d="M20.6094 32.4761L21.9402 32.9002L19.6588 43.2691L18.7228 38.3406L20.6094 32.4761Z" fill="#575400"/>
<path fill-rule="evenodd" clip-rule="evenodd" d="M32.4114 32.3738L34.7221 32.7833L36.7403 43.6933L33.3181 38.2675L32.4114 32.3738Z" fill="#575400"/>
<g style="mix-blend-mode:soft-light" opacity="0.5">
<path fill-rule="evenodd" clip-rule="evenodd" d="M40.8645 48.7974C40.8645 48.7974 43.8333 61.4331 44.1551 62.1205C44.4768 62.7932 56.7177 63.5244 56.7177 63.5244L42.4732 63.4513C42.4732 63.4513 42.0637 54.2231 40.8645 48.7974Z" fill="#EFDB45"/>
</g>
<g style="mix-blend-mode:soft-light" opacity="0.5">
<path fill-rule="evenodd" clip-rule="evenodd" d="M21.94 48.1684C21.94 48.1684 20.8139 56.5338 21.004 63.422L32.9671 63.4512C32.9671 63.4512 22.759 63.2026 21.9985 62.6469C21.238 62.1058 21.9547 48.1538 21.9547 48.1538L21.94 48.1684Z" fill="#EFDB45"/>
</g>
<g style="mix-blend-mode:soft-light" opacity="0.5">
<path fill-rule="evenodd" clip-rule="evenodd" d="M11.5858 63.4658H14.6863L15.1835 56.4752C15.1835 56.4752 14.5254 62.2666 13.9696 62.7638C13.4139 63.2757 11.6004 63.4512 11.6004 63.4512L11.5858 63.4658Z" fill="#EFDB45"/>
</g>
<g style="mix-blend-mode:soft-light" opacity="0.5">
<path fill-rule="evenodd" clip-rule="evenodd" d="M21.3845 82.4049C21.3845 82.4049 21.5161 75.7068 22.2474 75.0779C22.9786 74.4491 29.7206 74.0542 29.7206 74.0542H21.0043C21.0043 74.0542 21.2821 80.8547 21.3845 82.4049Z" fill="#EFDB45"/>
</g>
<g style="mix-blend-mode:soft-light" opacity="0.5">
<path fill-rule="evenodd" clip-rule="evenodd" d="M14.657 74.098L14.9057 77.9882C14.9057 77.9882 14.3207 75.1802 14.0574 74.9024C13.7942 74.6391 11.0009 74.0834 11.0009 74.0834H14.6717L14.657 74.098Z" fill="#EFDB45"/>
</g>
<g style="mix-blend-mode:soft-light" opacity="0.5">
<path fill-rule="evenodd" clip-rule="evenodd" d="M42.2395 78.2369L42.5027 74.0981L46.6708 74.0542C46.6708 74.0542 43.2779 74.5953 42.9854 75.0341C42.6929 75.4728 42.2395 78.2369 42.2395 78.2369Z" fill="#EFDB45"/>
</g>
<defs>
<linearGradient id="paint0_linear_52_59346" x1="42.2762" y1="25.8025" x2="51.1003" y2="3.02907" gradientUnits="userSpaceOnUse">
<stop offset="0.19" stop-color="#E0DCD5"/>
<stop offset="1" stop-color="#A490B8"/>
</linearGradient>
<linearGradient id="paint1_linear_52_59346" x1="52.0817" y1="71.6557" x2="52.0817" y2="23.0432" gradientUnits="userSpaceOnUse">
<stop offset="0.02" stop-color="#341C33"/>
<stop offset="1" stop-color="#271B24"/>
</linearGradient>
<linearGradient id="paint2_linear_52_59346" x1="26.2544" y1="11.519" x2="33.7423" y2="11.519" gradientUnits="userSpaceOnUse">
<stop stop-color="#4F4555"/>
<stop offset="0.98" stop-color="#341C33"/>
</linearGradient>
<radialGradient id="paint3_radial_52_59346" cx="0" cy="0" r="1" gradientUnits="userSpaceOnUse" gradientTransform="translate(6.66505 42.4764) scale(35.5766 39.2825)">
<stop stop-color="#A79500"/>
<stop offset="0.39" stop-color="#7A7701"/>
<stop offset="0.98" stop-color="#5B5E04"/>
</radialGradient>
<linearGradient id="paint4_linear_52_59346" x1="44.8572" y1="70.9537" x2="44.8572" y2="4.60138" gradientUnits="userSpaceOnUse">
<stop offset="0.02" stop-color="#412B40"/>
<stop offset="1" stop-color="#69616F"/>
</linearGradient>
<linearGradient id="paint5_linear_52_59346" x1="39.5046" y1="24.1402" x2="39.5046" y2="21.2298" gradientUnits="userSpaceOnUse">
<stop offset="0.02" stop-color="#341C33"/>
<stop offset="1" stop-color="#271B24"/>
</linearGradient>
<linearGradient id="paint6_linear_52_59346" x1="19.6586" y1="27.9278" x2="46.2609" y2="27.9278" gradientUnits="userSpaceOnUse">
<stop stop-color="#4F4555"/>
<stop offset="0.98" stop-color="#341C33"/>
</linearGradient>
<radialGradient id="paint7_radial_52_59346" cx="0" cy="0" r="1" gradientUnits="userSpaceOnUse" gradientTransform="translate(21.7061 49.6566) scale(53.8189 52.7425)">
<stop stop-color="#A79500"/>
<stop offset="0.39" stop-color="#7A7701"/>
<stop offset="0.82" stop-color="#646503"/>
<stop offset="0.98" stop-color="#888804"/>
</radialGradient>
<radialGradient id="paint8_radial_52_59346" cx="0" cy="0" r="1" gradientUnits="userSpaceOnUse" gradientTransform="translate(21.706 49.6566) scale(53.8189 52.7425)">
<stop stop-color="#A79500"/>
<stop offset="0.39" stop-color="#7A7701"/>
<stop offset="0.82" stop-color="#646503"/>
<stop offset="0.98" stop-color="#888804"/>
</radialGradient>
<radialGradient id="paint9_radial_52_59346" cx="0" cy="0" r="1" gradientUnits="userSpaceOnUse" gradientTransform="translate(21.706 49.6566) scale(53.8189 52.7425)">
<stop stop-color="#A79500"/>
<stop offset="0.39" stop-color="#7A7701"/>
<stop offset="0.82" stop-color="#646503"/>
<stop offset="0.98" stop-color="#888804"/>
</radialGradient>
<radialGradient id="paint10_radial_52_59346" cx="0" cy="0" r="1" gradientUnits="userSpaceOnUse" gradientTransform="translate(21.7061 49.6567) scale(53.8189 52.7425)">
<stop stop-color="#A79500"/>
<stop offset="0.39" stop-color="#7A7701"/>
<stop offset="0.82" stop-color="#646503"/>
<stop offset="0.98" stop-color="#888804"/>
</radialGradient>
<radialGradient id="paint11_radial_52_59346" cx="0" cy="0" r="1" gradientUnits="userSpaceOnUse" gradientTransform="translate(21.7062 49.6566) scale(53.8189 52.7425)">
<stop stop-color="#A79500"/>
<stop offset="0.39" stop-color="#7A7701"/>
<stop offset="0.82" stop-color="#646503"/>
<stop offset="0.98" stop-color="#888804"/>
</radialGradient>
<radialGradient id="paint12_radial_52_59346" cx="0" cy="0" r="1" gradientUnits="userSpaceOnUse" gradientTransform="translate(21.706 49.6709) scale(53.8189 52.7425)">
<stop stop-color="#A79500"/>
<stop offset="0.39" stop-color="#7A7701"/>
<stop offset="0.82" stop-color="#646503"/>
<stop offset="0.98" stop-color="#888804"/>
</radialGradient>
<radialGradient id="paint13_radial_52_59346" cx="0" cy="0" r="1" gradientUnits="userSpaceOnUse" gradientTransform="translate(21.7061 49.6566) scale(53.8189 52.7425)">
<stop stop-color="#A79500"/>
<stop offset="0.39" stop-color="#7A7701"/>
<stop offset="0.82" stop-color="#646503"/>
<stop offset="0.98" stop-color="#888804"/>
</radialGradient>
<radialGradient id="paint14_radial_52_59346" cx="0" cy="0" r="1" gradientUnits="userSpaceOnUse" gradientTransform="translate(21.706 49.6565) scale(53.8189 52.7425)">
<stop stop-color="#A79500"/>
<stop offset="0.39" stop-color="#7A7701"/>
<stop offset="0.82" stop-color="#646503"/>
<stop offset="0.98" stop-color="#888804"/>
</radialGradient>
<radialGradient id="paint15_radial_52_59346" cx="0" cy="0" r="1" gradientUnits="userSpaceOnUse" gradientTransform="translate(21.7063 49.6565) scale(53.8189 52.7425)">
<stop stop-color="#A79500"/>
<stop offset="0.39" stop-color="#7A7701"/>
<stop offset="0.82" stop-color="#646503"/>
<stop offset="0.98" stop-color="#888804"/>
</radialGradient>
<radialGradient id="paint16_radial_52_59346" cx="0" cy="0" r="1" gradientUnits="userSpaceOnUse" gradientTransform="translate(29.6912 101.841) scale(11.6559 11.6559)">
<stop stop-color="white"/>
<stop offset="0.99" stop-color="#6F864F"/>
</radialGradient>
<linearGradient id="paint17_linear_52_59346" x1="23.1979" y1="27.2698" x2="44.3891" y2="27.2698" gradientUnits="userSpaceOnUse">
<stop offset="0.02" stop-color="#341C33"/>
<stop offset="1" stop-color="#271B24"/>
</linearGradient>
<linearGradient id="paint18_linear_52_59346" x1="26.2544" y1="10.5099" x2="33.6838" y2="10.5099" gradientUnits="userSpaceOnUse">
<stop offset="0.02" stop-color="#341C33"/>
<stop offset="1" stop-color="#271B24"/>
</linearGradient>
</defs>
</svg>
