<svg width="62" height="129" viewBox="0 0 62 129" fill="none" xmlns="http://www.w3.org/2000/svg">
<circle cx="34.5" cy="27.5" r="27.5" fill="#EDE0A2"/>
<path d="M36.8409 63.4778C39.7889 80.193 47.4957 108.873 24.3151 114.354C18.6366 115.697 13.969 113.675 8.70314 111.806C8.47564 111.725 3.50849 109.01 4.25487 108.751C6.25347 108.057 17.968 103.79 10.3463 106.484C9.54003 106.769 3.73898 107.779 3.43879 108.625C2.62092 110.929 9.08055 119.595 10.1913 121.931" stroke="#EDE0A2" stroke-width="2" stroke-linecap="round"/>
<path d="M36.8851 37.0162L31.5517 37.1997L31.5057 36.7868C31.4138 35.6856 31.1839 34.6761 31.1839 33.6208C31.1839 30.4548 32.0115 27.5641 33.9885 24.9487C35.2299 23.3428 36.7011 21.0486 36.7011 19.1673C36.7011 17.9744 36.0115 17.1026 34.908 17.1026C32.8851 17.1026 32.1954 19.6262 32.4253 21.5074L32.4713 22.0121L27.1379 21.9204L27.046 21.5992C27 21.4157 27 21.1862 27 21.0027C27 16.2308 28.5632 11 34.3103 11C38.8161 11 43 14.9919 43 19.5344C43 23.0216 40.977 26.2335 38.8621 28.8489C37.2069 30.8219 36.5632 34.0337 36.8391 36.5574L36.8851 37.0162ZM30.954 42.0175C30.954 40.4575 32.1954 38.9892 33.9885 38.9892C35.7356 38.9892 37.023 40.4575 37.023 42.0175C37.023 43.5317 35.6897 45 33.9885 45C32.1954 45 30.954 43.5776 30.954 42.0175Z" fill="#472816"/>
</svg>
