<svg width="57" height="57" viewBox="0 0 57 57" fill="none" xmlns="http://www.w3.org/2000/svg">
<circle cx="28.5" cy="27.5" r="16.5" fill="#EDE0A2"/>
<path d="M22.2163 50.3854C9.9462 47.0977 2.66505 34.4864 5.9528 22.2163C9.24055 9.94624 21.8519 2.66509 34.1219 5.95284C46.392 9.24059 53.6731 21.8519 50.3854 34.122C47.0976 46.392 34.4863 53.6732 22.2163 50.3854ZM24.1616 34.2387L22.971 38.682L27.4143 39.8726L28.6049 35.4293L24.1616 34.2387ZM29.5841 31.7747C31.5138 31.715 33.3578 30.9642 34.7803 29.659C36.2029 28.3538 37.1093 26.5811 37.3345 24.6638C37.5598 22.7464 37.0889 20.8119 36.0076 19.2125C34.9262 17.6132 33.3064 16.4555 31.4432 15.9502C29.6456 15.4684 27.7366 15.6241 26.0408 16.3908C24.3451 17.1576 22.9673 18.4881 22.1418 20.156L26.2667 22.1971C26.5562 21.6113 27.0061 21.1198 27.564 20.7798C28.1219 20.4398 28.765 20.2652 29.4182 20.2763C30.0715 20.2875 30.7082 20.4839 31.2542 20.8427C31.8003 21.2016 32.2332 21.7081 32.5025 22.3033C32.7719 22.8986 32.8668 23.5581 32.776 24.2052C32.6852 24.8522 32.4126 25.4602 31.9898 25.9583C31.567 26.4564 31.0114 26.8243 30.3877 27.019C29.764 27.2138 29.0979 27.2274 28.4667 27.0583C27.8775 26.9004 27.2497 26.9831 26.7215 27.2881C26.1932 27.5931 25.8077 28.0954 25.6498 28.6847L24.7569 32.0171L29.2002 33.2077L29.5841 31.7747Z" fill="#472816"/>
</svg>
