<svg width="40" height="40" viewBox="0 0 40 40" fill="none" xmlns="http://www.w3.org/2000/svg">
<circle cx="20.2161" cy="20.2845" r="19.4122" fill="#472816"/>
<path d="M15.0585 24.0363H11.7761C11.5523 24.0363 11.3376 23.9474 11.1793 23.7891C11.0211 23.6308 10.9321 23.4161 10.9321 23.1923V18.1283C10.9321 17.9044 11.0211 17.6897 11.1793 17.5314C11.3376 17.3732 11.5523 17.2842 11.7761 17.2842H15.0585L19.5267 13.628C19.5885 13.5773 19.6634 13.5452 19.7428 13.5355C19.8221 13.5258 19.9026 13.5387 19.9749 13.573C20.0471 13.6072 20.1082 13.6612 20.1509 13.7288C20.1936 13.7964 20.2163 13.8747 20.2162 13.9546V27.3659C20.2163 27.4459 20.1936 27.5242 20.1509 27.5917C20.1082 27.6593 20.0471 27.7134 19.9749 27.7476C19.9026 27.7818 19.8221 27.7948 19.7428 27.7851C19.6634 27.7753 19.5885 27.7432 19.5267 27.6925L15.0593 24.0363H15.0585ZM26.4669 27.5254L25.2718 26.3303C26.0719 25.6184 26.712 24.745 27.1499 23.7676C27.5878 22.7903 27.8136 21.7312 27.8123 20.6603C27.8133 19.5344 27.5636 18.4225 27.0813 17.4053C26.5989 16.388 25.896 15.4909 25.0237 14.7792L26.2222 13.5807C27.2506 14.4514 28.0767 15.5359 28.6428 16.7586C29.209 17.9813 29.5016 19.3128 29.5003 20.6603C29.5003 23.3805 28.3305 25.8273 26.4669 27.5254ZM23.4766 24.5351L22.2764 23.3349C22.6862 23.0199 23.018 22.6148 23.2461 22.151C23.4743 21.6872 23.5927 21.1771 23.5922 20.6603C23.5922 19.4533 22.9592 18.3941 22.0055 17.7974L23.22 16.5829C23.8593 17.0531 24.379 17.6673 24.7369 18.3756C25.0948 19.084 25.2809 19.8666 25.2803 20.6603C25.2803 22.2149 24.5797 23.6059 23.4766 24.5351Z" fill="#EDE0A2"/>
</svg>
