<svg width="21" height="16" viewBox="0 0 21 16" fill="none" xmlns="http://www.w3.org/2000/svg">
<path d="M19.5656 0.0653823L0.546809 6.77709C0.535494 6.78107 0.524525 6.78582 0.513996 6.7913C0.359772 6.87098 -0.716516 7.47134 0.801115 8.00961L0.816702 8.01484L5.34539 9.34911C5.37995 9.35934 5.41653 9.36257 5.45259 9.35856C5.48866 9.35456 5.52332 9.34342 5.55417 9.32591L16.7867 2.93477C16.8142 2.9191 16.8449 2.90855 16.8769 2.90373C17.0332 2.88016 17.4832 2.83602 17.1985 3.16557C16.8765 3.53962 9.20428 9.80957 8.35276 10.5049C8.30366 10.5451 8.27328 10.601 8.26786 10.6609L7.89624 14.7007C7.8962 14.7419 7.90666 14.7825 7.92681 14.8193C7.94696 14.8561 7.97624 14.8881 8.01232 14.9128C8.06352 14.9422 8.12374 14.9559 8.18408 14.9517C8.24441 14.9475 8.30168 14.9258 8.34743 14.8896L11.0381 12.6965C11.0807 12.6619 11.1349 12.6416 11.1918 12.6389C11.2487 12.6363 11.3049 12.6515 11.3511 12.682L16.0455 15.7904L16.0607 15.7997C16.1743 15.8637 17.4015 16.5149 17.7559 15.0606L20.9963 1.00913C21.0008 0.964616 21.0447 0.475349 20.6612 0.186203C20.2584 -0.116035 19.6882 0.0365798 19.6025 0.0530383C19.5899 0.0562485 19.5775 0.0603764 19.5656 0.0653823Z" fill="#EDE0A2"/>
</svg>
