<svg width="55" height="55" viewBox="0 0 55 55" fill="none" xmlns="http://www.w3.org/2000/svg">
<path d="M27.5 55C42.7397 55 55 42.7397 55 27.5C55 12.2603 42.7397 0 27.5 0C12.2603 0 0 12.2603 0 27.5C0 42.7397 12.2603 55 27.5 55Z" fill="#50AF95"/>
<g clip-path="url(#clip0_518_2203)">
<path fill-rule="evenodd" clip-rule="evenodd" d="M15.1405 12.1719L8.02948 27.5815C8.00242 27.6388 7.99384 27.7036 8.00501 27.7663C8.01617 27.829 8.04649 27.8864 8.09152 27.93L27.2968 46.9159C27.3514 46.9698 27.424 47 27.4996 47C27.5752 47 27.6479 46.9698 27.7024 46.9159L46.9077 27.9312C46.9527 27.8876 46.983 27.8302 46.9942 27.7675C47.0054 27.7048 46.9968 27.64 46.9697 27.5827L39.8587 12.1731C39.8357 12.1213 39.7988 12.0775 39.7524 12.0468C39.7059 12.0161 39.6519 11.9999 39.5967 12H15.4048C15.3494 11.9993 15.2949 12.0152 15.2481 12.0457C15.2012 12.0762 15.1638 12.12 15.1405 12.1719Z" fill="white"/>
<path fill-rule="evenodd" clip-rule="evenodd" d="M29.9675 29.1641C29.8296 29.1747 29.1172 29.2186 27.5282 29.2186C26.2643 29.2186 25.3669 29.1795 25.0521 29.1641C20.1678 28.9424 16.522 28.0652 16.522 27.015C16.522 25.9648 20.1678 25.0888 25.0521 24.8636V28.2905C25.3715 28.3142 26.2861 28.3699 27.55 28.3699C29.0666 28.3699 29.8261 28.3047 29.9629 28.2916V24.866C34.8369 25.09 38.4745 25.9672 38.4745 27.015C38.4745 28.0629 34.838 28.94 29.9629 29.1629L29.9675 29.1641ZM29.9675 24.5115V21.445H36.7694V16.7688H18.2501V21.445H25.0509V24.5104C19.5232 24.7723 15.3661 25.902 15.3661 27.2556C15.3661 28.6093 19.5232 29.7378 25.0509 30.0009V39.8275H29.9663V29.9974C35.4814 29.7354 39.6316 28.6069 39.6316 27.2545C39.6316 25.902 35.4849 24.7735 29.9663 24.5104L29.9675 24.5115Z" fill="#50AF95"/>
</g>
<defs>
<clipPath id="clip0_518_2203">
<rect width="39" height="35" fill="white" transform="translate(8 12)"/>
</clipPath>
</defs>
</svg>
