<svg width="58" height="58" viewBox="0 0 58 58" fill="none" xmlns="http://www.w3.org/2000/svg">
<circle cx="29" cy="29" r="29" fill="#8E171C"/>
<path d="M38.5392 18.9945L14.559 27.4571C14.5448 27.4621 14.5309 27.4681 14.5176 27.4751C14.3232 27.5755 12.9661 28.3325 14.8797 29.0112L14.8993 29.0178L20.6094 30.7001C20.653 30.713 20.6991 30.7171 20.7446 30.712C20.79 30.707 20.8338 30.6929 20.8727 30.6709L35.0354 22.6125C35.0701 22.5927 35.1088 22.5794 35.1492 22.5733C35.3462 22.5436 35.9136 22.488 35.5546 22.9035C35.1487 23.3751 25.475 31.2807 24.4013 32.1575C24.3394 32.2082 24.3011 32.2785 24.2943 32.3541L23.8257 37.4478C23.8256 37.4997 23.8388 37.5509 23.8642 37.5973C23.8896 37.6437 23.9266 37.6841 23.9721 37.7152C24.0366 37.7523 24.1125 37.7695 24.1886 37.7642C24.2647 37.759 24.3369 37.7315 24.3946 37.686L27.7872 34.9208C27.8408 34.8771 27.9092 34.8515 27.981 34.8482C28.0528 34.8448 28.1236 34.8639 28.1818 34.9024L34.1009 38.8217L34.12 38.8335C34.2633 38.9141 35.8106 39.7353 36.2575 37.9015L40.3431 20.1845C40.3488 20.1284 40.4041 19.5115 39.9206 19.1469C39.4127 18.7658 38.6939 18.9582 38.5858 18.979C38.5698 18.983 38.5543 18.9882 38.5392 18.9945Z" fill="white"/>
</svg>
