<svg width="55" height="55" viewBox="0 0 55 55" fill="none" xmlns="http://www.w3.org/2000/svg">
<g clip-path="url(#clip0_518_2225)">
<path d="M27.5 55C42.7397 55 55 42.7397 55 27.5C55 12.2603 42.7397 0 27.5 0C12.2603 0 0 12.2603 0 27.5C0 42.7397 12.2603 55 27.5 55Z" fill="#2775CA"/>
<path d="M35.0625 31.854C35.0625 27.8437 32.6563 26.4687 27.8438 25.8959C24.4063 25.4374 23.7188 24.5209 23.7188 22.9165C23.7188 21.3122 24.8647 20.2812 27.1563 20.2812C29.2188 20.2812 30.3647 20.9687 30.9375 22.6874C31.0522 23.0312 31.3959 23.2603 31.7397 23.2603H33.5728C34.0313 23.2603 34.375 22.9165 34.375 22.4584V22.3437C33.9166 19.8228 31.8541 17.8749 29.2188 17.6459V14.8959C29.2188 14.4374 28.875 14.0937 28.3022 13.979H26.5834C26.125 13.979 25.7813 14.3228 25.6666 14.8959V17.5312C22.2291 17.9896 20.0522 20.2812 20.0522 23.1459C20.0522 26.9271 22.3438 28.4165 27.1563 28.9896C30.3647 29.5624 31.3959 30.2499 31.3959 32.0834C31.3959 33.9168 29.7916 35.1771 27.6147 35.1771C24.6353 35.1771 23.6041 33.9165 23.2603 32.1978C23.1459 31.7396 22.8022 31.5103 22.4584 31.5103H20.5103C20.0522 31.5103 19.7084 31.854 19.7084 32.3124V32.4271C20.1666 35.2915 22 37.354 25.7813 37.9271V40.6771C25.7813 41.1353 26.125 41.479 26.6978 41.5937H28.4166C28.875 41.5937 29.2188 41.2499 29.3334 40.6771V37.9271C32.7709 37.354 35.0625 34.9478 35.0625 31.854Z" fill="white"/>
<path d="M21.6562 43.8854C12.7187 40.6772 8.1353 30.7085 11.4584 21.8854C13.1772 17.0729 16.9584 13.4063 21.6562 11.6876C22.1147 11.4585 22.3437 11.1147 22.3437 10.5416V8.93757C22.3437 8.47915 22.1147 8.1354 21.6562 8.021C21.5416 8.021 21.3125 8.021 21.1978 8.1354C10.3125 11.5729 4.35405 23.146 7.79155 34.0313C9.85405 40.4479 14.7812 45.3751 21.1978 47.4376C21.6562 47.6666 22.1147 47.4376 22.2291 46.9791C22.3437 46.8647 22.3437 46.7501 22.3437 46.521V44.9166C22.3437 44.5729 22 44.1147 21.6562 43.8854ZM33.8022 8.1354C33.3437 7.90632 32.8853 8.1354 32.7709 8.59382C32.6562 8.7085 32.6562 8.8229 32.6562 9.05225V10.6563C32.6562 11.1147 33 11.5729 33.3437 11.8022C42.2812 15.0104 46.8647 24.9791 43.5416 33.8022C41.8228 38.6147 38.0416 42.2813 33.3437 44.0001C32.8853 44.2291 32.6562 44.5729 32.6562 45.146V46.7501C32.6562 47.2085 32.8853 47.5522 33.3437 47.6666C33.4584 47.6666 33.6875 47.6666 33.8022 47.5522C44.6875 44.1147 50.6459 32.5416 47.2084 21.6563C45.1459 15.1251 40.1041 10.1979 33.8022 8.1354Z" fill="white"/>
</g>
<defs>
<clipPath id="clip0_518_2225">
<rect width="55" height="55" fill="white"/>
</clipPath>
</defs>
</svg>
