<svg width="26" height="23" viewBox="0 0 26 23" fill="none" xmlns="http://www.w3.org/2000/svg">
<g clip-path="url(#clip0_518_40732)">
<path fill-rule="evenodd" clip-rule="evenodd" d="M4.7602 0.112963L0.0194901 10.2393C0.00145036 10.277 -0.00426633 10.3195 0.00317607 10.3607C0.0106185 10.4019 0.0308295 10.4396 0.0608536 10.4683L12.8644 22.9447C12.9007 22.9802 12.9492 23 12.9996 23C13.05 23 13.0984 22.9802 13.1348 22.9447L25.9383 10.4691C25.9683 10.4404 25.9885 10.4027 25.996 10.3615C26.0034 10.3203 25.9977 10.2777 25.9797 10.2401L21.2389 0.113742C21.2236 0.079733 21.199 0.0509235 21.1681 0.0307561C21.1371 0.0105888 21.1011 -8.34244e-05 21.0643 1.50745e-05H4.93638C4.89943 -0.000452421 4.86313 0.00996269 4.83187 0.030004C4.80061 0.0500453 4.77572 0.0788567 4.7602 0.112963Z" fill="#50AF95"/>
<path fill-rule="evenodd" clip-rule="evenodd" d="M14.6453 11.2792C14.5534 11.2863 14.0785 11.3151 13.0191 11.3151C12.1766 11.3151 11.5783 11.2894 11.3684 11.2792C8.11221 11.1336 5.68172 10.5572 5.68172 9.86702C5.68172 9.17687 8.11221 8.60122 11.3684 8.45322V10.7052C11.5814 10.7207 12.1911 10.7574 13.0337 10.7574C14.0448 10.7574 14.5511 10.7145 14.6423 10.7059V8.45478C17.8916 8.602 20.3167 9.17843 20.3167 9.86702C20.3167 10.5556 17.8924 11.132 14.6423 11.2785L14.6453 11.2792ZM14.6453 8.22188V6.20674H19.18V3.13379H6.83377V6.20674H11.3677V8.2211C7.68248 8.39325 4.91113 9.13558 4.91113 10.0251C4.91113 10.9147 7.68248 11.6563 11.3677 11.8292V18.2867H14.6446V11.8268C18.3213 11.6547 21.0881 10.9131 21.0881 10.0244C21.0881 9.13558 18.3236 8.39402 14.6446 8.2211L14.6453 8.22188Z" fill="white"/>
</g>
<defs>
<clipPath id="clip0_518_40732">
<rect width="26" height="23" fill="white"/>
</clipPath>
</defs>
</svg>
