<svg width="23" height="20" viewBox="0 0 23 20" fill="none" xmlns="http://www.w3.org/2000/svg">
<path d="M21.9048 3.33333H14.2381C12.4952 3.33333 10.8238 4.03571 9.59139 5.28596C8.35901 6.5362 7.66667 8.23189 7.66667 10C7.66667 11.7681 8.35901 13.4638 9.59139 14.714C10.8238 15.9643 12.4952 16.6667 14.2381 16.6667H21.9048V18.8889C21.9048 19.1836 21.7894 19.4662 21.584 19.6746C21.3786 19.8829 21.1 20 20.8095 20H1.09524C0.804763 20 0.526185 19.8829 0.320788 19.6746C0.115391 19.4662 0 19.1836 0 18.8889V1.11111C0 0.816426 0.115391 0.533811 0.320788 0.325437C0.526185 0.117063 0.804763 0 1.09524 0H20.8095C21.1 0 21.3786 0.117063 21.584 0.325437C21.7894 0.533811 21.9048 0.816426 21.9048 1.11111V3.33333ZM14.2381 5.55556H23V14.4444H14.2381C13.0762 14.4444 11.9619 13.9762 11.1403 13.1427C10.3187 12.3092 9.85714 11.1787 9.85714 10C9.85714 8.82126 10.3187 7.6908 11.1403 6.8573C11.9619 6.02381 13.0762 5.55556 14.2381 5.55556ZM14.2381 8.88889V11.1111H17.5238V8.88889H14.2381Z" fill="white"/>
</svg>
