<svg width="47" height="47" viewBox="0 0 47 47" fill="none" xmlns="http://www.w3.org/2000/svg">
<path d="M23.5 47C36.4787 47 47 36.4787 47 23.5C47 10.5213 36.4787 0 23.5 0C10.5213 0 0 10.5213 0 23.5C0 36.4787 10.5213 47 23.5 47Z" fill="#3396FF"/>
<path d="M14.3601 17.4884C19.3917 12.5698 27.5706 12.5698 32.6211 17.4884L33.2241 18.0726C33.4691 18.3176 33.4691 18.7133 33.2241 18.9583L31.1512 20.9747C31.0192 21.1067 30.8119 21.1067 30.6989 20.9747L29.8697 20.1644C26.3456 16.7346 20.6544 16.7346 17.1303 20.1644L16.2446 21.0313C16.1127 21.1632 15.9054 21.1632 15.7923 21.0313L13.7193 19.0148C13.4743 18.7698 13.4743 18.3741 13.7193 18.1291L14.3789 17.4884H14.3601ZM36.899 21.672L38.7458 23.4812C38.9908 23.7261 38.9908 24.1219 38.7458 24.3669L30.4162 32.4892C30.1712 32.7342 29.7566 32.7342 29.5116 32.4892L23.5942 26.7225C23.5377 26.666 23.4246 26.666 23.3681 26.7225L17.4507 32.4892C17.2057 32.7342 16.7911 32.7342 16.5461 32.4892L8.21652 24.3669C7.97153 24.1219 7.97153 23.7261 8.21652 23.4812L10.0634 21.672C10.3083 21.427 10.7229 21.427 10.9679 21.672L16.8853 27.4387C16.9419 27.4952 17.0549 27.4952 17.1115 27.4387L23.0289 21.672C23.2739 21.427 23.6885 21.427 23.9334 21.672L29.8508 27.4387C29.9074 27.4952 30.0204 27.4952 30.077 27.4387L35.9944 21.672C36.2394 21.427 36.654 21.427 36.899 21.672Z" fill="white"/>
</svg>
