<svg width="93" height="124" viewBox="0 0 93 124" fill="none" xmlns="http://www.w3.org/2000/svg">
<path fill-rule="evenodd" clip-rule="evenodd" d="M2.67007 19.1642C2.67007 19.1642 25.6401 28.1842 29.4001 40.4742C32.9801 52.1442 29.4001 67.1042 29.4001 67.1042C29.4001 67.1042 47.9001 71.2242 53.4601 81.7542C60.9701 95.9642 55.9801 119.204 55.9801 119.204C55.9801 119.204 73.4301 121.594 82.6501 123.494C82.9101 123.544 87.3301 118.814 87.3301 118.814L73.3001 4.97424C69.2401 6.02424 50.9101 7.75423 34.3101 6.53423C23.7301 5.75424 4.95007 0.324235 4.95007 0.324235L7.48434e-05 1.85423L2.67007 19.1642Z" fill="#7C7474"/>
<path opacity="0.55" d="M71.73 84.5042L43.66 62.6742L29.44 66.9442C29.42 67.0542 29.4 67.1142 29.4 67.1142C29.4 67.1142 47.9 71.2342 53.46 81.7642C55.91 86.3942 57.04 91.8242 57.46 97.0342L65.49 95.4242L71.73 84.5042Z" fill="url(#paint0_linear_155_79)"/>
<path opacity="0.55" d="M38.98 37.7241L22.94 12.3841L2.61004 18.7741L2.67004 19.1741C2.67004 19.1741 25.64 28.1941 29.4 40.4841C30.56 44.2641 30.96 48.3941 30.98 52.2441L34.3 51.7741L38.98 37.7341L38.98 37.7241Z" fill="url(#paint1_linear_155_79)"/>
<path opacity="0.15" d="M4.95003 0.324066L3.03112e-05 1.85407L2.67003 19.1641L8.84003 17.1041L4.95003 0.324066Z" fill="black"/>
<path d="M87.3301 118.814L86.7001 113.694L65.5001 112.574L55.9901 119.204C55.9901 119.204 74.0901 121.734 82.6501 123.494C82.9101 123.544 87.3301 118.814 87.3301 118.814Z" fill="#545252"/>
<path fill-rule="evenodd" clip-rule="evenodd" d="M7.35006 17.6145C7.35006 17.6145 30.3201 26.6345 34.0801 38.9245C37.6601 50.5945 34.0801 65.5545 34.0801 65.5545C34.0801 65.5545 52.5801 69.6745 58.1401 80.2045C65.6501 94.4145 60.8101 116.154 60.8101 116.154L87.5501 118.814C87.5501 118.814 88.1001 84.6945 88.8901 50.1945C89.1501 38.6844 92.9601 19.6045 92.9901 11.8645C93.0501 -2.95554 77.9701 0.304451 77.9701 0.304451C77.9701 0.304451 66.0401 3.42445 53.0201 3.42445C31.5801 3.42445 4.68006 0.304452 4.68006 0.304452L7.35006 17.6145Z" fill="url(#paint2_linear_155_79)"/>
<path opacity="0.3" fill-rule="evenodd" clip-rule="evenodd" d="M62.38 76.7145C55.65 63.5045 37.43 62.6745 37.43 62.6745C37.43 62.6745 44.59 42.4345 35.87 29.9245C27.6 18.0745 9.36003 17.4445 9.36003 17.4445C9.36003 17.4445 26.61 20.4245 34.31 33.0345C42.13 45.8445 35.87 64.2245 35.87 64.2245C35.87 64.2245 51.49 65.7845 59.26 78.2545C67.63 91.6845 62.38 112.564 62.38 112.564C62.38 112.564 72 95.5745 62.38 76.6945L62.38 76.7145Z" fill="white"/>
<path opacity="0.35" fill-rule="evenodd" clip-rule="evenodd" d="M53.02 11.2145C64.34 12.6445 70.31 9.11448 74.85 9.65448C87.62 11.1845 82.01 12.4545 82.65 45.5245C83.18 73.0245 84.21 112.584 84.21 112.584C84.21 112.584 84.8 69.0745 85.77 37.7345C86.26 21.9245 93.87 13.0045 88.89 6.54448C82.91 -1.20552 74.56 5.57448 60.82 6.54448C40.6 7.97448 12.48 4.98447 12.48 4.98447C12.48 4.98447 35.01 8.94447 53.03 11.2245L53.02 11.2145Z" fill="white"/>
<path opacity="0.57" fill-rule="evenodd" clip-rule="evenodd" d="M7.35006 17.6145C7.35006 17.6145 30.3201 26.6345 34.0801 38.9245C37.6601 50.5945 34.0801 65.5545 34.0801 65.5545C34.0801 65.5545 52.5801 69.6745 58.1401 80.2045C65.6501 94.4145 60.8101 116.154 60.8101 116.154L87.5501 118.814C87.5501 118.814 88.1001 84.6945 88.8901 50.1945C89.1501 38.6844 92.9601 19.6045 92.9901 11.8645C93.0501 -2.95554 77.9701 0.304451 77.9701 0.304451C77.9701 0.304451 66.0401 3.42445 53.0201 3.42445C31.5801 3.42445 4.68006 0.304452 4.68006 0.304452L7.35006 17.6145Z" fill="url(#paint3_linear_155_79)"/>
<path opacity="0.1" d="M88.8901 50.2042C89.1501 38.6842 92.9601 19.6042 92.9901 11.8642C93.0501 -2.95578 77.9701 0.304215 77.9701 0.304215C77.9701 0.304215 66.0401 3.42422 53.0201 3.42422C31.5801 3.42422 4.68006 0.304216 4.68006 0.304216L5.22006 3.80422C12.2001 5.01421 35.3601 8.72422 54.5801 8.10422C68.9601 7.64422 79.5601 0.454216 85.7701 8.10422C93.3901 17.4942 85.8901 22.8542 85.7701 39.2942C85.5601 69.3142 84.5101 109.444 84.2601 118.494L87.5501 118.824C87.5501 118.824 88.1001 84.7042 88.8901 50.2042Z" fill="black"/>
<path opacity="0.26" fill-rule="evenodd" clip-rule="evenodd" d="M72.51 92.3042C68.63 92.3042 65.49 95.4442 65.49 99.3242C65.49 103.204 68.63 106.344 72.51 106.344C76.39 106.344 79.53 103.204 79.53 99.3242C79.53 95.4442 76.39 92.3042 72.51 92.3042Z" fill="#4B4949"/>
<path opacity="0.52" fill-rule="evenodd" clip-rule="evenodd" d="M74.85 92.3042C71.41 92.3042 68.61 95.0942 68.61 98.5442C68.61 101.994 71.4 104.784 74.85 104.784C78.3 104.784 81.09 101.994 81.09 98.5442C81.09 95.0942 78.3 92.3042 74.85 92.3042Z" fill="#4B4949"/>
<path fill-rule="evenodd" clip-rule="evenodd" d="M75.63 92.3041C72.62 92.3041 70.17 94.7441 70.17 97.7641C70.17 100.784 72.61 103.224 75.63 103.224C78.65 103.224 81.09 100.784 81.09 97.7641C81.09 94.7441 78.65 92.3041 75.63 92.3041Z" fill="url(#paint4_linear_155_79)"/>
<path d="M74.85 95.4243C77.43 95.4243 79.53 97.5143 79.53 100.104C79.53 100.734 79.4 101.334 79.17 101.884C80.33 100.884 81.08 99.4143 81.08 97.7643C81.08 94.7543 78.64 92.3043 75.62 92.3043C72.6 92.3043 70.16 94.7443 70.16 97.7643C70.16 98.1843 70.22 98.5943 70.31 98.9843C70.81 96.9443 72.64 95.4243 74.84 95.4243L74.85 95.4243Z" fill="white"/>
<path opacity="0.26" fill-rule="evenodd" clip-rule="evenodd" d="M49.1201 48.6441C45.2401 48.6441 42.1001 51.7841 42.1001 55.6641C42.1001 59.5441 45.2401 62.6841 49.1201 62.6841C53.0001 62.6841 56.1401 59.5441 56.1401 55.6641C56.1401 51.7841 53.0001 48.6441 49.1201 48.6441Z" fill="#4B4949"/>
<path opacity="0.52" fill-rule="evenodd" clip-rule="evenodd" d="M51.4601 48.644C48.0201 48.644 45.2201 51.434 45.2201 54.884C45.2201 58.334 48.0101 61.124 51.4601 61.124C54.9101 61.124 57.7001 58.334 57.7001 54.884C57.7001 51.434 54.9101 48.644 51.4601 48.644Z" fill="#4B4949"/>
<path fill-rule="evenodd" clip-rule="evenodd" d="M52.2401 48.644C49.2301 48.644 46.7801 51.084 46.7801 54.104C46.7801 57.124 49.2201 59.564 52.2401 59.564C55.2601 59.564 57.7001 57.124 57.7001 54.104C57.7001 51.084 55.2601 48.644 52.2401 48.644Z" fill="url(#paint5_linear_155_79)"/>
<path d="M51.4601 51.7641C54.0401 51.7641 56.1401 53.8541 56.1401 56.4441C56.1401 57.0741 56.0101 57.6741 55.7801 58.2241C56.9401 57.2241 57.6901 55.7541 57.6901 54.1041C57.6901 51.0941 55.2501 48.6441 52.2301 48.6441C49.2101 48.6441 46.7701 51.0841 46.7701 54.1041C46.7701 54.5241 46.8301 54.9341 46.9201 55.3241C47.4201 53.2841 49.2501 51.7641 51.4501 51.7641L51.4601 51.7641Z" fill="white"/>
<path opacity="0.26" fill-rule="evenodd" clip-rule="evenodd" d="M21.0501 8.09428C17.1701 8.09428 14.0301 11.2343 14.0301 15.1143C14.0301 18.9943 17.1701 22.1343 21.0501 22.1343C24.9301 22.1343 28.0701 18.9943 28.0701 15.1143C28.0701 11.2343 24.9301 8.09428 21.0501 8.09428Z" fill="#4B4949"/>
<path opacity="0.52" fill-rule="evenodd" clip-rule="evenodd" d="M23.3901 8.09422C19.9501 8.09422 17.1501 10.8842 17.1501 14.3342C17.1501 17.7842 19.9401 20.5742 23.3901 20.5742C26.8401 20.5742 29.6301 17.7842 29.6301 14.3342C29.6301 10.8842 26.8401 8.09422 23.3901 8.09422Z" fill="#4B4949"/>
<path fill-rule="evenodd" clip-rule="evenodd" d="M24.1701 8.09416C21.1601 8.09416 18.7101 10.5342 18.7101 13.5542C18.7101 16.5742 21.1501 19.0142 24.1701 19.0142C27.1901 19.0142 29.6301 16.5742 29.6301 13.5542C29.6301 10.5342 27.1901 8.09416 24.1701 8.09416Z" fill="url(#paint6_linear_155_79)"/>
<path d="M23.3901 11.2143C25.9701 11.2143 28.0701 13.3043 28.0701 15.8943C28.0701 16.5243 27.9401 17.1243 27.7101 17.6743C28.8701 16.6743 29.6201 15.2043 29.6201 13.5543C29.6201 10.5443 27.1801 8.09431 24.1601 8.09431C21.1401 8.09431 18.7001 10.5343 18.7001 13.5543C18.7001 13.9743 18.7601 14.3843 18.8501 14.7743C19.3501 12.7343 21.1801 11.2143 23.3801 11.2143L23.3901 11.2143Z" fill="white"/>
<defs>
<linearGradient id="paint0_linear_155_79" x1="29.2" y1="64.8942" x2="67.9" y2="91.9942" gradientUnits="userSpaceOnUse">
<stop/>
<stop offset="1"/>
</linearGradient>
<linearGradient id="paint1_linear_155_79" x1="20.8" y1="12.3841" x2="20.8" y2="53.3241" gradientUnits="userSpaceOnUse">
<stop/>
<stop offset="1"/>
</linearGradient>
<linearGradient id="paint2_linear_155_79" x1="26.8701" y1="75.7045" x2="99.7101" y2="14.5845" gradientUnits="userSpaceOnUse">
<stop stop-color="#857F7F"/>
<stop offset="0.29" stop-color="#8D8888"/>
<stop offset="0.78" stop-color="#A5A3A2"/>
<stop offset="1" stop-color="#B3B2B0"/>
</linearGradient>
<linearGradient id="paint3_linear_155_79" x1="26.8701" y1="75.7045" x2="99.7101" y2="14.5845" gradientUnits="userSpaceOnUse">
<stop stop-color="white"/>
<stop offset="1" stop-color="white"/>
</linearGradient>
<linearGradient id="paint4_linear_155_79" x1="70.17" y1="97.7641" x2="81.09" y2="97.7641" gradientUnits="userSpaceOnUse">
<stop stop-color="#B1AFAD"/>
<stop offset="0.38" stop-color="#BAB8B6"/>
<stop offset="1" stop-color="#D2D1D0"/>
</linearGradient>
<linearGradient id="paint5_linear_155_79" x1="46.7801" y1="54.104" x2="57.7001" y2="54.104" gradientUnits="userSpaceOnUse">
<stop stop-color="#B1AFAD"/>
<stop offset="0.38" stop-color="#BAB8B6"/>
<stop offset="1" stop-color="#D2D1D0"/>
</linearGradient>
<linearGradient id="paint6_linear_155_79" x1="18.7101" y1="13.5542" x2="29.6301" y2="13.5542" gradientUnits="userSpaceOnUse">
<stop stop-color="#B1AFAD"/>
<stop offset="0.38" stop-color="#BAB8B6"/>
<stop offset="1" stop-color="#D2D1D0"/>
</linearGradient>
</defs>
</svg>
