<svg width="93" height="124" viewBox="0 0 93 124" fill="none" xmlns="http://www.w3.org/2000/svg">
<path fill-rule="evenodd" clip-rule="evenodd" d="M90.3202 19.1642C90.3202 19.1642 67.3502 28.1842 63.5902 40.4742C60.0102 52.1442 63.5902 67.1042 63.5902 67.1042C63.5902 67.1042 45.0902 71.2242 39.5302 81.7542C32.0202 95.9642 37.0102 119.204 37.0102 119.204C37.0102 119.204 19.5602 121.594 10.3402 123.494C10.0802 123.544 5.66017 118.814 5.66017 118.814L19.6902 4.97424C23.7502 6.02424 42.0802 7.75423 58.6802 6.53423C69.2602 5.75424 88.0402 0.324235 88.0402 0.324235L92.9902 1.85423L90.3202 19.1642Z" fill="#7C7474"/>
<path opacity="0.55" d="M21.2602 84.5042L49.3302 62.6742L63.5502 66.9442C63.5702 67.0542 63.5902 67.1142 63.5902 67.1142C63.5902 67.1142 45.0902 71.2342 39.5302 81.7642C37.0802 86.3942 35.9502 91.8242 35.5302 97.0342L27.5002 95.4242L21.2602 84.5042Z" fill="url(#paint0_linear_155_21)"/>
<path opacity="0.55" d="M54.0102 37.7241L70.0502 12.3841L90.3802 18.7741L90.3202 19.1741C90.3202 19.1741 67.3502 28.1941 63.5902 40.4841C62.4302 44.2641 62.0302 48.3941 62.0102 52.2441L58.6902 51.7741L54.0102 37.7341L54.0102 37.7241Z" fill="url(#paint1_linear_155_21)"/>
<path opacity="0.15" d="M88.0402 0.324066L92.9902 1.85407L90.3202 19.1641L84.1502 17.1041L88.0402 0.324066Z" fill="black"/>
<path d="M5.66017 118.814L6.29017 113.694L27.4902 112.574L37.0002 119.204C37.0002 119.204 18.9002 121.734 10.3402 123.494C10.0802 123.544 5.66017 118.814 5.66017 118.814Z" fill="#545252"/>
<path fill-rule="evenodd" clip-rule="evenodd" d="M85.6402 17.6145C85.6402 17.6145 62.6702 26.6345 58.9102 38.9245C55.3302 50.5945 58.9102 65.5545 58.9102 65.5545C58.9102 65.5545 40.4102 69.6745 34.8502 80.2045C27.3402 94.4145 32.1802 116.154 32.1802 116.154L5.44018 118.814C5.44018 118.814 4.89018 84.6945 4.10018 50.1945C3.84018 38.6844 0.0301798 19.6045 0.000179847 11.8645C-0.05982 -2.95554 15.0202 0.304451 15.0202 0.304451C15.0202 0.304451 26.9502 3.42445 39.9702 3.42445C61.4102 3.42445 88.3102 0.304452 88.3102 0.304452L85.6402 17.6145Z" fill="url(#paint2_linear_155_21)"/>
<path opacity="0.3" fill-rule="evenodd" clip-rule="evenodd" d="M30.6102 76.7145C37.3402 63.5045 55.5602 62.6745 55.5602 62.6745C55.5602 62.6745 48.4002 42.4345 57.1202 29.9245C65.3902 18.0745 83.6302 17.4445 83.6302 17.4445C83.6302 17.4445 66.3802 20.4245 58.6802 33.0345C50.8602 45.8445 57.1202 64.2245 57.1202 64.2245C57.1202 64.2245 41.5002 65.7845 33.7302 78.2545C25.3602 91.6845 30.6102 112.564 30.6102 112.564C30.6102 112.564 20.9902 95.5745 30.6102 76.6945L30.6102 76.7145Z" fill="white"/>
<path opacity="0.35" fill-rule="evenodd" clip-rule="evenodd" d="M39.9702 11.2145C28.6502 12.6445 22.6802 9.11448 18.1402 9.65448C5.37018 11.1845 10.9802 12.4545 10.3402 45.5245C9.81018 73.0245 8.78018 112.584 8.78018 112.584C8.78018 112.584 8.19018 69.0745 7.22018 37.7345C6.73018 21.9245 -0.879822 13.0045 4.10018 6.54448C10.0802 -1.20552 18.4302 5.57448 32.1702 6.54448C52.3902 7.97448 80.5102 4.98447 80.5102 4.98447C80.5102 4.98447 57.9802 8.94447 39.9602 11.2245L39.9702 11.2145Z" fill="white"/>
<path opacity="0.57" fill-rule="evenodd" clip-rule="evenodd" d="M85.6402 17.6145C85.6402 17.6145 62.6702 26.6345 58.9102 38.9245C55.3302 50.5945 58.9102 65.5545 58.9102 65.5545C58.9102 65.5545 40.4102 69.6745 34.8502 80.2045C27.3402 94.4145 32.1802 116.154 32.1802 116.154L5.44018 118.814C5.44018 118.814 4.89018 84.6945 4.10018 50.1945C3.84018 38.6844 0.0301798 19.6045 0.000179847 11.8645C-0.05982 -2.95554 15.0202 0.304451 15.0202 0.304451C15.0202 0.304451 26.9502 3.42445 39.9702 3.42445C61.4102 3.42445 88.3102 0.304452 88.3102 0.304452L85.6402 17.6145Z" fill="url(#paint3_linear_155_21)"/>
<path opacity="0.1" d="M4.10018 50.2042C3.84018 38.6842 0.0301798 19.6042 0.000179847 11.8642C-0.05982 -2.95578 15.0202 0.304215 15.0202 0.304215C15.0202 0.304215 26.9502 3.42422 39.9702 3.42422C61.4102 3.42422 88.3102 0.304216 88.3102 0.304216L87.7702 3.80422C80.7902 5.01421 57.6302 8.72422 38.4102 8.10422C24.0302 7.64422 13.4302 0.454216 7.22018 8.10422C-0.399821 17.4942 7.10018 22.8542 7.22018 39.2942C7.43018 69.3142 8.48018 109.444 8.73018 118.494L5.44018 118.824C5.44018 118.824 4.89018 84.7042 4.10018 50.2042Z" fill="black"/>
<path opacity="0.26" fill-rule="evenodd" clip-rule="evenodd" d="M20.4802 92.3042C24.3602 92.3042 27.5002 95.4442 27.5002 99.3242C27.5002 103.204 24.3602 106.344 20.4802 106.344C16.6002 106.344 13.4602 103.204 13.4602 99.3242C13.4602 95.4442 16.6002 92.3042 20.4802 92.3042Z" fill="#4B4949"/>
<path opacity="0.52" fill-rule="evenodd" clip-rule="evenodd" d="M18.1402 92.3042C21.5802 92.3042 24.3802 95.0942 24.3802 98.5442C24.3802 101.994 21.5902 104.784 18.1402 104.784C14.6902 104.784 11.9002 101.994 11.9002 98.5442C11.9002 95.0942 14.6902 92.3042 18.1402 92.3042Z" fill="#4B4949"/>
<path fill-rule="evenodd" clip-rule="evenodd" d="M17.3602 92.3041C20.3702 92.3041 22.8202 94.7441 22.8202 97.7641C22.8202 100.784 20.3802 103.224 17.3602 103.224C14.3402 103.224 11.9002 100.784 11.9002 97.7641C11.9002 94.7441 14.3402 92.3041 17.3602 92.3041Z" fill="url(#paint4_linear_155_21)"/>
<path d="M18.1402 95.4243C15.5602 95.4243 13.4602 97.5143 13.4602 100.104C13.4602 100.734 13.5902 101.334 13.8202 101.884C12.6602 100.884 11.9102 99.4143 11.9102 97.7643C11.9102 94.7543 14.3502 92.3043 17.3702 92.3043C20.3902 92.3043 22.8302 94.7443 22.8302 97.7643C22.8302 98.1843 22.7702 98.5943 22.6802 98.9843C22.1802 96.9443 20.3502 95.4243 18.1502 95.4243L18.1402 95.4243Z" fill="white"/>
<path opacity="0.26" fill-rule="evenodd" clip-rule="evenodd" d="M43.8702 48.6441C47.7502 48.6441 50.8902 51.7841 50.8902 55.6641C50.8902 59.5441 47.7502 62.6841 43.8702 62.6841C39.9902 62.6841 36.8502 59.5441 36.8502 55.6641C36.8502 51.7841 39.9902 48.6441 43.8702 48.6441Z" fill="#4B4949"/>
<path opacity="0.52" fill-rule="evenodd" clip-rule="evenodd" d="M41.5302 48.644C44.9702 48.644 47.7702 51.434 47.7702 54.884C47.7702 58.334 44.9802 61.124 41.5302 61.124C38.0802 61.124 35.2902 58.334 35.2902 54.884C35.2902 51.434 38.0802 48.644 41.5302 48.644Z" fill="#4B4949"/>
<path fill-rule="evenodd" clip-rule="evenodd" d="M40.7502 48.644C43.7602 48.644 46.2102 51.084 46.2102 54.104C46.2102 57.124 43.7702 59.564 40.7502 59.564C37.7302 59.564 35.2902 57.124 35.2902 54.104C35.2902 51.084 37.7302 48.644 40.7502 48.644Z" fill="url(#paint5_linear_155_21)"/>
<path d="M41.5302 51.7641C38.9502 51.7641 36.8502 53.8541 36.8502 56.4441C36.8502 57.0741 36.9802 57.6741 37.2102 58.2241C36.0502 57.2241 35.3002 55.7541 35.3002 54.1041C35.3002 51.0941 37.7402 48.6441 40.7602 48.6441C43.7802 48.6441 46.2202 51.0841 46.2202 54.1041C46.2202 54.5241 46.1602 54.9341 46.0702 55.3241C45.5702 53.2841 43.7402 51.7641 41.5402 51.7641L41.5302 51.7641Z" fill="white"/>
<path opacity="0.26" fill-rule="evenodd" clip-rule="evenodd" d="M71.9402 8.09428C75.8202 8.09428 78.9602 11.2343 78.9602 15.1143C78.9602 18.9943 75.8202 22.1343 71.9402 22.1343C68.0602 22.1343 64.9202 18.9943 64.9202 15.1143C64.9202 11.2343 68.0602 8.09428 71.9402 8.09428Z" fill="#4B4949"/>
<path opacity="0.52" fill-rule="evenodd" clip-rule="evenodd" d="M69.6002 8.09422C73.0402 8.09422 75.8402 10.8842 75.8402 14.3342C75.8402 17.7842 73.0502 20.5742 69.6002 20.5742C66.1502 20.5742 63.3602 17.7842 63.3602 14.3342C63.3602 10.8842 66.1502 8.09422 69.6002 8.09422Z" fill="#4B4949"/>
<path fill-rule="evenodd" clip-rule="evenodd" d="M68.8202 8.09416C71.8302 8.09416 74.2802 10.5342 74.2802 13.5542C74.2802 16.5742 71.8402 19.0142 68.8202 19.0142C65.8002 19.0142 63.3602 16.5742 63.3602 13.5542C63.3602 10.5342 65.8002 8.09416 68.8202 8.09416Z" fill="url(#paint6_linear_155_21)"/>
<path d="M69.6002 11.2143C67.0202 11.2143 64.9202 13.3043 64.9202 15.8943C64.9202 16.5243 65.0502 17.1243 65.2802 17.6743C64.1202 16.6743 63.3702 15.2043 63.3702 13.5543C63.3702 10.5443 65.8102 8.09431 68.8302 8.09431C71.8502 8.09431 74.2902 10.5343 74.2902 13.5543C74.2902 13.9743 74.2302 14.3843 74.1402 14.7743C73.6402 12.7343 71.8102 11.2143 69.6102 11.2143L69.6002 11.2143Z" fill="white"/>
<defs>
<linearGradient id="paint0_linear_155_21" x1="63.7902" y1="64.8942" x2="25.0902" y2="91.9942" gradientUnits="userSpaceOnUse">
<stop/>
<stop offset="1"/>
</linearGradient>
<linearGradient id="paint1_linear_155_21" x1="72.1902" y1="12.3841" x2="72.1902" y2="53.3241" gradientUnits="userSpaceOnUse">
<stop/>
<stop offset="1"/>
</linearGradient>
<linearGradient id="paint2_linear_155_21" x1="66.1202" y1="75.7045" x2="-6.71983" y2="14.5845" gradientUnits="userSpaceOnUse">
<stop stop-color="#857F7F"/>
<stop offset="0.29" stop-color="#8D8888"/>
<stop offset="0.78" stop-color="#A5A3A2"/>
<stop offset="1" stop-color="#B3B2B0"/>
</linearGradient>
<linearGradient id="paint3_linear_155_21" x1="66.1202" y1="75.7045" x2="-6.71983" y2="14.5845" gradientUnits="userSpaceOnUse">
<stop stop-color="white"/>
<stop offset="1" stop-color="white"/>
</linearGradient>
<linearGradient id="paint4_linear_155_21" x1="22.8202" y1="97.7641" x2="11.9002" y2="97.7641" gradientUnits="userSpaceOnUse">
<stop stop-color="#B1AFAD"/>
<stop offset="0.38" stop-color="#BAB8B6"/>
<stop offset="1" stop-color="#D2D1D0"/>
</linearGradient>
<linearGradient id="paint5_linear_155_21" x1="46.2102" y1="54.104" x2="35.2902" y2="54.104" gradientUnits="userSpaceOnUse">
<stop stop-color="#B1AFAD"/>
<stop offset="0.38" stop-color="#BAB8B6"/>
<stop offset="1" stop-color="#D2D1D0"/>
</linearGradient>
<linearGradient id="paint6_linear_155_21" x1="74.2802" y1="13.5542" x2="63.3602" y2="13.5542" gradientUnits="userSpaceOnUse">
<stop stop-color="#B1AFAD"/>
<stop offset="0.38" stop-color="#BAB8B6"/>
<stop offset="1" stop-color="#D2D1D0"/>
</linearGradient>
</defs>
</svg>
