<svg width="88" height="22" viewBox="0 0 88 22" fill="none" xmlns="http://www.w3.org/2000/svg">
<path d="M7.5423 0H87.8679L80.3255 21.2491H0L7.5423 0Z" fill="#42A1E5"/>
<path d="M28.1979 13.1884L28.0417 13.196C28.0027 13.196 27.9558 13.196 27.9168 13.196C26.808 13.196 26.0271 12.6287 25.6913 11.7816C25.5508 11.3958 25.4883 10.9723 25.4883 10.5638C25.4883 9.27045 26.1052 8.2191 27.8153 8.07539L27.9793 8.06027L28.0183 8.94522L27.8699 8.95278C27.7138 8.96034 27.5654 9.00573 27.4326 9.08893C26.9251 9.38391 26.7611 10.0268 26.7611 10.5714C26.7611 11.2294 27.0032 11.9102 27.6357 12.2354C27.7528 12.2884 27.909 12.3413 28.0105 12.3413H28.1511L28.1979 13.1884Z" fill="white"/>
<path d="M30.0542 13.075C28.6487 13.075 28.1802 11.7438 28.1802 10.5638C28.1802 9.6562 28.4378 8.0527 30.0542 8.0527C31.7175 8.0527 31.9361 9.62595 31.9361 10.5638C31.9361 11.4337 31.5926 13.075 30.0542 13.075ZM29.492 10.8891C29.492 11.2068 29.5232 12.1749 29.9996 12.1749C30.593 12.1749 30.6243 10.7227 30.6243 10.3445C30.6243 10.0419 30.5774 9.02842 30.1323 9.02842C29.5701 9.02842 29.492 10.5336 29.492 10.8891Z" fill="white"/>
<path d="M32.4239 12.901L32.2599 8.27205L33.4937 8.15103L34.5557 10.4277L34.462 7.60645L35.7348 7.62157L35.6254 12.6817L34.5713 12.8632L33.4468 10.284L33.5639 12.8405L32.4239 12.901Z" fill="white"/>
<path d="M36.2215 12.901L36.0575 8.27205L37.2913 8.15103L38.3532 10.4277L38.2595 7.60645L39.5324 7.62157L39.423 12.6817L38.3689 12.8632L37.2444 10.284L37.3615 12.8405L36.2215 12.901Z" fill="white"/>
<path d="M40.0972 13.1506L39.8551 8.04514L42.4944 7.8031V8.86958L41.1123 9.01329L41.1513 9.95875L42.5725 9.89824V10.9798L41.206 11.0328L41.2528 12.1068L42.674 12.069V13.0825L40.0972 13.1506Z" fill="white"/>
<path d="M45.7065 13.1884L45.5503 13.196C45.5113 13.196 45.4644 13.196 45.4254 13.196C44.3165 13.196 43.5357 12.6287 43.1999 11.7816C43.0593 11.3958 42.9969 10.9723 42.9969 10.5638C42.9969 9.27045 43.6138 8.2191 45.3239 8.07539L45.4878 8.06027L45.5269 8.94522L45.3785 8.95278C45.2223 8.96034 45.074 9.00573 44.9412 9.08893C44.4337 9.38391 44.2697 10.0268 44.2697 10.5714C44.2697 11.2294 44.5118 11.9102 45.1443 12.2354C45.2614 12.2884 45.4176 12.3413 45.5191 12.3413H45.6596L45.7065 13.1884Z" fill="white"/>
<path d="M46.7541 12.6665L46.7776 8.79394L45.8874 8.81663L45.8718 7.81066L49.0655 7.73503L49.0733 8.741L47.9801 8.77125L47.9645 12.6665H46.7541Z" fill="white"/>
<path d="M51.7434 13.1128L51.4233 7.94681L52.6492 7.91656L52.5946 11.4715L53.3364 8.34769L54.1016 8.35525L54.4687 11.4337L54.6326 8.06783L55.7961 8.19641L55.1792 13.1052L53.922 13.0296L53.6331 10.8286L53.2349 13.0296L51.7434 13.1128Z" fill="white"/>
<path d="M55.7775 12.9918L56.8707 7.91656L58.6355 8.00732L59.2524 13.1884L58.0733 13.1204L57.9249 11.9026L57.2065 11.948L56.9645 13.0674L55.7775 12.9918ZM57.3939 11.0404L57.8156 11.0101L57.6907 9.08893C57.5891 9.67133 57.3939 11.0404 57.3939 11.0404Z" fill="white"/>
<path d="M59.5751 12.7497V7.68208H60.7542L60.7464 11.7286L62.1051 11.6681V12.6363L59.5751 12.7497Z" fill="white"/>
<path d="M62.5034 12.7497V7.68208H63.6825L63.6747 11.7286L65.0334 11.6681V12.6363L62.5034 12.7497Z" fill="white"/>
<path d="M65.5212 13.1506L65.2791 8.04514L67.9185 7.8031V8.86958L66.5363 9.01329L66.5754 9.95875L67.9966 9.89824V10.9798L66.63 11.0328L66.6769 12.1068L68.0981 12.069V13.0825L65.5212 13.1506Z" fill="white"/>
<path d="M69.227 12.6665L69.2505 8.79394L68.3603 8.81663L68.3447 7.81066L71.5384 7.73503L71.5462 8.741L70.453 8.77125L70.4374 12.6665H69.227Z" fill="white"/>
<path d="M22.9228 8.5753H20.6124C20.0872 8.5753 19.5835 8.77945 19.2121 9.14285C18.8408 9.50624 18.6321 9.9991 18.6321 10.513C18.6321 11.0269 18.8408 11.5198 19.2121 11.8832C19.5835 12.2466 20.0872 12.4507 20.6124 12.4507H22.9228V13.0966C22.9228 13.1823 22.888 13.2644 22.8261 13.325C22.7642 13.3856 22.6803 13.4196 22.5927 13.4196H16.6518C16.5643 13.4196 16.4803 13.3856 16.4184 13.325C16.3566 13.2644 16.3218 13.1823 16.3218 13.0966V7.9294C16.3218 7.84375 16.3566 7.7616 16.4184 7.70104C16.4803 7.64047 16.5643 7.60645 16.6518 7.60645H22.5927C22.6803 7.60645 22.7642 7.64047 22.8261 7.70104C22.888 7.7616 22.9228 7.84375 22.9228 7.9294V8.5753ZM20.6124 9.22121H23.2528V11.8048H20.6124C20.2623 11.8048 19.9265 11.6687 19.6789 11.4265C19.4313 11.1842 19.2922 10.8556 19.2922 10.513C19.2922 10.1704 19.4313 9.84183 19.6789 9.59957C19.9265 9.35731 20.2623 9.22121 20.6124 9.22121V9.22121ZM20.6124 10.1901V10.836H21.6026V10.1901H20.6124Z" fill="white"/>
</svg>
