<svg width="82" height="81" viewBox="0 0 82 81" fill="none" xmlns="http://www.w3.org/2000/svg">
<circle cx="41.2899" cy="40.4019" r="29.5764" transform="rotate(-30 41.2899 40.4019)" fill="#CDFFCD"/>
<path d="M31.3448 22.6021C41.2345 16.8923 53.8773 20.2799 59.5871 30.1696C65.2969 40.0592 61.9093 52.702 52.0196 58.4118C42.13 64.1216 29.4871 60.734 23.7773 50.8443C18.0675 40.9547 21.4552 28.3119 31.3448 22.6021Z" fill="#0052FF"/>
<path d="M45.3203 46.8001C41.8442 48.807 37.4003 47.6192 35.3914 44.1396C33.3824 40.6601 34.5758 36.2176 38.0518 34.2107C41.1677 32.4118 45.0679 33.1908 47.2806 35.8766L53.6208 32.2161C49.3546 26.0624 41.013 24.1081 34.4141 27.918C27.4619 31.9319 25.0794 40.8238 29.0932 47.7759C33.107 54.728 41.9989 57.1106 48.951 53.0968C55.55 49.2869 58.0283 41.0858 54.8322 34.3143L48.4885 37.9768C49.7046 41.238 48.4362 45.0011 45.3203 46.8001Z" fill="white"/>
</svg>
