<svg width="78" height="79" viewBox="0 0 78 79" fill="none" xmlns="http://www.w3.org/2000/svg">
<circle cx="38.9254" cy="39.4265" r="29.5764" transform="rotate(-23.5316 38.9254 39.4265)" fill="#CDFFCD"/>
<path d="M47.9049 17.0378L38.9202 32.6748L38.8437 25.7907L47.9049 17.0378Z" fill="#E2761B" stroke="#E2761B" stroke-linecap="round" stroke-linejoin="round"/>
<path d="M17.2559 30.3848L34.758 34.5985L29.8497 29.7075L17.2559 30.3848Z" fill="#E4761B" stroke="#E4761B" stroke-linecap="round" stroke-linejoin="round"/>
<path d="M53.0763 41.9632L51.8985 48.9178L60.37 47.7032L59.3336 39.3813L53.0763 41.9632Z" fill="#E4761B" stroke="#E4761B" stroke-linecap="round" stroke-linejoin="round"/>
<path d="M25.856 53.96L31.2291 60.3935L37.889 55.0188L31.9952 51.1436L25.856 53.96Z" fill="#E4761B" stroke="#E4761B" stroke-linecap="round" stroke-linejoin="round"/>
<path d="M31.1195 40.6408L30.3992 44.7469L38.0564 41.8091L34.2762 33.8566L31.1195 40.6408Z" fill="#E4761B" stroke="#E4761B" stroke-linecap="round" stroke-linejoin="round"/>
<path d="M45.9698 34.1739L38.7456 31.7993L42.126 40.0369L49.48 36.4377L45.9698 34.1739Z" fill="#E4761B" stroke="#E4761B" stroke-linecap="round" stroke-linejoin="round"/>
<path d="M37.8891 55.0191L41.4405 50.8544L36.22 49.5102L37.8891 55.0191Z" fill="#E4761B" stroke="#E4761B" stroke-linecap="round" stroke-linejoin="round"/>
<path d="M46.4165 48.6864L51.8982 48.9175L48.9886 43.9488L46.4165 48.6864Z" fill="#E4761B" stroke="#E4761B" stroke-linecap="round" stroke-linejoin="round"/>
<path d="M51.8982 48.9176L46.4165 48.6865L48.0606 51.4772L48.5603 52.7347L51.8982 48.9176Z" fill="#D7C1B3" stroke="#D7C1B3" stroke-linecap="round" stroke-linejoin="round"/>
<path d="M37.8886 55.0182L42.9568 55.1747L42.39 53.9464L41.44 50.8535L37.8886 55.0182Z" fill="#D7C1B3" stroke="#D7C1B3" stroke-linecap="round" stroke-linejoin="round"/>
<path d="M39.0278 45.9715L34.783 46.5029L36.9094 44.1329L39.0278 45.9715Z" fill="#233447" stroke="#233447" stroke-linecap="round" stroke-linejoin="round"/>
<path d="M44.4853 43.5954L44.5823 40.7921L47.7793 40.8438L44.4853 43.5954Z" fill="#233447" stroke="#233447" stroke-linecap="round" stroke-linejoin="round"/>
<path d="M37.8889 55.0187L36.1713 49.3249L32.0474 51.2637L37.8889 55.0187Z" fill="#CD6116" stroke="#CD6116" stroke-linecap="round" stroke-linejoin="round"/>
<path d="M48.8999 43.7822L51.8983 48.9182L53.1284 42.0837L48.8999 43.7822Z" fill="#CD6116" stroke="#CD6116" stroke-linecap="round" stroke-linejoin="round"/>
<path d="M49.4802 36.4375L42.1262 40.0366L44.4987 43.5885L44.5956 40.7852L47.7927 40.837L49.4802 36.4375Z" fill="#CD6116" stroke="#CD6116" stroke-linecap="round" stroke-linejoin="round"/>
<path d="M34.7833 46.5027L36.9231 44.1269L39.0281 45.9713L38.0566 41.8093L30.3994 44.7471L34.7833 46.5027Z" fill="#CD6116" stroke="#CD6116" stroke-linecap="round" stroke-linejoin="round"/>
<path d="M30.3994 44.7471L36.2198 49.5099L34.7833 46.5027L30.3994 44.7471Z" fill="#E4751F" stroke="#E4751F" stroke-linecap="round" stroke-linejoin="round"/>
<path d="M47.7929 40.8378L48.9891 43.9496L49.4804 36.4382L47.7929 40.8378Z" fill="#E4751F" stroke="#E4751F" stroke-linecap="round" stroke-linejoin="round"/>
<path d="M38.057 41.8084L39.0285 45.9704L41.8894 50.1341L39.4819 44.0591L38.057 41.8084Z" fill="#E4751F" stroke="#E4751F" stroke-linecap="round" stroke-linejoin="round"/>
<path d="M42.1259 40.0367L42.8113 42.5935L45.5844 48.5252L44.4984 43.5885L42.1259 40.0367Z" fill="#E4751F" stroke="#E4751F" stroke-linecap="round" stroke-linejoin="round"/>
<path d="M44.4984 43.5888L45.5844 48.5255L46.4165 48.6868L48.9886 43.9492L47.7924 40.8373L44.4984 43.5888Z" fill="#F6851B" stroke="#F6851B" stroke-linecap="round" stroke-linejoin="round"/>
<path d="M34.7832 46.5029L36.2197 49.5101L41.4402 50.8543L41.889 50.1353L39.028 45.9715L34.7832 46.5029Z" fill="#F6851B" stroke="#F6851B" stroke-linecap="round" stroke-linejoin="round"/>
<path d="M48.5604 52.7349L48.0607 51.4774L47.5991 51.3288L42.5689 53.5193L42.3901 53.9467L42.9569 55.175L37.8887 55.0186L39.8786 55.5792L43.7541 56.3509L48.8648 54.1254L50.9532 50.7566L51.8983 48.9178L48.5604 52.7349Z" fill="#C0AD9E" stroke="#C0AD9E" stroke-linecap="round" stroke-linejoin="round"/>
<path d="M46.4168 48.6864L45.5847 48.5251L41.8891 50.1344L41.4404 50.8535L42.3903 53.9464L42.5691 53.5189L47.5993 51.3285L48.0609 51.4771L46.4168 48.6864Z" fill="#161616" stroke="#161616" stroke-linecap="round" stroke-linejoin="round"/>
<path d="M53.036 27.2897L51.8005 21.3549L47.905 17.0382L39.2154 32.1499L45.9699 34.1743L53.8368 33.1759L54.6008 30.7016L53.7246 30.5124L54.3681 29.074L53.2623 28.794L53.9752 27.5153L53.036 27.2897Z" fill="#763D16" stroke="#763D16" stroke-linecap="round" stroke-linejoin="round"/>
<path d="M17.7763 36.1708L21.2795 41.118L20.7915 41.9651L22.2133 42.3142L21.6784 43.3087L23.1698 43.8175L22.7114 44.5878L25.03 45.7198L31.1197 40.6405L34.2388 34.3165L17.2562 30.3842L17.7763 36.1708Z" fill="#763D16" stroke="#763D16" stroke-linecap="round" stroke-linejoin="round"/>
<path d="M53.8366 33.1755L45.9697 34.1738L49.48 36.4376L48.9886 43.949L53.1284 42.0832L59.3333 39.3812L53.8366 33.1755Z" fill="#F6851B" stroke="#F6851B" stroke-linecap="round" stroke-linejoin="round"/>
<path d="M31.1197 40.6414L25.03 45.7207L25.8557 53.9604L32.0472 51.2642L36.2197 49.5103L30.3993 44.7475L31.1197 40.6414Z" fill="#F6851B" stroke="#F6851B" stroke-linecap="round" stroke-linejoin="round"/>
<path d="M42.1261 40.0368L39.2153 32.1495L38.8571 25.7848L29.8501 29.707L34.2389 34.3166L38.0566 41.809L39.2739 44.166L41.889 50.1347L45.5846 48.5254L43.0098 42.5392L42.1261 40.0368Z" fill="#F6851B" stroke="#F6851B" stroke-linecap="round" stroke-linejoin="round"/>
</svg>
