<svg width="768" height="762" viewBox="0 0 768 762" fill="none" xmlns="http://www.w3.org/2000/svg">
<path d="M767.11 93.045C607.61 350.045 390.61 517.045 95.6098 543.045C2.12206 394.073 -7.96936 234.545 4.10978 106.045C8.03982 64.2366 24.1098 52.5665 65.6098 43.0449C304.133 -11.6807 462.11 -16.9554 703.11 43.0449C751.609 52.5447 758.804 66.1374 767.11 93.045Z" fill="#60D9BF"/>
<path d="M179.108 92.5452C76.1009 121.885 60.1084 201.545 60.1084 331.045C38.0771 283.512 33.041 168.545 36.6083 140.045C40.9942 105.009 49.1287 92.7262 75.1083 85.5452C246.544 43.0716 389.108 27.2701 467.608 38.0452C493.108 41.5452 487.434 45.664 467.608 50.5452C353.683 63.1777 266.108 67.7647 179.108 92.5452Z" fill="white"/>
<path d="M427.609 749.545C636.609 656.545 737.609 493.045 764.109 286.545C590.609 469.045 367.109 569.545 123.609 582.045C187.281 660.634 232.109 700.228 340.109 749.545C373.279 764.691 392.109 765.341 427.609 749.545Z" fill="#60D9BF"/>
</svg>
