<svg width="55" height="55" viewBox="0 0 55 55" fill="none" xmlns="http://www.w3.org/2000/svg">
<path d="M27.5 55C42.7397 55 55 42.7397 55 27.5C55 12.2603 42.7397 0 27.5 0C12.2603 0 0 12.2603 0 27.5C0 42.7397 12.2603 55 27.5 55Z" fill="#FFCF16"/>
<path d="M28 22.9917L32.4405 27.4322L28 31.8726L23.5595 27.4322L28 22.9917Z" fill="white"/>
<path d="M15.4404 23.0522L19.8809 27.4927L15.4404 31.9332L11 27.4927L15.4404 23.0522Z" fill="white"/>
<path d="M27.7464 11L32.1869 15.4405L21.9738 25.6535L17.5333 21.213L27.7464 11Z" fill="white"/>
<path d="M33.6517 25.7134L38.0922 21.2729L27.8791 11.0599L23.4387 15.5003L33.6517 25.7134Z" fill="white"/>
<path d="M27.8791 44.5527L23.4386 40.1123L33.6517 29.8992L38.0921 34.3397L27.8791 44.5527Z" fill="white"/>
<path d="M21.9738 29.8389L17.5333 34.2793L27.7464 44.4924L32.1868 40.0519L21.9738 29.8389Z" fill="white"/>
<path d="M40.5595 23.0522L45 27.4927L40.5595 31.9332L36.1191 27.4927L40.5595 23.0522Z" fill="white"/>
</svg>
