<svg width="226" height="226" viewBox="0 0 226 226" fill="none" xmlns="http://www.w3.org/2000/svg">
<g clip-path="url(#clip0_908_166)">
<circle cx="113" cy="113" r="113" fill="#1F1C1C"/>
<path d="M113 91.6196L131.732 110.351L113 129.083L94.2681 110.351L113 91.6196Z" fill="#FFCF15"/>
<path d="M60.0179 91.875L78.7497 110.607L60.0179 129.339L41.286 110.607L60.0179 91.875Z" fill="#FFCF15"/>
<path d="M111.93 41.0322L130.662 59.7641L87.5786 102.847L68.8468 84.1155L111.93 41.0322Z" fill="#FFCF15"/>
<path d="M136.841 103.102L155.573 84.3702L112.49 41.2869L93.7581 60.0188L136.841 103.102Z" fill="#FFCF15"/>
<path d="M112.49 182.574L93.758 163.842L136.841 120.759L155.573 139.491L112.49 182.574Z" fill="#FFCF15"/>
<path d="M87.5786 120.504L68.8467 139.236L111.93 182.32L130.662 163.588L87.5786 120.504Z" fill="#FFCF15"/>
<path d="M165.982 91.875L184.713 110.607L165.982 129.339L147.25 110.607L165.982 91.875Z" fill="#FFCF15"/>
</g>
<defs>
<clipPath id="clip0_908_166">
<rect width="226" height="226" fill="white"/>
</clipPath>
</defs>
</svg>
