<svg width="281" height="193" viewBox="0 0 281 193" fill="none" xmlns="http://www.w3.org/2000/svg">
<g clip-path="url(#clip0_491_34)">
<path d="M199.703 0L140.495 17.6505L81.2874 0L45.3278 34.1936L65.7981 79.4032V135.648L140.495 193L215.202 135.648V79.4032L235.672 34.1936L199.703 0Z" fill="#413A29"/>
<path d="M75.0994 131.095V77.4081L56.5161 36.3605L83.8067 10.4242L140.495 27.33L197.193 10.4242L224.484 36.3605L205.891 77.4081V131.095L140.495 181.297L75.0994 131.095Z" fill="#B1AB95"/>
<path d="M281 25.545L193.611 54.746L180.727 83.2598L176.771 92.0134L169.089 109.034L146.568 131.419L140.629 143.638L212.098 119.324L224.915 109.874L232.224 93.6935L245.021 84.243L253.69 65.0556L267.877 54.5837L281 25.545Z" fill="#413A29"/>
<path d="M186.302 83.4125L248.192 62.736L263.739 51.2617L271.469 34.1363L197.375 58.8985L186.302 83.4125Z" fill="#B1AB95"/>
<path d="M200.211 62.0105L264.323 40.5894L260.625 48.7702L259.035 44.7705L200.211 62.0105Z" fill="#EDE0A2"/>
<path d="M175.095 108.242L227.674 90.6674L240.883 80.921L247.454 66.373L184.501 87.4123L175.095 108.242Z" fill="#B1AB95"/>
<path d="M187.327 90.5242L240.308 72.8165L237.77 78.42L235.883 76.1767L187.327 90.5242Z" fill="#EDE0A2"/>
<path d="M150.208 135.056L209.675 114.733L220.767 106.542L226.294 94.314L173.389 111.993L150.208 135.056Z" fill="#B1AB95"/>
<path d="M175.478 115.363L219.148 100.767L217.664 104.051L215.719 103.259L175.478 115.363Z" fill="#EDE0A2"/>
<path d="M212.386 74.6971L253.326 53.381L191.915 70.9932L186.302 83.4125L212.386 74.6971Z" fill="#413A29"/>
<path d="M175.095 108.242L201.169 99.5261L232.262 82.897L179.779 97.8651L175.095 108.242Z" fill="#413A29"/>
<path d="M150.208 135.056L178.035 125.539L214.416 107.736L161.55 123.773L150.208 135.056Z" fill="#413A29"/>
<path d="M0 25.545L87.3892 54.746L100.273 83.2598L104.22 92.0134L111.911 109.034L134.432 131.419L140.371 143.638L68.9018 119.324L56.085 109.874L48.7763 93.6935L35.9691 84.243L27.3002 65.0556L13.1232 54.5837L0 25.545Z" fill="#413A29"/>
<path d="M94.698 83.4125L32.8081 62.736L17.2614 51.2617L9.53113 34.1363L83.6151 58.8985L94.698 83.4125Z" fill="#B1AB95"/>
<path d="M80.7893 62.0105L16.6771 40.5894L20.3746 48.7702L21.9647 44.7705L80.7893 62.0105Z" fill="#EDE0A2"/>
<path d="M105.905 108.242L53.3263 90.6674L40.1169 80.921L33.5457 66.373L96.4989 87.4123L105.905 108.242Z" fill="#B1AB95"/>
<path d="M93.673 90.5242L40.6916 72.8165L43.2204 78.42L45.1171 76.1767L93.673 90.5242Z" fill="#EDE0A2"/>
<path d="M130.792 135.056L71.3253 114.733L60.2328 106.542L54.7057 94.314L107.601 111.993L130.792 135.056Z" fill="#B1AB95"/>
<path d="M105.522 115.363L61.8516 100.767L63.3364 104.051L65.2713 103.259L105.522 115.363Z" fill="#EDE0A2"/>
<path d="M68.6144 74.6971L27.6737 53.381L89.0847 70.9932L94.698 83.4125L68.6144 74.6971Z" fill="#413A29"/>
<path d="M105.905 108.242L79.8314 99.5261L48.7284 82.897L101.221 97.8651L105.905 108.242Z" fill="#413A29"/>
<path d="M130.792 135.056L102.955 125.539L66.5836 107.736L119.45 123.773L130.792 135.056Z" fill="#413A29"/>
<path d="M131.625 160.009L135.121 163.408C135.323 163.608 135.418 163.885 135.37 164.162L134.547 168.954C134.422 169.651 135.16 170.185 135.792 169.851L140.112 167.589C140.361 167.455 140.658 167.455 140.907 167.589L145.227 169.851C145.85 170.176 146.587 169.651 146.473 168.954L145.649 164.162C145.601 163.885 145.697 163.608 145.898 163.408L149.394 160.009C149.902 159.513 149.624 158.654 148.925 158.558L144.097 157.861C143.819 157.823 143.58 157.651 143.455 157.394L141.29 153.031C140.974 152.401 140.074 152.401 139.758 153.031L137.593 157.394C137.468 157.642 137.229 157.823 136.951 157.861L132.123 158.558C131.424 158.663 131.146 159.522 131.654 160.009H131.625Z" fill="#533C0E"/>
<path d="M157.967 148.182L160.889 151.026C161.061 151.189 161.138 151.427 161.09 151.656L160.4 155.666C160.305 156.248 160.918 156.697 161.435 156.42L165.046 154.53C165.257 154.425 165.506 154.425 165.707 154.53L169.318 156.42C169.845 156.697 170.458 156.248 170.353 155.666L169.663 151.656C169.625 151.427 169.702 151.189 169.864 151.026L172.786 148.182C173.208 147.771 172.978 147.055 172.393 146.969L168.351 146.387C168.121 146.349 167.92 146.206 167.815 145.996L166.004 142.349C165.745 141.815 164.979 141.815 164.721 142.349L162.91 145.996C162.805 146.206 162.604 146.349 162.374 146.387L158.331 146.969C157.747 147.055 157.508 147.771 157.939 148.182H157.967Z" fill="#533C0E"/>
<path d="M123.033 148.182L120.111 151.026C119.939 151.189 119.862 151.427 119.91 151.656L120.6 155.666C120.695 156.248 120.082 156.697 119.565 156.42L115.954 154.53C115.743 154.425 115.494 154.425 115.293 154.53L111.682 156.42C111.155 156.697 110.542 156.248 110.647 155.666L111.337 151.656C111.375 151.427 111.298 151.189 111.136 151.026L108.214 148.182C107.793 147.771 108.022 147.055 108.607 146.969L112.649 146.387C112.879 146.349 113.08 146.206 113.185 145.996L114.996 142.349C115.255 141.815 116.021 141.815 116.28 142.349L118.09 145.996C118.195 146.206 118.396 146.349 118.626 146.387L122.669 146.969C123.253 147.055 123.492 147.771 123.061 148.182H123.033Z" fill="#533C0E"/>
</g>
<defs>
<clipPath id="clip0_491_34">
<rect width="281" height="193" fill="white"/>
</clipPath>
</defs>
</svg>
