<svg width="74" height="106" viewBox="0 0 74 106" fill="none" xmlns="http://www.w3.org/2000/svg">
<path d="M39.16 95.13C40.5 93.89 42.67 91.03 41.73 88.66C40.6 85.82 35.82 85.71 35.61 85.7C28.44 85.62 23.7899 95.11 23.4799 95.77C24.0799 96.02 33.89 100.01 39.16 95.13Z" fill="#766657"/>
<path d="M31.6899 68.97C31.4499 70.65 31.5599 73.99 33.6299 75.15C36.1099 76.54 39.6199 73.81 39.7799 73.69C44.9999 69.54 42.78 59.97 42.62 59.31C42.04 59.48 32.6299 62.36 31.6899 68.97Z" fill="#766657"/>
<path d="M29.5499 87.35C30.9399 86.3 33.28 83.81 32.61 81.47C31.82 78.67 27.2999 78.1 27.0999 78.08C20.3199 77.31 14.9899 85.85 14.6399 86.44C15.1799 86.74 24.0899 91.46 29.5499 87.35Z" fill="#766657"/>
<path d="M24.51 60.31C24.11 61.9 23.87 65.11 25.74 66.44C27.98 68.02 31.63 65.77 31.79 65.67C37.22 62.22 36.07 52.81 35.98 52.16C35.4 52.26 26.08 54.07 24.51 60.31Z" fill="#766657"/>
<path d="M14.64 69.42C16.17 69.03 18.99 67.76 19.26 65.57C19.57 62.95 16 60.9 15.84 60.81C10.44 57.79 2.99995 63.08 2.48995 63.45C2.83995 63.89 8.63995 70.95 14.64 69.43V69.42Z" fill="#766657"/>
<path d="M19.89 51.52C19.44 52.84 19.03 55.53 20.52 56.77C22.3 58.26 25.53 56.6 25.67 56.53C30.49 53.99 30.15 45.97 30.12 45.42C29.63 45.47 21.64 46.36 19.89 51.52Z" fill="#766657"/>
<path d="M21.0799 78.93C22.5299 78.15 25.07 76.14 24.79 73.85C24.45 71.11 20.3 69.94 20.11 69.89C13.87 68.2 7.65994 75.45 7.23994 75.95C7.70994 76.31 15.3799 82 21.0799 78.93Z" fill="#766657"/>
<path d="M11.1299 59.39C12.4799 59.05 14.9799 57.92 15.2099 55.98C15.4899 53.66 12.32 51.85 12.18 51.77C7.39995 49.1 0.819949 53.78 0.369949 54.1C0.679949 54.49 5.80995 60.73 11.1199 59.38L11.1299 59.39Z" fill="#766657"/>
<path d="M9.18996 49.98C10.54 49.91 13.11 49.3 13.69 47.52C14.38 45.38 11.73 43.07 11.61 42.97C7.57995 39.56 0.489954 42.76 -4.57764e-05 42.98C0.219954 43.41 3.91996 50.27 9.18996 49.98Z" fill="#766657"/>
<path d="M9.19995 40.78C10.41 41.02 12.83 41.08 13.75 39.63C14.86 37.89 13.03 35.24 12.95 35.12C10.17 31.17 3.13995 32.37 2.65995 32.46C2.75995 32.89 4.44995 39.82 9.19995 40.78Z" fill="#766657"/>
<path d="M10.8999 32.49C11.9199 32.97 14.06 33.56 15.2 32.47C16.57 31.17 15.5299 28.4 15.4799 28.28C13.8699 24.15 7.34995 23.69 6.89995 23.66C6.89995 24.06 6.87995 30.6 10.8899 32.5L10.8999 32.49Z" fill="#766657"/>
<path d="M14.03 25.39C14.91 25.93 16.78 26.66 17.92 25.79C19.28 24.75 18.62 22.15 18.59 22.04C17.54 18.16 11.71 17.09 11.31 17.02C11.26 17.38 10.61 23.29 14.04 25.39H14.03Z" fill="#766657"/>
<path d="M17.7999 18.76C18.5099 19.37 20.0799 20.3 21.2199 19.68C22.5899 18.94 22.37 16.52 22.36 16.42C21.98 12.79 16.9099 11 16.5599 10.88C16.4699 11.2 15.0299 16.39 17.7999 18.76Z" fill="#766657"/>
<path d="M22.05 13.94C22.62 14.48 23.89 15.34 24.89 14.88C26.08 14.33 26.01 12.28 26 12.19C25.86 9.12 21.68 7.36 21.39 7.25C21.3 7.51 19.84 11.81 22.05 13.95V13.94Z" fill="#766657"/>
<path d="M25.75 10.23C26.23 10.69 27.31 11.41 28.14 11.02C29.14 10.55 29.08 8.82 29.08 8.75C28.96 6.16 25.43 4.68 25.19 4.58C25.11 4.8 23.88 8.43 25.75 10.23Z" fill="#766657"/>
<path d="M28.5 6.36C28.76 6.92 29.46 7.91 30.32 7.85C31.35 7.78 31.8699 6.26 31.8999 6.19C32.6599 3.9 30.09 1.43 29.91 1.26C29.77 1.43 27.4799 4.17 28.5099 6.36H28.5Z" fill="#766657"/>
<path d="M18 40.71C17.28 41.84 16.2599 44.28 17.3799 45.8C18.7099 47.61 22.1299 46.8 22.2799 46.76C27.3999 45.48 28.9299 37.86 29.0299 37.33C28.5599 37.26 20.83 36.26 18 40.71Z" fill="#766657"/>
<path d="M20.1499 30.94C19.2299 31.69 17.7099 33.46 18.2199 35.04C18.8399 36.93 21.93 37.19 22.07 37.2C26.72 37.54 30.11 31.56 30.34 31.15C29.96 30.96 23.7599 27.99 20.1499 30.94Z" fill="#766657"/>
<path d="M22.77 23.73C21.96 24.34 20.6099 25.78 20.9899 27.14C21.4499 28.76 24.06 29.1 24.18 29.11C28.11 29.56 31.2 24.62 31.41 24.28C31.09 24.11 25.94 21.36 22.77 23.74V23.73Z" fill="#766657"/>
<path d="M26.2 17.1C25.4 17.71 24.0499 19.16 24.4399 20.51C24.9099 22.13 27.5199 22.45 27.6399 22.46C31.5699 22.89 34.64 17.93 34.84 17.59C34.52 17.42 29.36 14.7 26.2 17.09V17.1Z" fill="#766657"/>
<path d="M30.29 10.98C29.54 11.42 28.2499 12.51 28.4399 13.71C28.6699 15.14 30.8699 15.68 30.9599 15.7C34.2599 16.47 37.3899 12.56 37.5999 12.29C37.3499 12.11 33.22 9.27 30.29 10.98Z" fill="#766657"/>
<path d="M33.5299 6.6C32.9699 7 32.01 7.97 32.25 8.91C32.54 10.03 34.33 10.3 34.41 10.31C37.1 10.68 39.3 7.33 39.45 7.1C39.24 6.98 35.7399 5.01 33.5299 6.59V6.6Z" fill="#766657"/>
<path d="M40.73 76.52C40.71 78.22 41.25 81.53 43.46 82.41C46.1 83.47 49.25 80.31 49.38 80.17C54.04 75.38 50.6 66.14 50.36 65.51C49.8 65.75 40.82 69.83 40.73 76.51V76.52Z" fill="#766657"/>
<path d="M33.49 2.87C33.31 3.46 33.17 4.66 33.85 5.19C34.66 5.82 36.07 5.04 36.13 5C38.23 3.8 37.95 0.24 37.93 0C37.71 0.03 34.18 0.55 33.49 2.87Z" fill="#766657"/>
<path d="M13.9799 42.98C14.2199 37.45 15.7199 32.52 17.4899 28.29C19.2899 24.05 21.49 20.51 23.54 17.54C24.06 16.8 24.5699 16.09 25.0499 15.4C25.5699 14.74 26.0699 14.11 26.5499 13.5C27.4899 12.27 28.41 11.2 29.27 10.26C30.92 8.33 32.3299 6.95 33.2599 6C34.1999 5.05 34.6899 4.55 34.6899 4.55C34.6899 4.55 34.2399 5.08 33.3799 6.1C32.5199 7.12 31.2299 8.59 29.7199 10.62C29.3399 11.12 28.93 11.65 28.5 12.2C28.1 12.77 27.6799 13.38 27.2399 14C26.7999 14.63 26.3499 15.29 25.8799 15.97C25.4399 16.68 24.99 17.41 24.52 18.17C22.68 21.22 20.7399 24.79 19.2099 28.97C17.7099 33.13 16.5199 37.9 16.5099 43.03C16.5099 45.58 16.84 48.22 17.5 50.86C18.1 53.51 19.1199 56.15 20.3699 58.74C21.5999 61.35 23.2299 63.84 24.9799 66.32C26.8299 68.73 28.8 71.14 31.07 73.36C35.5199 77.88 40.76 81.96 46.48 85.6C55.22 91.17 64.36 95.37 73.2 98.66L71.68 101.69C62.69 98.56 53.39 94.41 44.47 88.72C38.55 84.95 33.13 80.66 28.52 75.83C26.17 73.46 24.1299 70.88 22.2399 68.28C20.4399 65.61 18.7799 62.91 17.5299 60.07C14.9499 54.45 13.7599 48.49 13.9699 42.97L13.9799 42.98Z" fill="#766657"/>
<path d="M50.3 83.49C50.44 85.19 51.29 88.42 53.58 89.09C56.31 89.89 59.14 86.45 59.26 86.29C63.43 81.07 59.13 72.21 58.83 71.6C58.3 71.9 49.75 76.81 50.3 83.48V83.49Z" fill="#766657"/>
<path d="M49.97 100.59C50.99 99.07 52.45 95.79 50.98 93.7C49.23 91.2 44.55 92.18 44.35 92.23C37.35 93.8 35.01 104.11 34.86 104.82C35.5 104.93 45.96 106.55 49.97 100.6V100.59Z" fill="#766657"/>
</svg>
