<svg width="74" height="106" viewBox="0 0 74 106" fill="none" xmlns="http://www.w3.org/2000/svg">
<path d="M34.04 95.13C32.7 93.89 30.53 91.03 31.47 88.66C32.6 85.82 37.38 85.71 37.59 85.7C44.76 85.62 49.41 95.11 49.72 95.77C49.12 96.02 39.31 100.01 34.04 95.13Z" fill="#766657"/>
<path d="M41.51 68.97C41.75 70.65 41.64 73.99 39.57 75.15C37.09 76.54 33.58 73.81 33.42 73.69C28.2 69.54 30.42 59.97 30.58 59.31C31.16 59.48 40.57 62.36 41.51 68.97Z" fill="#766657"/>
<path d="M43.65 87.35C42.26 86.3 39.92 83.81 40.59 81.47C41.38 78.67 45.9 78.1 46.1 78.08C52.88 77.31 58.21 85.85 58.56 86.44C58.02 86.74 49.11 91.46 43.65 87.35Z" fill="#766657"/>
<path d="M48.69 60.31C49.09 61.9 49.33 65.11 47.46 66.44C45.22 68.02 41.57 65.77 41.41 65.67C35.98 62.22 37.13 52.81 37.22 52.16C37.8 52.26 47.12 54.07 48.69 60.31Z" fill="#766657"/>
<path d="M58.56 69.42C57.03 69.03 54.21 67.76 53.94 65.57C53.63 62.95 57.2 60.9 57.36 60.81C62.76 57.79 70.2 63.08 70.71 63.45C70.36 63.89 64.56 70.95 58.56 69.43V69.42Z" fill="#766657"/>
<path d="M53.31 51.52C53.76 52.84 54.17 55.53 52.68 56.77C50.9 58.26 47.67 56.6 47.53 56.53C42.71 53.99 43.05 45.97 43.08 45.42C43.57 45.47 51.56 46.36 53.31 51.52Z" fill="#766657"/>
<path d="M52.12 78.93C50.67 78.15 48.13 76.14 48.41 73.85C48.75 71.11 52.9 69.94 53.09 69.89C59.33 68.2 65.54 75.45 65.96 75.95C65.49 76.31 57.82 82 52.12 78.93Z" fill="#766657"/>
<path d="M62.07 59.39C60.72 59.05 58.22 57.92 57.99 55.98C57.71 53.66 60.88 51.85 61.02 51.77C65.8 49.1 72.38 53.78 72.83 54.1C72.52 54.49 67.39 60.73 62.08 59.38L62.07 59.39Z" fill="#766657"/>
<path d="M64.01 49.98C62.66 49.91 60.09 49.3 59.51 47.52C58.82 45.38 61.47 43.07 61.59 42.97C65.62 39.56 72.71 42.76 73.2 42.98C72.98 43.41 69.28 50.27 64.01 49.98Z" fill="#766657"/>
<path d="M64 40.78C62.79 41.02 60.37 41.08 59.45 39.63C58.34 37.89 60.17 35.24 60.25 35.12C63.03 31.17 70.06 32.37 70.54 32.46C70.44 32.89 68.75 39.82 64 40.78Z" fill="#766657"/>
<path d="M62.3 32.49C61.28 32.97 59.14 33.56 58 32.47C56.63 31.17 57.67 28.4 57.72 28.28C59.33 24.15 65.85 23.69 66.3 23.66C66.3 24.06 66.32 30.6 62.31 32.5L62.3 32.49Z" fill="#766657"/>
<path d="M59.17 25.39C58.29 25.93 56.42 26.66 55.28 25.79C53.92 24.75 54.58 22.15 54.61 22.04C55.66 18.16 61.49 17.09 61.89 17.02C61.94 17.38 62.59 23.29 59.16 25.39H59.17Z" fill="#766657"/>
<path d="M55.4 18.76C54.69 19.37 53.12 20.3 51.98 19.68C50.61 18.94 50.83 16.52 50.84 16.42C51.22 12.79 56.29 11 56.64 10.88C56.73 11.2 58.17 16.39 55.4 18.76Z" fill="#766657"/>
<path d="M51.15 13.94C50.58 14.48 49.31 15.34 48.31 14.88C47.12 14.33 47.19 12.28 47.2 12.19C47.34 9.12 51.52 7.36 51.81 7.25C51.9 7.51 53.36 11.81 51.15 13.95V13.94Z" fill="#766657"/>
<path d="M47.45 10.23C46.97 10.69 45.89 11.41 45.06 11.02C44.06 10.55 44.12 8.82 44.12 8.75C44.24 6.16 47.77 4.68 48.01 4.58C48.09 4.8 49.32 8.43 47.45 10.23Z" fill="#766657"/>
<path d="M44.7 6.36C44.44 6.92 43.74 7.91 42.88 7.85C41.85 7.78 41.33 6.26 41.3 6.19C40.54 3.9 43.11 1.43 43.29 1.26C43.43 1.43 45.72 4.17 44.69 6.36H44.7Z" fill="#766657"/>
<path d="M55.2 40.71C55.92 41.84 56.94 44.28 55.82 45.8C54.49 47.61 51.07 46.8 50.92 46.76C45.8 45.48 44.27 37.86 44.17 37.33C44.64 37.26 52.37 36.26 55.2 40.71Z" fill="#766657"/>
<path d="M53.05 30.94C53.97 31.69 55.49 33.46 54.98 35.04C54.36 36.93 51.27 37.19 51.13 37.2C46.48 37.54 43.09 31.56 42.86 31.15C43.24 30.96 49.44 27.99 53.05 30.94Z" fill="#766657"/>
<path d="M50.43 23.73C51.24 24.34 52.59 25.78 52.21 27.14C51.75 28.76 49.14 29.1 49.02 29.11C45.09 29.56 42 24.62 41.79 24.28C42.11 24.11 47.26 21.36 50.43 23.74V23.73Z" fill="#766657"/>
<path d="M47 17.1C47.8 17.71 49.15 19.16 48.76 20.51C48.29 22.13 45.68 22.45 45.56 22.46C41.63 22.89 38.56 17.93 38.36 17.59C38.68 17.42 43.84 14.7 47 17.09V17.1Z" fill="#766657"/>
<path d="M42.91 10.98C43.66 11.42 44.95 12.51 44.76 13.71C44.53 15.14 42.33 15.68 42.24 15.7C38.94 16.47 35.81 12.56 35.6 12.29C35.85 12.11 39.98 9.27 42.91 10.98Z" fill="#766657"/>
<path d="M39.67 6.6C40.23 7 41.19 7.97 40.95 8.91C40.66 10.03 38.87 10.3 38.79 10.31C36.1 10.68 33.9 7.33 33.75 7.1C33.96 6.98 37.46 5.01 39.67 6.59V6.6Z" fill="#766657"/>
<path d="M32.47 76.52C32.49 78.22 31.95 81.53 29.74 82.41C27.1 83.47 23.95 80.31 23.82 80.17C19.16 75.38 22.6 66.14 22.84 65.51C23.4 65.75 32.38 69.83 32.47 76.51V76.52Z" fill="#766657"/>
<path d="M39.71 2.87C39.89 3.46 40.03 4.66 39.35 5.19C38.54 5.82 37.13 5.04 37.07 5C34.97 3.8 35.25 0.24 35.27 0C35.49 0.03 39.02 0.55 39.71 2.87Z" fill="#766657"/>
<path d="M59.22 42.98C58.98 37.45 57.48 32.52 55.71 28.29C53.91 24.05 51.71 20.51 49.66 17.54C49.14 16.8 48.63 16.09 48.15 15.4C47.63 14.74 47.13 14.11 46.65 13.5C45.71 12.27 44.79 11.2 43.93 10.26C42.28 8.33 40.87 6.95 39.94 6C39 5.05 38.51 4.55 38.51 4.55C38.51 4.55 38.96 5.08 39.82 6.1C40.68 7.12 41.97 8.59 43.48 10.62C43.86 11.12 44.27 11.65 44.7 12.2C45.1 12.77 45.52 13.38 45.96 14C46.4 14.63 46.85 15.29 47.32 15.97C47.76 16.68 48.21 17.41 48.68 18.17C50.52 21.22 52.46 24.79 53.99 28.97C55.49 33.13 56.68 37.9 56.69 43.03C56.69 45.58 56.36 48.22 55.7 50.86C55.1 53.51 54.08 56.15 52.83 58.74C51.6 61.35 49.97 63.84 48.22 66.32C46.37 68.73 44.4 71.14 42.13 73.36C37.68 77.88 32.44 81.96 26.72 85.6C17.98 91.17 8.84 95.37 0 98.66L1.52 101.69C10.51 98.56 19.81 94.41 28.73 88.72C34.65 84.95 40.07 80.66 44.68 75.83C47.03 73.46 49.07 70.88 50.96 68.28C52.76 65.61 54.42 62.91 55.67 60.07C58.25 54.45 59.44 48.49 59.23 42.97L59.22 42.98Z" fill="#766657"/>
<path d="M22.9 83.49C22.76 85.19 21.91 88.42 19.62 89.09C16.89 89.89 14.06 86.45 13.94 86.29C9.77 81.07 14.07 72.21 14.37 71.6C14.9 71.9 23.45 76.81 22.9 83.48V83.49Z" fill="#766657"/>
<path d="M23.23 100.59C22.21 99.07 20.75 95.79 22.22 93.7C23.97 91.2 28.65 92.18 28.85 92.23C35.85 93.8 38.19 104.11 38.34 104.82C37.7 104.93 27.24 106.55 23.23 100.6V100.59Z" fill="#766657"/>
</svg>
