<svg width="430" height="41" viewBox="0 0 430 41" fill="none" xmlns="http://www.w3.org/2000/svg">
<path d="M400.93 37.47C399.3 37.77 397.37 37.74 395.37 37.74C395.37 37.74 361.44 37.96 327.3 38.11C323.37 38.13 319.44 38.15 315.56 38.17C311.63 38.17 307.75 38.2 303.97 38.21H141.11L141.13 38.24C136.78 38.23 132.14 38.23 127.32 38.21C115 38.17 101.5 38.11 88.71 38.05C59.83 37.9 34.55 37.74 34.55 37.74C34.24 37.74 28.11 37.74 27.8 37.75L33.92 31.33L33.95 30.55L35.97 28L38.77 24.54H38.71L41.29 21.27L42.88 19.26H154.25C156.6 19.26 158.86 19.22 161.04 19.13C162.13 19.09 163.2 19.04 164.25 18.99C165.3 18.93 166.32 18.86 167.33 18.79C168.34 18.71 169.32 18.63 170.29 18.54C171.26 18.44 172.2 18.34 173.13 18.24C173.59 18.19 174.05 18.13 174.51 18.07C175.42 17.95 176.3 17.83 177.17 17.71C177.61 17.64 178.03 17.58 178.46 17.51C179.97 17.27 181.42 17.01 182.81 16.73C183.51 16.59 184.19 16.45 184.86 16.3C185.87 16.08 186.84 15.84 187.78 15.61C188.41 15.45 189.02 15.28 189.62 15.12C190.07 14.99 190.51 14.87 190.95 14.74C191.47 14.59 191.97 14.43 192.47 14.28C192.79 14.18 193.1 14.08 193.41 13.97C194.19 13.71 194.95 13.45 195.68 13.18C196.04 13.05 196.4 12.91 196.75 12.78C197.28 12.57 197.8 12.36 198.31 12.15C198.31 12.15 198.33 12.14 198.35 12.13C198.81 11.94 199.26 11.74 199.7 11.55C200.08 11.38 200.44 11.21 200.8 11.04C201.09 10.91 201.37 10.77 201.65 10.63C201.81 10.56 201.97 10.48 202.12 10.4C203.1 9.91 204.01 9.42 204.86 8.92C205.23 8.71 205.59 8.49 205.93 8.27C206.26 8.07 206.59 7.86 206.9 7.66C207.08 7.54 207.26 7.41 207.44 7.29C207.67 7.14 207.89 6.99 208.1 6.83C208.32 6.68 208.53 6.53 208.73 6.37C209.01 6.17 209.28 5.97 209.53 5.76C209.79 5.56 210.04 5.37 210.27 5.17C213.63 2.37 214.96 0 214.96 0C214.96 0 216.28 2.37 219.64 5.17C220.43 5.83 221.34 6.53 222.39 7.23C222.64 7.41 222.89 7.58 223.16 7.75C223.42 7.93 223.7 8.1 223.98 8.27C224.38 8.52 224.8 8.77 225.23 9.02C225.45 9.15 225.67 9.27 225.89 9.39C226.12 9.52 226.35 9.64 226.58 9.77C226.86 9.92 227.15 10.07 227.44 10.22C228.3 10.67 229.23 11.11 230.22 11.55C230.65 11.75 231.1 11.94 231.57 12.13C231.81 12.23 232.05 12.34 232.3 12.43C232.76 12.62 233.24 12.81 233.73 12.99C234.08 13.13 234.44 13.26 234.81 13.39C236.12 13.85 237.5 14.31 238.97 14.74C239.41 14.87 239.85 15 240.3 15.12C240.9 15.28 241.51 15.45 242.14 15.61C243.08 15.84 244.05 16.08 245.06 16.3C245.73 16.45 246.41 16.59 247.11 16.73C248.5 17.01 249.95 17.27 251.46 17.51C252.09 17.61 252.73 17.71 253.38 17.8C254.03 17.9 254.69 17.98 255.36 18.07C257.02 18.28 258.75 18.47 260.54 18.62C260.75 18.64 260.95 18.65 261.15 18.67C261.55 18.7 261.96 18.73 262.36 18.77C262.44 18.77 262.51 18.78 262.59 18.79C263.33 18.84 264.09 18.89 264.85 18.94C265.01 18.95 265.16 18.96 265.32 18.97C265.59 18.99 265.86 19 266.13 19.01C266.99 19.06 267.86 19.1 268.75 19.13C269.03 19.13 269.31 19.15 269.6 19.16C271.55 19.23 273.57 19.26 275.66 19.26H386.89L388.44 21.27L391.71 25.51L396.5 31.74L400.92 37.47H400.93Z" fill="url(#paint0_radial_71_9349)"/>
<path style="mix-blend-mode:overlay" d="M186.16 37.1399C185.98 37.0499 185.79 36.9599 185.61 36.8799C185.72 36.9299 185.82 36.9699 185.92 37.0199L186.16 37.1399Z" fill="url(#paint1_linear_71_9349)"/>
<g style="mix-blend-mode:multiply" opacity="0.4">
<path d="M400.93 37.47C399.3 37.77 397.37 37.74 395.37 37.74C395.37 37.74 361.44 37.96 327.3 38.11C323.37 38.13 319.44 38.15 315.56 38.17C311.63 38.17 307.75 38.2 303.97 38.21H141.11L141.13 38.24C136.78 38.23 132.14 38.23 127.32 38.21C115 38.17 101.5 38.11 88.71 38.05C59.83 37.9 34.55 37.74 34.55 37.74C34.24 37.74 28.11 37.74 27.8 37.75L33.92 31.33L38.62 26.01L38.18 33.91H228.26C228.39 33.9 258.15 33.91 258.28 33.91H391.74L390.85 26.01L400.93 37.47Z" fill="#702424"/>
</g>
<path style="mix-blend-mode:overlay" opacity="0.7" d="M388.02 31.9301H277.92L265.03 22.8201L273.42 26.8501H384.69L388.02 31.9301Z" fill="url(#paint2_linear_71_9349)"/>
<path style="mix-blend-mode:color-dodge" d="M186.16 37.1399C185.98 37.0499 185.79 36.9599 185.61 36.8799C185.72 36.9299 185.82 36.9699 185.92 37.0199L186.16 37.1399Z" fill="url(#paint3_radial_71_9349)"/>
<path style="mix-blend-mode:color-dodge" d="M258.32 33.21C258.18 33.21 228.4 33.24 228.26 33.25L38.18 33.91H228.26C228.39 33.9 258.15 33.91 258.28 33.91H391.74L258.32 33.21Z" fill="url(#paint4_radial_71_9349)"/>
<path style="mix-blend-mode:overlay" d="M388.02 31.9301L384.23 28.5001L273.51 27.5001L265.03 22.8201L273.42 26.8501H384.69L388.02 31.9301Z" fill="url(#paint5_linear_71_9349)"/>
<path style="mix-blend-mode:overlay" opacity="0.7" d="M164.89 22.8201L152 31.9301H41.9L45.23 26.8501H156.5L164.89 22.8201Z" fill="url(#paint6_linear_71_9349)"/>
<path style="mix-blend-mode:overlay" d="M164.89 22.8201L156.61 27.5001L45.83 28.5001L41.9 31.9301L45.23 26.8501H156.5L164.89 22.8201Z" fill="url(#paint7_radial_71_9349)"/>
<path style="mix-blend-mode:overlay" d="M272.81 38.2099H265.23C266.44 38.1799 267.63 38.1599 268.78 38.1599C270.17 38.1599 271.52 38.1799 272.81 38.2099Z" fill="url(#paint8_linear_71_9349)"/>
<path style="mix-blend-mode:overlay" d="M150.97 38.2101H148.28C148.28 38.2101 149.26 38.1901 150.97 38.2101Z" fill="url(#paint9_linear_71_9349)"/>
<path style="mix-blend-mode:color-dodge" d="M45.23 26.8501L156.17 26.1101L164.89 22.8201L156.5 26.8501H45.23Z" fill="url(#paint10_radial_71_9349)"/>
<path style="mix-blend-mode:color-dodge" d="M265.03 22.8201L273.4 25.9201L384.69 26.8501H273.42L265.03 22.8201Z" fill="url(#paint11_radial_71_9349)"/>
<g style="mix-blend-mode:multiply" opacity="0.6">
<path d="M224.29 21C224.29 21.24 224.29 21.49 224.26 21.73C224.17 23.03 223.81 24.27 223.23 25.36C222.21 27.31 220.52 28.85 218.47 29.68C217.39 30.11 216.22 30.36 214.99 30.36C213.76 30.36 212.59 30.12 211.51 29.68C209.45 28.85 207.76 27.31 206.74 25.36C206.16 24.26 205.8 23.03 205.71 21.73C205.69 21.49 205.68 21.25 205.68 21C205.68 20.86 205.68 20.72 205.69 20.59C205.94 15.68 210 11.78 214.97 11.78C219.94 11.78 224 15.68 224.25 20.59C224.26 20.73 224.26 20.87 224.26 21H224.29Z" fill="#702424"/>
</g>
<path style="mix-blend-mode:color-dodge" d="M222.9 25.89C223.78 24.47 224.28 22.79 224.28 21C224.28 15.87 220.12 11.71 214.99 11.71C209.86 11.71 205.69 15.87 205.69 21C205.69 22.79 206.2 24.47 207.07 25.89C206.04 24.37 205.44 22.53 205.44 20.55C205.44 15.28 209.71 11.01 214.99 11.01C220.27 11.01 224.53 15.29 224.53 20.55C224.53 22.52 223.93 24.36 222.9 25.89Z" fill="url(#paint12_radial_71_9349)"/>
<path d="M214.99 29.36C219.574 29.36 223.29 25.644 223.29 21.06C223.29 16.476 219.574 12.76 214.99 12.76C210.406 12.76 206.69 16.476 206.69 21.06C206.69 25.644 210.406 29.36 214.99 29.36Z" fill="url(#paint13_radial_71_9349)"/>
<path d="M222.54 20.8501C222.54 20.8501 222.54 20.7701 222.54 20.7401C222.53 20.4501 222.5 20.1601 222.45 19.8701C222.44 19.7701 222.41 19.6701 222.39 19.5701C222.37 19.4601 222.34 19.3301 222.31 19.2201C222.31 19.2201 222.31 19.2001 222.31 19.1801C222.28 19.0701 222.25 18.9501 222.21 18.8501C222.17 18.7301 222.14 18.6101 222.1 18.5001C222.06 18.3901 222.01 18.2701 221.96 18.1601C221.86 17.9301 221.75 17.7101 221.64 17.5001C221.58 17.4001 221.53 17.3001 221.48 17.2101C221.34 16.9901 221.2 16.7801 221.05 16.5701C220.98 16.4801 220.91 16.3901 220.84 16.3101C220.6 16.0301 220.36 15.7701 220.08 15.5201C219.99 15.4301 219.9 15.3601 219.81 15.2801C219.74 15.2201 219.67 15.1701 219.6 15.1101C219.48 15.0201 219.36 14.9301 219.23 14.8501C219.13 14.7801 219.03 14.7101 218.92 14.6501C218.82 14.5901 218.71 14.5301 218.61 14.4701C218.53 14.4301 218.45 14.3801 218.37 14.3501C217.36 13.8401 216.22 13.5601 215.01 13.5601C214.23 13.5601 213.47 13.6801 212.77 13.8901C211.62 14.2501 210.59 14.8701 209.74 15.7101C209.18 16.2501 208.7 16.8901 208.33 17.5901C208.14 17.9401 207.99 18.3001 207.86 18.6901C207.8 18.8801 207.74 19.0701 207.69 19.2701C207.55 19.8501 207.47 20.4701 207.47 21.1101C207.47 21.2101 207.47 21.3101 207.47 21.4001C207.47 21.4401 207.47 21.4801 207.47 21.5101C207.47 21.6201 207.48 21.7301 207.49 21.8401C207.51 22.0001 207.53 22.1401 207.55 22.2801C207.55 22.2801 207.55 22.3001 207.55 22.3101C207.56 22.4101 207.59 22.5001 207.61 22.6001C207.66 22.8701 207.73 23.1401 207.82 23.4101C207.86 23.5501 207.91 23.6701 207.96 23.8001C208 23.9301 208.06 24.0601 208.12 24.1801C208.14 24.2201 208.16 24.2701 208.18 24.3201C208.44 24.8501 208.75 25.3501 209.11 25.8101C209.12 25.8301 209.14 25.8501 209.15 25.8701H209.16C209.37 26.1401 209.59 26.3801 209.84 26.6101C209.84 26.6101 209.84 26.6101 209.85 26.6101C209.93 26.6901 210.01 26.7601 210.09 26.8301C210.16 26.8901 210.23 26.9501 210.3 27.0101C210.41 27.1001 210.51 27.1801 210.63 27.2601C210.74 27.3401 210.86 27.4201 210.97 27.4901C211.21 27.6401 211.45 27.7701 211.7 27.8901C211.94 28.0101 212.2 28.1201 212.46 28.2101C212.59 28.2601 212.72 28.3001 212.86 28.3401C212.97 28.3801 213.09 28.4001 213.2 28.4301C213.26 28.4401 213.31 28.4601 213.36 28.4701C213.47 28.5001 213.58 28.5201 213.69 28.5301C213.83 28.5601 213.97 28.5801 214.11 28.5901C214.39 28.6301 214.69 28.6401 214.98 28.6401C215.12 28.6401 215.25 28.6401 215.38 28.6401C215.64 28.6301 215.89 28.6001 216.13 28.5601C216.34 28.5201 216.56 28.4801 216.77 28.4301C216.88 28.4101 216.98 28.3801 217.08 28.3401C217.19 28.3101 217.29 28.2801 217.39 28.2401C217.48 28.2101 217.58 28.1801 217.67 28.1401C217.68 28.1401 217.71 28.1301 217.72 28.1201C217.81 28.0801 217.9 28.0501 217.99 28.0101C218.18 27.9201 218.38 27.8301 218.57 27.7301C218.78 27.6101 218.98 27.4901 219.18 27.3501C219.38 27.2101 219.57 27.0601 219.76 26.9201C219.95 26.7701 220.12 26.6101 220.29 26.4401C220.38 26.3501 220.45 26.2701 220.54 26.1801C220.63 26.0901 220.7 26.0001 220.78 25.9101C220.82 25.8701 220.85 25.8201 220.89 25.7701C220.95 25.7001 221 25.6301 221.05 25.5601C221.11 25.4801 221.16 25.4001 221.21 25.3201C221.31 25.1701 221.4 25.0101 221.5 24.8601C221.54 24.8101 221.56 24.7501 221.59 24.7001C221.65 24.5901 221.7 24.4901 221.75 24.3701C221.85 24.1501 221.95 23.9201 222.03 23.6901C222.07 23.5801 222.11 23.4601 222.15 23.3401C222.19 23.2201 222.21 23.1001 222.25 22.9801C222.29 22.8301 222.32 22.6801 222.35 22.5201C222.37 22.4301 222.39 22.3301 222.41 22.2401C222.44 22.0501 222.46 21.8601 222.47 21.6601C222.47 21.5901 222.47 21.5201 222.47 21.4501C222.47 21.3901 222.47 21.3301 222.47 21.2601C222.47 21.2001 222.47 21.1501 222.47 21.0901C222.47 21.0001 222.47 20.9301 222.47 20.8401L222.54 20.8501Z" fill="url(#paint14_radial_71_9349)"/>
<path d="M214.96 26.91C218.169 26.91 220.77 24.3088 220.77 21.1C220.77 17.8913 218.169 15.29 214.96 15.29C211.751 15.29 209.15 17.8913 209.15 21.1C209.15 24.3088 211.751 26.91 214.96 26.91Z" fill="url(#paint15_radial_71_9349)"/>
<path style="mix-blend-mode:multiply" opacity="0.3" d="M209.15 25.8701C210.53 27.5701 212.64 28.6501 215 28.6501C219.17 28.6501 222.55 25.2701 222.55 21.1001C222.55 21.0101 222.55 20.9301 222.55 20.8501C221.24 20.1901 219.75 19.8201 218.18 19.8201C214.11 19.8201 210.61 22.3201 209.16 25.8701H209.15Z" fill="url(#paint16_radial_71_9349)"/>
<path d="M212.02 19.68C212.02 21.28 212.97 22.65 214.33 23.27C214.34 21.1 216.1 19.35 218.27 19.35C218.86 19.35 219.41 19.48 219.9 19.7V19.68C219.9 19.59 219.9 19.5 219.89 19.41C219.78 17.79 218.69 16.43 217.2 15.94C216.87 15.83 216.53 15.77 216.18 15.75C216.11 15.75 216.03 15.74 215.95 15.74C213.77 15.74 212.01 17.51 212.01 19.68H212.02Z" fill="url(#paint17_radial_71_9349)"/>
<path d="M212.9 22.16C212.69 21.6 212.58 20.99 212.58 20.34C212.58 17.9 214.2 15.91 216.26 15.75C216.16 15.74 216.07 15.74 215.97 15.74C213.79 15.74 212.03 17.51 212.03 19.68C212.03 20.62 212.36 21.48 212.91 22.16H212.9Z" fill="white"/>
<path d="M217.21 15.9299C217.33 17.8399 218.47 19.3399 219.9 19.3999C219.79 17.7799 218.7 16.4199 217.21 15.9299Z" fill="white"/>
<path style="mix-blend-mode:color-dodge" opacity="0.7" d="M212.02 19.68C212.02 21.28 212.97 22.65 214.33 23.27C213.52 21.34 213.67 19.91 215.18 19.22C214.41 17.4 214.92 16.34 216.19 15.75C216.12 15.75 216.04 15.74 215.96 15.74C213.78 15.74 212.02 17.51 212.02 19.68Z" fill="url(#paint18_linear_71_9349)"/>
<g style="mix-blend-mode:multiply" opacity="0.5">
<path d="M222.53 20.8501V20.7401C222.52 20.4501 222.49 20.1601 222.44 19.8701C222.43 19.7701 222.4 19.6701 222.38 19.5701C222.36 19.4601 222.33 19.3301 222.3 19.2201C222.3 19.2201 222.3 19.2001 222.3 19.1801C222.27 19.0701 222.24 18.9501 222.2 18.8501C222.16 18.7301 222.13 18.6101 222.09 18.5001C222.05 18.3901 222 18.2701 221.95 18.1601C221.85 17.9301 221.74 17.7101 221.63 17.5001C221.57 17.4001 221.52 17.3001 221.47 17.2101C221.33 16.9901 221.19 16.7801 221.04 16.5701C220.97 16.4801 220.9 16.3901 220.83 16.3101C220.59 16.0301 220.35 15.7701 220.07 15.5201C219.98 15.4301 219.89 15.3601 219.8 15.2801C219.73 15.2201 219.66 15.1701 219.59 15.1101C219.47 15.0201 219.35 14.9301 219.22 14.8501C219.12 14.7801 219.02 14.7101 218.91 14.6501C218.81 14.5901 218.7 14.5301 218.6 14.4701C218.52 14.4301 218.44 14.3801 218.36 14.3501C217.35 13.8401 216.21 13.5601 215 13.5601C214.22 13.5601 213.46 13.6801 212.76 13.8901C211.61 14.2501 210.58 14.8701 209.73 15.7101C209.17 16.2501 208.69 16.8901 208.32 17.5901C208.13 17.9401 207.98 18.3001 207.85 18.6901C207.79 18.8801 207.73 19.0701 207.68 19.2701C207.53 19.8501 207.45 20.4701 207.45 21.1101C207.45 21.2101 207.45 21.3001 207.46 21.4001C207.46 21.4401 207.46 21.4801 207.46 21.5101C207.46 21.6201 207.47 21.7301 207.48 21.8401C207.5 22.0001 207.52 22.1401 207.54 22.2801C207.54 22.2801 207.54 22.3001 207.54 22.3101C207.55 22.4101 207.58 22.5001 207.6 22.6001C207.65 22.8701 207.72 23.1401 207.81 23.4101C207.85 23.5501 207.9 23.6701 207.95 23.8001C207.99 23.9301 208.05 24.0601 208.11 24.1801C208.13 24.2201 208.15 24.2701 208.17 24.3201C208.43 24.8501 208.74 25.3501 209.1 25.8101C209.11 25.8301 209.13 25.8501 209.14 25.8701H209.15C209.36 26.1401 209.58 26.3801 209.83 26.6101C209.83 26.6101 209.83 26.6101 209.84 26.6101C209.92 26.6901 210 26.7601 210.08 26.8301C210.15 26.8901 210.22 26.9501 210.29 27.0101C210.4 27.1001 210.5 27.1801 210.62 27.2601C210.73 27.3401 210.85 27.4201 210.96 27.4901C211.2 27.6401 211.44 27.7701 211.69 27.8901C211.93 28.0101 212.19 28.1201 212.45 28.2101C212.58 28.2601 212.71 28.3001 212.85 28.3401C212.96 28.3801 213.08 28.4001 213.19 28.4301C213.25 28.4401 213.3 28.4601 213.35 28.4701C213.46 28.5001 213.57 28.5201 213.68 28.5301C213.82 28.5601 213.96 28.5801 214.1 28.5901C214.38 28.6301 214.68 28.6401 214.97 28.6401C215.11 28.6401 215.24 28.6401 215.37 28.6401C215.63 28.6301 215.88 28.6001 216.12 28.5601C216.33 28.5201 216.55 28.4801 216.76 28.4301C216.87 28.4101 216.97 28.3801 217.07 28.3401C217.18 28.3101 217.28 28.2801 217.38 28.2401C217.47 28.2101 217.57 28.1801 217.66 28.1401C217.67 28.1401 217.7 28.1301 217.71 28.1201C217.8 28.0801 217.89 28.0501 217.98 28.0101C218.17 27.9201 218.37 27.8301 218.56 27.7301C218.77 27.6101 218.97 27.4901 219.17 27.3501C219.37 27.2101 219.56 27.0601 219.75 26.9201C219.94 26.7701 220.11 26.6101 220.28 26.4401C220.37 26.3501 220.44 26.2701 220.53 26.1801C220.65 26.0401 220.77 25.9101 220.88 25.7701C221.1 25.4901 221.31 25.1901 221.49 24.8701C221.58 24.7101 221.67 24.5501 221.75 24.3901C221.85 24.1701 221.95 23.9401 222.03 23.7101C222.07 23.6001 222.11 23.4801 222.15 23.3601C222.19 23.2401 222.21 23.1201 222.25 23.0001C222.29 22.8501 222.32 22.7001 222.35 22.5401C222.41 22.1901 222.46 21.8301 222.48 21.4701C222.48 21.4101 222.48 21.3501 222.48 21.2801V21.1001C222.48 21.0201 222.48 20.9401 222.48 20.8601L222.53 20.8501ZM214.99 28.5501C212.63 28.5501 210.54 27.4201 209.23 25.6801C208.33 24.4801 207.78 22.9701 207.78 21.3501C207.78 17.3701 211 14.1501 214.98 14.1501C218.73 14.1501 221.81 17.0101 222.15 20.6801C222.17 20.9101 222.18 21.1201 222.18 21.3501C222.18 25.3301 218.95 28.5501 214.98 28.5501H214.99Z" fill="#613DB3"/>
</g>
<path style="mix-blend-mode:multiply" d="M210.33 23.2099C210.57 22.7999 213.01 24.7999 215.69 24.0399C217.41 23.5499 218.21 22.2099 218.71 22.5399C219.16 22.8299 219.04 24.2299 218.32 25.0799C217.13 26.4999 214.4 26.4899 213.04 25.9899C211.24 25.3299 210.14 23.5299 210.32 23.2199L210.33 23.2099Z" fill="url(#paint19_radial_71_9349)"/>
<path d="M210.82 22.3601C210.92 22.3101 211.31 23.5501 212.61 24.4401C213.62 25.1301 214.56 25.1901 214.54 25.2901C214.52 25.4001 213.26 25.5001 212.25 24.8301C211.02 24.0101 210.72 22.4201 210.82 22.3601Z" fill="white"/>
<path style="mix-blend-mode:color-dodge" opacity="0.7" d="M208.93 21.22C208.93 24.49 211.58 27.14 214.85 27.14C218.12 27.14 220.77 24.49 220.77 21.22V21.16C220.74 24.34 218.15 26.91 214.96 26.91C211.77 26.91 209.15 24.31 209.15 21.1C209.15 17.89 211.72 15.32 214.9 15.29H214.84C211.57 15.29 208.92 17.94 208.92 21.21L208.93 21.22Z" fill="url(#paint20_linear_71_9349)"/>
<g style="mix-blend-mode:soft-light">
<path d="M211.95 16.19C212.23 16.54 210.5 17.69 210.36 19.86C210.29 20.9 210.63 21.52 210.5 21.56C210.26 21.65 208.47 19.38 209.26 17.66C209.85 16.36 211.69 15.87 211.95 16.19Z" fill="white"/>
</g>
<path style="mix-blend-mode:multiply" d="M220.34 18.4701C221.85 21.6801 220.82 24.5001 217.3 26.9701C219.3 25.7901 220.81 24.3401 220.77 24.5301C220.44 25.8401 218.37 27.3101 218.37 27.3101C218.37 27.3101 222.29 25.5501 222.06 21.6701C221.83 17.7901 218.4 15.8701 218.4 15.8701C219.29 16.7501 219.78 17.3901 220.34 18.4701Z" fill="url(#paint21_radial_71_9349)"/>
<path style="mix-blend-mode:color-dodge" d="M208.53 12.3701C206.06 14.3301 204.48 17.4001 204.48 20.8401C204.48 24.2801 206.06 27.3401 208.53 29.3001C204.68 27.6101 202.08 24.4501 202.08 20.8401C202.08 17.2301 204.68 14.0601 208.53 12.3701Z" fill="url(#paint22_linear_71_9349)"/>
<path style="mix-blend-mode:color-dodge" d="M227.95 20.8401C227.95 24.4601 225.35 27.6101 221.5 29.3001C223.97 27.3401 225.55 24.2801 225.55 20.8401C225.55 17.4001 223.96 14.3301 221.5 12.3701C225.35 14.0601 227.95 17.2201 227.95 20.8401Z" fill="url(#paint23_linear_71_9349)"/>
<path style="mix-blend-mode:color-dodge" d="M141.13 38.24C136.78 38.23 132.14 38.23 127.32 38.21C115 38.17 101.5 38.11 88.71 38.05L86.05 33.91L85.91 33.67L84.79 31.93L82.37 28.17L81.52 26.85L81.36 26.61L77.93 21.27L76.63 19.26H125.87L127.49 21.28L131.51 26.28L131.98 26.86L132.68 27.73L136.07 31.94L137.26 33.42L137.64 33.91L141.11 38.22L141.13 38.25V38.24Z" fill="url(#paint24_linear_71_9349)"/>
<path style="mix-blend-mode:color-dodge" d="M169.43 38.21H154.62L151.19 33.91L151.18 33.9L150.74 33.35L150.73 33.34L149.6 31.93L146.14 27.59L145.54 26.85L145.01 26.18L141.09 21.27L139.48 19.26L139.47 19.25H153.08L153.09 19.26L154.82 21.27L158.3 25.3L158.31 25.31L158.72 25.79L159.02 26.14L159.47 26.65L165.17 33.27L165.18 33.28L165.72 33.9V33.91L169.43 38.21Z" fill="url(#paint25_linear_71_9349)"/>
<path style="mix-blend-mode:color-dodge" d="M303.97 38.2101H268.81C268.81 38.2101 268.79 38.1801 268.78 38.1601C267.84 36.7601 266.89 35.3401 265.93 33.9101C265.78 33.6801 265.63 33.4701 265.49 33.2501V33.2401C262.81 29.2201 260.1 25.1601 257.52 21.2801C256.8 20.1901 256.09 19.1201 255.38 18.0701C255.75 18.1101 256.12 18.1501 256.5 18.1901C257.11 18.2701 257.72 18.3401 258.34 18.4001C258.36 18.4001 258.38 18.4001 258.4 18.4101C258.92 18.4601 259.44 18.5101 259.97 18.5601C260.17 18.5801 260.37 18.6001 260.56 18.6201C260.77 18.6401 260.97 18.6501 261.17 18.6701C261.57 18.7101 261.97 18.7401 262.38 18.7701C262.46 18.7701 262.53 18.7801 262.61 18.7901C263.35 18.8401 264.11 18.8901 264.87 18.9401C265.03 18.9501 265.18 18.9601 265.34 18.9701C266.46 19.0401 267.6 19.0901 268.77 19.1301C269.05 19.1301 269.33 19.1501 269.62 19.1601C271.57 19.2201 273.59 19.2501 275.68 19.2501H287.33L289.1 21.2701L293.33 26.0901L294 26.8501L294.74 27.6901L298.46 31.9301L299.77 33.4201L300.18 33.9001L303.96 38.2101H303.97Z" fill="url(#paint26_linear_71_9349)"/>
<path style="mix-blend-mode:color-dodge" d="M327.3 38.12C323.37 38.14 319.44 38.16 315.56 38.18C315.34 37.85 315.12 37.51 314.89 37.18V37.16C314.66 36.81 314.42 36.47 314.19 36.12C313.7 35.39 313.21 34.65 312.72 33.92C312.63 33.77 312.54 33.63 312.45 33.49C312.1 32.97 311.76 32.46 311.41 31.94C310.5 30.57 309.58 29.2 308.67 27.83C308.45 27.51 308.24 27.18 308.03 26.86C307.88 26.64 307.74 26.43 307.6 26.22C306.49 24.56 305.39 22.91 304.31 21.28C303.85 20.61 303.41 19.94 302.97 19.27H317.64L318.67 21.29L321.27 26.34L321.54 26.87L322.1 27.96L324.15 31.95L324.98 33.57L325.16 33.92L327.31 38.13L327.3 38.12Z" fill="url(#paint27_linear_71_9349)"/>
<path d="M38.61 26.01L25.45 40.99L0 28.53L18.43 15.96L27.85 20.66L38.61 26.01Z" fill="url(#paint28_radial_71_9349)"/>
<g style="mix-blend-mode:multiply" opacity="0.4">
<path d="M38.62 26.0099L25.46 40.9899L0 28.5299L2.67 27.5299L24.45 36.3599L34.01 29.3799L30.59 27.5299L23.37 32.2199L9.71 26.3399L9.24 26.1399L18.32 20.1099L26.99 23.0999L26.37 23.2199L20.41 24.4299L18.81 24.7499L23.76 22.9799L18.96 21.1799L13.27 25.4399L24.15 28.1699L29.3 25.0599L37.02 27.1799L37.17 27.0699L38.62 26.0099Z" fill="#702424"/>
</g>
<path style="mix-blend-mode:color-dodge" d="M27.85 20.66L18.53 17.55C11.6 23.11 5.99 26.24 0 28.54L18.43 15.97L27.85 20.66Z" fill="url(#paint29_radial_71_9349)"/>
<g style="mix-blend-mode:multiply" opacity="0.4">
<path d="M37.17 27.0701L37.02 27.1801L29.3 25.0601L24.15 28.1701L13.27 25.4401L13.43 26.0801L24.21 29.2401L29.31 25.9401L36.04 27.9001L24.45 36.3501L25.45 40.9901L38.61 26.0101L37.17 27.0701Z" fill="#702424"/>
</g>
<g style="mix-blend-mode:multiply" opacity="0.4">
<path d="M26.99 23.0999L26.37 23.2199L18.38 20.5499L9.70999 26.3399L9.23999 26.1399L18.32 20.1099L26.99 23.0999Z" fill="#702424"/>
</g>
<g style="mix-blend-mode:multiply" opacity="0.4">
<path d="M23.76 22.98L23.78 23.34L20.41 24.43L18.81 24.75L23.76 22.98Z" fill="#702424"/>
</g>
<path style="mix-blend-mode:color-dodge" opacity="0.5" d="M13.27 25.4399C17 23.2599 20.54 22.1699 23.76 22.9799L18.96 21.1899L13.27 25.4399Z" fill="url(#paint30_linear_71_9349)"/>
<path style="mix-blend-mode:color-dodge" d="M9.23999 26.1399L23.39 33.3599L30.59 27.5299L23.37 32.2199L9.23999 26.1399Z" fill="url(#paint31_radial_71_9349)"/>
<g style="mix-blend-mode:multiply" opacity="0.4">
<path d="M0 28.53L2.67 27.53L9.16 30.15C5.3 28.87 2.14 28.23 0 28.53Z" fill="#702424"/>
</g>
<path style="mix-blend-mode:color-dodge" opacity="0.5" d="M5.78999 27.1299C5.63999 27.7699 11.78 30.2899 13.2 30.8799C15.96 32.0199 17.93 32.8299 18.06 32.4999C18.23 32.0699 15.21 29.5899 11.59 28.1799C8.84999 27.1099 5.88999 26.6999 5.78999 27.1299Z" fill="url(#paint32_linear_71_9349)"/>
<path style="mix-blend-mode:color-dodge" opacity="0.5" d="M27.68 23.6601C27.58 23.4501 27.27 23.6001 22.87 24.7801C21.35 25.1901 20.81 25.3201 20.79 25.6401C20.75 26.1801 22.26 27.0801 23.7 27.0201C26.06 26.9201 27.97 24.2601 27.68 23.6601Z" fill="url(#paint33_linear_71_9349)"/>
<path d="M390.85 26.01L404.01 40.99L429.46 28.53L411.04 15.96L401.61 20.66L390.85 26.01Z" fill="url(#paint34_radial_71_9349)"/>
<g style="mix-blend-mode:multiply" opacity="0.4">
<path d="M390.85 26.0099L404.01 40.9899L429.46 28.5299L426.79 27.5299L405.02 36.3599L395.46 29.3799L398.88 27.5299L406.09 32.2199L419.76 26.3399L420.22 26.1399L411.15 20.1099L402.48 23.0999L403.09 23.2199L409.05 24.4299L410.65 24.7499L405.71 22.9799L410.51 21.1799L416.2 25.4399L405.32 28.1699L400.17 25.0599L392.45 27.1799L392.3 27.0699L390.85 26.0099Z" fill="#702424"/>
</g>
<path style="mix-blend-mode:color-dodge" d="M401.61 20.66L410.93 17.55C417.86 23.11 423.47 26.24 429.46 28.54L411.03 15.97L401.61 20.66Z" fill="url(#paint35_radial_71_9349)"/>
<g style="mix-blend-mode:multiply" opacity="0.4">
<path d="M392.29 27.0701H392.3L392.45 27.1801L400.17 25.0601L405.32 28.1701L416.2 25.4401L416.03 26.0801L405.26 29.2401L400.16 25.9401L393.43 27.9001L405.02 36.3501L404.01 40.9901L390.85 26.0101L392.29 27.0701Z" fill="#702424"/>
</g>
<g style="mix-blend-mode:multiply" opacity="0.4">
<path d="M402.48 23.0999L403.09 23.2199L411.08 20.5499L419.76 26.3399L420.22 26.1399L411.15 20.1099L402.48 23.0999Z" fill="#702424"/>
</g>
<g style="mix-blend-mode:multiply" opacity="0.4">
<path d="M405.71 22.98L405.68 23.34L409.05 24.43L410.65 24.75L405.71 22.98Z" fill="#702424"/>
</g>
<path style="mix-blend-mode:color-dodge" opacity="0.5" d="M416.2 25.4399C412.47 23.2599 408.93 22.1699 405.71 22.9799L410.51 21.1899L416.2 25.4399Z" fill="url(#paint36_linear_71_9349)"/>
<path style="mix-blend-mode:color-dodge" d="M420.22 26.1399L406.08 33.3599L398.88 27.5299L406.09 32.2199L420.22 26.1399Z" fill="url(#paint37_radial_71_9349)"/>
<g style="mix-blend-mode:multiply" opacity="0.4">
<path d="M429.46 28.53L426.79 27.53L420.3 30.15C424.16 28.87 427.32 28.23 429.46 28.53Z" fill="#702424"/>
</g>
<path style="mix-blend-mode:color-dodge" opacity="0.5" d="M423.68 27.1299C423.83 27.7699 417.69 30.2899 416.27 30.8799C413.51 32.0199 411.54 32.8299 411.41 32.4999C411.24 32.0699 414.26 29.5899 417.88 28.1799C420.62 27.1099 423.58 26.6999 423.68 27.1299Z" fill="url(#paint38_linear_71_9349)"/>
<path style="mix-blend-mode:color-dodge" opacity="0.5" d="M401.79 23.6601C401.89 23.4501 402.2 23.6001 406.6 24.7801C408.12 25.1901 408.66 25.3201 408.68 25.6401C408.72 26.1801 407.21 27.0801 405.77 27.0201C403.41 26.9201 401.5 24.2601 401.79 23.6601Z" fill="url(#paint39_linear_71_9349)"/>
<path style="mix-blend-mode:color-dodge" d="M210.27 5.16992C210.04 5.36992 209.79 5.55992 209.53 5.75992C209.28 5.95992 209.01 6.16992 208.73 6.36992C208.53 6.52992 208.32 6.67992 208.1 6.82992C207.89 6.98992 207.67 7.13992 207.44 7.28992C207.26 7.40992 207.08 7.53992 206.9 7.65992C206.59 7.85992 206.27 8.06992 205.93 8.26992C205.59 8.48992 205.23 8.69992 204.86 8.91992C204.01 9.41992 203.1 9.90992 202.12 10.3999C201.97 10.4799 201.81 10.5599 201.65 10.6299C201.37 10.7699 201.09 10.9099 200.8 11.0399C200.44 11.2099 200.08 11.3799 199.7 11.5499C199.26 11.7499 198.81 11.9399 198.35 12.1299C198.33 12.1299 198.32 12.1499 198.31 12.1499C197.8 12.3599 197.28 12.5699 196.75 12.7799C196.4 12.9099 196.04 13.0499 195.68 13.1799C194.95 13.4499 194.19 13.7099 193.41 13.9699C193.1 14.0799 192.78 14.1799 192.47 14.2799C191.97 14.4299 191.47 14.5899 190.95 14.7399C190.52 14.8699 190.07 14.9999 189.62 15.1199C189.02 15.2799 188.41 15.4499 187.78 15.6099C186.84 15.8399 185.87 16.0799 184.86 16.2999C184.19 16.4399 183.51 16.5899 182.81 16.7299C181.42 17.0099 179.97 17.2699 178.46 17.5099C178.03 17.5799 177.61 17.6399 177.17 17.7099C176.3 17.8399 175.41 17.9599 174.51 18.0699C174.05 18.1299 173.59 18.1899 173.13 18.2399C172.2 18.3499 171.26 18.4499 170.29 18.5399C169.32 18.6299 168.34 18.7099 167.33 18.7899C166.32 18.8699 165.29 18.9299 164.25 18.9899C163.2 19.0499 162.13 19.0899 161.04 19.1299C158.86 19.2099 156.6 19.2499 154.25 19.2499H42.88L41.29 21.2699H41.31L37.93 25.6099L43.03 21.2699H170.86C185.68 21.5899 199.07 16.2999 210.27 5.16992Z" fill="url(#paint40_radial_71_9349)"/>
<path style="mix-blend-mode:color-dodge" d="M391.72 25.5099L386.73 21.2699H259.06C258.54 21.2799 258.02 21.2899 257.51 21.2799C243.3 21.2099 230.46 15.9099 219.65 5.16992C220.44 5.82992 221.35 6.52992 222.4 7.22992C222.65 7.40992 222.9 7.57992 223.17 7.74992C223.43 7.92992 223.71 8.09992 223.99 8.26992C224.39 8.51992 224.81 8.76992 225.24 9.01992C225.46 9.14992 225.68 9.26992 225.9 9.38992C226.13 9.51992 226.36 9.63992 226.59 9.76992C226.87 9.91992 227.16 10.0699 227.45 10.2199C228.31 10.6699 229.24 11.1099 230.23 11.5499C230.66 11.7499 231.11 11.9399 231.58 12.1299C231.82 12.2299 232.06 12.3399 232.31 12.4299C232.77 12.6199 233.25 12.8099 233.74 12.9899C234.09 13.1299 234.45 13.2599 234.82 13.3899C236.13 13.8499 237.51 14.3099 238.98 14.7399C239.42 14.8699 239.86 14.9999 240.31 15.1199C240.91 15.2799 241.52 15.4499 242.15 15.6099C243.09 15.8399 244.06 16.0799 245.07 16.2999C245.74 16.4399 246.42 16.5899 247.12 16.7299C248.51 17.0099 249.96 17.2699 251.47 17.5099C252.1 17.6099 252.74 17.7099 253.39 17.7999C254.04 17.8899 254.7 17.9699 255.37 18.0599C256.11 18.1499 256.86 18.2399 257.63 18.3199C258.39 18.4099 259.17 18.4899 259.96 18.5599C260.35 18.5899 260.75 18.6299 261.16 18.6699C261.56 18.6999 261.97 18.7299 262.37 18.7699C262.45 18.7699 262.52 18.7799 262.6 18.7899C263.34 18.8399 264.1 18.8899 264.86 18.9399C265.02 18.9499 265.17 18.9599 265.33 18.9699C265.6 18.9899 265.87 18.9999 266.14 19.0099C267 19.0599 267.87 19.0999 268.76 19.1299C269.04 19.1299 269.32 19.1499 269.61 19.1599C269.77 19.1599 269.93 19.1699 270.1 19.1699C271 19.1999 271.91 19.2199 272.84 19.2299C273.77 19.2399 274.71 19.2499 275.67 19.2499H386.89L388.44 21.2599L391.71 25.4999L391.72 25.5099Z" fill="url(#paint41_radial_71_9349)"/>
<path style="mix-blend-mode:color-dodge" d="M199.93 19.16C201.02 20.39 198.97 22.76 200.44 26.18C202.03 29.87 206.05 30.84 205.76 31.78C205.44 32.82 200.1 31.92 195.97 31.78C182.39 31.33 177.03 33.13 176.39 31.44C175.14 28.19 196.87 15.72 199.94 19.16H199.93Z" fill="url(#paint42_linear_71_9349)"/>
<path style="mix-blend-mode:color-dodge" d="M230.02 19.16C228.93 20.39 230.98 22.76 229.51 26.18C227.92 29.87 223.9 30.84 224.19 31.78C224.52 32.82 229.85 31.92 233.98 31.78C247.56 31.33 252.92 33.13 253.56 31.44C254.81 28.19 233.08 15.72 230.01 19.16H230.02Z" fill="url(#paint43_linear_71_9349)"/>
<defs>
<radialGradient id="paint0_radial_71_9349" cx="0" cy="0" r="1" gradientUnits="userSpaceOnUse" gradientTransform="translate(214.36 19.12) scale(132.61 132.61)">
<stop offset="0.28" stop-color="#FFCD48"/>
<stop offset="1" stop-color="#D67D33"/>
</radialGradient>
<linearGradient id="paint1_linear_71_9349" x1="185.61" y1="37.0099" x2="186.16" y2="37.0099" gradientUnits="userSpaceOnUse">
<stop stop-color="#D42F55"/>
<stop offset="0.14" stop-color="#D02E53"/>
<stop offset="0.28" stop-color="#C42B4E"/>
<stop offset="0.42" stop-color="#B02746"/>
<stop offset="0.55" stop-color="#95213B"/>
<stop offset="0.69" stop-color="#72192D"/>
<stop offset="0.82" stop-color="#460F1C"/>
<stop offset="0.95" stop-color="#140408"/>
<stop offset="1"/>
</linearGradient>
<linearGradient id="paint2_linear_71_9349" x1="265.03" y1="27.3801" x2="388.02" y2="27.3801" gradientUnits="userSpaceOnUse">
<stop stop-color="#D42F55"/>
<stop offset="0.14" stop-color="#D02E53"/>
<stop offset="0.28" stop-color="#C42B4E"/>
<stop offset="0.42" stop-color="#B02746"/>
<stop offset="0.55" stop-color="#95213B"/>
<stop offset="0.69" stop-color="#72192D"/>
<stop offset="0.82" stop-color="#460F1C"/>
<stop offset="0.95" stop-color="#140408"/>
<stop offset="1"/>
</linearGradient>
<radialGradient id="paint3_radial_71_9349" cx="0" cy="0" r="1" gradientUnits="userSpaceOnUse" gradientTransform="translate(185.88 37.0099) scale(0.220001)">
<stop/>
<stop offset="0.02" stop-color="#0D0205"/>
<stop offset="0.1" stop-color="#3B0D17"/>
<stop offset="0.19" stop-color="#641628"/>
<stop offset="0.27" stop-color="#871D36"/>
<stop offset="0.37" stop-color="#A32441"/>
<stop offset="0.47" stop-color="#B8284A"/>
<stop offset="0.58" stop-color="#C82C50"/>
<stop offset="0.71" stop-color="#D12E53"/>
<stop offset="0.89" stop-color="#D42F55"/>
</radialGradient>
<radialGradient id="paint4_radial_71_9349" cx="0" cy="0" r="1" gradientUnits="userSpaceOnUse" gradientTransform="translate(214.96 33.56) scale(125 125)">
<stop/>
<stop offset="0.02" stop-color="#0D0205"/>
<stop offset="0.1" stop-color="#3B0D17"/>
<stop offset="0.19" stop-color="#641628"/>
<stop offset="0.27" stop-color="#871D36"/>
<stop offset="0.37" stop-color="#A32441"/>
<stop offset="0.47" stop-color="#B8284A"/>
<stop offset="0.58" stop-color="#C82C50"/>
<stop offset="0.71" stop-color="#D12E53"/>
<stop offset="0.89" stop-color="#D42F55"/>
</radialGradient>
<linearGradient id="paint5_linear_71_9349" x1="265.03" y1="27.3801" x2="388.02" y2="27.3801" gradientUnits="userSpaceOnUse">
<stop stop-color="#D42F55"/>
<stop offset="0.14" stop-color="#D02E53"/>
<stop offset="0.28" stop-color="#C42B4E"/>
<stop offset="0.42" stop-color="#B02746"/>
<stop offset="0.55" stop-color="#95213B"/>
<stop offset="0.69" stop-color="#72192D"/>
<stop offset="0.82" stop-color="#460F1C"/>
<stop offset="0.95" stop-color="#140408"/>
<stop offset="1"/>
</linearGradient>
<linearGradient id="paint6_linear_71_9349" x1="41.9" y1="27.3801" x2="164.89" y2="27.3801" gradientUnits="userSpaceOnUse">
<stop stop-color="#D42F55"/>
<stop offset="0.14" stop-color="#D02E53"/>
<stop offset="0.28" stop-color="#C42B4E"/>
<stop offset="0.42" stop-color="#B02746"/>
<stop offset="0.55" stop-color="#95213B"/>
<stop offset="0.69" stop-color="#72192D"/>
<stop offset="0.82" stop-color="#460F1C"/>
<stop offset="0.95" stop-color="#140408"/>
<stop offset="1"/>
</linearGradient>
<radialGradient id="paint7_radial_71_9349" cx="0" cy="0" r="1" gradientUnits="userSpaceOnUse" gradientTransform="translate(103.39 27.3801) scale(43.6 43.6)">
<stop/>
<stop offset="0.1" stop-color="#100306"/>
<stop offset="0.3" stop-color="#3B0D17"/>
<stop offset="0.58" stop-color="#801C33"/>
<stop offset="0.89" stop-color="#D42F55"/>
</radialGradient>
<linearGradient id="paint8_linear_71_9349" x1="265.23" y1="38.1899" x2="272.81" y2="38.1899" gradientUnits="userSpaceOnUse">
<stop stop-color="#D42F55"/>
<stop offset="0.14" stop-color="#D02E53"/>
<stop offset="0.28" stop-color="#C42B4E"/>
<stop offset="0.42" stop-color="#B02746"/>
<stop offset="0.55" stop-color="#95213B"/>
<stop offset="0.69" stop-color="#72192D"/>
<stop offset="0.82" stop-color="#460F1C"/>
<stop offset="0.95" stop-color="#140408"/>
<stop offset="1"/>
</linearGradient>
<linearGradient id="paint9_linear_71_9349" x1="148.28" y1="38.2001" x2="150.97" y2="38.2001" gradientUnits="userSpaceOnUse">
<stop stop-color="#D42F55"/>
<stop offset="0.14" stop-color="#D02E53"/>
<stop offset="0.28" stop-color="#C42B4E"/>
<stop offset="0.42" stop-color="#B02746"/>
<stop offset="0.55" stop-color="#95213B"/>
<stop offset="0.69" stop-color="#72192D"/>
<stop offset="0.82" stop-color="#460F1C"/>
<stop offset="0.95" stop-color="#140408"/>
<stop offset="1"/>
</linearGradient>
<radialGradient id="paint10_radial_71_9349" cx="0" cy="0" r="1" gradientUnits="userSpaceOnUse" gradientTransform="translate(105.06 24.8401) scale(42.33 42.33)">
<stop/>
<stop offset="0.02" stop-color="#0D0205"/>
<stop offset="0.11" stop-color="#3B0D17"/>
<stop offset="0.21" stop-color="#641628"/>
<stop offset="0.31" stop-color="#871D36"/>
<stop offset="0.41" stop-color="#A32441"/>
<stop offset="0.52" stop-color="#B8284A"/>
<stop offset="0.65" stop-color="#C82C50"/>
<stop offset="0.79" stop-color="#D12E53"/>
<stop offset="1" stop-color="#D42F55"/>
</radialGradient>
<radialGradient id="paint11_radial_71_9349" cx="0" cy="0" r="1" gradientUnits="userSpaceOnUse" gradientTransform="translate(324.86 24.8401) scale(42.33 42.33)">
<stop/>
<stop offset="0.02" stop-color="#0D0205"/>
<stop offset="0.1" stop-color="#3B0D17"/>
<stop offset="0.19" stop-color="#641628"/>
<stop offset="0.27" stop-color="#871D36"/>
<stop offset="0.37" stop-color="#A32441"/>
<stop offset="0.47" stop-color="#B8284A"/>
<stop offset="0.58" stop-color="#C82C50"/>
<stop offset="0.71" stop-color="#D12E53"/>
<stop offset="0.89" stop-color="#D42F55"/>
</radialGradient>
<radialGradient id="paint12_radial_71_9349" cx="0" cy="0" r="1" gradientUnits="userSpaceOnUse" gradientTransform="translate(214.99 18.45) scale(8.56 8.56)">
<stop/>
<stop offset="0.02" stop-color="#0D0205"/>
<stop offset="0.1" stop-color="#3B0D17"/>
<stop offset="0.19" stop-color="#641628"/>
<stop offset="0.27" stop-color="#871D36"/>
<stop offset="0.37" stop-color="#A32441"/>
<stop offset="0.47" stop-color="#B8284A"/>
<stop offset="0.58" stop-color="#C82C50"/>
<stop offset="0.71" stop-color="#D12E53"/>
<stop offset="0.89" stop-color="#D42F55"/>
</radialGradient>
<radialGradient id="paint13_radial_71_9349" cx="0" cy="0" r="1" gradientUnits="userSpaceOnUse" gradientTransform="translate(214.99 18.51) scale(8.3 8.3)">
<stop offset="0.28" stop-color="#FFCD48"/>
<stop offset="1" stop-color="#AB5929"/>
</radialGradient>
<radialGradient id="paint14_radial_71_9349" cx="0" cy="0" r="1" gradientUnits="userSpaceOnUse" gradientTransform="translate(215 21.1001) rotate(180) scale(7.55 7.55)">
<stop stop-color="#AE4000"/>
<stop offset="1" stop-color="#AE0020"/>
</radialGradient>
<radialGradient id="paint15_radial_71_9349" cx="0" cy="0" r="1" gradientUnits="userSpaceOnUse" gradientTransform="translate(214.96 21.1) rotate(180) scale(5.81001 5.81)">
<stop stop-color="#FF5500"/>
<stop offset="0.82" stop-color="#E24000"/>
<stop offset="1" stop-color="#DC3C00"/>
</radialGradient>
<radialGradient id="paint16_radial_71_9349" cx="0" cy="0" r="1" gradientUnits="userSpaceOnUse" gradientTransform="translate(215.85 24.2301) rotate(180) scale(5.67 5.67)">
<stop stop-color="#FF5500"/>
<stop offset="0.82" stop-color="#E24000"/>
<stop offset="1" stop-color="#DC3C00"/>
</radialGradient>
<radialGradient id="paint17_radial_71_9349" cx="0" cy="0" r="1" gradientUnits="userSpaceOnUse" gradientTransform="translate(214.69 17.88) rotate(180) scale(3.86 3.86)">
<stop offset="0.28" stop-color="#FFCD48"/>
<stop offset="1" stop-color="#FF5329"/>
</radialGradient>
<linearGradient id="paint18_linear_71_9349" x1="216.19" y1="19.5" x2="212.02" y2="19.5" gradientUnits="userSpaceOnUse">
<stop stop-color="white"/>
<stop offset="0.13" stop-color="#FBFBFB"/>
<stop offset="0.26" stop-color="#EFEFEF"/>
<stop offset="0.38" stop-color="#DBDBDB"/>
<stop offset="0.5" stop-color="#C0C0C0"/>
<stop offset="0.63" stop-color="#9D9D9D"/>
<stop offset="0.75" stop-color="#717171"/>
<stop offset="0.87" stop-color="#3E3E3E"/>
<stop offset="0.99" stop-color="#040404"/>
<stop offset="1"/>
</linearGradient>
<radialGradient id="paint19_radial_71_9349" cx="0" cy="0" r="1" gradientUnits="userSpaceOnUse" gradientTransform="translate(214.64 24.3899) rotate(180) scale(3.35)">
<stop stop-color="#FF5500"/>
<stop offset="0.82" stop-color="#E24000"/>
<stop offset="1" stop-color="#DC3C00"/>
</radialGradient>
<linearGradient id="paint20_linear_71_9349" x1="220.77" y1="21.22" x2="208.93" y2="21.22" gradientUnits="userSpaceOnUse">
<stop stop-color="white"/>
<stop offset="0.13" stop-color="#FBFBFB"/>
<stop offset="0.26" stop-color="#EFEFEF"/>
<stop offset="0.38" stop-color="#DBDBDB"/>
<stop offset="0.5" stop-color="#C0C0C0"/>
<stop offset="0.63" stop-color="#9D9D9D"/>
<stop offset="0.75" stop-color="#717171"/>
<stop offset="0.87" stop-color="#3E3E3E"/>
<stop offset="0.99" stop-color="#040404"/>
<stop offset="1"/>
</linearGradient>
<radialGradient id="paint21_radial_71_9349" cx="0" cy="0" r="1" gradientUnits="userSpaceOnUse" gradientTransform="translate(219.68 21.5901) rotate(180) scale(4.37999 4.38)">
<stop stop-color="#FF5500"/>
<stop offset="0.82" stop-color="#E24000"/>
<stop offset="1" stop-color="#DC3C00"/>
</radialGradient>
<linearGradient id="paint22_linear_71_9349" x1="202.09" y1="20.8401" x2="208.53" y2="20.8401" gradientUnits="userSpaceOnUse">
<stop stop-color="#D42F55"/>
<stop offset="0.14" stop-color="#D02E53"/>
<stop offset="0.28" stop-color="#C42B4E"/>
<stop offset="0.42" stop-color="#B02746"/>
<stop offset="0.55" stop-color="#95213B"/>
<stop offset="0.69" stop-color="#72192D"/>
<stop offset="0.82" stop-color="#460F1C"/>
<stop offset="0.95" stop-color="#140408"/>
<stop offset="1"/>
</linearGradient>
<linearGradient id="paint23_linear_71_9349" x1="227.95" y1="20.8401" x2="221.5" y2="20.8401" gradientUnits="userSpaceOnUse">
<stop stop-color="#D42F55"/>
<stop offset="0.14" stop-color="#D02E53"/>
<stop offset="0.28" stop-color="#C42B4E"/>
<stop offset="0.42" stop-color="#B02746"/>
<stop offset="0.55" stop-color="#95213B"/>
<stop offset="0.69" stop-color="#72192D"/>
<stop offset="0.82" stop-color="#460F1C"/>
<stop offset="0.95" stop-color="#140408"/>
<stop offset="1"/>
</linearGradient>
<linearGradient id="paint24_linear_71_9349" x1="108.86" y1="38.24" x2="108.86" y2="19.25" gradientUnits="userSpaceOnUse">
<stop stop-color="#D42F55"/>
<stop offset="0.14" stop-color="#D02E53"/>
<stop offset="0.28" stop-color="#C42B4E"/>
<stop offset="0.42" stop-color="#B02746"/>
<stop offset="0.55" stop-color="#95213B"/>
<stop offset="0.69" stop-color="#72192D"/>
<stop offset="0.82" stop-color="#460F1C"/>
<stop offset="0.95" stop-color="#140408"/>
<stop offset="1"/>
</linearGradient>
<linearGradient id="paint25_linear_71_9349" x1="154.45" y1="38.21" x2="154.45" y2="19.25" gradientUnits="userSpaceOnUse">
<stop stop-color="#D42F55"/>
<stop offset="0.14" stop-color="#D02E53"/>
<stop offset="0.28" stop-color="#C42B4E"/>
<stop offset="0.42" stop-color="#B02746"/>
<stop offset="0.55" stop-color="#95213B"/>
<stop offset="0.69" stop-color="#72192D"/>
<stop offset="0.82" stop-color="#460F1C"/>
<stop offset="0.95" stop-color="#140408"/>
<stop offset="1"/>
</linearGradient>
<linearGradient id="paint26_linear_71_9349" x1="279.67" y1="38.2101" x2="279.67" y2="18.0601" gradientUnits="userSpaceOnUse">
<stop stop-color="#D42F55"/>
<stop offset="0.14" stop-color="#D02E53"/>
<stop offset="0.28" stop-color="#C42B4E"/>
<stop offset="0.42" stop-color="#B02746"/>
<stop offset="0.55" stop-color="#95213B"/>
<stop offset="0.69" stop-color="#72192D"/>
<stop offset="0.82" stop-color="#460F1C"/>
<stop offset="0.95" stop-color="#140408"/>
<stop offset="1"/>
</linearGradient>
<linearGradient id="paint27_linear_71_9349" x1="315.12" y1="38.18" x2="315.12" y2="19.26" gradientUnits="userSpaceOnUse">
<stop stop-color="#D42F55"/>
<stop offset="0.14" stop-color="#D02E53"/>
<stop offset="0.28" stop-color="#C42B4E"/>
<stop offset="0.42" stop-color="#B02746"/>
<stop offset="0.55" stop-color="#95213B"/>
<stop offset="0.69" stop-color="#72192D"/>
<stop offset="0.82" stop-color="#460F1C"/>
<stop offset="0.95" stop-color="#140408"/>
<stop offset="1"/>
</linearGradient>
<radialGradient id="paint28_radial_71_9349" cx="0" cy="0" r="1" gradientUnits="userSpaceOnUse" gradientTransform="translate(18.5616 28.6726) rotate(-3.73) scale(15.7312 18.435)">
<stop offset="0.28" stop-color="#FFCD48"/>
<stop offset="1" stop-color="#D67D33"/>
</radialGradient>
<radialGradient id="paint29_radial_71_9349" cx="0" cy="0" r="1" gradientUnits="userSpaceOnUse" gradientTransform="translate(12.897 21.9619) rotate(-3.73) scale(10.6112 12.435)">
<stop/>
<stop offset="0.02" stop-color="#0D0205"/>
<stop offset="0.11" stop-color="#3B0D17"/>
<stop offset="0.21" stop-color="#641628"/>
<stop offset="0.31" stop-color="#871D36"/>
<stop offset="0.41" stop-color="#A32441"/>
<stop offset="0.52" stop-color="#B8284A"/>
<stop offset="0.65" stop-color="#C82C50"/>
<stop offset="0.79" stop-color="#D12E53"/>
<stop offset="1" stop-color="#D42F55"/>
</radialGradient>
<linearGradient id="paint30_linear_71_9349" x1="12.2867" y1="23.5199" x2="22.9265" y2="22.8262" gradientUnits="userSpaceOnUse">
<stop/>
<stop offset="0.02" stop-color="#0D0205"/>
<stop offset="0.11" stop-color="#3B0D17"/>
<stop offset="0.21" stop-color="#641628"/>
<stop offset="0.31" stop-color="#871D36"/>
<stop offset="0.41" stop-color="#A32441"/>
<stop offset="0.52" stop-color="#B8284A"/>
<stop offset="0.65" stop-color="#C82C50"/>
<stop offset="0.79" stop-color="#D12E53"/>
<stop offset="1" stop-color="#D42F55"/>
</linearGradient>
<radialGradient id="paint31_radial_71_9349" cx="0" cy="0" r="1" gradientUnits="userSpaceOnUse" gradientTransform="translate(19.2529 29.5369) rotate(-3.73) scale(7.9168 9.2775)">
<stop/>
<stop offset="0.02" stop-color="#0D0205"/>
<stop offset="0.11" stop-color="#3B0D17"/>
<stop offset="0.21" stop-color="#641628"/>
<stop offset="0.31" stop-color="#871D36"/>
<stop offset="0.41" stop-color="#A32441"/>
<stop offset="0.52" stop-color="#B8284A"/>
<stop offset="0.65" stop-color="#C82C50"/>
<stop offset="0.79" stop-color="#D12E53"/>
<stop offset="1" stop-color="#D42F55"/>
</radialGradient>
<linearGradient id="paint32_linear_71_9349" x1="5.09622" y1="30.1967" x2="17.0133" y2="29.4198" gradientUnits="userSpaceOnUse">
<stop/>
<stop offset="0.02" stop-color="#0D0205"/>
<stop offset="0.11" stop-color="#3B0D17"/>
<stop offset="0.21" stop-color="#641628"/>
<stop offset="0.31" stop-color="#871D36"/>
<stop offset="0.41" stop-color="#A32441"/>
<stop offset="0.52" stop-color="#B8284A"/>
<stop offset="0.65" stop-color="#C82C50"/>
<stop offset="0.79" stop-color="#D12E53"/>
<stop offset="1" stop-color="#D42F55"/>
</linearGradient>
<linearGradient id="paint33_linear_71_9349" x1="19.9478" y1="25.6361" x2="26.9857" y2="25.1772" gradientUnits="userSpaceOnUse">
<stop/>
<stop offset="0.02" stop-color="#0D0205"/>
<stop offset="0.11" stop-color="#3B0D17"/>
<stop offset="0.21" stop-color="#641628"/>
<stop offset="0.31" stop-color="#871D36"/>
<stop offset="0.41" stop-color="#A32441"/>
<stop offset="0.52" stop-color="#B8284A"/>
<stop offset="0.65" stop-color="#C82C50"/>
<stop offset="0.79" stop-color="#D12E53"/>
<stop offset="1" stop-color="#D42F55"/>
</linearGradient>
<radialGradient id="paint34_radial_71_9349" cx="0" cy="0" r="1" gradientUnits="userSpaceOnUse" gradientTransform="translate(404.596 28.5991) rotate(-176.27) scale(15.7312 18.435)">
<stop offset="0.28" stop-color="#FFCD48"/>
<stop offset="1" stop-color="#D67D33"/>
</radialGradient>
<radialGradient id="paint35_radial_71_9349" cx="0" cy="0" r="1" gradientUnits="userSpaceOnUse" gradientTransform="translate(410.255 21.888) rotate(-176.27) scale(10.6112 12.435)">
<stop/>
<stop offset="0.02" stop-color="#0D0205"/>
<stop offset="0.11" stop-color="#3B0D17"/>
<stop offset="0.21" stop-color="#641628"/>
<stop offset="0.31" stop-color="#871D36"/>
<stop offset="0.41" stop-color="#A32441"/>
<stop offset="0.52" stop-color="#B8284A"/>
<stop offset="0.65" stop-color="#C82C50"/>
<stop offset="0.79" stop-color="#D12E53"/>
<stop offset="1" stop-color="#D42F55"/>
</radialGradient>
<linearGradient id="paint36_linear_71_9349" x1="410.865" y1="23.446" x2="400.225" y2="22.7523" gradientUnits="userSpaceOnUse">
<stop/>
<stop offset="0.02" stop-color="#0D0205"/>
<stop offset="0.11" stop-color="#3B0D17"/>
<stop offset="0.21" stop-color="#641628"/>
<stop offset="0.31" stop-color="#871D36"/>
<stop offset="0.41" stop-color="#A32441"/>
<stop offset="0.52" stop-color="#B8284A"/>
<stop offset="0.65" stop-color="#C82C50"/>
<stop offset="0.79" stop-color="#D12E53"/>
<stop offset="1" stop-color="#D42F55"/>
</linearGradient>
<radialGradient id="paint37_radial_71_9349" cx="0" cy="0" r="1" gradientUnits="userSpaceOnUse" gradientTransform="translate(403.899 29.463) rotate(-176.27) scale(7.9168 9.2775)">
<stop/>
<stop offset="0.02" stop-color="#0D0205"/>
<stop offset="0.11" stop-color="#3B0D17"/>
<stop offset="0.21" stop-color="#641628"/>
<stop offset="0.31" stop-color="#871D36"/>
<stop offset="0.41" stop-color="#A32441"/>
<stop offset="0.52" stop-color="#B8284A"/>
<stop offset="0.65" stop-color="#C82C50"/>
<stop offset="0.79" stop-color="#D12E53"/>
<stop offset="1" stop-color="#D42F55"/>
</radialGradient>
<linearGradient id="paint38_linear_71_9349" x1="418.055" y1="30.1229" x2="406.138" y2="29.346" gradientUnits="userSpaceOnUse">
<stop/>
<stop offset="0.02" stop-color="#0D0205"/>
<stop offset="0.11" stop-color="#3B0D17"/>
<stop offset="0.21" stop-color="#641628"/>
<stop offset="0.31" stop-color="#871D36"/>
<stop offset="0.41" stop-color="#A32441"/>
<stop offset="0.52" stop-color="#B8284A"/>
<stop offset="0.65" stop-color="#C82C50"/>
<stop offset="0.79" stop-color="#D12E53"/>
<stop offset="1" stop-color="#D42F55"/>
</linearGradient>
<linearGradient id="paint39_linear_71_9349" x1="403.204" y1="25.5622" x2="396.166" y2="25.1034" gradientUnits="userSpaceOnUse">
<stop/>
<stop offset="0.02" stop-color="#0D0205"/>
<stop offset="0.11" stop-color="#3B0D17"/>
<stop offset="0.21" stop-color="#641628"/>
<stop offset="0.31" stop-color="#871D36"/>
<stop offset="0.41" stop-color="#A32441"/>
<stop offset="0.52" stop-color="#B8284A"/>
<stop offset="0.65" stop-color="#C82C50"/>
<stop offset="0.79" stop-color="#D12E53"/>
<stop offset="1" stop-color="#D42F55"/>
</linearGradient>
<radialGradient id="paint40_radial_71_9349" cx="0" cy="0" r="1" gradientUnits="userSpaceOnUse" gradientTransform="translate(124.1 15.3899) scale(61.36 61.36)">
<stop/>
<stop offset="0.02" stop-color="#0D0205"/>
<stop offset="0.11" stop-color="#3B0D17"/>
<stop offset="0.21" stop-color="#641628"/>
<stop offset="0.31" stop-color="#871D36"/>
<stop offset="0.41" stop-color="#A32441"/>
<stop offset="0.52" stop-color="#B8284A"/>
<stop offset="0.65" stop-color="#C82C50"/>
<stop offset="0.79" stop-color="#D12E53"/>
<stop offset="1" stop-color="#D42F55"/>
</radialGradient>
<radialGradient id="paint41_radial_71_9349" cx="0" cy="0" r="1" gradientUnits="userSpaceOnUse" gradientTransform="translate(305.68 15.3399) scale(61.26 61.26)">
<stop/>
<stop offset="0.02" stop-color="#0D0205"/>
<stop offset="0.1" stop-color="#3B0D17"/>
<stop offset="0.19" stop-color="#641628"/>
<stop offset="0.27" stop-color="#871D36"/>
<stop offset="0.37" stop-color="#A32441"/>
<stop offset="0.47" stop-color="#B8284A"/>
<stop offset="0.58" stop-color="#C82C50"/>
<stop offset="0.71" stop-color="#D12E53"/>
<stop offset="0.89" stop-color="#D42F55"/>
</radialGradient>
<linearGradient id="paint42_linear_71_9349" x1="176.33" y1="25.42" x2="205.77" y2="25.42" gradientUnits="userSpaceOnUse">
<stop stop-color="#D42F55"/>
<stop offset="0.14" stop-color="#D02E53"/>
<stop offset="0.28" stop-color="#C42B4E"/>
<stop offset="0.42" stop-color="#B02746"/>
<stop offset="0.55" stop-color="#95213B"/>
<stop offset="0.69" stop-color="#72192D"/>
<stop offset="0.82" stop-color="#460F1C"/>
<stop offset="0.95" stop-color="#140408"/>
<stop offset="1"/>
</linearGradient>
<linearGradient id="paint43_linear_71_9349" x1="253.62" y1="25.42" x2="224.18" y2="25.42" gradientUnits="userSpaceOnUse">
<stop stop-color="#D42F55"/>
<stop offset="0.14" stop-color="#D02E53"/>
<stop offset="0.28" stop-color="#C42B4E"/>
<stop offset="0.42" stop-color="#B02746"/>
<stop offset="0.55" stop-color="#95213B"/>
<stop offset="0.69" stop-color="#72192D"/>
<stop offset="0.82" stop-color="#460F1C"/>
<stop offset="0.95" stop-color="#140408"/>
<stop offset="1"/>
</linearGradient>
</defs>
</svg>
