<svg width="252" height="298" viewBox="0 0 252 298" fill="none" xmlns="http://www.w3.org/2000/svg">
<g filter="url(#filter0_f_52_58864)">
<path d="M141.31 242.459C155.261 237.035 172.96 220.179 177.556 215.63C177.556 215.63 177.761 215.417 178.135 215.053C178.503 214.665 178.69 214.483 178.69 214.483C183.056 209.758 199.337 191.518 204.343 177.352C204.343 177.352 160.917 126.156 125.242 92.0537C124.392 91.228 123.493 90.4156 122.601 89.6276C85.8647 57.337 11.8946 46.1361 7.70466 48.3912L7.54203 48.5664C5.41498 52.8494 18.8092 127.867 52.4327 163.598C53.0457 164.224 53.6033 164.838 54.2342 165.433C89.1926 200.28 141.316 242.483 141.316 242.483L141.31 242.459Z" fill="url(#paint0_linear_52_58864)"/>
<path d="M141.31 242.459C155.261 237.035 172.96 220.179 177.556 215.63C177.556 215.63 177.761 215.417 178.135 215.053C178.503 214.665 178.69 214.483 178.69 214.483C183.056 209.758 199.337 191.518 204.343 177.352C204.343 177.352 160.917 126.156 125.242 92.0537C124.392 91.2281 123.493 90.4156 122.601 89.6277L121.228 89.1001C121.228 89.1001 75.5666 102.889 51.703 161.95L52.4083 163.605C53.0213 164.231 53.5789 164.845 54.2098 165.439C89.1681 200.287 141.292 242.49 141.292 242.49L141.31 242.459Z" fill="url(#paint1_linear_52_58864)"/>
<path d="M125.259 92.0226C125.259 92.0226 121.87 88.9544 121.246 89.069C109.303 91.4265 69.0475 117.96 51.7453 161.913C51.4164 162.738 54.55 164.558 54.2455 165.377C54.2455 165.377 53.6712 166.558 49.2947 164.597C45.1843 162.749 28.9263 140.693 24.3368 124.542C24.3368 124.542 41.1372 82.7257 84.6637 62.241C84.6637 62.241 111.551 72.443 125.896 86.4799C128.127 88.6471 125.29 92.0406 125.29 92.0406L125.259 92.0226Z" fill="url(#paint2_linear_52_58864)"/>
<path d="M160.761 128.41C160.761 128.41 183.526 136.425 188.981 140.256C194.452 144.057 235.84 189.111 236.001 191.569C236.162 194.028 196.056 192.766 196.056 192.766C196.056 192.766 203.651 180.829 203.454 177.748C203.257 174.667 160.744 128.441 160.744 128.441L160.761 128.41Z" fill="url(#paint3_linear_52_58864)"/>
<path d="M90.7249 199.448C90.7249 199.448 99.6135 223.137 103.542 228.51C107.501 233.901 153.481 274.195 155.921 274.305C158.361 274.415 155.983 234.156 155.983 234.156C155.983 234.156 144.347 241.671 141.294 241.91C139.497 242.049 90.7249 199.448 90.7249 199.448Z" fill="url(#paint4_linear_52_58864)"/>
<path d="M117.573 168.343C117.743 166.533 123.712 161.432 124.141 161.08C124.496 160.642 129.402 154.509 131.203 154.289C133.053 154.057 155.998 166.263 161.045 171.705C166.092 177.147 209.573 227.275 209.835 228.548C210.043 229.519 205.473 235.537 202.814 237.934C200.512 240.684 194.654 245.414 193.693 245.25C192.399 245.017 141.337 202.767 135.771 197.833C130.211 192.923 117.423 170.227 117.605 168.361L117.573 168.343Z" fill="url(#paint5_linear_52_58864)"/>
<path d="M134.734 95.1192C134.734 95.1192 116.176 101.435 90.3583 128.077C64.5472 154.743 57.8724 173.438 57.8724 173.438C57.8724 173.438 72.9067 190.634 77.2655 193.996C81.6308 197.382 88.4909 197.466 88.4909 197.466L83.8603 192.308C83.8603 192.308 88.705 176.658 113.696 150.843C138.688 125.028 153.731 120.945 153.731 120.945L159.19 126.75C159.19 126.75 158.472 119.279 156.517 116.09C153.284 110.768 134.685 95.1323 134.685 95.1323L134.734 95.1192Z" fill="url(#paint6_linear_52_58864)"/>
<g style="mix-blend-mode:multiply" opacity="0.3">
<path d="M75.3702 67.1539C79.31 64.6498 24.2773 49.428 14.9927 50.0725C5.73258 50.7104 46.1448 87.3353 47.1903 88.1085C48.2358 88.8817 55.1485 79.972 75.3702 67.1539Z" fill="#CBAAB1"/>
</g>
<g style="mix-blend-mode:soft-light" opacity="0.5">
<path d="M11.8972 53.7723C12.1274 52.5782 34.3986 76.4468 37.9924 83.0152C41.5797 89.5591 30.1277 103.82 27.476 107.611C24.8243 111.403 7.16611 77.0813 11.9038 53.7968L11.8972 53.7723Z" fill="#F6F4EA"/>
</g>
<g style="mix-blend-mode:multiply" opacity="0.75">
<path d="M125.26 92.0227C125.26 92.0227 127.064 88.5897 126.359 86.9353C125.66 85.3055 107.255 80.3621 75.9111 114.831C46.1023 147.598 48.5831 164.287 49.2704 164.604C49.9821 164.913 52.9107 165.577 54.2212 165.384C54.2212 165.384 53.5802 148.913 80.4338 121.151C107.287 93.3886 125.235 92.0292 125.235 92.0292L125.26 92.0227Z" fill="#772781"/>
</g>
<g style="mix-blend-mode:multiply" opacity="0.75">
<path d="M159.215 126.744C159.215 126.744 158.08 117.62 156.941 116.793C155.803 115.966 133.843 123.667 110.473 147.809C87.1035 171.952 78.7086 194.004 79.0114 195.134C79.3143 196.265 88.522 197.484 88.522 197.484L87.2253 195.383C87.2253 195.383 90.1577 178.56 114.757 153.14C139.363 127.744 157.383 125.286 157.383 125.286L159.239 126.737L159.215 126.744Z" fill="#772781"/>
</g>
<g style="mix-blend-mode:multiply" opacity="0.3">
<path d="M122.512 101.422C125.521 99.3524 145.389 122.074 145.097 122.258C144.83 122.434 123.79 137.184 116.919 144.002C110.049 150.82 93.5138 132.129 92.7323 129.31C91.9263 126.498 110.226 109.929 122.512 101.422Z" fill="#AB2781"/>
</g>
<g style="mix-blend-mode:multiply" opacity="0.3">
<path d="M109.492 88.321C113.535 85.4206 84.558 66.2457 78.6342 66.3319C72.7105 66.4182 51.1264 86.0795 49.8594 88.6837C48.5924 91.2879 74.1347 110.646 79.0319 110.835C83.929 111.024 90.4938 101.891 109.492 88.321Z" fill="#AB2781"/>
</g>
<g style="mix-blend-mode:soft-light" opacity="0.5">
<path d="M44.1693 94.2374C46.7882 91.6923 68.4672 116.088 70.0394 119.512C71.5872 122.942 56.0005 146.605 52.8459 150.084C49.6912 153.562 32.1397 123.452 31.168 118.261C30.1963 113.071 38.4793 99.7911 44.1693 94.2374Z" fill="#F6F4EA"/>
</g>
<g style="mix-blend-mode:soft-light" opacity="0.3">
<path d="M81.494 139.089C86.2347 135.37 102.601 153.237 103.208 156.576C103.797 159.947 83.2823 185.458 81.6487 188.845C79.9907 192.239 62.5831 171.465 62.7961 167.958C63.0495 163.624 76.2993 143.167 81.5119 139.058L81.494 139.089Z" fill="#F6F4EA"/>
</g>
<g style="mix-blend-mode:multiply" opacity="0.5">
<path d="M159.591 170.383C154.84 169.47 133.007 195.045 134.352 196.449C135.722 197.846 191.646 244.455 193.638 245.239C195.629 246.022 209.407 232.033 209.786 228.561C210.166 225.089 159.566 170.39 159.566 170.39L159.591 170.383Z" fill="#772781"/>
</g>
<g style="mix-blend-mode:multiply" opacity="0.5">
<path d="M155.983 234.156C155.983 234.156 142.935 242.366 141.294 241.91C139.652 241.454 95.1665 203.314 95.1665 203.314C95.1665 203.314 104.572 229.814 106.553 231.732C108.503 233.632 153.397 274.27 155.921 274.305C158.445 274.34 155.983 234.156 155.983 234.156Z" fill="#772781"/>
</g>
<g style="mix-blend-mode:multiply" opacity="0.5">
<path d="M165.12 133.14C165.12 133.14 189.882 140.884 191.1 142.006C192.293 143.134 235.362 189.871 236.043 191.531C236.723 193.192 196.098 192.728 196.098 192.728C196.098 192.728 202.379 179.801 201.947 177.599C201.514 175.398 165.12 133.14 165.12 133.14Z" fill="#772781"/>
</g>
<g style="mix-blend-mode:multiply" opacity="0.5">
<path d="M201.922 177.606C202.56 173.827 226.502 192.587 226.502 192.587C226.502 192.587 207.072 192.816 196.049 192.741C196.049 192.741 201.106 182.38 201.898 177.612L201.922 177.606Z" fill="#772781"/>
</g>
<g style="mix-blend-mode:soft-light" opacity="0.3">
<path d="M150.014 176.978C157.73 169.012 133.467 159.318 129.226 159.717C124.984 160.117 118.347 166.635 117.901 169.467C117.455 172.299 133.597 193.728 134.199 194.409C134.8 195.091 141.751 185.539 150.045 176.996L150.014 176.978Z" fill="#F6F4EA"/>
</g>
<g style="mix-blend-mode:soft-light" opacity="0.5">
<path d="M146.567 180.246C150.706 175.845 135.387 183.004 134.248 185.6C133.11 188.196 134.337 192.871 135.494 192.693C136.651 192.514 146.543 180.252 146.543 180.252L146.567 180.246Z" fill="#F6F4EA"/>
</g>
<g style="mix-blend-mode:multiply" opacity="0.5">
<path d="M136.008 156.188C136.008 156.188 154.026 160.077 172.803 168.265C191.58 176.453 196.632 188.661 196.576 191.678C196.527 194.72 188.227 203.343 188.227 203.343C188.227 203.343 160.989 171.009 158.581 169.548C156.172 168.087 136.008 156.188 136.008 156.188Z" fill="#772781"/>
</g>
<g style="mix-blend-mode:multiply" opacity="0.3">
<path d="M65.7458 73.4721C69.3554 69.3448 24.7298 53.0725 20.1656 54.3218C15.6015 55.5711 44.539 87.5022 47.208 88.0774C49.8837 88.6771 65.7392 73.4475 65.7392 73.4475L65.7458 73.4721Z" fill="#AB2781"/>
</g>
<g style="mix-blend-mode:soft-light" opacity="0.3">
<path d="M99.3983 171.396C103.671 165.538 156.585 223.303 158.651 225.831C160.716 228.358 145.007 236.702 138.74 235.8C132.473 234.899 92.2421 198.462 89.9742 195.963C87.7064 193.463 97.523 173.979 99.3983 171.396Z" fill="#F6F4EA"/>
</g>
<path d="M12.4205 58.9515C14.9535 52.6637 21.1395 61.6713 20.4857 66.9552C19.8075 72.2457 9.00591 67.4242 12.4205 58.9515Z" fill="#F6F4EA"/>
<path d="M133.149 95.7546C133.149 95.7546 112.148 103.805 88.1914 127.42C64.2169 151.066 57.879 173.462 57.879 173.462C57.879 173.462 81.8723 123.293 133.149 95.7546Z" fill="#B8A9BB"/>
<path d="M84.6326 62.2229C84.6326 62.2229 66.2502 69.7818 48.0278 88.595C29.8121 107.433 24.3301 124.518 24.3301 124.518C24.3301 124.518 40.3788 86.6419 84.657 62.2164L84.6326 62.2229Z" fill="#D96866"/>
<g style="mix-blend-mode:soft-light">
<path d="M41.4293 98.5793C44.1903 96.7598 44.3419 108.569 42.8899 113.514C41.438 118.459 32.3731 116.306 31.5258 114.61C30.6786 112.915 37.5582 101.144 41.4293 98.5793Z" fill="#F6F4EA"/>
</g>
<g style="mix-blend-mode:soft-light">
<path d="M78.6251 142.07C82.5914 141.034 82.1159 151.774 78.4018 155.218C74.6877 158.662 71.2665 157.235 70.0958 155.31C68.9007 153.392 77.4209 142.366 78.6251 142.07Z" fill="#F6F4EA"/>
</g>
<g style="mix-blend-mode:multiply" opacity="0.3">
<path d="M153.227 154.26C159.852 160.701 167.456 164.247 167.996 159.125C168.635 153.002 171.109 146.888 164.557 141.402C163.41 140.445 162.212 139.397 160.997 138.38C155.297 133.534 149.221 128.947 146.463 134.98C146.463 134.98 142.601 141.781 149.689 150.442C150.788 151.806 151.996 153.089 153.227 154.26Z" fill="#C9455B"/>
</g>
<g style="mix-blend-mode:multiply" opacity="0.5">
<path d="M153.227 154.26L154.135 154.912C154.135 154.912 150.047 150.899 148.22 145.938C146.399 141.001 145.944 136.172 150.015 134.844C154.1 133.565 160.965 138.362 160.965 138.362C155.266 133.516 149.19 128.929 146.432 134.962C146.432 134.962 142.569 141.764 149.658 150.424C150.757 151.788 151.965 153.071 153.196 154.242L153.227 154.26Z" fill="#C9455B"/>
</g>
<g style="mix-blend-mode:multiply" opacity="0.3">
<path d="M177.54 166.39C181.524 169.43 185.828 170.726 185.799 167.785C185.779 164.288 186.725 160.584 182.861 158.091C182.172 157.67 181.463 157.175 180.761 156.705C177.393 154.5 173.832 152.452 172.712 156.097C172.712 156.097 171.056 160.28 175.412 164.511C176.087 165.173 176.829 165.79 177.558 166.359L177.54 166.39Z" fill="#C9455B"/>
</g>
<g style="mix-blend-mode:multiply" opacity="0.5">
<path d="M177.54 166.39L178.061 166.672C178.061 166.672 175.614 164.773 174.332 162.141C173.05 159.509 172.517 156.834 174.627 155.715C176.744 154.621 180.761 156.705 180.761 156.705C177.393 154.5 173.832 152.452 172.712 156.097C172.712 156.097 171.056 160.28 175.412 164.511C176.087 165.173 176.829 165.79 177.558 166.359L177.54 166.39Z" fill="#C9455B"/>
</g>
<g style="mix-blend-mode:multiply" opacity="0.3">
<path d="M41.5321 75.0094C45.9161 77.3898 50.3855 78.0356 49.9217 75.1315C49.362 71.6737 49.7602 67.8803 45.5389 66.0093C44.7961 65.6817 44.0402 65.3049 43.242 64.9658C39.5707 63.2898 35.7433 61.8136 35.1918 65.6218C35.1918 65.6218 34.1723 70.0294 39.1233 73.5481C39.9009 74.1035 40.7141 74.5966 41.5142 75.0405L41.5321 75.0094Z" fill="#C9455B"/>
</g>
<g style="mix-blend-mode:multiply" opacity="0.5">
<path d="M41.5321 75.0093L42.1132 75.2223C42.1132 75.2223 39.4092 73.7348 37.7384 71.3121C36.0741 68.914 35.1252 66.3506 37.0458 64.9143C38.9729 63.5026 43.2421 64.9657 43.2421 64.9657C39.5708 63.2897 35.7434 61.8136 35.1919 65.6217C35.1919 65.6217 34.1723 70.0293 39.1234 73.5481C39.9009 74.1034 40.7142 74.5965 41.5143 75.0405L41.5321 75.0093Z" fill="#C9455B"/>
</g>
<path d="M96.6212 207.375C96.6212 207.375 104.826 224.505 108.666 230.033C112.505 235.562 124.623 248.036 124.623 248.036C124.623 248.036 107.562 233.542 103.771 228.975C100.005 224.401 96.6277 207.399 96.6277 207.399L96.6212 207.375Z" fill="#63577C"/>
<path d="M198.138 149.6C198.138 149.6 189.707 142.089 183.596 139.619C177.423 137.112 168.505 134.235 168.505 134.235C168.505 134.235 184.355 136.782 188.025 139.722C191.695 142.663 198.138 149.6 198.138 149.6Z" fill="#63577C"/>
<g style="mix-blend-mode:soft-light">
<path d="M77.3403 64.0452C77.3403 64.0452 37.4244 53.226 7.69811 48.3666C7.69811 48.3666 25.045 45.3513 77.3403 64.0452Z" fill="#BAFFFF"/>
</g>
</g>
<defs>
<filter id="filter0_f_52_58864" x="0.124906" y="40.9121" width="243.126" height="240.593" filterUnits="userSpaceOnUse" color-interpolation-filters="sRGB">
<feFlood flood-opacity="0" result="BackgroundImageFix"/>
<feBlend mode="normal" in="SourceGraphic" in2="BackgroundImageFix" result="shape"/>
<feGaussianBlur stdDeviation="3.6" result="effect1_foregroundBlur_52_58864"/>
</filter>
<linearGradient id="paint0_linear_52_58864" x1="128.389" y1="95.0507" x2="56.9774" y2="168.151" gradientUnits="userSpaceOnUse">
<stop stop-color="#BECAFF"/>
<stop offset="0.03" stop-color="#BCC6FA"/>
<stop offset="0.06" stop-color="#B6BCED"/>
<stop offset="0.1" stop-color="#ACAAD7"/>
<stop offset="0.13" stop-color="#A195BB"/>
<stop offset="0.16" stop-color="#A497BB"/>
<stop offset="0.39" stop-color="#C5AEC1"/>
<stop offset="0.62" stop-color="#DDBEC5"/>
<stop offset="0.82" stop-color="#ECC8C8"/>
<stop offset="1" stop-color="#F1CCC9"/>
</linearGradient>
<linearGradient id="paint1_linear_52_58864" x1="164.076" y1="129.913" x2="92.6643" y2="203.014" gradientUnits="userSpaceOnUse">
<stop stop-color="#366890"/>
<stop offset="0.15" stop-color="#3A300F"/>
<stop offset="1" stop-color="#726400"/>
</linearGradient>
<linearGradient id="paint2_linear_52_58864" x1="107.744" y1="68.7899" x2="31.0736" y2="147.274" gradientUnits="userSpaceOnUse">
<stop stop-color="#D93695"/>
<stop offset="0.17" stop-color="#860427"/>
<stop offset="0.34" stop-color="#910624"/>
<stop offset="0.64" stop-color="#AE0B1C"/>
<stop offset="1" stop-color="#DB1411"/>
</linearGradient>
<linearGradient id="paint3_linear_52_58864" x1="227.461" y1="200.478" x2="157.012" y2="132.281" gradientUnits="userSpaceOnUse">
<stop stop-color="#161236"/>
<stop offset="1" stop-color="#361E47"/>
</linearGradient>
<linearGradient id="paint4_linear_52_58864" x1="164.551" y1="265.469" x2="93.4441" y2="196.636" gradientUnits="userSpaceOnUse">
<stop stop-color="#161236"/>
<stop offset="1" stop-color="#361E47"/>
</linearGradient>
<linearGradient id="paint5_linear_52_58864" x1="202.79" y1="237.942" x2="123.562" y2="161.248" gradientUnits="userSpaceOnUse">
<stop stop-color="#161236"/>
<stop offset="1" stop-color="#361E47"/>
</linearGradient>
<linearGradient id="paint6_linear_52_58864" x1="146.301" y1="105.18" x2="68.0895" y2="185.241" gradientUnits="userSpaceOnUse">
<stop stop-color="#886B90"/>
<stop offset="0.03" stop-color="#83678C"/>
<stop offset="0.07" stop-color="#765E81"/>
<stop offset="0.09" stop-color="#675375"/>
<stop offset="0.3" stop-color="#6B587A"/>
<stop offset="0.56" stop-color="#776789"/>
<stop offset="0.84" stop-color="#8B81A1"/>
<stop offset="1" stop-color="#9993B3"/>
</linearGradient>
</defs>
</svg>
