<svg width="124" height="93" viewBox="0 0 124 93" fill="none" xmlns="http://www.w3.org/2000/svg">
<path fill-rule="evenodd" clip-rule="evenodd" d="M19.1642 90.3202C19.1642 90.3202 28.1842 67.3502 40.4742 63.5902C52.1442 60.0102 67.1042 63.5902 67.1042 63.5902C67.1042 63.5902 71.2242 45.0902 81.7542 39.5302C95.9642 32.0202 119.204 37.0102 119.204 37.0102C119.204 37.0102 121.594 19.5602 123.494 10.3402C123.544 10.0802 118.814 5.66016 118.814 5.66016L4.97424 19.6902C6.02424 23.7502 7.75423 42.0802 6.53423 58.6802C5.75423 69.2602 0.324234 88.0402 0.324234 88.0402L1.85423 92.9902L19.1642 90.3202Z" fill="#7C7474"/>
<path opacity="0.55" d="M84.5042 21.2603L62.6742 49.3303L66.9442 63.5503C67.0542 63.5703 67.1142 63.5903 67.1142 63.5903C67.1142 63.5903 71.2342 45.0903 81.7642 39.5303C86.3942 37.0803 91.8242 35.9503 97.0342 35.5303L95.4242 27.5003L84.5042 21.2603Z" fill="url(#paint0_linear_735_83)"/>
<path opacity="0.55" d="M37.7241 54.0103L12.3841 70.0503L18.7741 90.3803L19.1741 90.3203C19.1741 90.3203 28.1941 67.3503 40.4841 63.5903C44.2641 62.4303 48.3941 62.0303 52.2441 62.0103L51.7741 58.6903L37.7341 54.0103H37.7241Z" fill="url(#paint1_linear_735_83)"/>
<path opacity="0.15" d="M0.324066 88.0401L1.85406 92.9901L19.1641 90.3201L17.1041 84.1501L0.324066 88.0401Z" fill="black"/>
<path d="M118.814 5.66016L113.694 6.29016L112.574 27.4902L119.204 37.0002C119.204 37.0002 121.734 18.9002 123.494 10.3402C123.544 10.0802 118.814 5.66016 118.814 5.66016Z" fill="#545252"/>
<path fill-rule="evenodd" clip-rule="evenodd" d="M17.6145 85.6402C17.6145 85.6402 26.6345 62.6702 38.9245 58.9102C50.5945 55.3302 65.5545 58.9102 65.5545 58.9102C65.5545 58.9102 69.6745 40.4102 80.2045 34.8502C94.4145 27.3402 116.154 32.1802 116.154 32.1802L118.814 5.44018C118.814 5.44018 84.6945 4.89018 50.1945 4.10018C38.6844 3.84018 19.6045 0.0301786 11.8645 0.000178571C-2.95554 -0.0598214 0.304451 15.0202 0.304451 15.0202C0.304451 15.0202 3.42445 26.9502 3.42445 39.9702C3.42445 61.4102 0.304451 88.3102 0.304451 88.3102L17.6145 85.6402Z" fill="url(#paint2_linear_735_83)"/>
<path opacity="0.3" fill-rule="evenodd" clip-rule="evenodd" d="M76.7145 30.6103C63.5045 37.3403 62.6745 55.5603 62.6745 55.5603C62.6745 55.5603 42.4345 48.4003 29.9245 57.1203C18.0745 65.3903 17.4445 83.6303 17.4445 83.6303C17.4445 83.6303 20.4245 66.3803 33.0345 58.6803C45.8445 50.8603 64.2245 57.1203 64.2245 57.1203C64.2245 57.1203 65.7845 41.5003 78.2545 33.7303C91.6845 25.3603 112.564 30.6103 112.564 30.6103C112.564 30.6103 95.5745 20.9903 76.6945 30.6103H76.7145Z" fill="white"/>
<path opacity="0.35" fill-rule="evenodd" clip-rule="evenodd" d="M11.2145 39.9703C12.6445 28.6503 9.11448 22.6803 9.65448 18.1403C11.1845 5.37025 12.4545 10.9803 45.5245 10.3403C73.0245 9.81025 112.584 8.78025 112.584 8.78025C112.584 8.78025 69.0745 8.19025 37.7345 7.22025C21.9245 6.73025 13.0045 -0.879747 6.54448 4.10025C-1.20552 10.0803 5.57448 18.4303 6.54448 32.1703C7.97448 52.3903 4.98447 80.5103 4.98447 80.5103C4.98447 80.5103 8.94447 57.9803 11.2245 39.9603L11.2145 39.9703Z" fill="white"/>
<path opacity="0.57" fill-rule="evenodd" clip-rule="evenodd" d="M17.6145 85.6402C17.6145 85.6402 26.6345 62.6702 38.9245 58.9102C50.5945 55.3302 65.5545 58.9102 65.5545 58.9102C65.5545 58.9102 69.6745 40.4102 80.2045 34.8502C94.4145 27.3402 116.154 32.1802 116.154 32.1802L118.814 5.44018C118.814 5.44018 84.6945 4.89018 50.1945 4.10018C38.6844 3.84018 19.6045 0.0301786 11.8645 0.000178571C-2.95554 -0.0598214 0.304451 15.0202 0.304451 15.0202C0.304451 15.0202 3.42445 26.9502 3.42445 39.9702C3.42445 61.4102 0.304451 88.3102 0.304451 88.3102L17.6145 85.6402Z" fill="url(#paint3_linear_735_83)"/>
<path opacity="0.1" d="M50.2042 4.10018C38.6842 3.84018 19.6042 0.0301786 11.8642 0.000178571C-2.95578 -0.0598214 0.304214 15.0202 0.304214 15.0202C0.304214 15.0202 3.42422 26.9502 3.42422 39.9702C3.42422 61.4102 0.304214 88.3102 0.304214 88.3102L3.80421 87.7702C5.01421 80.7902 8.72422 57.6302 8.10422 38.4102C7.64422 24.0302 0.454216 13.4302 8.10422 7.22018C17.4942 -0.399822 22.8542 7.10018 39.2942 7.22018C69.3142 7.43018 109.444 8.48018 118.494 8.73018L118.824 5.44018C118.824 5.44018 84.7042 4.89018 50.2042 4.10018Z" fill="black"/>
<path opacity="0.26" fill-rule="evenodd" clip-rule="evenodd" d="M92.3042 20.4802C92.3042 24.3602 95.4442 27.5002 99.3242 27.5002C103.204 27.5002 106.344 24.3602 106.344 20.4802C106.344 16.6002 103.204 13.4602 99.3242 13.4602C95.4442 13.4602 92.3042 16.6002 92.3042 20.4802Z" fill="#4B4949"/>
<path opacity="0.52" fill-rule="evenodd" clip-rule="evenodd" d="M92.3042 18.1401C92.3042 21.5801 95.0942 24.3801 98.5442 24.3801C101.994 24.3801 104.784 21.5901 104.784 18.1401C104.784 14.6901 101.994 11.9001 98.5442 11.9001C95.0942 11.9001 92.3042 14.6901 92.3042 18.1401Z" fill="#4B4949"/>
<path fill-rule="evenodd" clip-rule="evenodd" d="M92.3041 17.3601C92.3041 20.3701 94.7441 22.8201 97.7641 22.8201C100.784 22.8201 103.224 20.3801 103.224 17.3601C103.224 14.3401 100.784 11.9001 97.7641 11.9001C94.7441 11.9001 92.3041 14.3401 92.3041 17.3601Z" fill="url(#paint4_linear_735_83)"/>
<path d="M95.4243 18.1402C95.4243 15.5602 97.5143 13.4602 100.104 13.4602C100.734 13.4602 101.334 13.5902 101.884 13.8202C100.884 12.6602 99.4143 11.9102 97.7643 11.9102C94.7543 11.9102 92.3043 14.3502 92.3043 17.3702C92.3043 20.3902 94.7443 22.8302 97.7643 22.8302C98.1843 22.8302 98.5943 22.7702 98.9843 22.6802C96.9443 22.1802 95.4243 20.3502 95.4243 18.1502V18.1402Z" fill="white"/>
<path opacity="0.26" fill-rule="evenodd" clip-rule="evenodd" d="M48.6441 43.8703C48.6441 47.7503 51.7841 50.8903 55.6641 50.8903C59.5441 50.8903 62.6841 47.7503 62.6841 43.8703C62.6841 39.9903 59.5441 36.8503 55.6641 36.8503C51.7841 36.8503 48.6441 39.9903 48.6441 43.8703Z" fill="#4B4949"/>
<path opacity="0.52" fill-rule="evenodd" clip-rule="evenodd" d="M48.644 41.5303C48.644 44.9703 51.434 47.7703 54.884 47.7703C58.334 47.7703 61.124 44.9803 61.124 41.5303C61.124 38.0803 58.334 35.2903 54.884 35.2903C51.434 35.2903 48.644 38.0803 48.644 41.5303Z" fill="#4B4949"/>
<path fill-rule="evenodd" clip-rule="evenodd" d="M48.644 40.7503C48.644 43.7603 51.084 46.2103 54.104 46.2103C57.124 46.2103 59.564 43.7703 59.564 40.7503C59.564 37.7303 57.124 35.2903 54.104 35.2903C51.084 35.2903 48.644 37.7303 48.644 40.7503Z" fill="url(#paint5_linear_735_83)"/>
<path d="M51.7641 41.5303C51.7641 38.9503 53.8541 36.8503 56.4441 36.8503C57.0741 36.8503 57.6741 36.9803 58.2241 37.2103C57.2241 36.0503 55.7541 35.3003 54.1041 35.3003C51.0941 35.3003 48.6441 37.7403 48.6441 40.7603C48.6441 43.7803 51.0841 46.2203 54.1041 46.2203C54.5241 46.2203 54.9341 46.1603 55.3241 46.0703C53.2841 45.5703 51.7641 43.7403 51.7641 41.5403V41.5303Z" fill="white"/>
<path opacity="0.26" fill-rule="evenodd" clip-rule="evenodd" d="M8.09428 71.9402C8.09428 75.8202 11.2343 78.9602 15.1143 78.9602C18.9943 78.9602 22.1343 75.8202 22.1343 71.9402C22.1343 68.0602 18.9943 64.9202 15.1143 64.9202C11.2343 64.9202 8.09428 68.0602 8.09428 71.9402Z" fill="#4B4949"/>
<path opacity="0.52" fill-rule="evenodd" clip-rule="evenodd" d="M8.09422 69.6001C8.09422 73.0401 10.8842 75.8401 14.3342 75.8401C17.7842 75.8401 20.5742 73.0501 20.5742 69.6001C20.5742 66.1501 17.7842 63.3601 14.3342 63.3601C10.8842 63.3601 8.09422 66.1501 8.09422 69.6001Z" fill="#4B4949"/>
<path fill-rule="evenodd" clip-rule="evenodd" d="M8.09416 68.8201C8.09416 71.8301 10.5342 74.2801 13.5542 74.2801C16.5742 74.2801 19.0142 71.8401 19.0142 68.8201C19.0142 65.8001 16.5742 63.3601 13.5542 63.3601C10.5342 63.3601 8.09416 65.8001 8.09416 68.8201Z" fill="url(#paint6_linear_735_83)"/>
<path d="M11.2143 69.6001C11.2143 67.0201 13.3043 64.9201 15.8943 64.9201C16.5243 64.9201 17.1243 65.0501 17.6743 65.2801C16.6743 64.1201 15.2043 63.3701 13.5543 63.3701C10.5443 63.3701 8.09431 65.8101 8.09431 68.8301C8.09431 71.8501 10.5343 74.2901 13.5543 74.2901C13.9743 74.2901 14.3843 74.2301 14.7743 74.1401C12.7343 73.6401 11.2143 71.8101 11.2143 69.6101V69.6001Z" fill="white"/>
<defs>
<linearGradient id="paint0_linear_735_83" x1="64.8942" y1="63.7903" x2="91.9942" y2="25.0903" gradientUnits="userSpaceOnUse">
<stop/>
<stop offset="1"/>
</linearGradient>
<linearGradient id="paint1_linear_735_83" x1="12.3841" y1="72.1903" x2="53.3241" y2="72.1903" gradientUnits="userSpaceOnUse">
<stop/>
<stop offset="1"/>
</linearGradient>
<linearGradient id="paint2_linear_735_83" x1="75.7045" y1="66.1202" x2="14.5845" y2="-6.71983" gradientUnits="userSpaceOnUse">
<stop stop-color="#857F7F"/>
<stop offset="0.29" stop-color="#8D8888"/>
<stop offset="0.78" stop-color="#A5A3A2"/>
<stop offset="1" stop-color="#B3B2B0"/>
</linearGradient>
<linearGradient id="paint3_linear_735_83" x1="75.7045" y1="66.1202" x2="14.5845" y2="-6.71983" gradientUnits="userSpaceOnUse">
<stop stop-color="white"/>
<stop offset="1" stop-color="white"/>
</linearGradient>
<linearGradient id="paint4_linear_735_83" x1="97.7641" y1="22.8201" x2="97.7641" y2="11.9001" gradientUnits="userSpaceOnUse">
<stop stop-color="#B1AFAD"/>
<stop offset="0.38" stop-color="#BAB8B6"/>
<stop offset="1" stop-color="#D2D1D0"/>
</linearGradient>
<linearGradient id="paint5_linear_735_83" x1="54.104" y1="46.2103" x2="54.104" y2="35.2903" gradientUnits="userSpaceOnUse">
<stop stop-color="#B1AFAD"/>
<stop offset="0.38" stop-color="#BAB8B6"/>
<stop offset="1" stop-color="#D2D1D0"/>
</linearGradient>
<linearGradient id="paint6_linear_735_83" x1="13.5542" y1="74.2801" x2="13.5542" y2="63.3601" gradientUnits="userSpaceOnUse">
<stop stop-color="#B1AFAD"/>
<stop offset="0.38" stop-color="#BAB8B6"/>
<stop offset="1" stop-color="#D2D1D0"/>
</linearGradient>
</defs>
</svg>
