<svg width="257" height="258" viewBox="0 0 257 258" fill="none" xmlns="http://www.w3.org/2000/svg">
<path d="M70.0405 6.47689C52.5151 4.31078 18.054 -5.41988 4.28034 13.1766C-2.64972 22.5331 10.5575 36.2008 16.5083 41.8621C27.0374 51.8787 40.3999 62.303 48.3394 74.547C56.8255 87.6342 42.0797 89.8678 31.9108 93.3942C-2.96104 105.487 -1.47531 122.177 27.2823 142.488C74.7835 176.038 133.532 193.338 185.733 217.967C204.055 226.611 223.193 232.657 241.015 242.276C247.258 245.645 250.868 243.926 246.291 237.465C243.023 232.849 219.017 202.498 232.058 219.981C237.576 227.378 251.171 234.405 254.651 242.503C256.931 247.81 215.745 249.393 207.228 255.602" stroke="#C69144" stroke-width="4" stroke-linecap="round"/>
</svg>
