<svg width="157" height="52" viewBox="0 0 157 52" fill="none" xmlns="http://www.w3.org/2000/svg">
<path d="M0 48.197V37.3591H7.7733V39.2524H2.1504V41.5702H7.32729V43.4799H2.1504V46.2709H8.02817V48.197H0Z" fill="#877F74"/>
<path d="M15.5184 42.9086H17.4458V45.1937C17.4458 45.6181 17.382 46.0261 17.2546 46.4178C17.1378 46.7987 16.9466 47.1415 16.6812 47.4461C16.4263 47.7399 16.0971 47.9739 15.6936 48.148C15.3007 48.3221 14.8281 48.4091 14.2759 48.4091C13.7025 48.4091 13.214 48.3221 12.8104 48.148C12.4069 47.9739 12.0724 47.7399 11.8069 47.4461C11.5521 47.1523 11.3662 46.8096 11.2494 46.4178C11.1326 46.0261 11.0742 45.6126 11.0742 45.1774V37.9956H13.1131V40.1665H17.4458V41.6681H13.1131V44.9652C13.1131 45.4766 13.2034 45.8738 13.3839 46.1567C13.575 46.4287 13.883 46.5647 14.3078 46.5647C14.7219 46.5647 15.0246 46.4287 15.2157 46.1567C15.4175 45.8847 15.5184 45.4984 15.5184 44.9978V42.9086Z" fill="#877F74"/>
<path d="M25.8582 48.197V43.2187C25.8582 42.6094 25.752 42.1959 25.5396 41.9782C25.3379 41.7497 24.998 41.6355 24.5202 41.6355C24.2653 41.6355 24.037 41.6899 23.8352 41.7987C23.6335 41.8966 23.4636 42.0381 23.3255 42.2231C23.1875 42.3972 23.0813 42.6039 23.0069 42.8433C22.9432 43.0718 22.9114 43.3221 22.9114 43.5941V48.197H20.8406V37.2285H22.9114V41.2111C22.9857 41.037 23.0972 40.8738 23.2459 40.7214C23.4052 40.5582 23.5857 40.4222 23.7874 40.3134C23.9892 40.2046 24.2122 40.1175 24.4565 40.0522C24.7007 39.9869 24.9556 39.9543 25.2211 39.9543C26.0281 39.9543 26.6812 40.1828 27.1803 40.6398C27.69 41.086 27.9449 41.7116 27.9449 42.5169V48.197H25.8582Z" fill="#877F74"/>
<path d="M36.5613 43.3983C36.5507 43.1045 36.4976 42.8487 36.402 42.6311C36.3171 42.4026 36.2003 42.2176 36.0516 42.0762C35.9029 41.9238 35.733 41.815 35.5419 41.7497C35.3507 41.6736 35.1543 41.6355 34.9525 41.6355C34.5383 41.6355 34.1773 41.7933 33.8693 42.1088C33.572 42.4135 33.4021 42.8433 33.3596 43.3983H36.5613ZM33.2959 44.7367C33.3277 45.346 33.4977 45.8303 33.8056 46.1893C34.1242 46.5484 34.5383 46.728 35.0481 46.728C35.3879 46.728 35.6852 46.6518 35.9401 46.4995C36.2056 46.3362 36.3755 46.1132 36.4498 45.8303H38.5843C38.34 46.6572 37.9153 47.2938 37.31 47.7399C36.7047 48.1861 35.9826 48.4091 35.1436 48.4091C32.5313 48.4091 31.2251 46.951 31.2251 44.0348C31.2251 43.4146 31.3101 42.8542 31.48 42.3536C31.6499 41.8531 31.8941 41.4233 32.2127 41.0642C32.5419 40.7051 32.9401 40.4331 33.4074 40.2481C33.8746 40.0522 34.4109 39.9543 35.0162 39.9543C36.2268 39.9543 37.1401 40.3515 37.756 41.1458C38.3825 41.9402 38.6958 43.1371 38.6958 44.7367H33.2959Z" fill="#877F74"/>
<path d="M41.9601 48.197V40.1665H43.9034V41.1295C44.0733 40.8575 44.2485 40.6453 44.4291 40.4929C44.6202 40.3406 44.8114 40.2263 45.0025 40.1502C45.2043 40.0631 45.406 40.0087 45.6078 39.9869C45.8096 39.9652 46.0166 39.9543 46.229 39.9543H46.4998V42.1251C46.3087 42.0925 46.1175 42.0762 45.9264 42.0762C44.6627 42.0762 44.0308 42.7236 44.0308 44.0185V48.197H41.9601Z" fill="#877F74"/>
<path d="M54.3052 43.3983C54.2946 43.1045 54.2415 42.8487 54.1459 42.6311C54.061 42.4026 53.9442 42.2176 53.7955 42.0762C53.6468 41.9238 53.4769 41.815 53.2858 41.7497C53.0946 41.6736 52.8982 41.6355 52.6964 41.6355C52.2823 41.6355 51.9212 41.7933 51.6133 42.1088C51.3159 42.4135 51.146 42.8433 51.1035 43.3983H54.3052ZM51.0398 44.7367C51.0717 45.346 51.2416 45.8303 51.5495 46.1893C51.8681 46.5484 52.2823 46.728 52.792 46.728C53.1318 46.728 53.4291 46.6518 53.684 46.4995C53.9495 46.3362 54.1194 46.1132 54.1937 45.8303H56.3282C56.084 46.6572 55.6592 47.2938 55.0539 47.7399C54.4486 48.1861 53.7265 48.4091 52.8876 48.4091C50.2752 48.4091 48.9691 46.951 48.9691 44.0348C48.9691 43.4146 49.054 42.8542 49.2239 42.3536C49.3938 41.8531 49.6381 41.4233 49.9566 41.0642C50.2858 40.7051 50.6841 40.4331 51.1513 40.2481C51.6186 40.0522 52.1548 39.9543 52.7601 39.9543C53.9707 39.9543 54.884 40.3515 55.4999 41.1458C56.1264 41.9402 56.4397 43.1371 56.4397 44.7367H51.0398Z" fill="#877F74"/>
<path d="M64.8013 48.197V47.0707C64.2703 47.963 63.4579 48.4091 62.3641 48.4091C61.9712 48.4091 61.6102 48.3384 61.281 48.197C60.9624 48.0555 60.6863 47.8542 60.4527 47.593C60.219 47.3319 60.0332 47.0218 59.8952 46.6627C59.7677 46.3036 59.704 45.901 59.704 45.4548V40.1665H61.7748V45.1284C61.7748 46.1295 62.2155 46.63 63.0969 46.63C63.6278 46.63 64.0261 46.4614 64.2915 46.124C64.5676 45.7758 64.7057 45.3351 64.7057 44.802V40.1665H66.7605V48.197H64.8013Z" fill="#877F74"/>
<path d="M79.4081 48.197V43.333C79.4081 42.8433 79.2966 42.4461 79.0736 42.1415C78.8506 41.8368 78.5532 41.6844 78.1815 41.6844C77.7992 41.6844 77.4807 41.8477 77.2258 42.1741C76.9816 42.5005 76.8594 42.9086 76.8594 43.3983V48.197H74.7887V43.3656C74.7887 43.0392 74.7674 42.7726 74.725 42.5658C74.6825 42.3591 74.6082 42.1959 74.502 42.0762C74.4064 41.9565 74.279 41.8749 74.1197 41.8313C73.9604 41.7769 73.7692 41.7497 73.5462 41.7497C72.7073 41.7497 72.2878 42.272 72.2878 43.3166V48.197H70.2171V40.1665H72.1604V41.3417C72.4259 40.8085 72.7445 40.444 73.1161 40.2481C73.4878 40.0522 73.9338 39.9543 74.4542 39.9543C74.7197 39.9543 74.9533 39.9761 75.1551 40.0196C75.3674 40.0631 75.5533 40.1393 75.7126 40.2481C75.8825 40.346 76.0418 40.4766 76.1904 40.6398C76.3391 40.803 76.4878 40.9989 76.6364 41.2274C76.8488 40.7813 77.1302 40.4603 77.4807 40.2644C77.8311 40.0577 78.2559 39.9543 78.755 39.9543C79.1479 39.9543 79.5089 40.025 79.8381 40.1665C80.1673 40.2971 80.4487 40.4875 80.6824 40.7378C80.916 40.9771 81.0965 41.2601 81.224 41.5865C81.362 41.9129 81.431 42.2612 81.431 42.6311V48.197H79.4081Z" fill="#877F74"/>
<path d="M91.1177 48.197V37.3591H93.3318V46.222H98.5724V48.197H91.1177Z" fill="#877F74"/>
<path d="M106.457 44.2633C106.351 44.3721 106.197 44.4592 105.995 44.5245C105.793 44.5898 105.501 44.6605 105.119 44.7367C104.524 44.8564 104.115 45.0087 103.892 45.1937C103.669 45.3787 103.558 45.6453 103.558 45.9935C103.558 46.5919 103.892 46.8912 104.561 46.8912C104.827 46.8912 105.071 46.8477 105.294 46.7606C105.528 46.6627 105.724 46.5375 105.883 46.3852C106.053 46.222 106.186 46.037 106.282 45.8303C106.388 45.6126 106.441 45.3841 106.441 45.1447L106.457 44.2633ZM106.6 48.197C106.536 47.9902 106.494 47.7508 106.473 47.4788C106.229 47.7617 105.905 47.9902 105.501 48.1643C105.098 48.3275 104.63 48.4091 104.099 48.4091C103.197 48.4091 102.533 48.2078 102.108 47.8052C101.694 47.3917 101.487 46.8585 101.487 46.2057C101.487 45.6289 101.577 45.1719 101.758 44.8346C101.938 44.4864 102.188 44.2144 102.506 44.0185C102.825 43.8226 103.202 43.6812 103.637 43.5941C104.083 43.4962 104.567 43.4091 105.087 43.333C105.607 43.2568 105.958 43.1589 106.138 43.0392C106.319 42.9086 106.409 42.7018 106.409 42.4189C106.409 42.1578 106.287 41.9565 106.043 41.815C105.809 41.6627 105.49 41.5865 105.087 41.5865C104.609 41.5865 104.264 41.6953 104.052 41.9129C103.85 42.1306 103.722 42.4189 103.669 42.778H101.742C101.752 42.3645 101.816 41.9837 101.933 41.6355C102.06 41.2873 102.257 40.988 102.522 40.7378C102.799 40.4875 103.154 40.2971 103.59 40.1665C104.025 40.025 104.556 39.9543 105.183 39.9543C105.798 39.9543 106.319 40.025 106.744 40.1665C107.179 40.3079 107.524 40.5147 107.779 40.7867C108.044 41.0479 108.236 41.3798 108.352 41.7824C108.469 42.1741 108.528 42.6202 108.528 43.1208V48.197H106.6Z" fill="#877F74"/>
<path d="M116.975 47.136C116.826 47.4951 116.556 47.778 116.163 47.9848C115.78 48.1806 115.345 48.2786 114.857 48.2786C114.442 48.2786 114.06 48.2133 113.71 48.0827C113.359 47.9412 113.057 47.7454 112.802 47.4951C112.547 47.2339 112.345 46.9293 112.196 46.5811C112.058 46.222 111.989 45.8194 111.989 45.3732V40.1665H114.06V45.0631C114.06 46.0642 114.501 46.5647 115.382 46.5647C115.86 46.5647 116.242 46.4233 116.529 46.1404C116.826 45.8575 116.975 45.4984 116.975 45.0631V40.1665H119.046V48.4091C119.046 48.975 118.95 49.481 118.759 49.9271C118.579 50.3732 118.324 50.7486 117.995 51.0533C117.676 51.358 117.294 51.5919 116.848 51.7552C116.412 51.9184 115.945 52 115.446 52C114.288 52 113.423 51.7008 112.85 51.1023C112.276 50.5038 111.989 49.6823 111.989 48.6376H113.917C113.917 49.1164 114.05 49.4918 114.315 49.7639C114.591 50.0359 115 50.1719 115.542 50.1719C115.733 50.1719 115.913 50.1284 116.083 50.0413C116.253 49.9652 116.402 49.8509 116.529 49.6986C116.667 49.5571 116.773 49.3776 116.848 49.16C116.933 48.9423 116.975 48.7029 116.975 48.4418V47.136Z" fill="#877F74"/>
<path d="M127.695 43.3983C127.684 43.1045 127.631 42.8487 127.535 42.6311C127.45 42.4026 127.333 42.2176 127.185 42.0762C127.036 41.9238 126.866 41.815 126.675 41.7497C126.484 41.6736 126.287 41.6355 126.086 41.6355C125.672 41.6355 125.311 41.7933 125.003 42.1088C124.705 42.4135 124.535 42.8433 124.493 43.3983H127.695ZM124.429 44.7367C124.461 45.346 124.631 45.8303 124.939 46.1893C125.257 46.5484 125.672 46.728 126.181 46.728C126.521 46.728 126.818 46.6518 127.073 46.4995C127.339 46.3362 127.509 46.1132 127.583 45.8303H129.717C129.473 46.6572 129.048 47.2938 128.443 47.7399C127.838 48.1861 127.116 48.4091 126.277 48.4091C123.665 48.4091 122.358 46.951 122.358 44.0348C122.358 43.4146 122.443 42.8542 122.613 42.3536C122.783 41.8531 123.027 41.4233 123.346 41.0642C123.675 40.7051 124.073 40.4331 124.541 40.2481C125.008 40.0522 125.544 39.9543 126.149 39.9543C127.36 39.9543 128.273 40.3515 128.889 41.1458C129.516 41.9402 129.829 43.1371 129.829 44.7367H124.429Z" fill="#877F74"/>
<path d="M133.093 48.197V40.1665H135.037V41.1295C135.207 40.8575 135.382 40.6453 135.562 40.4929C135.753 40.3406 135.945 40.2263 136.136 40.1502C136.338 40.0631 136.539 40.0087 136.741 39.9869C136.943 39.9652 137.15 39.9543 137.362 39.9543H137.633V42.1251C137.442 42.0925 137.251 42.0762 137.06 42.0762C135.796 42.0762 135.164 42.7236 135.164 44.0185V48.197H133.093Z" fill="#877F74"/>
<path d="M146.8 48.197C146.8 47.6964 146.837 47.2285 146.912 46.7933C146.997 46.358 147.151 45.9282 147.374 45.5038C147.607 45.0794 147.931 44.6496 148.345 44.2144C148.759 43.7791 149.306 43.3112 149.986 42.8107C150.368 42.5386 150.681 42.2938 150.926 42.0762C151.181 41.8585 151.382 41.6518 151.531 41.4559C151.68 41.2601 151.786 41.0642 151.85 40.8683C151.913 40.6725 151.945 40.4603 151.945 40.2318C151.945 39.9597 151.908 39.7312 151.834 39.5462C151.759 39.3613 151.653 39.2144 151.515 39.1055C151.388 38.9967 151.234 38.9206 151.053 38.877C150.873 38.8335 150.681 38.8118 150.48 38.8118C150.002 38.8118 149.625 38.9532 149.349 39.2361C149.073 39.5082 148.935 40.0087 148.935 40.7378H146.943C146.943 39.5626 147.241 38.6485 147.836 37.9956C148.441 37.3319 149.29 37 150.384 37C150.915 37 151.398 37.0653 151.834 37.1959C152.28 37.3264 152.657 37.5223 152.965 37.7835C153.283 38.0446 153.527 38.3765 153.697 38.7791C153.878 39.1708 153.968 39.6333 153.968 40.1665C153.968 40.58 153.915 40.9554 153.809 41.2927C153.703 41.63 153.527 41.9619 153.283 42.2884C153.05 42.6148 152.736 42.9467 152.343 43.284C151.95 43.6213 151.473 43.9967 150.91 44.4102C150.506 44.7149 150.166 45.0468 149.89 45.4059C149.614 45.7541 149.466 46.0696 149.444 46.3526H154V48.197H146.8Z" fill="#877F74"/>
<path d="M1 28.9249L4.25409 0.719946L9.35619 0.931695L12.3692 13.8907L16.0652 0.211751L22.8948 0.0847009L24.0599 30.4071H17.5919L17.2705 11.0956L13.7753 27.6544L10.1597 27.4426L7.62871 13.6366L5.9414 28.7978L1 28.9249Z" fill="#53BB7B"/>
<path d="M35.3582 30.3648C28.1269 30.3648 25.7164 22.9112 25.7164 16.3046C25.7164 11.2227 27.0422 2.24454 35.3582 2.24454C43.9152 2.24454 45.0401 11.0533 45.0401 16.3046C45.0401 21.1749 43.2725 30.3648 35.3582 30.3648ZM32.4657 18.1257C32.4657 19.9044 32.6263 25.3251 35.077 25.3251C38.1302 25.3251 38.2909 17.194 38.2909 15.0765C38.2909 13.3825 38.0498 7.70765 35.7599 7.70765C32.8674 7.70765 32.4657 16.1352 32.4657 18.1257Z" fill="#53BB7B"/>
<path d="M56.3475 30.3648C49.1162 30.3648 46.7058 22.9112 46.7058 16.3046C46.7058 11.2227 48.0315 2.24454 56.3475 2.24454C64.9046 2.24454 66.0294 11.0533 66.0294 16.3046C66.0294 21.1749 64.2618 30.3648 56.3475 30.3648ZM53.455 18.1257C53.455 19.9044 53.6157 25.3251 56.0663 25.3251C59.1195 25.3251 59.2802 17.194 59.2802 15.0765C59.2802 13.3825 59.0392 7.70765 56.7493 7.70765C53.8567 7.70765 53.455 16.1352 53.455 18.1257Z" fill="#53BB7B"/>
<path d="M67.6951 27.0191C67.6951 25.2828 69.3021 23.5041 71.1501 23.5041C72.8775 23.5041 74.364 24.9863 74.364 26.7227C74.364 28.2896 73.0784 30.5342 71.1501 30.5342C69.3021 30.5342 67.6951 28.7555 67.6951 27.0191Z" fill="#53BB7B"/>
<path d="M76.0516 29.8989L81.676 1.48224L90.7553 1.99044L93.929 31L87.8628 30.6189L87.0995 23.8005L83.4035 24.0546L82.1581 30.3224L76.0516 29.8989ZM84.3676 18.9727L86.537 18.8033L85.8942 8.04645C85.372 11.3074 84.3676 18.9727 84.3676 18.9727Z" fill="#53BB7B"/>
<path d="M96.374 29.5178L96.5749 1.52459L97.0971 1.31284C98.9451 0.677597 101.677 0 103.806 0C108.989 0 111.279 3.38798 111.279 7.6653C111.279 10.5874 110.154 13.1708 108.065 15.2459C111.68 17.4904 112.484 21.5137 112.484 25.0287C112.484 25.918 112.444 26.765 112.363 27.6544L112.283 28.332H107.382V27.3579C107.382 23.6735 106.498 19.2691 102.28 19.2691L101.998 28.9672L96.374 29.5178ZM102.641 4.87022L102.44 13.2131C104.128 12.2814 105.333 10.0369 105.333 8.1735C105.333 6.52186 104.168 4.91257 102.641 4.87022Z" fill="#53BB7B"/>
<path d="M114.146 28.9249L117.4 0.719946L122.502 0.931695L125.516 13.8907L129.212 0.211751L136.041 0.0847009L137.206 30.4071H130.738L130.417 11.0956L126.922 27.6544L123.306 27.4426L120.775 13.6366L119.088 28.7978L114.146 28.9249Z" fill="#53BB7B"/>
<path d="M143.823 30.026L144.626 14.7377L138.078 3.21858L143.1 0.211751L147.76 9.65574L152.219 1.65164L157 5.03962L156.638 5.54782C156.478 5.88661 154.831 8.2582 153.304 10.5874C152.581 11.7309 151.777 12.8743 151.255 13.7213C150.974 14.1872 150.733 14.4836 150.572 14.7377C150.492 14.9071 150.411 14.9918 150.371 15.0765V15.0342C150.13 15.8388 150.09 16.5164 150.09 17.194C150.13 17.9563 150.211 18.7609 150.13 19.735L149.568 30.3224L143.823 30.026Z" fill="#53BB7B"/>
</svg>
