<svg width="21" height="25" viewBox="0 0 21 25" fill="none" xmlns="http://www.w3.org/2000/svg">
<path d="M17.5 8.33333H19.8333C20.1428 8.33333 20.4395 8.45876 20.6583 8.68202C20.8771 8.90527 21 9.20808 21 9.52381V23.8095C21 24.1253 20.8771 24.4281 20.6583 24.6513C20.4395 24.8746 20.1428 25 19.8333 25H1.16667C0.857247 25 0.560501 24.8746 0.341709 24.6513C0.122916 24.4281 0 24.1253 0 23.8095V9.52381C0 9.20808 0.122916 8.90527 0.341709 8.68202C0.560501 8.45876 0.857247 8.33333 1.16667 8.33333H3.5V7.14286C3.5 5.24845 4.2375 3.43164 5.55025 2.09209C6.86301 0.752549 8.64348 0 10.5 0C12.3565 0 14.137 0.752549 15.4497 2.09209C16.7625 3.43164 17.5 5.24845 17.5 7.14286V8.33333ZM9.33333 17.5381V20.2381H11.6667V17.5381C12.1115 17.276 12.4592 16.8715 12.6557 16.3873C12.8523 15.903 12.8868 15.3662 12.7538 14.8599C12.6209 14.3536 12.3279 13.9063 11.9204 13.5872C11.5129 13.2681 11.0136 13.0952 10.5 13.0952C9.98635 13.0952 9.48706 13.2681 9.07956 13.5872C8.67205 13.9063 8.37911 14.3536 8.24617 14.8599C8.11323 15.3662 8.14772 15.903 8.34428 16.3873C8.54084 16.8715 8.8885 17.276 9.33333 17.5381ZM15.1667 8.33333V7.14286C15.1667 5.87992 14.675 4.66871 13.7998 3.77568C12.9247 2.88265 11.7377 2.38095 10.5 2.38095C9.26232 2.38095 8.07534 2.88265 7.20017 3.77568C6.325 4.66871 5.83333 5.87992 5.83333 7.14286V8.33333H15.1667Z" fill="#929292"/>
</svg>
