<svg width="116" height="114" viewBox="0 0 116 114" fill="none" xmlns="http://www.w3.org/2000/svg">
<g filter="url(#filter0_i_351_152)">
<path d="M53.7817 78.4099C53.623 78.9643 53.0287 79.2693 52.4857 79.0749L42.8185 75.6137C42.3087 75.4311 42.0255 74.8867 42.1687 74.3645V74.3645C42.9115 71.9223 43.2807 69.5597 44.1811 67.2942C46.8824 60.4977 51.1205 54.9963 57.5842 51.064C61.6119 48.6727 66.719 44.9995 68.3241 40.961C69.342 38.4 68.6095 35.9417 66.2473 35.0029C61.9166 33.2816 58.2871 38.1123 57.174 42.3464V42.3464C56.9967 42.9458 56.3383 43.2588 55.7615 43.0179L46.215 39.0315C45.792 38.8549 45.5343 38.4225 45.5801 37.9664V37.9664C45.6383 37.5333 45.8341 37.0408 45.9907 36.6468C50.0622 26.4028 57.8717 16.5039 70.1747 21.3938C79.8202 25.2275 85.3708 37.3569 81.495 47.1084C78.5196 54.5944 71.4485 59.7681 64.6895 63.5831C59.4628 66.4103 55.3444 72.7576 53.7817 78.4099V78.4099ZM36.5246 85.1241C37.8557 81.7751 41.7659 79.6793 45.6045 81.2049C49.3446 82.6915 50.8477 86.9388 49.5166 90.2878C48.2246 93.5383 44.1175 95.5559 40.4759 94.1084C36.6373 92.5828 35.1935 88.4731 36.5246 85.1241Z" fill="url(#paint0_linear_351_152)"/>
</g>
<path d="M60.1581 36.0804C58.493 37.6762 57.2687 40.0258 56.6927 42.2106C56.5971 42.5209 56.2546 42.682 55.9541 42.5565L46.4076 38.5701C46.1901 38.4793 46.0566 38.2582 46.0769 38.0239C46.1269 37.6655 46.294 37.2372 46.4553 36.8315C48.4764 31.7464 51.4052 26.8039 55.3049 23.7382C59.1721 20.6979 64.0134 19.483 69.99 21.8585C79.3898 25.5945 84.7999 37.4395 81.0304 46.9237C78.1231 54.2384 71.1894 59.3397 64.4475 63.1455C59.0711 66.0559 54.8882 72.5338 53.3005 78.2741C53.2205 78.5496 52.9247 78.701 52.6543 78.6042L42.987 75.1429C42.7251 75.0491 42.5788 74.7707 42.6494 74.5023C42.9416 73.5406 43.1776 72.5879 43.4067 71.6631C43.4715 71.4015 43.5358 71.1421 43.6006 70.8855C43.8972 69.7106 44.2082 68.5798 44.6457 67.4788C47.3118 60.7711 51.4834 55.3615 57.8417 51.4926C59.8692 50.2888 62.1796 48.7558 64.1907 47.0075C66.195 45.2651 67.9428 43.2741 68.7888 41.1457C69.332 39.779 69.4233 38.401 69.0275 37.2153C68.6283 36.0195 67.7461 35.0605 66.432 34.5382C64.0256 33.5818 61.8348 34.4735 60.1581 36.0804ZM36.9892 85.3087C38.2277 82.1928 41.8608 80.255 45.4198 81.6696C48.8849 83.0468 50.2885 86.992 49.0519 90.1031C47.8582 93.1065 44.0362 94.9855 40.6605 93.6438C37.0927 92.2257 35.7544 88.4155 36.9892 85.3087Z" stroke="url(#paint1_linear_351_152)"/>
<g filter="url(#filter1_i_351_152)">
<path d="M55.0778 75.1462C54.9191 75.7007 54.3249 76.0056 53.7819 75.8112L44.1146 72.35C43.6048 72.1674 43.3216 71.623 43.4649 71.1008V71.1008C44.2076 68.6586 44.5768 66.296 45.4772 64.0305C48.1786 57.234 52.4166 51.7327 58.8804 47.8003C62.9081 45.409 68.0151 41.7358 69.6202 37.6973C70.6381 35.1363 69.9056 32.6781 67.5434 31.7392C63.2128 30.0179 59.5832 34.8486 58.4702 39.0827V39.0827C58.2928 39.6822 57.6345 39.9951 57.0576 39.7542L47.5111 35.7678C47.0882 35.5912 46.8304 35.1588 46.8763 34.7028V34.7028C46.9344 34.2696 47.1302 33.7771 47.2868 33.3831C51.3584 23.1391 59.1678 13.2402 71.4708 18.1301C81.1164 21.9639 86.667 34.0932 82.7911 43.8447C79.8158 51.3307 72.7446 56.5044 65.9856 60.3194C60.7589 63.1466 56.6405 69.494 55.0778 75.1462V75.1462ZM37.8207 81.8604C39.1518 78.5114 43.0621 76.4156 46.9006 77.9413C50.6407 79.4278 52.1438 83.6752 50.8127 87.0242C49.5208 90.2746 45.4137 92.2922 41.772 90.8448C37.9335 89.3191 36.4897 85.2094 37.8207 81.8604Z" fill="url(#paint2_linear_351_152)"/>
</g>
<path d="M61.4542 32.8167C59.7892 34.4125 58.5648 36.7622 57.9889 38.947C57.8933 39.2572 57.5507 39.4183 57.2503 39.2928L47.7038 35.3064C47.4862 35.2156 47.3527 34.9945 47.3731 34.7602C47.423 34.4019 47.5902 33.9735 47.7514 33.5678C49.7725 28.4828 52.7013 23.5403 56.601 20.4745C60.4683 17.4342 65.3096 16.2194 71.2862 18.5948C80.6859 22.3308 86.0961 34.1758 82.3265 43.66C79.4192 50.9747 72.4856 56.0761 65.7437 59.8819C60.3672 62.7922 56.1843 69.2701 54.5966 75.0104C54.5167 75.286 54.2208 75.4373 53.9504 75.3405L44.2831 71.8792C44.0212 71.7855 43.875 71.507 43.9456 71.2386C44.2378 70.2769 44.4738 69.3242 44.7029 68.3994C44.7677 68.1378 44.8319 67.8785 44.8967 67.6218C45.1933 66.4469 45.5043 65.3161 45.9419 64.2152C48.6079 57.5074 52.7795 52.0978 59.1379 48.2289C61.1653 47.0251 63.4757 45.4922 65.4868 43.7439C67.4912 42.0014 69.239 40.0104 70.0849 37.882C70.6281 36.5153 70.7194 35.1374 70.3236 33.9517C69.9245 32.7558 69.0422 31.7968 67.7281 31.2745C65.3218 30.3181 63.1309 31.2098 61.4542 32.8167ZM38.2854 82.0451C39.5238 78.9291 43.157 76.9914 46.7159 78.4059C50.181 79.7832 51.5846 83.7283 50.3481 86.8395C49.1543 89.8429 45.3323 91.7218 41.9567 90.3801C38.3889 88.9621 37.0506 85.1518 38.2854 82.0451Z" stroke="url(#paint3_linear_351_152)"/>
<defs>
<filter id="filter0_i_351_152" x="36.0403" y="20.1055" width="46.7008" height="78.4785" filterUnits="userSpaceOnUse" color-interpolation-filters="sRGB">
<feFlood flood-opacity="0" result="BackgroundImageFix"/>
<feBlend mode="normal" in="SourceGraphic" in2="BackgroundImageFix" result="shape"/>
<feColorMatrix in="SourceAlpha" type="matrix" values="0 0 0 0 0 0 0 0 0 0 0 0 0 0 0 0 0 0 127 0" result="hardAlpha"/>
<feOffset dy="4"/>
<feGaussianBlur stdDeviation="3"/>
<feComposite in2="hardAlpha" operator="arithmetic" k2="-1" k3="1"/>
<feColorMatrix type="matrix" values="0 0 0 0 1 0 0 0 0 1 0 0 0 0 1 0 0 0 0.6 0"/>
<feBlend mode="normal" in2="shape" result="effect1_innerShadow_351_152"/>
</filter>
<filter id="filter1_i_351_152" x="37.3364" y="16.8418" width="46.7008" height="78.4785" filterUnits="userSpaceOnUse" color-interpolation-filters="sRGB">
<feFlood flood-opacity="0" result="BackgroundImageFix"/>
<feBlend mode="normal" in="SourceGraphic" in2="BackgroundImageFix" result="shape"/>
<feColorMatrix in="SourceAlpha" type="matrix" values="0 0 0 0 0 0 0 0 0 0 0 0 0 0 0 0 0 0 127 0" result="hardAlpha"/>
<feOffset dy="4"/>
<feGaussianBlur stdDeviation="3"/>
<feComposite in2="hardAlpha" operator="arithmetic" k2="-1" k3="1"/>
<feColorMatrix type="matrix" values="0 0 0 0 1 0 0 0 0 1 0 0 0 0 1 0 0 0 0.6 0"/>
<feBlend mode="normal" in2="shape" result="effect1_innerShadow_351_152"/>
</filter>
<linearGradient id="paint0_linear_351_152" x1="54.7772" y1="17.0348" x2="98.6649" y2="67.8089" gradientUnits="userSpaceOnUse">
<stop stop-color="#75463C"/>
<stop offset="0.2" stop-color="#62362D"/>
<stop offset="0.395" stop-color="#A1503D"/>
<stop offset="0.491919" stop-color="#CA7561"/>
<stop offset="0.67" stop-color="#6B453C"/>
<stop offset="0.83" stop-color="#62362D"/>
<stop offset="0.955" stop-color="#63392F"/>
</linearGradient>
<linearGradient id="paint1_linear_351_152" x1="71.651" y1="21.9806" x2="46.8718" y2="84.3249" gradientUnits="userSpaceOnUse">
<stop stop-color="white" stop-opacity="0.53"/>
<stop offset="1" stop-color="white" stop-opacity="0"/>
</linearGradient>
<linearGradient id="paint2_linear_351_152" x1="56.0733" y1="13.7711" x2="99.961" y2="64.5452" gradientUnits="userSpaceOnUse">
<stop stop-color="#BC6554"/>
<stop offset="0.2" stop-color="#62362D"/>
<stop offset="0.395" stop-color="#A1503D"/>
<stop offset="0.491919" stop-color="#CA7561"/>
<stop offset="0.67" stop-color="#E2AA9D"/>
<stop offset="0.83" stop-color="#62362D"/>
<stop offset="0.955" stop-color="#AA5946"/>
</linearGradient>
<linearGradient id="paint3_linear_351_152" x1="72.9472" y1="18.7169" x2="48.1679" y2="81.0612" gradientUnits="userSpaceOnUse">
<stop stop-color="white" stop-opacity="0.53"/>
<stop offset="1" stop-color="white" stop-opacity="0"/>
</linearGradient>
</defs>
</svg>
