<svg width="134" height="164" viewBox="0 0 134 164" fill="none" xmlns="http://www.w3.org/2000/svg">
<g filter="url(#filter0_i_351_149)">
<path d="M93.4658 112.295C94.0815 113.152 93.8451 114.351 92.9501 114.91L77.0168 124.857C76.1765 125.381 75.074 125.17 74.4871 124.372C71.8248 120.536 68.853 117.326 66.6233 113.464C59.9339 101.878 56.8464 89.5552 58.5353 75.8184C59.6724 67.3257 60.1943 55.8299 56.2195 48.9453C53.6988 44.5795 49.34 42.8421 45.3131 45.1671C37.9304 49.4294 40.7457 60.118 45.5595 66.5182C46.2185 67.4528 45.9208 68.7525 44.9208 69.3071L28.3708 78.4852C27.6376 78.8919 26.7247 78.7712 26.1222 78.1881C25.5666 77.6133 25.0819 76.7737 24.6941 76.1021C14.6116 58.6387 9.26442 36.2024 30.2379 24.0934C46.6811 14.5999 70.3842 20.3933 79.982 37.0171C87.35 49.7788 86.7536 65.7954 84.5613 79.8229C82.6897 90.5307 87.127 103.641 93.4658 112.295ZM83.5256 144.677C80.2294 138.968 81.6574 130.979 88.2011 127.201C94.5771 123.52 102.377 126.181 105.674 131.89C108.873 137.431 107.109 145.614 100.901 149.198C94.3575 152.976 86.8218 150.386 83.5256 144.677Z" fill="url(#paint0_linear_351_149)"/>
</g>
<path d="M93.0609 112.589C93.5066 113.211 93.3347 114.08 92.6853 114.485L76.752 124.433C76.1353 124.818 75.3266 124.664 74.8937 124.081C73.8506 122.578 72.7584 121.168 71.6907 119.79C71.3878 119.399 71.0869 119.011 70.7896 118.623C69.4378 116.862 68.154 115.115 67.0563 113.214C60.4147 101.71 57.358 89.4969 59.0312 75.8822C59.6018 71.6201 60.0199 66.5916 59.7938 61.7555C59.5681 56.9283 58.6986 52.2393 56.6525 48.6953C55.3458 46.432 53.5417 44.8142 51.5011 44.0769C49.4503 43.3359 47.2005 43.5 45.0631 44.734C41.1472 46.9949 39.9705 50.9611 40.3649 55.0885C40.7578 59.2002 42.7067 63.5547 45.1549 66.8121C45.6372 67.5032 45.4162 68.4606 44.6783 68.8698L28.1283 78.048C27.5899 78.3466 26.9201 78.2597 26.4757 77.8344C25.9736 77.3125 25.5215 76.5351 25.1271 75.8521C20.1057 67.1548 16.2958 57.2702 16.32 48.0912C16.3441 38.9534 20.1642 30.4868 30.4879 24.5264C46.7021 15.1652 70.095 20.8924 79.549 37.2671C86.8248 49.8692 86.2569 65.7331 84.068 79.7414C82.1687 90.6183 86.6685 103.86 93.0609 112.589ZM83.9586 144.427C80.7878 138.935 82.1679 131.262 88.4511 127.634C94.5708 124.101 102.072 126.652 105.241 132.14C108.307 137.451 106.611 145.324 100.651 148.765C94.3598 152.398 87.1245 149.911 83.9586 144.427Z" stroke="url(#paint1_linear_351_149)"/>
<g filter="url(#filter1_i_351_149)">
<path d="M90.2555 106.735C90.8712 107.592 90.6347 108.79 89.7398 109.349L73.8065 119.296C72.9662 119.821 71.8637 119.61 71.2768 118.812C68.6145 114.975 65.6427 111.766 63.4129 107.903C56.7236 96.3171 53.6361 83.9946 55.325 70.2578C56.4621 61.7652 56.984 50.2694 53.0091 43.3848C50.4885 39.0189 46.1297 37.2816 42.1028 39.6065C34.7201 43.8689 37.5354 54.5574 42.3492 60.9577C43.0082 61.8922 42.7105 63.1919 41.7105 63.7465L25.1605 72.9247C24.4272 73.3313 23.5143 73.2107 22.9119 72.6276C22.3563 72.0528 21.8716 71.2132 21.4838 70.5415C11.4013 53.0781 6.05409 30.6419 27.0276 18.5328C43.4708 9.03934 67.1739 14.8328 76.7717 31.4566C84.1396 44.2183 83.5433 60.2349 81.351 74.2623C79.4794 84.9702 83.9166 98.0806 90.2555 106.735ZM80.3153 139.117C77.0191 133.407 78.4471 125.419 84.9908 121.641C91.3667 117.959 99.1671 120.62 102.463 126.329C105.663 131.871 103.899 140.053 97.6909 143.638C91.1471 147.416 83.6115 144.826 80.3153 139.117Z" fill="url(#paint2_linear_351_149)"/>
</g>
<path d="M89.8505 107.028C90.2963 107.65 90.1243 108.52 89.475 108.925L73.5417 118.872C72.925 119.257 72.1163 119.104 71.6833 118.52C70.6403 117.018 69.5481 115.608 68.4804 114.23C68.1775 113.839 67.8766 113.45 67.5793 113.063C66.2275 111.301 64.9437 109.555 63.8459 107.653C57.2043 96.1498 54.1476 83.9364 55.8209 70.3216C56.3915 66.0596 56.8096 61.031 56.5835 56.1949C56.3578 51.3677 55.4883 46.6788 53.4421 43.1348C52.1354 40.8715 50.3314 39.2537 48.2907 38.5163C46.24 37.7754 43.9902 37.9395 41.8528 39.1735C37.9368 41.4344 36.7602 45.4005 37.1546 49.528C37.5475 53.6396 39.4964 57.9942 41.9446 61.2516C42.4269 61.9426 42.2058 62.9001 41.468 63.3093L24.918 72.4874C24.3795 72.786 23.7097 72.6991 23.2654 72.2738C22.7633 71.752 22.3112 70.9746 21.9168 70.2915C16.8954 61.5942 13.0854 51.7097 13.1097 42.5306C13.1338 33.3928 16.9539 24.9263 27.2776 18.9659C43.4917 9.60461 66.8847 15.3319 76.3386 31.7066C83.6144 44.3086 83.0465 60.1726 80.8577 74.1809C78.9584 85.0578 83.4582 98.2997 89.8505 107.028ZM80.7483 138.867C77.5775 133.375 78.9576 125.701 85.2408 122.074C91.3605 118.54 98.8621 121.092 102.03 126.579C105.097 131.89 103.401 139.764 97.4409 143.205C91.1495 146.837 83.9142 144.35 80.7483 138.867Z" stroke="url(#paint3_linear_351_149)"/>
<defs>
<filter id="filter0_i_351_149" x="15.8199" y="19.5273" width="91.4184" height="135.447" filterUnits="userSpaceOnUse" color-interpolation-filters="sRGB">
<feFlood flood-opacity="0" result="BackgroundImageFix"/>
<feBlend mode="normal" in="SourceGraphic" in2="BackgroundImageFix" result="shape"/>
<feColorMatrix in="SourceAlpha" type="matrix" values="0 0 0 0 0 0 0 0 0 0 0 0 0 0 0 0 0 0 127 0" result="hardAlpha"/>
<feOffset dy="4"/>
<feGaussianBlur stdDeviation="3"/>
<feComposite in2="hardAlpha" operator="arithmetic" k2="-1" k3="1"/>
<feColorMatrix type="matrix" values="0 0 0 0 1 0 0 0 0 1 0 0 0 0 1 0 0 0 0.6 0"/>
<feBlend mode="normal" in2="shape" result="effect1_innerShadow_351_149"/>
</filter>
<filter id="filter1_i_351_149" x="12.6096" y="13.9668" width="91.4184" height="135.447" filterUnits="userSpaceOnUse" color-interpolation-filters="sRGB">
<feFlood flood-opacity="0" result="BackgroundImageFix"/>
<feBlend mode="normal" in="SourceGraphic" in2="BackgroundImageFix" result="shape"/>
<feColorMatrix in="SourceAlpha" type="matrix" values="0 0 0 0 0 0 0 0 0 0 0 0 0 0 0 0 0 0 127 0" result="hardAlpha"/>
<feOffset dy="4"/>
<feGaussianBlur stdDeviation="3"/>
<feComposite in2="hardAlpha" operator="arithmetic" k2="-1" k3="1"/>
<feColorMatrix type="matrix" values="0 0 0 0 1 0 0 0 0 1 0 0 0 0 1 0 0 0 0.6 0"/>
<feBlend mode="normal" in2="shape" result="effect1_innerShadow_351_149"/>
</filter>
<linearGradient id="paint0_linear_351_149" x1="23.9166" y1="56.7759" x2="110.434" y2="49.8143" gradientUnits="userSpaceOnUse">
<stop stop-color="#804629"/>
<stop offset="0.325272" stop-color="#928336"/>
<stop offset="0.535488" stop-color="#545346"/>
<stop offset="0.769917" stop-color="#615321"/>
<stop offset="1" stop-color="#D4A041"/>
</linearGradient>
<linearGradient id="paint1_linear_351_149" x1="32.7547" y1="22.6403" x2="94.1162" y2="128.921" gradientUnits="userSpaceOnUse">
<stop stop-color="white" stop-opacity="0.53"/>
<stop offset="1" stop-color="white" stop-opacity="0"/>
</linearGradient>
<linearGradient id="paint2_linear_351_149" x1="20.7063" y1="51.2153" x2="107.224" y2="44.2538" gradientUnits="userSpaceOnUse">
<stop stop-color="#8C421D"/>
<stop offset="0.325272" stop-color="#FBE67B"/>
<stop offset="0.535488" stop-color="#FCFBE7"/>
<stop offset="0.769917" stop-color="#F7D14E"/>
<stop offset="1" stop-color="#D4A041"/>
</linearGradient>
<linearGradient id="paint3_linear_351_149" x1="29.5444" y1="17.0798" x2="90.9059" y2="123.361" gradientUnits="userSpaceOnUse">
<stop stop-color="white" stop-opacity="0.53"/>
<stop offset="1" stop-color="white" stop-opacity="0"/>
</linearGradient>
</defs>
</svg>
