<svg width="178" height="276" viewBox="0 0 178 276" fill="none" xmlns="http://www.w3.org/2000/svg">
<g filter="url(#filter0_i_351_146)">
<path d="M84.4723 205.842C84.1837 207.605 82.4644 208.758 80.7231 208.355L49.7213 201.185C48.0864 200.807 47.0187 199.233 47.2715 197.574C48.6778 189.789 48.9629 182.385 50.9182 175.087C56.7842 153.195 67.8467 134.736 86.3249 120.304C97.8602 111.493 112.256 98.3472 115.742 85.3389C117.952 77.0897 114.812 69.7872 107.203 67.7484C93.2535 64.0107 83.8222 80.1867 81.9218 93.6198C81.5918 95.5287 79.6783 96.729 77.816 96.1954L46.9966 87.3648C45.6312 86.9736 44.6822 85.7355 44.659 84.3153C44.682 82.9613 45.1071 81.3749 45.4472 80.1058C54.2886 47.109 74.7593 13.8277 114.388 24.4463C145.458 32.7712 166.911 68.1046 158.495 99.515C152.034 123.628 132.133 142.1 112.704 156.277C97.6353 166.862 87.2459 187.882 84.4723 205.842ZM33.7755 232.724C36.666 221.937 47.9463 214.077 60.3106 217.39C72.3578 220.619 78.5142 233.15 75.6238 243.937C72.8183 254.407 60.9039 262.097 49.1737 258.954C36.8095 255.641 30.885 243.512 33.7755 232.724Z" fill="url(#paint0_linear_351_146)"/>
</g>
<path d="M83.9785 205.763C83.7354 207.241 82.2948 208.206 80.8357 207.868L49.8339 200.698C48.4558 200.379 47.5551 199.054 47.7648 197.656C48.314 194.614 48.6934 191.627 49.0655 188.697C49.1713 187.864 49.2764 187.036 49.3847 186.213C49.8756 182.481 50.4324 178.832 51.4012 175.217C57.2425 153.417 68.2497 135.056 86.6307 120.699C92.4108 116.284 98.9181 110.775 104.422 104.732C109.919 98.6951 114.451 92.0859 116.224 85.4683C117.354 81.2541 117.127 77.2415 115.607 74.0024C114.083 70.7535 111.275 68.3219 107.332 67.2655C100.107 65.3295 94.0758 68.5759 89.6584 73.9267C85.2511 79.2654 82.3894 86.7555 81.4279 93.5418C81.1449 95.1534 79.5277 96.1658 77.9537 95.7148L47.1344 86.8841C45.9831 86.5543 45.1821 85.512 45.1591 84.3153C45.1825 83.0366 45.5866 81.5172 45.9301 80.2352C50.3406 63.7752 57.6383 47.3031 68.725 36.2748C79.7825 25.2755 94.6263 19.6687 114.259 24.9292C145.073 33.1857 166.354 68.2531 158.012 99.3856C151.599 123.321 131.826 141.704 112.413 155.87C97.2049 166.555 86.7666 187.713 83.9785 205.763ZM34.2585 232.854C37.084 222.308 48.1075 214.638 60.1811 217.873C71.9425 221.025 77.965 233.268 75.1408 243.808C72.4042 254.021 60.7568 261.54 49.3031 258.471C37.2203 255.233 31.4355 243.389 34.2585 232.854Z" stroke="url(#paint1_linear_351_146)"/>
<g filter="url(#filter1_i_351_146)">
<path d="M87.2877 195.336C86.9991 197.1 85.2798 198.252 83.5385 197.85L52.5367 190.679C50.9018 190.301 49.8341 188.727 50.0869 187.068C51.4932 179.284 51.7783 171.879 53.7337 164.581C59.5996 142.689 70.6621 124.23 89.1403 109.798C100.676 100.987 115.071 87.8414 118.557 74.833C120.767 66.5838 117.627 59.2813 110.018 57.2426C96.0689 53.5048 86.6377 69.6808 84.7372 83.1139C84.4072 85.0228 82.4937 86.2232 80.6314 85.6896L49.8121 76.8589C48.4466 76.4677 47.4976 75.2297 47.4744 73.8095C47.4975 72.4554 47.9225 70.869 48.2626 69.5999C57.1041 36.6031 77.5748 3.32184 117.204 13.9404C148.273 22.2654 169.727 57.5988 161.31 89.0092C154.849 113.122 134.949 131.594 115.52 145.771C100.451 156.356 90.0613 177.376 87.2877 195.336ZM36.5909 222.218C39.4814 211.431 50.7617 203.572 63.126 206.885C75.1732 210.113 81.3297 222.644 78.4392 233.431C75.6337 243.902 63.7193 251.591 51.9891 248.448C39.6249 245.135 33.7004 233.006 36.5909 222.218Z" fill="url(#paint2_linear_351_146)"/>
</g>
<path d="M86.7939 195.257C86.5508 196.735 85.1102 197.7 83.6512 197.362L52.6494 190.192C51.2713 189.873 50.3706 188.548 50.5802 187.15C51.1294 184.108 51.5088 181.121 51.881 178.191C51.9867 177.358 52.0918 176.531 52.2001 175.707C52.691 171.975 53.2478 168.326 54.2166 164.711C60.0579 142.911 71.0651 124.55 89.4461 110.193C95.2263 105.778 101.734 100.269 107.237 94.2261C112.734 88.1893 117.267 81.58 119.04 74.9624C120.169 70.7482 119.942 66.7357 118.422 63.4965C116.898 60.2476 114.09 57.816 110.148 56.7596C102.922 54.8236 96.8912 58.0701 92.4738 63.4209C88.0665 68.7595 85.2048 76.2496 84.2433 83.0359C83.9604 84.6475 82.3432 85.6599 80.7691 85.2089L49.9498 76.3783C48.7985 76.0484 47.9976 75.0062 47.9745 73.8095C47.9979 72.5307 48.402 71.0113 48.7456 69.7293C53.156 53.2693 60.4537 36.7973 71.5405 25.7689C82.598 14.7697 97.4417 9.16281 117.074 14.4234C147.888 22.6799 169.169 57.7472 160.827 88.8798C154.414 112.815 134.642 131.198 115.228 145.364C100.02 156.049 89.582 177.207 86.7939 195.257ZM37.0739 222.348C39.8995 211.803 50.9229 204.132 62.9966 207.368C74.758 210.519 80.7805 222.762 77.9562 233.302C75.2196 243.515 63.5722 251.034 52.1186 247.965C40.0357 244.727 34.2509 232.883 37.0739 222.348Z" stroke="url(#paint3_linear_351_146)"/>
<defs>
<filter id="filter0_i_351_146" x="33.0538" y="22.4336" width="127.281" height="241.23" filterUnits="userSpaceOnUse" color-interpolation-filters="sRGB">
<feFlood flood-opacity="0" result="BackgroundImageFix"/>
<feBlend mode="normal" in="SourceGraphic" in2="BackgroundImageFix" result="shape"/>
<feColorMatrix in="SourceAlpha" type="matrix" values="0 0 0 0 0 0 0 0 0 0 0 0 0 0 0 0 0 0 127 0" result="hardAlpha"/>
<feOffset dy="4"/>
<feGaussianBlur stdDeviation="3"/>
<feComposite in2="hardAlpha" operator="arithmetic" k2="-1" k3="1"/>
<feColorMatrix type="matrix" values="0 0 0 0 1 0 0 0 0 1 0 0 0 0 1 0 0 0 0.6 0"/>
<feBlend mode="normal" in2="shape" result="effect1_innerShadow_351_146"/>
</filter>
<filter id="filter1_i_351_146" x="35.8693" y="11.9277" width="127.281" height="241.23" filterUnits="userSpaceOnUse" color-interpolation-filters="sRGB">
<feFlood flood-opacity="0" result="BackgroundImageFix"/>
<feBlend mode="normal" in="SourceGraphic" in2="BackgroundImageFix" result="shape"/>
<feColorMatrix in="SourceAlpha" type="matrix" values="0 0 0 0 0 0 0 0 0 0 0 0 0 0 0 0 0 0 127 0" result="hardAlpha"/>
<feOffset dy="4"/>
<feGaussianBlur stdDeviation="3"/>
<feComposite in2="hardAlpha" operator="arithmetic" k2="-1" k3="1"/>
<feColorMatrix type="matrix" values="0 0 0 0 1 0 0 0 0 1 0 0 0 0 1 0 0 0 0.6 0"/>
<feBlend mode="normal" in2="shape" result="effect1_innerShadow_351_146"/>
</filter>
<linearGradient id="paint0_linear_351_146" x1="87.5355" y1="250.334" x2="-26.212" y2="139.805" gradientUnits="userSpaceOnUse">
<stop stop-color="#090909"/>
<stop offset="0.451645" stop-color="#696969"/>
<stop offset="0.665" stop-color="#F9F8F6"/>
<stop offset="0.825" stop-color="#D4D4D4"/>
<stop offset="1" stop-color="#7F7F7F"/>
</linearGradient>
<linearGradient id="paint1_linear_351_146" x1="119.144" y1="25.7205" x2="65.3353" y2="226.537" gradientUnits="userSpaceOnUse">
<stop stop-color="white" stop-opacity="0.53"/>
<stop offset="1" stop-color="white" stop-opacity="0"/>
</linearGradient>
<linearGradient id="paint2_linear_351_146" x1="90.3509" y1="239.828" x2="-23.3966" y2="129.299" gradientUnits="userSpaceOnUse">
<stop stop-color="#A8A8A6"/>
<stop offset="0.451645" stop-color="#696969"/>
<stop offset="0.665" stop-color="#F9F8F6"/>
<stop offset="0.825" stop-color="#D4D4D4"/>
<stop offset="1" stop-color="#7F7F7F"/>
</linearGradient>
<linearGradient id="paint3_linear_351_146" x1="121.959" y1="15.2146" x2="68.1507" y2="216.031" gradientUnits="userSpaceOnUse">
<stop stop-color="white" stop-opacity="0.53"/>
<stop offset="1" stop-color="white" stop-opacity="0"/>
</linearGradient>
</defs>
</svg>
