<svg width="25" height="25" viewBox="0 0 25 25" fill="none" xmlns="http://www.w3.org/2000/svg">
<path d="M9.58369 24.2714C3.18597 22.5571 -0.610482 15.9815 1.10378 9.58377C2.81804 3.18605 9.39369 -0.610401 15.7914 1.10386C22.1891 2.81812 25.9856 9.39377 24.2713 15.7915C22.5571 22.1892 15.9814 25.9857 9.58369 24.2714ZM10.598 15.8524L9.97724 18.1691L12.294 18.7899L12.9148 16.4731L10.598 15.8524ZM13.4254 14.5676C14.4315 14.5365 15.393 14.145 16.1347 13.4645C16.8764 12.7839 17.349 11.8596 17.4665 10.8599C17.5839 9.86015 17.3384 8.85148 16.7746 8.01758C16.2108 7.18368 15.3662 6.58003 14.3947 6.31656C13.4574 6.06534 12.462 6.14653 11.5779 6.54633C10.6937 6.94613 9.97529 7.63985 9.54485 8.50951L11.6956 9.57373C11.8466 9.26833 12.0811 9.01207 12.3721 8.83478C12.663 8.65748 12.9982 8.56644 13.3389 8.57225C13.6795 8.57805 14.0115 8.68047 14.2962 8.86757C14.5809 9.05468 14.8066 9.31878 14.947 9.62915C15.0875 9.93952 15.137 10.2834 15.0896 10.6208C15.0423 10.9581 14.9001 11.2751 14.6797 11.5349C14.4592 11.7946 14.1695 11.9864 13.8444 12.0879C13.5192 12.1895 13.1718 12.1966 12.8427 12.1084C12.5355 12.0261 12.2082 12.0692 11.9327 12.2282C11.6573 12.3873 11.4563 12.6492 11.374 12.9564L10.9084 14.694L13.2252 15.3148L13.4254 14.5676Z" fill="#2D261F"/>
</svg>
