<svg width="67" height="78" viewBox="0 0 67 78" fill="none" xmlns="http://www.w3.org/2000/svg">
<path d="M11.696 32.2105V34.6142C11.696 34.6142 6.98536 33.4075 3.30702 29.1234C-0.373735 24.8417 0.0115455 18.9971 0.0115455 18.9971C0.0115455 19.0043 0.0115455 19.0116 0.0139686 19.0189C0.0551621 19.3145 0.55433 22.5494 2.98232 26.1841C3.46937 26.9135 4.09212 27.5847 4.77545 28.1929C5.92644 29.2179 7.25917 30.0636 8.44652 30.7106C10.2372 31.6847 11.6935 32.2081 11.6935 32.2081L11.696 32.2105Z" fill="url(#paint0_linear_71_10158)"/>
<path d="M30.8146 2.71582C30.8146 2.71582 27.2477 5.59452 25.7623 11.0466C24.2769 16.4987 25.4425 17.4001 25.4425 17.4001H41.4449C41.4449 17.4001 41.5733 14.0101 40.5411 10.5741C39.5088 7.13806 36.4823 3.60269 35.862 2.92421L30.8121 2.71582H30.8146Z" fill="url(#paint1_linear_71_10158)"/>
<path d="M0.0406189 58.7706C0.0406189 58.7706 6.74789 62.0636 15.3186 57.0938L17.1795 58.126C17.1795 58.126 13.1426 60.6437 8.60886 61.0314C4.08 61.4166 0.0406189 58.7706 0.0406189 58.7706Z" fill="url(#paint2_linear_71_10158)"/>
<path d="M66.5075 18.9971C66.5075 18.9971 66.8928 24.8417 63.212 29.1234C59.5337 33.4051 54.8231 34.6118 54.8231 34.6118V32.2081C54.8231 32.2081 60.9876 29.9957 63.5367 26.1841C66.0859 22.3725 66.5075 18.9971 66.5075 18.9971Z" fill="url(#paint3_linear_71_10158)"/>
<path d="M66.476 58.7706C66.476 58.7706 59.7687 62.0636 51.1981 57.0938L49.3371 58.126C49.3371 58.126 53.3741 60.6437 57.9078 61.0314C62.439 61.4191 66.4784 58.773 66.4784 58.773L66.476 58.7706Z" fill="url(#paint4_linear_71_10158)"/>
<path d="M24.9675 63.4473C24.9675 63.4473 24.953 72.0228 33.3371 77.0145C33.3371 77.0145 41.5297 72.883 41.5297 63.4473H24.97H24.9675Z" fill="url(#paint5_linear_71_10158)"/>
<path d="M64.8186 52.9962C64.5738 52.5261 64.2903 52.0512 63.9656 51.5811C61.9811 48.7024 58.9182 46.6137 58.5087 46.3423C58.4094 41.3385 58.4094 36.3347 58.5087 31.3309C58.8431 31.1055 60.6168 29.8867 62.3106 28.0936C62.8849 27.4853 63.4471 26.8141 63.9438 26.0896C66.3064 22.6512 66.4494 18.9486 66.4494 18.9486C66.4494 18.9486 63.1151 17.3324 58.9691 17.7952C55.9814 18.132 53.1317 19.4429 52.1189 19.9518C48.0044 17.7322 43.8753 15.5368 39.756 13.3221C39.6687 12.1783 39.3247 9.07429 38.0816 6.35309C36.3466 2.55845 33.245 0.530273 33.245 0.530273C33.245 0.530273 30.1458 2.55845 28.4108 6.35309C27.1677 9.07429 26.8236 12.1783 26.7364 13.3221C22.6025 15.5417 18.4589 17.7467 14.3299 19.9736C14.0803 19.8476 13.7217 19.678 13.2807 19.4865C11.9116 18.888 9.73562 18.0835 7.48452 17.8364C3.34336 17.376 0.0115356 18.9971 0.0115356 18.9971C0.0115356 18.9971 0.0478829 19.8791 0.360469 21.1852C0.687593 22.5518 1.32003 24.3789 2.52918 26.1357C3.01139 26.8335 3.5566 27.4853 4.1115 28.0766C4.33685 28.3165 4.5622 28.5443 4.78756 28.7623C6.29718 30.2308 7.71956 31.2 7.98853 31.3769C8.0903 36.3807 8.0903 41.3821 7.98853 46.3859C7.54025 46.6864 4.51616 48.7703 2.55342 51.6272C2.23598 52.0875 1.95974 52.5528 1.71743 53.0132C0.149655 55.9912 0.0406134 58.7706 0.0406134 58.7706C0.0406134 58.7706 3.37486 60.3868 7.52329 59.924C7.55964 59.9192 7.59598 59.9167 7.63233 59.9095C10.5789 59.5557 13.3728 58.269 14.3759 57.7674C18.4929 59.9894 22.6243 62.1872 26.7485 64.402C26.7825 64.7364 26.8455 65.2355 26.9593 65.851C27.1847 67.0723 27.6136 68.754 28.4132 70.5035C30.1482 74.2981 33.2474 75.8077 33.2474 75.8077C33.2474 75.8077 36.349 74.2981 38.084 70.5035C38.857 68.8121 39.281 67.1886 39.5137 65.977C39.6421 65.3034 39.7124 64.7582 39.7487 64.402C43.885 62.18 48.031 59.9749 52.1625 57.7432C53.1632 58.2423 55.8747 59.483 58.7607 59.8513C58.8431 59.861 58.9255 59.8731 59.0054 59.8804C63.1539 60.3384 66.4857 58.7149 66.4857 58.7149C66.4857 58.7149 66.3742 55.9573 64.8186 52.9938V52.9962ZM39.9498 55.6859C37.7133 56.929 35.4791 58.1721 33.2498 59.4248C30.9721 58.1478 28.6919 56.8757 26.4093 55.6084C22.7091 53.5487 19.009 51.4939 15.321 49.4148C15.3815 46.4586 15.4155 43.5023 15.4276 40.5485C15.4397 36.4679 15.4058 32.385 15.321 28.3044C21.2819 24.941 27.2792 21.6431 33.2498 18.2944C39.218 21.6431 45.2177 24.941 51.1787 28.3044C51.0939 32.3971 51.0599 36.4873 51.0745 40.58C51.0842 43.5242 51.1205 46.4707 51.1787 49.4148C47.4446 51.5205 43.6984 53.602 39.9498 55.6859Z" fill="url(#paint6_linear_71_10158)"/>
<g style="mix-blend-mode:soft-light" opacity="0.5">
<path d="M0.471969 19.3311C1.46061 20.6808 8.87301 24.8099 12.3599 26.1814C12.9802 26.4261 14.0876 20.5039 13.5036 20.1502C7.34886 16.4282 -0.0441614 18.6284 0.471969 19.3311Z" fill="white"/>
</g>
<path d="M33.2474 16.1665C26.6565 19.8448 20.0219 23.4505 13.4406 27.1482C13.6345 34.9556 13.6345 42.7605 13.4406 50.5679C20.0219 54.2656 26.6565 57.8688 33.2474 61.5496C39.8408 57.8713 46.4729 54.2656 53.0566 50.5679C52.8628 42.7605 52.8628 34.9556 53.0566 27.1482C46.4729 23.4505 39.8408 19.8473 33.2474 16.1665ZM51.1787 49.4121C45.2177 52.7754 39.218 56.0733 33.2498 59.4245C27.2816 56.0733 21.2819 52.7778 15.321 49.4121C15.4664 42.3752 15.4664 35.3409 15.321 28.3016C21.2819 24.9383 27.2816 21.6404 33.2498 18.2892C39.218 21.6404 45.2177 24.9359 51.1787 28.3016C51.0333 35.3384 51.0333 42.3728 51.1787 49.4121Z" fill="url(#paint7_linear_71_10158)"/>
<g style="mix-blend-mode:soft-light" opacity="0.5">
<path d="M13.6951 26.1841C14.628 26.1841 29.8526 18.0326 31.3574 16.8041C32.1764 16.1353 26.8382 14.3034 26.2397 14.2816C25.0669 14.2404 24.4732 14.9019 20.2497 17.1167C17.5091 18.5536 17.4485 18.4542 14.7685 20.0026C13.5884 20.6835 13.2007 26.1841 13.6951 26.1841Z" fill="white"/>
</g>
<path style="mix-blend-mode:multiply" opacity="0.5" d="M39.5331 63.7985C40.0831 64.0917 41.7599 62.9965 45.6975 60.9198C49.6037 58.8577 50.7038 58.3707 51.2005 57.7843C51.7796 57.0985 53.3717 51.0891 52.1237 51.6828C48.615 53.3523 45.7218 55.2545 42.5426 57.0913C39.4168 58.8941 33.938 61.5474 34.1949 61.86C34.791 62.5821 39.1042 63.5707 39.5306 63.7961L39.5331 63.7985Z" fill="url(#paint8_linear_71_10158)"/>
<g style="mix-blend-mode:soft-light" opacity="0.5">
<path d="M27.3131 63.7601C26.8576 63.9903 25.268 63.1615 21.1487 61.0316C18.4153 59.6165 17.9937 59.316 15.321 57.7846C14.2718 57.1836 12.2097 50.6048 13.4285 50.9973C14.3953 51.3099 18.2215 53.7791 21.5339 55.6013C24.5823 57.2781 31.8565 61.1188 31.9171 61.8603C31.9535 62.2965 27.633 63.5977 27.3131 63.7601Z" fill="white"/>
</g>
<path style="mix-blend-mode:multiply" opacity="0.5" d="M15.069 28.4373C14.9963 27.8969 13.4333 26.9107 13.4479 27.3735C13.6539 34.9992 13.506 48.5712 13.6442 50.3571C13.649 50.4249 14.9478 49.8531 15.069 49.2182C15.3186 47.917 15.3234 40.9286 15.3186 37.5144C15.3137 34.1026 15.3186 30.3298 15.0665 28.4373H15.069Z" fill="url(#paint9_linear_71_10158)"/>
<path style="mix-blend-mode:multiply" opacity="0.5" d="M51.3968 28.2708C51.1012 35.1041 51.1787 47.4112 51.3968 49.5121C51.4186 49.7108 53.0591 50.6195 53.0494 50.2826C52.9524 46.4298 52.9258 42.136 52.9113 38.2784C52.8967 34.5516 52.9888 28.3726 52.8168 27.2991C52.7925 27.1489 51.4186 27.7256 51.3944 28.2708H51.3968Z" fill="url(#paint10_linear_71_10158)"/>
<path style="mix-blend-mode:multiply" opacity="0.5" d="M33.2498 16.4332C33.56 16.3411 33.434 18.1027 33.0899 18.2917C29.8138 20.0994 20.24 25.2728 19.6487 25.5006C18.5219 25.9392 17.7296 24.9869 18.1706 24.7373C20.6107 23.3561 23.0678 21.9143 25.5297 20.5283C27.8704 19.2125 32.6343 16.6149 33.2498 16.4332Z" fill="url(#paint11_linear_71_10158)"/>
<path style="mix-blend-mode:multiply" opacity="0.5" d="M8.41987 47.411C8.62342 48.0919 12.8155 50.755 13.0602 49.8535C13.8792 46.8343 13.3219 42.1867 13.3001 38.3775C13.2807 34.8979 13.4237 28.3118 13.1547 27.8271C12.7306 27.0566 8.52165 30.81 8.24298 31.7502C8.12425 32.1476 8.07821 31.7018 8.14363 36.2258C8.21148 40.8928 8.05882 46.2116 8.41987 47.4134V47.411Z" fill="url(#paint12_linear_71_10158)"/>
<path style="mix-blend-mode:multiply" opacity="0.5" d="M53.517 50.3745C53.6115 50.612 57.3456 47.411 57.9078 46.4223C58.1961 45.9159 58.1598 42.2473 58.1719 37.9728C58.1864 33.6354 58.2906 33.2477 58.0798 32.5959C57.8181 31.7865 53.6891 26.9572 53.3934 28.2342C52.7247 31.125 53.2674 35.2177 53.2263 38.9906C53.1875 42.6689 53.093 49.3132 53.5146 50.3745H53.517Z" fill="url(#paint13_linear_71_10158)"/>
<path d="M13.4406 50.5684L32.9639 61.8626C32.9639 61.8626 42.2542 57.3822 53.0566 50.5684C53.0566 50.5684 39.361 58.1261 32.9639 61.3901C32.9639 61.3901 28.4544 58.887 13.4406 50.5684Z" fill="#FFF7C4"/>
<path d="M21.7181 22.6415C20.5986 22.3168 19.7166 23.0025 19.244 23.5405C18.7715 24.0784 19.0502 24.4177 19.6608 24.328C20.269 24.2384 22.1906 22.7796 21.7205 22.6439L21.7181 22.6415Z" fill="url(#paint14_linear_71_10158)"/>
<g style="mix-blend-mode:multiply" opacity="0.5">
<path d="M21.7181 22.6417C20.9597 22.3631 20.0195 22.8283 19.7263 23.0828C19.4331 23.3372 20.0389 24.1077 20.4411 23.9599C20.8409 23.8121 22.0646 22.7677 21.7181 22.6393V22.6417Z" fill="#912774"/>
</g>
<path d="M19.5155 23.2617C19.5155 23.2617 18.2821 24.042 18.4323 24.4563C18.5825 24.8707 20.0679 24.1728 20.0679 24.1728C20.0679 24.1728 19.2949 24.403 19.1108 24.0492C18.9266 23.6954 19.5155 23.2593 19.5155 23.2593V23.2617Z" fill="#FFF7C4"/>
<path d="M52.7877 34.6409C52.6011 35.0092 52.4751 36.7272 52.7537 36.8508C53.03 36.9744 53.6455 36.4364 53.6091 36.102C53.5728 35.7676 52.9112 34.3986 52.7877 34.6409Z" fill="url(#paint15_linear_71_10158)"/>
<path d="M51.7336 31.4761C51.8717 32.1012 52.6956 33.7029 53.1148 33.1287C53.6939 32.3339 53.2602 29.2492 52.8458 29.128C52.6786 29.0796 51.5543 30.6692 51.7336 31.4761Z" fill="url(#paint16_linear_71_10158)"/>
<g style="mix-blend-mode:multiply" opacity="0.5">
<path d="M52.6083 36.4441C52.7343 37.0159 53.5194 35.9037 53.3692 35.5184C53.219 35.1332 52.8652 34.4086 52.7901 34.6413C52.715 34.8739 52.5405 36.1339 52.6108 36.4441H52.6083Z" fill="#912774"/>
</g>
<path d="M52.6883 36.7829C52.6883 36.7829 52.9694 36.8992 53.2917 36.6544C53.5461 36.463 53.6406 36.1795 53.5921 36.0244C53.5921 36.0244 53.6769 36.446 53.3789 36.7247C52.9088 37.1609 52.6883 36.7829 52.6883 36.7829Z" fill="#FFF7C4"/>
<g style="mix-blend-mode:multiply" opacity="0.5">
<path d="M51.8644 31.0036C52.2643 32.4769 53.3304 32.4091 53.4031 31.8081C53.4758 31.2096 53.219 29.0457 52.8434 29.1257C52.4702 29.2057 51.7748 30.6814 51.862 31.0036H51.8644Z" fill="#912774"/>
</g>
<path d="M51.7336 31.4761C51.7336 31.4761 52.2619 32.9566 52.761 32.9178C53.2602 32.8791 53.3741 32.3605 53.3741 32.3605C53.3741 32.3605 53.5146 33.858 52.9985 33.7078C52.1068 33.4485 51.7336 31.4761 51.7336 31.4761Z" fill="#FFF7C4"/>
<path d="M17.6957 18.8761C17.6811 19.2541 22.1882 18.7792 23.378 18.1734C24.3084 17.7009 24.5629 15.7333 24.1267 15.7938C22.2754 16.0459 17.7102 18.5344 17.6957 18.8785V18.8761Z" fill="#FFF7C4"/>
<g style="mix-blend-mode:soft-light" opacity="0.5">
<path d="M18.5728 51.2417C20.0849 52.5429 19.6802 54.0259 19.6802 54.0259L23.407 56.088C23.407 56.088 27.7881 56.5896 25.7332 55.2302L18.5753 51.2417H18.5728Z" fill="white"/>
</g>
<g style="mix-blend-mode:soft-light" opacity="0.5">
<path d="M11.3082 51.2418C10.9472 51.9178 0.193269 58.9643 0.457392 57.8666C0.721515 56.769 0.954137 51.9178 6.9175 47.9269C7.7341 47.3793 11.9019 50.1247 11.3058 51.2418H11.3082Z" fill="white"/>
</g>
<g style="mix-blend-mode:soft-light" opacity="0.5">
<path d="M52.6374 20.233C51.5761 20.8266 52.0171 25.7384 53.0494 25.6148C54.0816 25.4912 66.4881 19.3025 65.5843 18.9972C64.6805 18.6919 58.8819 16.734 52.6374 20.233Z" fill="white"/>
</g>
<g style="mix-blend-mode:soft-light" opacity="0.5">
<path d="M58.3875 46.9385C57.7963 46.9385 54.0356 50.6604 54.6777 51.242C55.3198 51.8235 65.5891 59.1681 65.8654 58.0389C66.4397 55.6909 61.2735 46.9433 58.39 46.9385H58.3875Z" fill="white"/>
</g>
<path d="M4.39501 18.0282C4.01942 18.365 6.56373 19.4675 7.04836 19.5305C7.53299 19.596 9.36973 18.5346 9.13953 18.2899C8.90933 18.0452 4.95718 17.5266 4.39744 18.0258L4.39501 18.0282Z" fill="#FFF7C4"/>
<path d="M58.6129 18.3622C58.2373 18.699 60.7816 19.7991 61.2663 19.8645C61.7509 19.93 63.5876 18.8686 63.3574 18.6239C63.1272 18.3791 59.1751 17.8606 58.6153 18.3598L58.6129 18.3622Z" fill="#FFF7C4"/>
<path style="mix-blend-mode:multiply" opacity="0.5" d="M11.3664 27.2551C9.76956 25.4038 0.447715 19.4016 0.270825 20.2328C0.0963585 21.0639 0.723953 24.1413 1.92826 26.8068C3.13256 29.4698 6.87632 32.1377 7.30764 31.9245C7.73896 31.7112 11.8971 27.873 11.3664 27.2575V27.2551Z" fill="url(#paint17_linear_71_10158)"/>
<path style="mix-blend-mode:multiply" opacity="0.5" d="M53.6115 26.3002C53.3934 27.3059 58.3124 31.5245 59.1096 31.7935C59.6209 31.9656 64.4236 28.1782 65.262 24.7373C66.2216 20.7997 65.9938 20.2836 65.262 20.3805C64.5302 20.4774 53.8175 25.3528 53.6115 26.3002Z" fill="url(#paint18_linear_71_10158)"/>
<path style="mix-blend-mode:multiply" opacity="0.5" d="M11.696 51.9155C10.7412 52.1797 0.474371 58.6058 0.983231 59.0784C1.48967 59.5533 5.9531 61.4724 9.97553 60.5759C13.9979 59.6793 14.5625 58.8118 14.5795 58.5961C14.6619 57.4573 12.3308 51.7411 11.696 51.9155Z" fill="url(#paint19_linear_71_10158)"/>
<path style="mix-blend-mode:multiply" opacity="0.5" d="M51.9565 58.9113C52.7295 59.1924 56.214 60.874 59.9699 60.4912C63.7257 60.1083 65.09 58.9428 64.8307 58.6399C64.5714 58.337 55.4071 51.4553 53.6091 51.9108C52.7101 52.1386 51.4501 58.7247 51.9565 58.9089V58.9113Z" fill="url(#paint20_linear_71_10158)"/>
<g style="mix-blend-mode:soft-light" opacity="0.5">
<path d="M32.1328 62.5554C31.023 62.7299 25.7962 64.5424 25.5491 65.2669C25.3043 65.989 27.0781 72.3958 31.7451 75.5071C33.0366 76.3673 33.2062 69.8273 33.3371 68.1068C33.4679 66.3864 33.5697 62.3301 32.1328 62.5554Z" fill="white"/>
</g>
<path style="mix-blend-mode:multiply" opacity="0.5" d="M33.9816 62.9865C33.5939 64.2635 33.0754 76.149 33.766 76.2386C34.459 76.3283 38.5614 72.7663 39.8747 69.6138C41.2704 66.2698 40.8658 64.9177 39.7463 64.4016C38.6268 63.8854 34.1973 62.2741 33.9792 62.9865H33.9816Z" fill="url(#paint21_linear_71_10158)"/>
<g style="mix-blend-mode:soft-light" opacity="0.5">
<path d="M25.7357 13.0774C26.4021 13.8674 32.2176 15.961 32.6053 15.3576C32.993 14.7542 33.0366 1.84855 32.5181 1.88975C32.0019 1.93336 28.8615 5.03014 27.0103 8.47343C25.159 11.9143 25.2801 12.5395 25.7333 13.0774H25.7357Z" fill="white"/>
</g>
<path style="mix-blend-mode:multiply" opacity="0.5" d="M33.2498 15.4644C33.7684 16.3246 40.3521 13.4629 40.5653 12.9468C40.7786 12.4306 38.8667 4.1047 33.6812 1.50224C33.3274 1.32535 32.7313 14.6042 33.2498 15.4644Z" fill="url(#paint22_linear_71_10158)"/>
<defs>
<linearGradient id="paint0_linear_71_10158" x1="-0.000570233" y1="26.8044" x2="11.696" y2="26.8044" gradientUnits="userSpaceOnUse">
<stop stop-color="#F27A13"/>
<stop offset="1" stop-color="#B41E2D"/>
</linearGradient>
<linearGradient id="paint1_linear_71_10158" x1="33.2304" y1="2.71582" x2="33.2304" y2="17.4001" gradientUnits="userSpaceOnUse">
<stop stop-color="#F27A13"/>
<stop offset="1" stop-color="#B41E2D"/>
</linearGradient>
<linearGradient id="paint2_linear_71_10158" x1="8.61129" y1="57.0913" x2="8.61129" y2="61.0677" gradientUnits="userSpaceOnUse">
<stop stop-color="#F27A13"/>
<stop offset="1" stop-color="#B41E2D"/>
</linearGradient>
<linearGradient id="paint3_linear_71_10158" x1="54.8231" y1="26.8044" x2="66.5196" y2="26.8044" gradientUnits="userSpaceOnUse">
<stop stop-color="#F27A13"/>
<stop offset="1" stop-color="#B41E2D"/>
</linearGradient>
<linearGradient id="paint4_linear_71_10158" x1="57.9078" y1="57.0913" x2="57.9078" y2="61.0677" gradientUnits="userSpaceOnUse">
<stop stop-color="#F27A13"/>
<stop offset="1" stop-color="#B41E2D"/>
</linearGradient>
<linearGradient id="paint5_linear_71_10158" x1="33.2474" y1="77.012" x2="33.2474" y2="63.4473" gradientUnits="userSpaceOnUse">
<stop stop-color="#F27A13"/>
<stop offset="1" stop-color="#B41E2D"/>
</linearGradient>
<linearGradient id="paint6_linear_71_10158" x1="33.2474" y1="77.0338" x2="33.2474" y2="4.31765" gradientUnits="userSpaceOnUse">
<stop stop-color="#CA5C00"/>
<stop offset="0.67" stop-color="#FFA924"/>
<stop offset="1" stop-color="#FFCA24"/>
</linearGradient>
<linearGradient id="paint7_linear_71_10158" x1="33.2498" y1="61.5472" x2="33.2498" y2="16.1665" gradientUnits="userSpaceOnUse">
<stop stop-color="#F27A13"/>
<stop offset="1" stop-color="#B41E2D"/>
</linearGradient>
<linearGradient id="paint8_linear_71_10158" x1="34.8661" y1="57.7431" x2="44.5102" y2="57.7431" gradientUnits="userSpaceOnUse">
<stop stop-color="white"/>
<stop offset="0.44" stop-color="#ED8A1D"/>
<stop offset="1" stop-color="#B41E2D"/>
</linearGradient>
<linearGradient id="paint9_linear_71_10158" x1="13.4455" y1="38.8084" x2="15.321" y2="38.8084" gradientUnits="userSpaceOnUse">
<stop stop-color="white"/>
<stop offset="0.44" stop-color="#ED8A1D"/>
<stop offset="1" stop-color="#B41E2D"/>
</linearGradient>
<linearGradient id="paint10_linear_71_10158" x1="51.2005" y1="38.8163" x2="53.0494" y2="38.8163" gradientUnits="userSpaceOnUse">
<stop stop-color="white"/>
<stop offset="0.44" stop-color="#ED8A1D"/>
<stop offset="1" stop-color="#B41E2D"/>
</linearGradient>
<linearGradient id="paint11_linear_71_10158" x1="18.047" y1="21.0226" x2="33.4267" y2="21.0226" gradientUnits="userSpaceOnUse">
<stop stop-color="white"/>
<stop offset="0.44" stop-color="#ED8A1D"/>
<stop offset="1" stop-color="#B41E2D"/>
</linearGradient>
<linearGradient id="paint12_linear_71_10158" x1="8.11456" y1="38.8791" x2="13.5061" y2="38.8791" gradientUnits="userSpaceOnUse">
<stop stop-color="white"/>
<stop offset="0.44" stop-color="#ED8A1D"/>
<stop offset="1" stop-color="#B41E2D"/>
</linearGradient>
<linearGradient id="paint13_linear_71_10158" x1="55.6349" y1="60.1131" x2="55.6349" y2="15.1662" gradientUnits="userSpaceOnUse">
<stop stop-color="white"/>
<stop offset="0.44" stop-color="#ED8A1D"/>
<stop offset="1" stop-color="#B41E2D"/>
</linearGradient>
<linearGradient id="paint14_linear_71_10158" x1="19.0042" y1="23.4484" x2="21.7908" y2="23.4484" gradientUnits="userSpaceOnUse">
<stop stop-color="#832645"/>
<stop offset="1" stop-color="#B41E2D"/>
</linearGradient>
<linearGradient id="paint15_linear_71_10158" x1="52.5914" y1="35.741" x2="53.6115" y2="35.741" gradientUnits="userSpaceOnUse">
<stop stop-color="#832645"/>
<stop offset="1" stop-color="#B41E2D"/>
</linearGradient>
<linearGradient id="paint16_linear_71_10158" x1="51.7142" y1="31.1877" x2="53.3958" y2="31.1877" gradientUnits="userSpaceOnUse">
<stop stop-color="#832645"/>
<stop offset="1" stop-color="#B41E2D"/>
</linearGradient>
<linearGradient id="paint17_linear_71_10158" x1="11.4124" y1="26.0435" x2="0.241747" y2="26.0435" gradientUnits="userSpaceOnUse">
<stop stop-color="white"/>
<stop offset="0.44" stop-color="#ED8A1D"/>
<stop offset="1" stop-color="#B41E2D"/>
</linearGradient>
<linearGradient id="paint18_linear_71_10158" x1="53.6043" y1="26.0846" x2="65.8993" y2="26.0846" gradientUnits="userSpaceOnUse">
<stop stop-color="white"/>
<stop offset="0.44" stop-color="#ED8A1D"/>
<stop offset="1" stop-color="#B41E2D"/>
</linearGradient>
<linearGradient id="paint19_linear_71_10158" x1="14.5795" y1="56.362" x2="0.963846" y2="56.362" gradientUnits="userSpaceOnUse">
<stop stop-color="white"/>
<stop offset="0.44" stop-color="#ED8A1D"/>
<stop offset="1" stop-color="#B41E2D"/>
</linearGradient>
<linearGradient id="paint20_linear_71_10158" x1="51.8402" y1="56.2192" x2="64.8622" y2="56.2192" gradientUnits="userSpaceOnUse">
<stop stop-color="white"/>
<stop offset="0.44" stop-color="#ED8A1D"/>
<stop offset="1" stop-color="#B41E2D"/>
</linearGradient>
<linearGradient id="paint21_linear_71_10158" x1="40.7664" y1="69.5241" x2="33.4267" y2="69.5241" gradientUnits="userSpaceOnUse">
<stop stop-color="white"/>
<stop offset="0.44" stop-color="#ED8A1D"/>
<stop offset="1" stop-color="#B41E2D"/>
</linearGradient>
<linearGradient id="paint22_linear_71_10158" x1="40.5823" y1="8.56329" x2="33.0463" y2="8.56329" gradientUnits="userSpaceOnUse">
<stop stop-color="white"/>
<stop offset="0.44" stop-color="#ED8A1D"/>
<stop offset="1" stop-color="#B41E2D"/>
</linearGradient>
</defs>
</svg>
