<svg width="67" height="78" viewBox="0 0 67 78" fill="none" xmlns="http://www.w3.org/2000/svg">
<path d="M11.6959 32.211V34.6147C11.6959 34.6147 6.98533 33.408 3.30699 29.1239C-0.373765 24.8422 0.011515 18.9976 0.011515 18.9976C0.011515 19.0048 0.011515 19.0121 0.0139381 19.0194C0.0551316 19.315 0.5543 22.5499 2.98229 26.1846C3.46934 26.914 4.09209 27.5852 4.77542 28.1934C5.92641 29.2184 7.25914 30.0641 8.44649 30.711C10.2372 31.6852 11.6935 32.2085 11.6935 32.2085L11.6959 32.211Z" fill="#7C1338"/>
<path d="M30.8146 2.71631C30.8146 2.71631 27.2477 5.59501 25.7623 11.0471C24.277 16.4992 25.4425 17.4006 25.4425 17.4006H41.4449C41.4449 17.4006 41.5734 14.0106 40.5411 10.5746C39.5088 7.13855 36.4823 3.60318 35.862 2.9247L30.8122 2.71631H30.8146Z" fill="#7C1338"/>
<path d="M0.0406189 58.7711C0.0406189 58.7711 6.74789 62.0641 15.3186 57.0942L17.1795 58.1265C17.1795 58.1265 13.1426 60.6441 8.60886 61.0319C4.08 61.4171 0.0406189 58.7711 0.0406189 58.7711Z" fill="#7C1338"/>
<path d="M66.5075 18.9976C66.5075 18.9976 66.8928 24.8422 63.212 29.1239C59.5337 33.4056 54.8231 34.6123 54.8231 34.6123V32.2086C54.8231 32.2086 60.9876 29.9962 63.5367 26.1846C66.0859 22.373 66.5075 18.9976 66.5075 18.9976Z" fill="#7C1338"/>
<path d="M66.476 58.7711C66.476 58.7711 59.7687 62.0641 51.198 57.0942L49.3371 58.1265C49.3371 58.1265 53.374 60.6441 57.9077 61.0319C62.439 61.4196 66.4784 58.7735 66.4784 58.7735L66.476 58.7711Z" fill="#7C1338"/>
<path d="M24.9675 63.4473C24.9675 63.4473 24.953 72.0228 33.337 77.0145C33.337 77.0145 41.5297 72.883 41.5297 63.4473H24.9699H24.9675Z" fill="#7C1338"/>
<path d="M64.8187 52.9962C64.574 52.5261 64.2905 52.0512 63.9658 51.5811C61.9812 48.7024 58.9184 46.6137 58.5089 46.3423C58.4095 41.3385 58.4095 36.3347 58.5089 31.3309C58.8433 31.1055 60.617 29.8867 62.3108 28.0936C62.8851 27.4853 63.4472 26.8141 63.944 26.0896C66.3065 22.6512 66.4495 18.9486 66.4495 18.9486C66.4495 18.9486 63.1153 17.3324 58.9692 17.7952C55.9815 18.132 53.1319 19.4429 52.119 19.9518C48.0045 17.7322 43.8755 15.5368 39.7561 13.3221C39.6689 12.1783 39.3248 9.07429 38.0817 6.35309C36.3468 2.55845 33.2451 0.530273 33.2451 0.530273C33.2451 0.530273 30.1435 2.55845 28.411 6.35309C27.1655 9.07429 26.8238 12.1783 26.7366 13.3221C22.6027 15.5417 18.4591 17.7467 14.3301 19.9736C14.0805 19.8476 13.7218 19.678 13.2808 19.4865C11.9118 18.888 9.73577 18.0835 7.48467 17.8364C3.34351 17.376 0.0116882 18.9971 0.0116882 18.9971C0.0116882 18.9971 0.0480354 19.8791 0.360621 21.1852C0.687746 22.5518 1.32019 24.3789 2.52934 26.1357C3.01154 26.8335 3.55675 27.4853 4.11165 28.0766C4.337 28.3165 4.56236 28.5443 4.78771 28.7623C6.29733 30.2308 7.71972 31.2 7.98869 31.3769C8.09046 36.3807 8.09046 41.3821 7.98869 46.3859C7.5404 46.6864 4.51632 48.7703 2.55357 51.6272C2.23614 52.0875 1.9599 52.5528 1.71758 53.0132C0.149808 55.9912 0.040766 58.7706 0.040766 58.7706C0.040766 58.7706 3.37501 60.3868 7.52344 59.924C7.55979 59.9192 7.59614 59.9167 7.63248 59.9095C10.579 59.5557 13.3729 58.269 14.3761 57.7674C18.493 59.9894 22.6245 62.1872 26.7487 64.402C26.7826 64.7364 26.8456 65.2355 26.9595 65.851C27.1848 67.0723 27.6137 68.754 28.4134 70.5035C30.1484 74.2981 33.2476 75.8077 33.2476 75.8077C33.2476 75.8077 36.3492 74.2981 38.0842 70.5035C38.8571 68.8121 39.2812 67.1886 39.5138 65.977C39.6422 65.3034 39.7125 64.7582 39.7489 64.402C43.8852 62.18 48.0312 59.9749 52.1626 57.7432C53.1634 58.2423 55.8749 59.483 58.7609 59.8513C58.8432 59.861 58.9256 59.8731 59.0056 59.8804C63.154 60.3384 66.4859 58.7149 66.4859 58.7149C66.4859 58.7149 66.3744 55.9573 64.8187 52.9938V52.9962ZM39.95 55.6859C37.7134 56.929 35.4793 58.1721 33.25 59.4248C30.9722 58.1478 28.692 56.8757 26.4094 55.6084C22.7093 53.5487 19.0092 51.4939 15.3211 49.4148C15.3817 46.4586 15.4156 43.5023 15.4277 40.5485C15.4399 36.4679 15.4059 32.385 15.3211 28.3044C21.2821 24.941 27.2793 21.6431 33.25 18.2944C39.2182 21.6431 45.2179 24.941 51.1788 28.3044C51.094 32.3971 51.0601 36.4873 51.0746 40.58C51.0843 43.5242 51.1207 46.4707 51.1788 49.4148C47.4448 51.5205 43.6986 53.602 39.95 55.6859Z" fill="url(#paint0_linear_71_10270)"/>
<path style="mix-blend-mode:screen" opacity="0.5" d="M0.471938 19.3316C1.46058 20.6813 8.87298 24.8103 12.3599 26.1819C12.9802 26.4266 14.0876 20.5044 13.5036 20.1506C7.34883 16.4287 -0.0441919 18.6289 0.471938 19.3316Z" fill="url(#paint1_radial_71_10270)"/>
<path d="M33.2474 16.167C26.6565 19.8453 20.0219 23.451 13.4406 27.1487C13.6345 34.9561 13.6345 42.761 13.4406 50.5684C20.0219 54.2661 26.6565 57.8693 33.2474 61.5501C39.8408 57.8718 46.4729 54.2661 53.0566 50.5684C52.8628 42.761 52.8628 34.9561 53.0566 27.1487C46.4729 23.451 39.8408 19.8478 33.2474 16.167ZM51.1787 49.4126C45.2177 52.7759 39.218 56.0738 33.2498 59.425C27.2816 56.0738 21.2819 52.7783 15.321 49.4126C15.4664 42.3757 15.4664 35.3413 15.321 28.3021C21.2819 24.9388 27.2816 21.6409 33.2498 18.2897C39.218 21.6409 45.2177 24.9364 51.1787 28.3021C51.0333 35.3389 51.0333 42.3733 51.1787 49.4126Z" fill="#7C1338"/>
<path style="mix-blend-mode:screen" opacity="0.5" d="M13.6951 26.1846C14.628 26.1846 29.8526 18.0331 31.3574 16.8046C32.1764 16.1358 26.8382 14.3039 26.2397 14.2821C25.0669 14.2409 24.4732 14.9024 20.2497 17.1171C17.5091 18.5541 17.4485 18.4547 14.7685 20.0031C13.5885 20.684 13.2008 26.1846 13.6951 26.1846Z" fill="url(#paint2_radial_71_10270)"/>
<g style="mix-blend-mode:multiply" opacity="0.5">
<path d="M39.533 63.799C40.0831 64.0922 41.7599 62.9969 45.6975 60.9203C49.6036 58.8582 50.7037 58.3712 51.2005 57.7848C51.7796 57.099 53.3716 51.0896 52.1237 51.6833C48.615 53.3528 45.7218 55.255 42.5426 57.0917C39.4167 58.8946 33.938 61.5479 34.1948 61.8605C34.7909 62.5826 39.1041 63.5712 39.5306 63.7966L39.533 63.799Z" fill="#961F63"/>
</g>
<g style="mix-blend-mode:multiply" opacity="0.5">
<path d="M27.3131 63.7601C26.8576 63.9903 25.268 63.1615 21.1487 61.0316C18.4153 59.6165 17.9937 59.316 15.321 57.7846C14.2718 57.1836 12.2097 50.6048 13.4285 50.9973C14.3953 51.3099 18.2215 53.7791 21.5339 55.6013C24.5823 57.2781 31.8565 61.1188 31.9171 61.8603C31.9535 62.2965 27.633 63.5977 27.3131 63.7601Z" fill="#961F63"/>
</g>
<path style="mix-blend-mode:multiply" opacity="0.5" d="M15.069 28.4378C14.9963 27.8974 13.4333 26.9112 13.4479 27.374C13.6539 34.9997 13.506 48.5717 13.6442 50.3576C13.649 50.4254 14.9478 49.8536 15.069 49.2187C15.3186 47.9175 15.3234 40.9291 15.3186 37.5149C15.3137 34.1031 15.3186 30.3303 15.0665 28.4378H15.069Z" fill="url(#paint3_linear_71_10270)"/>
<path style="mix-blend-mode:multiply" opacity="0.5" d="M51.3968 28.2708C51.1012 35.1041 51.1787 47.4112 51.3968 49.5121C51.4186 49.7108 53.0591 50.6195 53.0494 50.2826C52.9524 46.4298 52.9258 42.136 52.9113 38.2784C52.8967 34.5516 52.9888 28.3726 52.8168 27.2991C52.7925 27.1489 51.4186 27.7256 51.3944 28.2708H51.3968Z" fill="url(#paint4_linear_71_10270)"/>
<path style="mix-blend-mode:multiply" opacity="0.5" d="M33.2499 16.4337C33.56 16.3416 33.434 18.1032 33.09 18.2922C29.8139 20.0999 20.24 25.2733 19.6488 25.5011C18.522 25.9397 17.7296 24.9874 18.1706 24.7378C20.6108 23.3566 23.0678 21.9148 25.5297 20.5288C27.8705 19.213 32.6344 16.6154 33.2499 16.4337Z" fill="url(#paint5_linear_71_10270)"/>
<path style="mix-blend-mode:multiply" opacity="0.5" d="M8.41987 47.4115C8.62342 48.0924 12.8155 50.7554 13.0602 49.854C13.8792 46.8348 13.3219 42.1872 13.3001 38.378C13.2807 34.8984 13.4237 28.3123 13.1547 27.8276C12.7306 27.0571 8.52165 30.8105 8.24298 31.7507C8.12425 32.1481 8.07821 31.7022 8.14363 36.2263C8.21148 40.8932 8.05882 46.212 8.41987 47.4139V47.4115Z" fill="url(#paint6_linear_71_10270)"/>
<path style="mix-blend-mode:multiply" opacity="0.5" d="M53.517 50.375C53.6115 50.6125 57.3456 47.4115 57.9078 46.4228C58.1961 45.9164 58.1598 42.2478 58.1719 37.9733C58.1864 33.6359 58.2906 33.2482 58.0798 32.5964C57.8181 31.787 53.6891 26.9577 53.3934 28.2347C52.7247 31.1255 53.2674 35.2182 53.2263 38.991C53.1875 42.6694 53.093 49.3136 53.5146 50.375H53.517Z" fill="url(#paint7_linear_71_10270)"/>
<path d="M13.4406 50.5684L32.9639 61.8626C32.9639 61.8626 42.2542 57.3822 53.0566 50.5684C53.0566 50.5684 39.361 58.1261 32.9639 61.3901C32.9639 61.3901 28.4544 58.887 13.4406 50.5684Z" fill="url(#paint8_radial_71_10270)"/>
<path d="M21.7181 22.642C20.5986 22.3173 19.7166 23.003 19.2441 23.541C18.7716 24.0789 19.0503 24.4182 19.6609 24.3285C20.2691 24.2388 22.1906 22.7801 21.7206 22.6444L21.7181 22.642Z" fill="#551628"/>
<g style="mix-blend-mode:multiply" opacity="0.5">
<path d="M21.7181 22.6417C20.9597 22.3631 20.0195 22.8283 19.7263 23.0828C19.4331 23.3372 20.0389 24.1077 20.4411 23.9599C20.8409 23.8121 22.0646 22.7677 21.7181 22.6393V22.6417Z" fill="#C10065"/>
</g>
<path d="M19.5155 23.2622C19.5155 23.2622 18.2821 24.0424 18.4323 24.4568C18.5825 24.8712 20.0679 24.1733 20.0679 24.1733C20.0679 24.1733 19.2949 24.4035 19.1084 24.0497C18.9242 23.6959 19.513 23.2598 19.513 23.2598L19.5155 23.2622Z" fill="url(#paint9_radial_71_10270)"/>
<path d="M52.7877 34.6414C52.6011 35.0097 52.4751 36.7277 52.7538 36.8513C53.03 36.9749 53.6455 36.4369 53.6092 36.1025C53.5728 35.7681 52.9113 34.3991 52.7877 34.6414Z" fill="#551628"/>
<path d="M51.7336 31.477C51.8718 32.1022 52.6956 33.7039 53.1148 33.1296C53.694 32.3348 53.2602 29.2502 52.8459 29.129C52.6787 29.0806 51.5543 30.6701 51.7336 31.477Z" fill="#551628"/>
<g style="mix-blend-mode:multiply" opacity="0.5">
<path d="M52.6084 36.4436C52.7344 37.0155 53.5195 35.9032 53.3693 35.518C53.219 35.1327 52.8653 34.4082 52.7901 34.6408C52.715 34.8734 52.5406 36.1334 52.6108 36.4436H52.6084Z" fill="#C10065"/>
</g>
<path d="M52.6884 36.7829C52.6884 36.7829 52.9694 36.8992 53.2917 36.6544C53.5461 36.463 53.6406 36.1795 53.5922 36.0244C53.5922 36.0244 53.677 36.446 53.3789 36.7247C52.9113 37.1609 52.6884 36.7829 52.6884 36.7829Z" fill="url(#paint10_radial_71_10270)"/>
<g style="mix-blend-mode:multiply" opacity="0.5">
<path d="M51.8645 31.0041C52.2643 32.4774 53.3305 32.4095 53.4032 31.8086C53.4759 31.2101 53.219 29.0462 52.8434 29.1262C52.4703 29.2061 51.7748 30.6818 51.862 31.0041H51.8645Z" fill="#C10065"/>
</g>
<path d="M51.7337 31.4766C51.7337 31.4766 52.2619 32.9571 52.7611 32.9183C53.2603 32.8796 53.3741 32.361 53.3741 32.361C53.3741 32.361 53.5147 33.8585 52.9986 33.7083C52.1068 33.449 51.7337 31.4766 51.7337 31.4766Z" fill="url(#paint11_radial_71_10270)"/>
<path style="mix-blend-mode:color-dodge" opacity="0.5" d="M18.5729 51.2422C20.0849 52.5434 19.6803 54.0264 19.6803 54.0264L23.4071 56.0885C23.4071 56.0885 27.7881 56.5901 25.7333 55.2307L18.5753 51.2422H18.5729Z" fill="url(#paint12_radial_71_10270)"/>
<path style="mix-blend-mode:screen" opacity="0.5" d="M11.3083 51.2423C10.9472 51.9183 0.1933 58.9648 0.457423 57.8671C0.721546 56.7695 0.954167 51.9183 6.91753 47.9274C7.73413 47.3798 11.9019 50.1252 11.3058 51.2423H11.3083Z" fill="url(#paint13_radial_71_10270)"/>
<g style="mix-blend-mode:soft-light">
<path d="M52.6374 20.2335C51.5761 20.8271 52.0171 25.7388 53.0494 25.6153C54.0816 25.4917 66.4882 19.303 65.5843 18.9977C64.6805 18.6923 58.8819 16.7344 52.6374 20.2335Z" fill="#F7FFFF"/>
</g>
<path style="mix-blend-mode:screen" opacity="0.5" d="M58.3876 46.939C57.7963 46.939 54.0356 50.6609 54.6777 51.2425C55.3199 51.824 65.5892 59.1686 65.8654 58.0394C66.4397 55.6914 61.2735 46.9438 58.39 46.939H58.3876Z" fill="url(#paint14_radial_71_10270)"/>
<path style="mix-blend-mode:multiply" opacity="0.5" d="M11.3664 27.2551C9.76956 25.4038 0.447715 19.4016 0.270825 20.2328C0.0963585 21.0639 0.723953 24.1413 1.92826 26.8068C3.13256 29.4722 6.87632 32.1377 7.30764 31.9245C7.73896 31.7112 11.8971 27.873 11.3664 27.2575V27.2551Z" fill="url(#paint15_linear_71_10270)"/>
<path style="mix-blend-mode:multiply" opacity="0.5" d="M53.6115 26.3007C53.3934 27.3063 58.3124 31.525 59.1096 31.794C59.6209 31.9661 64.4236 28.1787 65.262 24.7378C66.2216 20.8002 65.9938 20.2841 65.262 20.381C64.5302 20.4779 53.8175 25.3533 53.6115 26.3007Z" fill="url(#paint16_linear_71_10270)"/>
<path style="mix-blend-mode:multiply" opacity="0.5" d="M11.696 51.916C10.7412 52.1801 0.474371 58.6063 0.983231 59.0788C1.48967 59.5538 5.9531 61.4729 9.97553 60.5763C13.9979 59.6798 14.5625 58.8123 14.5795 58.5966C14.6619 57.4578 12.3308 51.7416 11.696 51.916Z" fill="url(#paint17_linear_71_10270)"/>
<path style="mix-blend-mode:multiply" opacity="0.5" d="M51.9565 58.9118C52.7295 59.1928 56.214 60.8745 59.9699 60.4917C63.7258 60.1088 65.09 58.9433 64.8307 58.6404C64.5714 58.3399 55.4071 51.4557 53.6091 51.9113C52.7101 52.1391 51.4501 58.7252 51.9565 58.9093V58.9118Z" fill="url(#paint18_linear_71_10270)"/>
<path style="mix-blend-mode:screen" opacity="0.5" d="M32.1328 62.5559C31.023 62.7304 25.7963 64.5429 25.5491 65.2674C25.3044 65.9895 27.0781 72.3963 31.7451 75.5076C33.0366 76.3678 33.2062 69.8278 33.3371 68.1073C33.4679 66.3869 33.5697 62.3305 32.1328 62.5559Z" fill="url(#paint19_radial_71_10270)"/>
<path style="mix-blend-mode:multiply" opacity="0.5" d="M33.9817 62.9869C33.5939 64.2639 33.0754 76.1495 33.766 76.2391C34.459 76.3288 38.5614 72.7668 39.8747 69.6143C41.2705 66.2703 40.8658 64.9182 39.7463 64.4021C38.6268 63.8859 34.1973 62.2745 33.9792 62.9869H33.9817Z" fill="url(#paint20_linear_71_10270)"/>
<path style="mix-blend-mode:screen" opacity="0.5" d="M25.7357 13.0774C26.4021 13.8674 32.2176 15.961 32.6053 15.3576C32.993 14.7542 33.0366 1.84855 32.5181 1.88975C32.0019 1.93336 28.8615 5.03014 27.0103 8.47343C25.159 11.9143 25.2801 12.5395 25.7333 13.0774H25.7357Z" fill="url(#paint21_radial_71_10270)"/>
<path style="mix-blend-mode:multiply" opacity="0.5" d="M33.2499 15.4644C33.7684 16.3246 40.3521 13.4629 40.5653 12.9468C40.7786 12.4306 38.8667 4.1047 33.6812 1.50224C33.3274 1.32535 32.7313 14.6042 33.2499 15.4644Z" fill="url(#paint22_linear_71_10270)"/>
<path d="M1.51392 26.3494C5.06625 25.8309 7.26162 25.6176 8.621 25.6128C9.22921 25.6128 12.6386 25.6685 15.7039 25.7509L19.5058 25.9787L18.8103 26.3688L15.464 26.1289L9.1759 25.8309L1.87012 27.0134L1.51392 26.347V26.3494Z" fill="#551628"/>
<path d="M65.5746 24.9727L58.075 23.9647L49.1772 25.232L45.7945 25.2853C45.7121 25.198 44.8082 24.7716 44.721 24.6868H48.6465C48.6465 24.6868 55.962 23.9259 58.831 23.2207C59.4974 23.056 65.7951 24.379 65.7951 24.379L65.577 24.9727H65.5746Z" fill="#551628"/>
<path d="M8.06124 38.3847C9.86163 38.5204 15.4131 38.5301 15.4131 38.5301C15.4058 38.6658 15.4179 38.8209 15.4131 38.9566L8.05154 38.993C8.05397 38.867 8.06124 38.3823 8.06124 38.3823V38.3847Z" fill="#551628"/>
<path d="M58.4457 38.3632L51.0599 38.3389C51.0502 38.1645 51.0745 37.9803 51.0745 37.9803C53.8562 37.8301 58.4457 37.8301 58.4457 37.8301C58.4336 37.8567 58.4384 38.2081 58.4457 38.3632Z" fill="#551628"/>
<path d="M15.3718 49.4126L17.2183 50.4521C12.1878 50.2389 5.79071 50.5902 3.30457 50.6242L4.00485 49.8148C6.51039 50.4739 13.3437 50.1953 15.3694 49.4102L15.3718 49.4126Z" fill="#551628"/>
<path d="M61.9738 49.2139L62.8849 50.1904C60.8495 50.2244 54.9225 49.8245 53.0906 49.7809C53.0906 49.7809 51.7845 49.4974 51.232 49.415L51.2248 49.0903C51.6997 49.2285 53.0809 49.4998 53.0809 49.4998C56.3861 49.7664 60.9828 49.6355 61.9763 49.2163L61.9738 49.2139Z" fill="#551628"/>
<path d="M43.5022 62.4077C43.1169 62.6088 42.6977 62.8051 42.2591 63.0014L24.2769 63.0862C23.8287 62.8972 23.613 62.7033 23.2108 62.5071C23.2108 62.5071 29.351 62.8293 32.7628 62.8075C36.635 62.7809 43.5022 62.4077 43.5022 62.4077Z" fill="#551628"/>
<path d="M44.28 15.7166C35.5494 15.6051 30.6062 15.5445 22.7649 15.4524L24.1291 14.7182C24.1291 14.7182 32.6756 15.1447 33.0463 15.1496C33.9744 15.1617 42.1161 14.585 42.1161 14.585L44.28 15.7166Z" fill="#551628"/>
<path style="mix-blend-mode:soft-light" d="M9.17587 25.833L17.1844 26.2546C17.1844 26.2546 13.38 27.2554 9.17587 25.833Z" fill="url(#paint23_radial_71_10270)"/>
<path style="mix-blend-mode:soft-light" d="M8.10001 38.993L13.3534 38.9663C13.3534 38.9663 10.448 39.5164 8.10001 38.993Z" fill="url(#paint24_radial_71_10270)"/>
<path style="mix-blend-mode:soft-light" d="M3.96851 50.6239L10.809 50.4106C10.809 50.4106 7.45541 52.0535 3.96851 50.6239Z" fill="url(#paint25_radial_71_10270)"/>
<path style="mix-blend-mode:soft-light" d="M24.4877 63.0865L42.3633 63.0259C42.3633 63.0259 33.8144 64.109 24.4877 63.0865Z" fill="url(#paint26_radial_71_10270)"/>
<path style="mix-blend-mode:soft-light" d="M54.4475 49.8413L62.582 50.2242C62.582 50.2242 57.9708 51.1135 54.4475 49.8413Z" fill="url(#paint27_radial_71_10270)"/>
<path style="mix-blend-mode:soft-light" d="M52.9621 38.3628H58.3076C58.3076 38.3628 56.5411 39.0001 52.9621 38.3628Z" fill="url(#paint28_radial_71_10270)"/>
<path style="mix-blend-mode:soft-light" d="M58.075 23.9648L49.4583 25.1643C49.4583 25.1643 54.147 25.7725 58.075 23.9648Z" fill="url(#paint29_radial_71_10270)"/>
<path style="mix-blend-mode:soft-light" d="M22.7673 15.4521L43.9335 15.7332C43.9335 15.7332 35.8354 16.3899 22.7673 15.4521Z" fill="url(#paint30_radial_71_10270)"/>
<defs>
<linearGradient id="paint0_linear_71_10270" x1="33.2476" y1="-0.700685" x2="33.2476" y2="72.0155" gradientUnits="userSpaceOnUse">
<stop offset="0.02" stop-color="#CD6D22"/>
<stop offset="0.95" stop-color="#C74D3E"/>
</linearGradient>
<radialGradient id="paint1_radial_71_10270" cx="0" cy="0" r="1" gradientUnits="userSpaceOnUse" gradientTransform="translate(7.05817 22.1185) scale(5.49133)">
<stop offset="0.02" stop-color="#FFA41A"/>
<stop offset="1" stop-color="#FF8836"/>
</radialGradient>
<radialGradient id="paint2_radial_71_10270" cx="0" cy="0" r="1" gradientUnits="userSpaceOnUse" gradientTransform="translate(22.4636 20.2323) scale(7.61655 7.61655)">
<stop offset="0.02" stop-color="#FFA41A"/>
<stop offset="1" stop-color="#FF8836"/>
</radialGradient>
<linearGradient id="paint3_linear_71_10270" x1="13.4455" y1="38.8089" x2="15.321" y2="38.8089" gradientUnits="userSpaceOnUse">
<stop stop-color="#961F63"/>
<stop offset="1" stop-color="#EA7052"/>
</linearGradient>
<linearGradient id="paint4_linear_71_10270" x1="51.2005" y1="38.8163" x2="53.0494" y2="38.8163" gradientUnits="userSpaceOnUse">
<stop stop-color="#961F63"/>
<stop offset="1" stop-color="#EA7052"/>
</linearGradient>
<linearGradient id="paint5_linear_71_10270" x1="18.0471" y1="21.0231" x2="33.4268" y2="21.0231" gradientUnits="userSpaceOnUse">
<stop stop-color="#961F63"/>
<stop offset="1" stop-color="#EA7052"/>
</linearGradient>
<linearGradient id="paint6_linear_71_10270" x1="10.8091" y1="50.0382" x2="10.8091" y2="27.7234" gradientUnits="userSpaceOnUse">
<stop stop-color="#705AB8"/>
<stop offset="1" stop-color="white"/>
</linearGradient>
<linearGradient id="paint7_linear_71_10270" x1="55.6349" y1="50.3871" x2="55.6349" y2="28.0215" gradientUnits="userSpaceOnUse">
<stop stop-color="#961F63"/>
<stop offset="1" stop-color="#EA7052"/>
</linearGradient>
<radialGradient id="paint8_radial_71_10270" cx="0" cy="0" r="1" gradientUnits="userSpaceOnUse" gradientTransform="translate(33.2489 56.2157) scale(14.5647)">
<stop offset="0.02" stop-color="#FFA41A"/>
<stop offset="1" stop-color="#FF8836"/>
</radialGradient>
<radialGradient id="paint9_radial_71_10270" cx="0" cy="0" r="1" gradientUnits="userSpaceOnUse" gradientTransform="translate(19.2447 23.9266) scale(0.748025)">
<stop offset="0.02" stop-color="#FFA41A"/>
<stop offset="1" stop-color="#FF8836"/>
</radialGradient>
<radialGradient id="paint10_radial_71_10270" cx="0" cy="0" r="1" gradientUnits="userSpaceOnUse" gradientTransform="translate(53.1479 36.4801) scale(0.456884)">
<stop offset="0.02" stop-color="#FFA41A"/>
<stop offset="1" stop-color="#FF8836"/>
</radialGradient>
<radialGradient id="paint11_radial_71_10270" cx="0" cy="0" r="1" gradientUnits="userSpaceOnUse" gradientTransform="translate(52.5635 32.5964) scale(0.985736)">
<stop offset="0.02" stop-color="#FFA41A"/>
<stop offset="1" stop-color="#FF8836"/>
</radialGradient>
<radialGradient id="paint12_radial_71_10270" cx="0" cy="0" r="1" gradientUnits="userSpaceOnUse" gradientTransform="translate(22.4276 53.7113) scale(3.23635)">
<stop offset="0.02" stop-color="#FFA41A"/>
<stop offset="1" stop-color="#FF8836"/>
</radialGradient>
<radialGradient id="paint13_radial_71_10270" cx="0" cy="0" r="1" gradientUnits="userSpaceOnUse" gradientTransform="translate(5.90999 52.9197) scale(5.26344)">
<stop offset="0.02" stop-color="#FFA41A"/>
<stop offset="1" stop-color="#FF8836"/>
</radialGradient>
<radialGradient id="paint14_radial_71_10270" cx="0" cy="0" r="1" gradientUnits="userSpaceOnUse" gradientTransform="translate(60.2563 52.5481) scale(5.63091)">
<stop offset="0.02" stop-color="#FFA41A"/>
<stop offset="1" stop-color="#FF8836"/>
</radialGradient>
<linearGradient id="paint15_linear_71_10270" x1="0.241747" y1="26.0435" x2="11.4124" y2="26.0435" gradientUnits="userSpaceOnUse">
<stop stop-color="#961F63"/>
<stop offset="1" stop-color="#EA7052"/>
</linearGradient>
<linearGradient id="paint16_linear_71_10270" x1="53.6043" y1="26.0851" x2="65.8993" y2="26.0851" gradientUnits="userSpaceOnUse">
<stop stop-color="#961F63"/>
<stop offset="1" stop-color="#EA7052"/>
</linearGradient>
<linearGradient id="paint17_linear_71_10270" x1="0.963846" y1="56.3625" x2="14.5795" y2="56.3625" gradientUnits="userSpaceOnUse">
<stop stop-color="#961F63"/>
<stop offset="1" stop-color="#EA7052"/>
</linearGradient>
<linearGradient id="paint18_linear_71_10270" x1="51.8402" y1="56.2196" x2="64.8622" y2="56.2196" gradientUnits="userSpaceOnUse">
<stop stop-color="#961F63"/>
<stop offset="1" stop-color="#EA7052"/>
</linearGradient>
<radialGradient id="paint19_radial_71_10270" cx="0" cy="0" r="1" gradientUnits="userSpaceOnUse" gradientTransform="translate(29.4673 69.0665) scale(5.38556)">
<stop offset="0.02" stop-color="#FFA41A"/>
<stop offset="1" stop-color="#FF8836"/>
</radialGradient>
<linearGradient id="paint20_linear_71_10270" x1="33.4268" y1="69.5246" x2="40.7665" y2="69.5246" gradientUnits="userSpaceOnUse">
<stop stop-color="#961F63"/>
<stop offset="1" stop-color="#EA7052"/>
</linearGradient>
<radialGradient id="paint21_radial_71_10270" cx="0" cy="0" r="1" gradientUnits="userSpaceOnUse" gradientTransform="translate(29.1773 8.67795) scale(5.47498)">
<stop offset="0.02" stop-color="#FFA41A"/>
<stop offset="1" stop-color="#FF8836"/>
</radialGradient>
<linearGradient id="paint22_linear_71_10270" x1="33.0463" y1="8.56329" x2="40.5823" y2="8.56329" gradientUnits="userSpaceOnUse">
<stop stop-color="#961F63"/>
<stop offset="1" stop-color="#EA7052"/>
</linearGradient>
<radialGradient id="paint23_radial_71_10270" cx="0" cy="0" r="1" gradientUnits="userSpaceOnUse" gradientTransform="translate(13.1808 26.2153) scale(2.84489)">
<stop offset="0.02" stop-color="#FFA41A"/>
<stop offset="1" stop-color="#FF8836"/>
</radialGradient>
<radialGradient id="paint24_radial_71_10270" cx="0" cy="0" r="1" gradientUnits="userSpaceOnUse" gradientTransform="translate(10.7263 39.094) scale(1.85916 1.85916)">
<stop offset="0.02" stop-color="#FFA41A"/>
<stop offset="1" stop-color="#FF8836"/>
</radialGradient>
<radialGradient id="paint25_radial_71_10270" cx="0" cy="0" r="1" gradientUnits="userSpaceOnUse" gradientTransform="translate(7.38962 50.8103) scale(2.4349 2.4349)">
<stop offset="0.02" stop-color="#FFA41A"/>
<stop offset="1" stop-color="#FF8836"/>
</radialGradient>
<radialGradient id="paint26_radial_71_10270" cx="0" cy="0" r="1" gradientUnits="userSpaceOnUse" gradientTransform="translate(33.4266 63.2763) scale(6.32223)">
<stop offset="0.02" stop-color="#FFA41A"/>
<stop offset="1" stop-color="#FF8836"/>
</radialGradient>
<radialGradient id="paint27_radial_71_10270" cx="0" cy="0" r="1" gradientUnits="userSpaceOnUse" gradientTransform="translate(58.516 50.1835) scale(2.88633 2.88633)">
<stop offset="0.02" stop-color="#FFA41A"/>
<stop offset="1" stop-color="#FF8836"/>
</radialGradient>
<radialGradient id="paint28_radial_71_10270" cx="0" cy="0" r="1" gradientUnits="userSpaceOnUse" gradientTransform="translate(55.6351 38.505) scale(1.89296)">
<stop offset="0.02" stop-color="#FFA41A"/>
<stop offset="1" stop-color="#FF8836"/>
</radialGradient>
<radialGradient id="paint29_radial_71_10270" cx="0" cy="0" r="1" gradientUnits="userSpaceOnUse" gradientTransform="translate(53.7672 24.6135) scale(3.08042 3.08042)">
<stop offset="0.02" stop-color="#FFA41A"/>
<stop offset="1" stop-color="#FF8836"/>
</radialGradient>
<radialGradient id="paint30_radial_71_10270" cx="0" cy="0" r="1" gradientUnits="userSpaceOnUse" gradientTransform="translate(33.3503 15.7046) scale(7.4857)">
<stop offset="0.02" stop-color="#FFA41A"/>
<stop offset="1" stop-color="#FF8836"/>
</radialGradient>
</defs>
</svg>
