<svg width="67" height="78" viewBox="0 0 67 78" fill="none" xmlns="http://www.w3.org/2000/svg">
<path d="M11.696 32.2105V34.6142C11.696 34.6142 6.98536 33.4075 3.30702 29.1234C-0.373735 24.8417 0.0115455 18.9971 0.0115455 18.9971C0.0115455 19.0043 0.0115455 19.0116 0.0139686 19.0189C0.0551621 19.3145 0.55433 22.5494 2.98232 26.1841C3.46937 26.9135 4.09212 27.5847 4.77545 28.1929C5.92644 29.2179 7.25917 30.0636 8.44652 30.7106C10.2372 31.6847 11.6935 32.2081 11.6935 32.2081L11.696 32.2105Z" fill="#736FA8"/>
<path d="M30.8146 2.71631C30.8146 2.71631 27.2478 5.59501 25.7624 11.0471C24.277 16.4992 25.4425 17.4006 25.4425 17.4006H41.445C41.445 17.4006 41.5734 14.0106 40.5411 10.5746C39.5089 7.13855 36.4824 3.60318 35.862 2.9247L30.8122 2.71631H30.8146Z" fill="#736FA8"/>
<path d="M0.0406494 58.7711C0.0406494 58.7711 6.74792 62.0641 15.3186 57.0942L17.1796 58.1265C17.1796 58.1265 13.1426 60.6441 8.60889 61.0319C4.08003 61.4171 0.0406494 58.7711 0.0406494 58.7711Z" fill="#736FA8"/>
<path d="M66.5075 18.9971C66.5075 18.9971 66.8928 24.8417 63.2121 29.1234C59.5337 33.4051 54.8231 34.6118 54.8231 34.6118V32.2081C54.8231 32.2081 60.9876 29.9957 63.5368 26.1841C66.0859 22.3725 66.5075 18.9971 66.5075 18.9971Z" fill="#736FA8"/>
<path d="M66.476 58.7711C66.476 58.7711 59.7687 62.0641 51.1981 57.0942L49.3371 58.1265C49.3371 58.1265 53.3741 60.6441 57.9078 61.0319C62.439 61.4196 66.4784 58.7735 66.4784 58.7735L66.476 58.7711Z" fill="#736FA8"/>
<path d="M24.9675 63.4473C24.9675 63.4473 24.953 72.0228 33.3371 77.0145C33.3371 77.0145 41.5297 72.883 41.5297 63.4473H24.97H24.9675Z" fill="#736FA8"/>
<path d="M64.8186 52.9962C64.5739 52.5261 64.2904 52.0512 63.9657 51.5811C61.9811 48.7024 58.9182 46.6137 58.5087 46.3423C58.4094 41.3385 58.4094 36.3347 58.5087 31.3309C58.8431 31.1055 60.6169 29.8867 62.3106 28.0936C62.8849 27.4853 63.4471 26.8141 63.9439 26.0896C66.3064 22.6512 66.4494 18.9486 66.4494 18.9486C66.4494 18.9486 63.1151 17.3324 58.9691 17.7952C55.9814 18.132 53.1318 19.4429 52.1189 19.9518C48.0044 17.7322 43.8754 15.5368 39.756 13.3221C39.6688 12.1783 39.3247 9.07429 38.0816 6.35309C36.3466 2.55845 33.245 0.530273 33.245 0.530273C33.245 0.530273 30.1458 2.55845 28.4108 6.35309C27.1678 9.07429 26.8237 12.1783 26.7364 13.3221C22.6026 15.5417 18.459 17.7467 14.3299 19.9736C14.0804 19.8476 13.7217 19.678 13.2807 19.4865C11.9116 18.888 9.73565 18.0835 7.48455 17.8364C3.34339 17.376 0.0115662 18.9971 0.0115662 18.9971C0.0115662 18.9971 0.0479134 19.8791 0.360499 21.1852C0.687624 22.5518 1.32006 24.3789 2.52921 26.1357C3.01142 26.8335 3.55663 27.4853 4.11153 28.0766C4.33688 28.3165 4.56223 28.5443 4.78759 28.7623C6.29721 30.2308 7.71959 31.2 7.98856 31.3769C8.09033 36.3807 8.09033 41.3821 7.98856 46.3859C7.54028 46.6864 4.51619 48.7703 2.55345 51.6272C2.23601 52.0875 1.95978 52.5528 1.71746 53.0132C0.149686 55.9912 0.0406439 58.7706 0.0406439 58.7706C0.0406439 58.7706 3.37489 60.3868 7.52332 59.924C7.55967 59.9192 7.59601 59.9167 7.63236 59.9095C10.5789 59.5557 13.3728 58.269 14.376 57.7674C18.4929 59.9894 22.6244 62.1872 26.7486 64.402C26.7825 64.7364 26.8455 65.2355 26.9594 65.851C27.1847 67.0723 27.6136 68.754 28.4133 70.5035C30.1482 74.2981 33.2474 75.8077 33.2474 75.8077C33.2474 75.8077 36.3491 74.2981 38.084 70.5035C38.857 68.8121 39.2811 67.1886 39.5137 65.977C39.6421 65.3034 39.7124 64.7582 39.7487 64.402C43.885 62.18 48.031 59.9749 52.1625 57.7432C53.1633 58.2423 55.8748 59.483 58.7607 59.8513C58.8431 59.861 58.9255 59.8731 59.0055 59.8804C63.1539 60.3384 66.4857 58.7149 66.4857 58.7149C66.4857 58.7149 66.3743 55.9573 64.8186 52.9938V52.9962ZM39.9499 55.6859C37.7133 56.929 35.4792 58.1721 33.2499 59.4248C30.9721 58.1478 28.6919 56.8757 26.4093 55.6084C22.7092 53.5487 19.009 51.4939 15.321 49.4148C15.3816 46.4586 15.4155 43.5023 15.4276 40.5485C15.4397 36.4679 15.4058 32.385 15.321 28.3044C21.2819 24.941 27.2792 21.6431 33.2499 18.2944C39.2181 21.6431 45.2178 24.941 51.1787 28.3044C51.0939 32.3971 51.06 36.4873 51.0745 40.58C51.0842 43.5242 51.1206 46.4707 51.1787 49.4148C47.4446 51.5205 43.6985 53.602 39.9499 55.6859Z" fill="url(#paint0_linear_71_10214)"/>
<g style="mix-blend-mode:soft-light" opacity="0.5">
<path d="M0.471969 19.3316C1.46061 20.6813 8.87301 24.8103 12.3599 26.1819C12.9802 26.4266 14.0876 20.5044 13.5036 20.1506C7.34886 16.4287 -0.0441614 18.6289 0.471969 19.3316Z" fill="white"/>
</g>
<path d="M33.2474 16.167C26.6565 19.8453 20.0219 23.451 13.4406 27.1487C13.6345 34.9561 13.6345 42.761 13.4406 50.5684C20.0219 54.2661 26.6565 57.8693 33.2474 61.5501C39.8408 57.8718 46.473 54.2661 53.0567 50.5684C52.8628 42.761 52.8628 34.9561 53.0567 27.1487C46.473 23.451 39.8408 19.8478 33.2474 16.167ZM51.1787 49.4126C45.2178 52.7759 39.2181 56.0738 33.2499 59.425C27.2817 56.0738 21.2819 52.7783 15.321 49.4126C15.4664 42.3757 15.4664 35.3413 15.321 28.3021C21.2819 24.9388 27.2817 21.6409 33.2499 18.2897C39.2181 21.6409 45.2178 24.9364 51.1787 28.3021C51.0333 35.3389 51.0333 42.3733 51.1787 49.4126Z" fill="#736FA8"/>
<g style="mix-blend-mode:soft-light" opacity="0.5">
<path d="M13.6951 26.1841C14.628 26.1841 29.8526 18.0326 31.3574 16.8041C32.1764 16.1353 26.8382 14.3034 26.2397 14.2816C25.0669 14.2404 24.4732 14.9019 20.2497 17.1167C17.5091 18.5536 17.4485 18.4542 14.7685 20.0026C13.5884 20.6835 13.2007 26.1841 13.6951 26.1841Z" fill="white"/>
</g>
<path style="mix-blend-mode:multiply" opacity="0.5" d="M39.5331 63.799C40.0831 64.0922 41.7599 62.9969 45.6975 60.9203C49.6037 58.8582 50.7038 58.3712 51.2005 57.7848C51.7796 57.099 53.3717 51.0896 52.1237 51.6833C48.615 53.3528 45.7218 55.255 42.5426 57.0917C39.4168 58.8946 33.938 61.5479 34.1949 61.8605C34.791 62.5826 39.1042 63.5712 39.5306 63.7966L39.5331 63.799Z" fill="url(#paint1_linear_71_10214)"/>
<path style="mix-blend-mode:multiply" opacity="0.5" d="M27.3131 63.7601C26.8576 63.9903 25.268 63.1615 21.1487 61.0316C18.4153 59.6165 17.9937 59.316 15.321 57.7846C14.2718 57.1836 12.2097 50.6048 13.4285 50.9973C14.3953 51.3099 18.2215 53.7791 21.5339 55.6013C24.5823 57.2781 31.8565 61.1188 31.9171 61.8603C31.9535 62.2965 27.633 63.5977 27.3131 63.7601Z" fill="url(#paint2_linear_71_10214)"/>
<path style="mix-blend-mode:multiply" opacity="0.5" d="M15.069 28.4378C14.9963 27.8974 13.4334 26.9112 13.4479 27.374C13.6539 34.9997 13.5061 48.5717 13.6442 50.3576C13.649 50.4254 14.9478 49.8536 15.069 49.2187C15.3186 47.9175 15.3234 40.9291 15.3186 37.5149C15.3137 34.1031 15.3186 30.3303 15.0666 28.4378H15.069Z" fill="url(#paint3_linear_71_10214)"/>
<path style="mix-blend-mode:multiply" opacity="0.5" d="M51.3968 28.2708C51.1012 35.1041 51.1787 47.4112 51.3968 49.5121C51.4186 49.7108 53.0591 50.6195 53.0494 50.2826C52.9525 46.4298 52.9258 42.136 52.9113 38.2784C52.8967 34.5516 52.9888 28.3726 52.8168 27.2991C52.7926 27.1489 51.4186 27.7256 51.3944 28.2708H51.3968Z" fill="url(#paint4_linear_71_10214)"/>
<path style="mix-blend-mode:multiply" opacity="0.5" d="M33.2499 16.4337C33.56 16.3416 33.434 18.1032 33.09 18.2922C29.8139 20.0999 20.24 25.2733 19.6488 25.5011C18.522 25.9397 17.7296 24.9874 18.1706 24.7378C20.6108 23.3566 23.0678 21.9148 25.5297 20.5288C27.8705 19.213 32.6344 16.6154 33.2499 16.4337Z" fill="url(#paint5_linear_71_10214)"/>
<path style="mix-blend-mode:multiply" opacity="0.5" d="M8.41987 47.411C8.62342 48.0919 12.8155 50.755 13.0602 49.8535C13.8792 46.8343 13.3219 42.1867 13.3001 38.3775C13.2807 34.8979 13.4237 28.3118 13.1547 27.8271C12.7306 27.0566 8.52165 30.81 8.24298 31.7502C8.12425 32.1476 8.07821 31.7018 8.14363 36.2258C8.21148 40.8928 8.05882 46.2116 8.41987 47.4134V47.411Z" fill="url(#paint6_linear_71_10214)"/>
<path style="mix-blend-mode:multiply" opacity="0.5" d="M53.5171 50.3745C53.6116 50.612 57.3456 47.411 57.9078 46.4223C58.1962 45.9159 58.1598 42.2473 58.1719 37.9728C58.1865 33.6354 58.2907 33.2477 58.0798 32.5959C57.8181 31.7865 53.6891 26.9572 53.3935 28.2342C52.7247 31.125 53.2675 35.2177 53.2263 38.9906C53.1875 42.6689 53.093 49.3132 53.5146 50.3745H53.5171Z" fill="url(#paint7_linear_71_10214)"/>
<path d="M13.4406 50.5684L32.9639 61.8626C32.9639 61.8626 42.2543 57.3822 53.0567 50.5684C53.0567 50.5684 39.361 58.1261 32.9639 61.3901C32.9639 61.3901 28.4545 58.887 13.4406 50.5684Z" fill="white"/>
<path d="M21.7181 22.642C20.5986 22.3173 19.7166 23.003 19.2441 23.541C18.7716 24.0789 19.0502 24.4182 19.6609 24.3285C20.2691 24.2388 22.1906 22.7801 21.7205 22.6444L21.7181 22.642Z" fill="#394773"/>
<path style="mix-blend-mode:multiply" opacity="0.5" d="M21.7181 22.6417C20.9597 22.3631 20.0195 22.8283 19.7263 23.0828C19.4331 23.3372 20.0389 24.1077 20.4411 23.9599C20.8409 23.8121 22.0646 22.7677 21.7181 22.6393V22.6417Z" fill="url(#paint8_linear_71_10214)"/>
<path d="M19.5155 23.2622C19.5155 23.2622 18.2821 24.0424 18.4323 24.4568C18.5825 24.8712 20.0679 24.1733 20.0679 24.1733C20.0679 24.1733 19.2949 24.4035 19.1108 24.0497C18.9266 23.6959 19.5155 23.2598 19.5155 23.2598V23.2622Z" fill="white"/>
<path d="M52.7877 34.6414C52.6011 35.0097 52.4751 36.7277 52.7538 36.8513C53.03 36.9749 53.6455 36.4369 53.6091 36.1025C53.5728 35.7681 52.9113 34.3991 52.7877 34.6414Z" fill="#394773"/>
<path d="M51.7336 31.4766C51.8718 32.1017 52.6956 33.7034 53.1148 33.1291C53.694 32.3343 53.2602 29.2497 52.8459 29.1285C52.6787 29.0801 51.5543 30.6696 51.7336 31.4766Z" fill="#394773"/>
<path style="mix-blend-mode:multiply" opacity="0.5" d="M52.6084 36.4441C52.7344 37.0159 53.5195 35.9037 53.3692 35.5184C53.219 35.1332 52.8652 34.4086 52.7901 34.6413C52.715 34.8739 52.5405 36.1339 52.6108 36.4441H52.6084Z" fill="url(#paint9_linear_71_10214)"/>
<path d="M52.6883 36.7833C52.6883 36.7833 52.9694 36.8997 53.2917 36.6549C53.5461 36.4635 53.6406 36.18 53.5922 36.0249C53.5922 36.0249 53.677 36.4465 53.3789 36.7252C52.9113 37.1614 52.6883 36.7833 52.6883 36.7833Z" fill="#DAE1EF"/>
<path style="mix-blend-mode:multiply" opacity="0.5" d="M51.8645 31.0041C52.2643 32.4774 53.3305 32.4095 53.4032 31.8086C53.4759 31.2077 53.219 29.0462 52.8458 29.1262C52.4727 29.2061 51.7772 30.6818 51.8645 31.0041Z" fill="url(#paint10_linear_71_10214)"/>
<path d="M51.7336 31.4766C51.7336 31.4766 52.2618 32.9571 52.761 32.9183C53.2602 32.8796 53.3741 32.361 53.3741 32.361C53.3741 32.361 53.5146 33.8585 52.9985 33.7083C52.1067 33.449 51.7336 31.4766 51.7336 31.4766Z" fill="#DAE1EF"/>
<path d="M17.6957 18.8761C17.6811 19.2541 22.1882 18.7792 23.378 18.1734C24.3084 17.7009 24.5629 15.7333 24.1267 15.7938C22.2754 16.0459 17.7102 18.5344 17.6957 18.8785V18.8761Z" fill="white"/>
<g style="mix-blend-mode:soft-light" opacity="0.5">
<path d="M18.5729 51.2422C20.0849 52.5434 19.6803 54.0264 19.6803 54.0264L23.4071 56.0885C23.4071 56.0885 27.7881 56.5901 25.7333 55.2307L18.5753 51.2422H18.5729Z" fill="white"/>
</g>
<g style="mix-blend-mode:soft-light" opacity="0.5">
<path d="M11.3083 51.2423C10.9472 51.9183 0.1933 58.9648 0.457423 57.8671C0.723969 56.7695 0.954167 51.9183 6.91753 47.9274C7.73413 47.3798 11.9019 50.1252 11.3058 51.2423H11.3083Z" fill="white"/>
</g>
<g style="mix-blend-mode:soft-light" opacity="0.5">
<path d="M52.6374 20.233C51.5761 20.8266 52.0171 25.7384 53.0494 25.6148C54.0816 25.4912 66.4881 19.3025 65.5843 18.9972C64.6805 18.6919 58.8819 16.734 52.6374 20.233Z" fill="white"/>
</g>
<g style="mix-blend-mode:soft-light" opacity="0.5">
<path d="M58.3876 46.939C57.7963 46.939 54.0356 50.6609 54.6777 51.2425C55.3199 51.824 65.5892 59.1686 65.8654 58.0394C66.4397 55.6914 61.2735 46.9438 58.39 46.939H58.3876Z" fill="white"/>
</g>
<path d="M4.39501 18.0282C4.01942 18.365 6.56373 19.4675 7.04836 19.5305C7.53299 19.596 9.36973 18.5346 9.13953 18.2899C8.90933 18.0452 4.95718 17.5266 4.39744 18.0258L4.39501 18.0282Z" fill="white"/>
<path d="M58.6129 18.3622C58.2373 18.699 60.7816 19.7991 61.2663 19.8645C61.7509 19.93 63.5876 18.8686 63.3574 18.6239C63.1272 18.3791 59.1751 17.8606 58.6153 18.3598L58.6129 18.3622Z" fill="white"/>
<path style="mix-blend-mode:multiply" opacity="0.5" d="M11.3664 27.2551C9.76956 25.4038 0.447715 19.4016 0.270825 20.2328C0.0963585 21.0639 0.723953 24.1413 1.92826 26.8068C3.13256 29.4722 6.87632 32.1377 7.30764 31.9245C7.73896 31.7088 11.8971 27.873 11.3664 27.2575V27.2551Z" fill="url(#paint11_linear_71_10214)"/>
<path style="mix-blend-mode:multiply" opacity="0.5" d="M53.6115 26.3007C53.3934 27.3063 58.3124 31.525 59.1096 31.794C59.6209 31.9661 64.4236 28.1787 65.262 24.7378C66.2216 20.8002 65.9938 20.2841 65.262 20.381C64.5302 20.4779 53.8175 25.3533 53.6115 26.3007Z" fill="url(#paint12_linear_71_10214)"/>
<path style="mix-blend-mode:multiply" opacity="0.5" d="M11.696 51.916C10.7412 52.1801 0.474371 58.6063 0.983231 59.0788C1.48967 59.5538 5.9531 61.4729 9.97553 60.5763C13.9979 59.6798 14.5625 58.8123 14.5795 58.5966C14.6619 57.4578 12.3308 51.7416 11.696 51.916Z" fill="url(#paint13_linear_71_10214)"/>
<path style="mix-blend-mode:multiply" opacity="0.5" d="M51.9566 58.9113C52.7296 59.1924 56.214 60.874 59.9699 60.4912C63.7258 60.1083 65.09 58.9428 64.8307 58.6399C64.5715 58.3394 55.4071 51.4553 53.6092 51.9108C52.7102 52.1386 51.4501 58.7247 51.9566 58.9088V58.9113Z" fill="url(#paint14_linear_71_10214)"/>
<g style="mix-blend-mode:soft-light" opacity="0.5">
<path d="M32.1328 62.5554C31.023 62.7299 25.7963 64.5424 25.5491 65.2669C25.3044 65.989 27.0781 72.3958 31.7451 75.5071C33.0366 76.3673 33.2062 69.8273 33.3371 68.1068C33.4679 66.3864 33.5697 62.3301 32.1328 62.5554Z" fill="white"/>
</g>
<path style="mix-blend-mode:multiply" opacity="0.5" d="M33.9817 62.9869C33.594 64.2639 33.0754 76.1495 33.766 76.2391C34.459 76.3288 38.5614 72.7668 39.8748 69.6143C41.2705 66.2703 40.8658 64.9182 39.7463 64.4021C38.6269 63.8859 34.1973 62.2745 33.9793 62.9869H33.9817Z" fill="url(#paint15_linear_71_10214)"/>
<g style="mix-blend-mode:soft-light" opacity="0.5">
<path d="M25.7357 13.0774C26.402 13.8674 32.2176 15.961 32.6053 15.3576C32.993 14.7542 33.0366 1.84855 32.518 1.88975C31.9995 1.93094 28.8615 5.03014 27.0102 8.47343C25.159 11.9143 25.2801 12.5395 25.7332 13.0774H25.7357Z" fill="white"/>
</g>
<path style="mix-blend-mode:multiply" opacity="0.5" d="M33.2498 15.4644C33.7684 16.3246 40.3521 13.4629 40.5653 12.9468C40.7786 12.4306 38.8667 4.1047 33.6812 1.50224C33.3274 1.32535 32.7313 14.6042 33.2498 15.4644Z" fill="url(#paint16_linear_71_10214)"/>
<defs>
<linearGradient id="paint0_linear_71_10214" x1="33.2474" y1="77.0338" x2="33.2474" y2="4.31765" gradientUnits="userSpaceOnUse">
<stop stop-color="#86759D"/>
<stop offset="0.39" stop-color="#98ABD2"/>
<stop offset="1" stop-color="#DAE1EF"/>
</linearGradient>
<linearGradient id="paint1_linear_71_10214" x1="34.8661" y1="57.7436" x2="44.5102" y2="57.7436" gradientUnits="userSpaceOnUse">
<stop stop-color="#8980EB"/>
<stop offset="1" stop-color="#705AB8"/>
</linearGradient>
<linearGradient id="paint2_linear_71_10214" x1="13.0553" y1="57.3896" x2="31.9171" y2="57.3896" gradientUnits="userSpaceOnUse">
<stop stop-color="#705AB8"/>
<stop offset="1" stop-color="white"/>
</linearGradient>
<linearGradient id="paint3_linear_71_10214" x1="13.4455" y1="38.8089" x2="15.321" y2="38.8089" gradientUnits="userSpaceOnUse">
<stop stop-color="#8980EB"/>
<stop offset="1" stop-color="#705AB8"/>
</linearGradient>
<linearGradient id="paint4_linear_71_10214" x1="51.2005" y1="38.8163" x2="53.0494" y2="38.8163" gradientUnits="userSpaceOnUse">
<stop stop-color="#8980EB"/>
<stop offset="1" stop-color="#705AB8"/>
</linearGradient>
<linearGradient id="paint5_linear_71_10214" x1="18.0471" y1="21.0231" x2="33.4268" y2="21.0231" gradientUnits="userSpaceOnUse">
<stop stop-color="#8980EB"/>
<stop offset="1" stop-color="#705AB8"/>
</linearGradient>
<linearGradient id="paint6_linear_71_10214" x1="10.8091" y1="59.7424" x2="10.8091" y2="14.8972" gradientUnits="userSpaceOnUse">
<stop stop-color="#705AB8"/>
<stop offset="1" stop-color="white"/>
</linearGradient>
<linearGradient id="paint7_linear_71_10214" x1="55.6349" y1="60.1131" x2="55.6349" y2="15.1662" gradientUnits="userSpaceOnUse">
<stop stop-color="#8980EB"/>
<stop offset="1" stop-color="#705AB8"/>
</linearGradient>
<linearGradient id="paint8_linear_71_10214" x1="20.5243" y1="22.5896" x2="21.0524" y2="23.6177" gradientUnits="userSpaceOnUse">
<stop stop-color="#8980EB"/>
<stop offset="1" stop-color="#705AB8"/>
</linearGradient>
<linearGradient id="paint9_linear_71_10214" x1="53.7363" y1="35.7015" x2="54.4927" y2="35.7735" gradientUnits="userSpaceOnUse">
<stop stop-color="#8980EB"/>
<stop offset="1" stop-color="#705AB8"/>
</linearGradient>
<linearGradient id="paint10_linear_71_10214" x1="53.5894" y1="30.8938" x2="55.1045" y2="30.7618" gradientUnits="userSpaceOnUse">
<stop stop-color="#8980EB"/>
<stop offset="1" stop-color="#705AB8"/>
</linearGradient>
<linearGradient id="paint11_linear_71_10214" x1="11.4124" y1="26.0435" x2="0.241747" y2="26.0435" gradientUnits="userSpaceOnUse">
<stop stop-color="#705AB8"/>
<stop offset="1" stop-color="white"/>
</linearGradient>
<linearGradient id="paint12_linear_71_10214" x1="53.6043" y1="26.0851" x2="65.8993" y2="26.0851" gradientUnits="userSpaceOnUse">
<stop stop-color="#705AB8"/>
<stop offset="1" stop-color="white"/>
</linearGradient>
<linearGradient id="paint13_linear_71_10214" x1="14.5795" y1="56.3625" x2="0.963846" y2="56.3625" gradientUnits="userSpaceOnUse">
<stop stop-color="#705AB8"/>
<stop offset="1" stop-color="white"/>
</linearGradient>
<linearGradient id="paint14_linear_71_10214" x1="51.8403" y1="56.2192" x2="64.8622" y2="56.2192" gradientUnits="userSpaceOnUse">
<stop stop-color="#705AB8"/>
<stop offset="1" stop-color="white"/>
</linearGradient>
<linearGradient id="paint15_linear_71_10214" x1="40.7665" y1="69.5246" x2="33.4268" y2="69.5246" gradientUnits="userSpaceOnUse">
<stop stop-color="#705AB8"/>
<stop offset="1" stop-color="white"/>
</linearGradient>
<linearGradient id="paint16_linear_71_10214" x1="40.5823" y1="8.56329" x2="33.0463" y2="8.56329" gradientUnits="userSpaceOnUse">
<stop stop-color="#705AB8"/>
<stop offset="1" stop-color="white"/>
</linearGradient>
</defs>
</svg>
