<svg width="240" height="181" viewBox="0 0 240 181" fill="none" xmlns="http://www.w3.org/2000/svg">
<g filter="url(#filter0_f_52_58909)">
<path d="M38.9173 80.7569C40.3207 93.6647 50.4077 112.28 53.1706 117.153C53.1706 117.153 53.3022 117.373 53.5215 117.768C53.7627 118.163 53.8723 118.361 53.8723 118.361C56.8326 123.08 68.3888 140.817 79.0678 148.193C79.0678 148.193 131.388 123.3 167.745 101.062C168.622 100.536 169.5 99.9649 170.355 99.3941C205.44 75.8616 231.271 16.3938 230.328 12.3766L230.219 12.201C227.127 9.45696 161.671 3.83726 124.415 23.9892C123.757 24.3623 123.121 24.6916 122.486 25.0868C85.6682 46.5558 38.8954 80.7569 38.8954 80.7569H38.9173Z" fill="url(#paint0_linear_52_58909)"/>
<path d="M38.9173 80.7568C40.3207 93.6646 50.4077 112.28 53.1706 117.153C53.1706 117.153 53.3022 117.373 53.5215 117.768C53.7627 118.163 53.8723 118.361 53.8723 118.361C56.8326 123.08 68.3888 140.817 79.0678 148.193C79.0678 148.193 131.388 123.3 167.745 101.062C168.622 100.536 169.5 99.9648 170.355 99.3941L171.1 98.3623C171.1 98.3623 169.807 57.0048 125.95 23.7476L124.415 23.9671C123.757 24.3403 123.121 24.6696 122.486 25.0647C85.6682 46.5337 38.8954 80.7349 38.8954 80.7349L38.9173 80.7568Z" fill="url(#paint1_linear_52_58909)"/>
<path d="M167.767 101.084C167.767 101.084 171.078 98.933 171.122 98.3842C171.824 87.8473 158.711 48.1582 125.972 23.7915C125.358 23.3305 123.143 25.5476 122.529 25.1086C122.529 25.1086 121.674 24.3622 124.284 21.1353C126.74 18.1059 148.734 9.43491 163.206 9.21539C163.206 9.21539 194.278 32.682 201.624 73.7541C201.624 73.7541 187.13 93.9938 172.241 102.862C169.938 104.245 167.745 101.106 167.745 101.106L167.767 101.084Z" fill="url(#paint2_linear_52_58909)"/>
<path d="M129.546 122.663C129.546 122.663 117.793 139.939 113.385 143.649C109 147.381 62.2489 171.945 60.1658 171.528C58.0826 171.111 68.0818 137.788 68.0818 137.788C68.0818 137.788 76.3268 146.832 78.9363 147.359C81.5457 147.886 129.525 122.641 129.525 122.641L129.546 122.663Z" fill="url(#paint3_linear_52_58909)"/>
<path d="M86.019 48.0265C86.019 48.0265 64.3101 50.1558 58.9596 52.2413C53.5872 54.3487 9.77472 83.8301 9.1388 85.8497C8.50288 87.8693 42.5573 94.9159 42.5573 94.9159C42.5573 94.9159 38.8953 83.4789 39.3777 80.8666C39.6628 79.33 86.019 48.0265 86.019 48.0265Z" fill="url(#paint4_linear_52_58909)"/>
<path d="M105.93 77.508C107.399 78.0568 110.315 84.2033 110.513 84.6424C110.798 85.0375 114.811 90.5255 114.591 92.0841C114.372 93.6866 99.0882 110.172 93.4307 113.18C87.7732 116.187 36.3298 141.366 35.2114 141.3C34.3562 141.256 30.3653 136.076 28.9619 133.31C27.1857 130.763 24.5543 124.793 24.9052 124.024C25.3876 122.992 71.963 89.6913 77.3135 86.1351C82.6421 82.5789 104.395 76.9592 105.908 77.5299L105.93 77.508Z" fill="url(#paint5_linear_52_58909)"/>
<path d="M163.074 108.328C163.074 108.328 161.956 91.3596 145.532 63.7441C129.086 36.1285 115.008 26.338 115.008 26.338C115.008 26.338 97.3338 35.0748 93.5622 37.9725C89.7686 40.8701 88.1678 46.5996 88.1678 46.5996L93.4964 43.8776C93.4964 43.8776 105.447 51.451 121.367 78.1885C137.287 104.926 137.331 118.448 137.331 118.448L131.279 121.719C131.279 121.719 137.66 122.795 140.752 121.873C145.905 120.358 163.074 108.285 163.074 108.285V108.328Z" fill="url(#paint6_linear_52_58909)"/>
<g style="mix-blend-mode:multiply" opacity="0.3">
<path d="M199.607 64.8636C200.813 68.7272 225.767 26.0306 227.302 18.106C228.837 10.2033 189.322 35.8432 188.445 36.5456C187.568 37.2481 193.445 45.041 199.607 64.8636Z" fill="#CBAAB1"/>
</g>
<g style="mix-blend-mode:soft-light" opacity="0.5">
<path d="M224.912 14.6815C225.855 15.1425 201.01 28.4454 194.739 29.982C188.489 31.5186 179.17 18.7206 176.604 15.6474C174.038 12.5741 206.558 5.48361 224.89 14.6815H224.912Z" fill="#F6F4EA"/>
</g>
<g style="mix-blend-mode:multiply" opacity="0.75">
<path d="M167.767 101.084C167.767 101.084 170.223 103.367 171.758 103.148C173.271 102.928 181.494 88.6156 159.785 54.612C139.151 22.2768 124.7 20.6085 124.284 21.1134C123.867 21.6402 122.661 23.9452 122.529 25.0867C122.529 25.0867 136.388 28.2478 153.514 56.9829C170.64 85.718 167.767 101.062 167.767 101.062V101.084Z" fill="#772781"/>
</g>
<g style="mix-blend-mode:multiply" opacity="0.75">
<path d="M131.279 121.741C131.279 121.741 139.129 122.839 140.072 122.07C141.015 121.302 139.502 101.172 124.613 76.1689C109.723 51.1656 93.2334 39.1799 92.2247 39.1799C91.216 39.1799 88.1461 46.6216 88.1461 46.6216L90.1854 46.0069C90.1854 46.0069 103.54 52.2413 119.218 78.5617C134.875 104.882 132.901 120.534 132.901 120.534L131.279 121.763V121.741Z" fill="#772781"/>
</g>
<g style="mix-blend-mode:multiply" opacity="0.3">
<path d="M160.553 96.6721C161.605 99.6575 138.252 111.204 138.164 110.919C138.076 110.655 130.489 89.7133 126.345 82.4252C122.2 75.1372 141.453 65.4783 143.975 65.4564C146.497 65.4125 156.211 84.4668 160.553 96.6721Z" fill="#AB2781"/>
</g>
<g style="mix-blend-mode:multiply" opacity="0.3">
<path d="M174.368 88.7035C175.881 92.7426 198.313 72.7663 199.563 67.7833C200.813 62.8002 189.257 40.2994 187.371 38.653C185.485 37.0066 163.667 54.0633 162.417 58.1244C161.167 62.1855 167.307 69.737 174.368 88.7035Z" fill="#AB2781"/>
</g>
<g style="mix-blend-mode:soft-light" opacity="0.5">
<path d="M184.016 32.6382C185.551 35.4041 160.399 48.0924 157.198 48.6412C153.996 49.168 137.769 30.7942 135.577 27.3697C133.384 23.9452 162.373 15.9986 166.912 16.3498C171.451 16.7011 180.661 26.6234 184.016 32.6382Z" fill="#F6F4EA"/>
</g>
<g style="mix-blend-mode:soft-light" opacity="0.3">
<path d="M138.34 53.8438C140.379 58.6513 121.85 68.3541 118.933 68.1126C115.995 67.8492 99.3293 44.9313 96.8734 42.802C94.4174 40.6507 115.6 30.7284 118.473 31.6943C122.025 32.8797 136.103 48.5753 138.361 53.8658L138.34 53.8438Z" fill="#F6F4EA"/>
</g>
<g style="mix-blend-mode:multiply" opacity="0.5">
<path d="M94.8558 112.258C96.6758 108.482 80.2516 84.4448 78.7825 85.2571C77.3133 86.0912 26.0233 122.488 24.9269 123.98C23.8305 125.473 32.4044 140.159 35.2112 141.256C38.018 142.354 94.8558 112.236 94.8558 112.236V112.258Z" fill="#772781"/>
</g>
<g style="mix-blend-mode:multiply" opacity="0.5">
<path d="M42.5573 94.9159C42.5573 94.9159 38.6321 82.1398 39.3777 80.8666C40.1232 79.5934 81.8087 50.8802 81.8087 50.8802C81.8087 50.8802 57.6438 52.812 55.6045 54.0413C53.5871 55.2487 9.73081 83.7423 9.13874 85.8497C8.54668 87.9571 42.5573 94.9159 42.5573 94.9159Z" fill="#772781"/>
</g>
<g style="mix-blend-mode:multiply" opacity="0.5">
<path d="M124.634 125.253C124.634 125.253 112.661 144.264 111.455 145.032C110.249 145.779 61.7224 171.374 60.1874 171.572C58.6524 171.77 68.1035 137.832 68.1035 137.832C68.1035 137.832 77.4668 145.998 79.3965 146.13C81.3261 146.261 124.634 125.253 124.634 125.253Z" fill="#772781"/>
</g>
<g style="mix-blend-mode:multiply" opacity="0.5">
<path d="M79.3967 146.108C82.4009 147.491 61.4376 163.34 61.4376 163.34C61.4376 163.34 65.582 147.008 68.1037 137.788C68.1037 137.788 75.6032 144.352 79.3967 146.086V146.108Z" fill="#772781"/>
</g>
<g style="mix-blend-mode:soft-light" opacity="0.3">
<path d="M91.5011 102.753C96.413 111.007 109.899 92.8523 110.513 89.2083C111.127 85.5643 107.18 78.5397 104.921 77.5299C102.663 76.5201 81.2168 85.235 80.5151 85.5862C79.8134 85.9375 86.2164 93.906 91.4791 102.775L91.5011 102.753Z" fill="#F6F4EA"/>
</g>
<g style="mix-blend-mode:soft-light" opacity="0.5">
<path d="M89.5495 99.1307C92.2906 103.587 89.7469 89.1425 87.8392 87.6059C85.9314 86.0693 81.7651 86.0473 81.6554 87.0571C81.5458 88.0669 89.5495 99.1087 89.5495 99.1087V99.1307Z" fill="#F6F4EA"/>
</g>
<g style="mix-blend-mode:multiply" opacity="0.5">
<path d="M111.938 95.6842C111.938 95.6842 104.68 109.909 93.6718 123.805C82.6639 137.7 71.3709 139.193 68.8711 138.469C66.3494 137.744 61.0208 128.854 61.0208 128.854C61.0208 128.854 94.0227 113.29 95.7769 111.599C97.5312 109.909 111.938 95.6842 111.938 95.6842Z" fill="#772781"/>
</g>
<g style="mix-blend-mode:multiply" opacity="0.3">
<path d="M196.493 55.3804C199.124 59.3318 222.631 25.5916 222.609 21.4866C222.587 17.3816 189.542 34.4602 188.467 36.5676C187.371 38.675 196.515 55.3804 196.515 55.3804H196.493Z" fill="#AB2781"/>
</g>
<g style="mix-blend-mode:soft-light" opacity="0.3">
<path d="M107.443 61.5928C111.368 66.4881 51.4602 97.8574 48.8946 99.0209C46.329 100.184 42.8863 85.1473 45.0353 80.0983C47.1842 75.0494 86.5014 49.5192 89.0889 48.1802C91.6765 46.8411 105.71 59.4415 107.443 61.5928Z" fill="#F6F4EA"/>
</g>
<path d="M220.483 13.9571C225.153 17.4914 216.272 20.6525 212.018 18.9183C207.764 17.1621 214.189 9.19353 220.483 13.9571Z" fill="#F6F4EA"/>
<path d="M162.899 106.858C162.899 106.858 160.882 87.4522 146.563 62.0757C132.222 36.6773 114.986 26.338 114.986 26.338C114.986 26.338 151.409 57.7073 162.899 106.858Z" fill="#B8A9BB"/>
<path d="M201.646 73.7322C201.646 73.7322 199.453 56.6316 187.853 37.1383C176.232 17.6449 163.228 9.21539 163.228 9.21539C163.228 9.21539 191.187 31.1674 201.646 73.7541V73.7322Z" fill="#D96866"/>
<g style="mix-blend-mode:soft-light">
<path d="M181.012 29.3673C181.911 32.0894 172.043 29.5649 168.25 27.238C164.456 24.9111 168.272 17.7986 169.872 17.4694C171.473 17.1401 179.74 25.5477 181.012 29.3673Z" fill="#F6F4EA"/>
</g>
<g style="mix-blend-mode:soft-light">
<path d="M136.497 50.7705C136.476 54.3267 127.638 51.5169 125.599 47.6314C123.56 43.7459 125.511 41.1994 127.375 40.6506C129.239 40.0799 136.519 49.6948 136.497 50.7705Z" fill="#F6F4EA"/>
</g>
<g style="mix-blend-mode:multiply" opacity="0.3">
<path d="M109.701 110.546C102.86 114.651 98.211 120.226 102.355 121.829C107.311 123.739 111.85 127.185 117.881 122.927C118.933 122.18 120.073 121.412 121.192 120.622C126.498 116.934 131.673 112.873 127.266 109.207C127.266 109.207 122.464 104.443 113.67 108.438C112.289 109.053 110.951 109.777 109.701 110.546Z" fill="#C9455B"/>
</g>
<g style="mix-blend-mode:multiply" opacity="0.5">
<path d="M109.701 110.546L108.956 111.16C108.956 111.16 113.21 108.636 117.749 108.219C122.266 107.802 126.389 108.504 126.586 112.214C126.74 115.924 121.214 120.6 121.214 120.6C126.52 116.912 131.695 112.851 127.288 109.185C127.288 109.185 122.485 104.421 113.692 108.416C112.311 109.031 110.973 109.755 109.723 110.524L109.701 110.546Z" fill="#C9455B"/>
</g>
<g style="mix-blend-mode:multiply" opacity="0.3">
<path d="M94.1762 128.195C90.7554 130.851 88.7161 134.166 91.172 134.803C94.0885 135.571 96.9611 137.195 99.8994 134.517C100.404 134.034 100.974 133.551 101.522 133.068C104.11 130.741 106.609 128.217 103.825 126.461C103.825 126.461 100.711 124.134 96.2155 126.834C95.5138 127.251 94.834 127.734 94.1981 128.217L94.1762 128.195Z" fill="#C9455B"/>
</g>
<g style="mix-blend-mode:multiply" opacity="0.5">
<path d="M94.1763 128.195L93.8254 128.568C93.8254 128.568 95.9525 126.944 98.4304 126.461C100.908 125.978 103.255 126.132 103.715 128.151C104.154 130.171 101.522 133.068 101.522 133.068C104.11 130.741 106.61 128.217 103.825 126.461C103.825 126.461 100.711 124.134 96.2156 126.834C95.5139 127.251 94.8341 127.734 94.1982 128.217L94.1763 128.195Z" fill="#C9455B"/>
</g>
<g style="mix-blend-mode:multiply" opacity="0.3">
<path d="M200.616 34.7455C197.655 37.8847 196.12 41.4848 198.642 41.7482C201.646 42.0555 204.716 43.2409 207.216 40.1238C207.654 39.575 208.137 39.0262 208.597 38.4335C210.812 35.7334 212.895 32.8577 209.847 31.5405C209.847 31.5405 206.405 29.6966 202.37 33.0552C201.734 33.5821 201.142 34.1528 200.594 34.7236L200.616 34.7455Z" fill="#C9455B"/>
</g>
<g style="mix-blend-mode:multiply" opacity="0.5">
<path d="M200.616 34.7455L200.309 35.1846C200.309 35.1846 202.151 33.2528 204.541 32.3967C206.909 31.5405 209.255 31.321 210.023 33.2528C210.768 35.1846 208.597 38.4335 208.597 38.4335C210.812 35.7334 212.895 32.8577 209.847 31.5405C209.847 31.5405 206.405 29.6966 202.37 33.0552C201.734 33.5821 201.142 34.1528 200.594 34.7236L200.616 34.7455Z" fill="#C9455B"/>
</g>
<path d="M78.1026 51.1876C78.1026 51.1876 62.0074 54.2169 56.5473 56.1926C51.0871 58.1683 37.996 65.5222 37.996 65.5222C37.996 65.5222 53.872 54.4804 58.5208 52.3291C63.1696 50.1997 78.0807 51.1876 78.0807 51.1876H78.1026Z" fill="#63577C"/>
<path d="M103.562 149.225C103.562 149.225 111.697 143.847 115.118 139.281C118.582 134.671 122.968 127.844 122.968 127.844C122.968 127.844 117.311 140.554 114.043 142.969C110.776 145.383 103.562 149.225 103.562 149.225Z" fill="#63577C"/>
<g style="mix-blend-mode:soft-light">
<path d="M201.756 67.2125C201.756 67.2125 219.671 36.1944 230.35 12.3765C230.35 12.3765 228.991 27.5892 201.756 67.2125Z" fill="#BAFFFF"/>
</g>
</g>
<defs>
<filter id="filter0_f_52_58909" x="0.330005" y="0.415393" width="238.823" height="179.957" filterUnits="userSpaceOnUse" color-interpolation-filters="sRGB">
<feFlood flood-opacity="0" result="BackgroundImageFix"/>
<feBlend mode="normal" in="SourceGraphic" in2="BackgroundImageFix" result="shape"/>
<feGaussianBlur stdDeviation="4.4" result="effect1_foregroundBlur_52_58909"/>
</filter>
<linearGradient id="paint0_linear_52_58909" x1="164.547" y1="103.027" x2="119.192" y2="27.0247" gradientUnits="userSpaceOnUse">
<stop stop-color="#BECAFF"/>
<stop offset="0.03" stop-color="#BCC6FA"/>
<stop offset="0.06" stop-color="#B6BCED"/>
<stop offset="0.1" stop-color="#ACAAD7"/>
<stop offset="0.13" stop-color="#A195BB"/>
<stop offset="0.16" stop-color="#A497BB"/>
<stop offset="0.39" stop-color="#C5AEC1"/>
<stop offset="0.62" stop-color="#DDBEC5"/>
<stop offset="0.82" stop-color="#ECC8C8"/>
<stop offset="1" stop-color="#F1CCC9"/>
</linearGradient>
<linearGradient id="paint1_linear_52_58909" x1="127.555" y1="125.103" x2="82.1989" y2="49.1007" gradientUnits="userSpaceOnUse">
<stop stop-color="#366890"/>
<stop offset="0.15" stop-color="#3A300F"/>
<stop offset="1" stop-color="#726400"/>
</linearGradient>
<linearGradient id="paint2_linear_52_58909" x1="191.021" y1="91.6241" x2="142.325" y2="10.0247" gradientUnits="userSpaceOnUse">
<stop stop-color="#D93695"/>
<stop offset="0.17" stop-color="#860427"/>
<stop offset="0.34" stop-color="#910624"/>
<stop offset="0.64" stop-color="#AE0B1C"/>
<stop offset="1" stop-color="#DB1411"/>
</linearGradient>
<linearGradient id="paint3_linear_52_58909" x1="54.6531" y1="162.372" x2="127.399" y2="119.054" gradientUnits="userSpaceOnUse">
<stop stop-color="#161236"/>
<stop offset="1" stop-color="#361E47"/>
</linearGradient>
<linearGradient id="paint4_linear_52_58909" x1="14.5709" y1="95.0648" x2="87.9954" y2="51.3425" gradientUnits="userSpaceOnUse">
<stop stop-color="#161236"/>
<stop offset="1" stop-color="#361E47"/>
</linearGradient>
<linearGradient id="paint5_linear_52_58909" x1="28.9604" y1="133.288" x2="110.771" y2="84.5717" gradientUnits="userSpaceOnUse">
<stop stop-color="#161236"/>
<stop offset="1" stop-color="#361E47"/>
</linearGradient>
<linearGradient id="paint6_linear_52_58909" x1="152.116" y1="115.761" x2="102.442" y2="32.5226" gradientUnits="userSpaceOnUse">
<stop stop-color="#886B90"/>
<stop offset="0.03" stop-color="#83678C"/>
<stop offset="0.07" stop-color="#765E81"/>
<stop offset="0.09" stop-color="#675375"/>
<stop offset="0.3" stop-color="#6B587A"/>
<stop offset="0.56" stop-color="#776789"/>
<stop offset="0.84" stop-color="#8B81A1"/>
<stop offset="1" stop-color="#9993B3"/>
</linearGradient>
</defs>
</svg>
