<svg width="124" height="93" viewBox="0 0 124 93" fill="none" xmlns="http://www.w3.org/2000/svg">
<path fill-rule="evenodd" clip-rule="evenodd" d="M104.33 90.3202C104.33 90.3202 95.3104 67.3502 83.0204 63.5902C71.3504 60.0102 56.3904 63.5902 56.3904 63.5902C56.3904 63.5902 52.2704 45.0902 41.7404 39.5302C27.5304 32.0202 4.29039 37.0102 4.29039 37.0102C4.29039 37.0102 1.90039 19.5602 0.000393631 10.3402C-0.0496064 10.0802 4.68039 5.66016 4.68039 5.66016L118.52 19.6902C117.47 23.7502 115.74 42.0802 116.96 58.6802C117.74 69.2602 123.17 88.0402 123.17 88.0402L121.64 92.9902L104.33 90.3202Z" fill="#7C7474"/>
<path opacity="0.55" d="M38.9905 21.2603L60.8204 49.3303L56.5504 63.5503C56.4404 63.5703 56.3805 63.5903 56.3805 63.5903C56.3805 63.5903 52.2604 45.0903 41.7304 39.5303C37.1004 37.0803 31.6704 35.9503 26.4604 35.5303L28.0704 27.5003L38.9905 21.2603Z" fill="url(#paint0_linear_818_177010)"/>
<path opacity="0.55" d="M85.7705 54.0103L111.11 70.0503L104.72 90.3803L104.32 90.3203C104.32 90.3203 95.3005 67.3503 83.0105 63.5903C79.2305 62.4303 75.1005 62.0303 71.2505 62.0103L71.7205 58.6903L85.7605 54.0103H85.7705Z" fill="url(#paint1_linear_818_177010)"/>
<path opacity="0.15" d="M123.17 88.0401L121.64 92.9901L104.33 90.3201L106.39 84.1501L123.17 88.0401Z" fill="black"/>
<path d="M4.68039 5.66016L9.80039 6.29016L10.9204 27.4902L4.29039 37.0002C4.29039 37.0002 1.76039 18.9002 0.000393631 10.3402C-0.0496064 10.0802 4.68039 5.66016 4.68039 5.66016Z" fill="#545252"/>
<path fill-rule="evenodd" clip-rule="evenodd" d="M105.88 85.6402C105.88 85.6402 96.8604 62.6702 84.5704 58.9102C72.9004 55.3302 57.9404 58.9102 57.9404 58.9102C57.9404 58.9102 53.8204 40.4102 43.2904 34.8502C29.0804 27.3402 7.34042 32.1802 7.34042 32.1802L4.68042 5.44018C4.68042 5.44018 38.8004 4.89018 73.3004 4.10018C84.8104 3.84018 103.89 0.0301786 111.63 0.000178571C126.45 -0.0598214 123.19 15.0202 123.19 15.0202C123.19 15.0202 120.07 26.9502 120.07 39.9702C120.07 61.4102 123.19 88.3102 123.19 88.3102L105.88 85.6402Z" fill="url(#paint2_linear_818_177010)"/>
<path opacity="0.3" fill-rule="evenodd" clip-rule="evenodd" d="M46.7804 30.6103C59.9904 37.3403 60.8204 55.5603 60.8204 55.5603C60.8204 55.5603 81.0604 48.4003 93.5704 57.1203C105.42 65.3903 106.05 83.6303 106.05 83.6303C106.05 83.6303 103.07 66.3803 90.4604 58.6803C77.6504 50.8603 59.2704 57.1203 59.2704 57.1203C59.2704 57.1203 57.7104 41.5003 45.2404 33.7303C31.8104 25.3603 10.9304 30.6103 10.9304 30.6103C10.9304 30.6103 27.9204 20.9903 46.8004 30.6103H46.7804Z" fill="white"/>
<path opacity="0.35" fill-rule="evenodd" clip-rule="evenodd" d="M112.28 39.9703C110.85 28.6503 114.38 22.6803 113.84 18.1403C112.31 5.37025 111.04 10.9803 77.9704 10.3403C50.4704 9.81025 10.9104 8.78025 10.9104 8.78025C10.9104 8.78025 54.4204 8.19025 85.7604 7.22025C101.57 6.73025 110.49 -0.879747 116.95 4.10025C124.7 10.0803 117.92 18.4303 116.95 32.1703C115.52 52.3903 118.51 80.5103 118.51 80.5103C118.51 80.5103 114.55 57.9803 112.27 39.9603L112.28 39.9703Z" fill="white"/>
<path opacity="0.57" fill-rule="evenodd" clip-rule="evenodd" d="M105.88 85.6402C105.88 85.6402 96.8604 62.6702 84.5704 58.9102C72.9004 55.3302 57.9404 58.9102 57.9404 58.9102C57.9404 58.9102 53.8204 40.4102 43.2904 34.8502C29.0804 27.3402 7.34042 32.1802 7.34042 32.1802L4.68042 5.44018C4.68042 5.44018 38.8004 4.89018 73.3004 4.10018C84.8104 3.84018 103.89 0.0301786 111.63 0.000178571C126.45 -0.0598214 123.19 15.0202 123.19 15.0202C123.19 15.0202 120.07 26.9502 120.07 39.9702C120.07 61.4102 123.19 88.3102 123.19 88.3102L105.88 85.6402Z" fill="url(#paint3_linear_818_177010)"/>
<path opacity="0.1" d="M73.2904 4.10018C84.8104 3.84018 103.89 0.0301786 111.63 0.000178571C126.45 -0.0598214 123.19 15.0202 123.19 15.0202C123.19 15.0202 120.07 26.9502 120.07 39.9702C120.07 61.4102 123.19 88.3102 123.19 88.3102L119.69 87.7702C118.48 80.7902 114.77 57.6302 115.39 38.4102C115.85 24.0302 123.04 13.4302 115.39 7.22018C106 -0.399822 100.64 7.10018 84.2004 7.22018C54.1804 7.43018 14.0504 8.48018 5.00041 8.73018L4.67041 5.44018C4.67041 5.44018 38.7904 4.89018 73.2904 4.10018Z" fill="black"/>
<path opacity="0.26" fill-rule="evenodd" clip-rule="evenodd" d="M31.1904 20.4802C31.1904 24.3602 28.0504 27.5002 24.1704 27.5002C20.2904 27.5002 17.1504 24.3602 17.1504 20.4802C17.1504 16.6002 20.2904 13.4602 24.1704 13.4602C28.0504 13.4602 31.1904 16.6002 31.1904 20.4802Z" fill="#4B4949"/>
<path opacity="0.52" fill-rule="evenodd" clip-rule="evenodd" d="M31.1905 18.1401C31.1905 21.5801 28.4005 24.3801 24.9505 24.3801C21.5005 24.3801 18.7104 21.5901 18.7104 18.1401C18.7104 14.6901 21.5005 11.9001 24.9505 11.9001C28.4005 11.9001 31.1905 14.6901 31.1905 18.1401Z" fill="#4B4949"/>
<path fill-rule="evenodd" clip-rule="evenodd" d="M31.1905 17.3601C31.1905 20.3701 28.7505 22.8201 25.7305 22.8201C22.7105 22.8201 20.2705 20.3801 20.2705 17.3601C20.2705 14.3401 22.7105 11.9001 25.7305 11.9001C28.7505 11.9001 31.1905 14.3401 31.1905 17.3601Z" fill="url(#paint4_linear_818_177010)"/>
<path d="M28.0704 18.1402C28.0704 15.5602 25.9804 13.4602 23.3904 13.4602C22.7604 13.4602 22.1604 13.5902 21.6104 13.8202C22.6104 12.6602 24.0804 11.9102 25.7304 11.9102C28.7404 11.9102 31.1904 14.3502 31.1904 17.3702C31.1904 20.3902 28.7504 22.8302 25.7304 22.8302C25.3104 22.8302 24.9004 22.7702 24.5104 22.6802C26.5504 22.1802 28.0704 20.3502 28.0704 18.1502V18.1402Z" fill="white"/>
<path opacity="0.26" fill-rule="evenodd" clip-rule="evenodd" d="M74.8503 43.8703C74.8503 47.7503 71.7103 50.8903 67.8303 50.8903C63.9503 50.8903 60.8103 47.7503 60.8103 43.8703C60.8103 39.9903 63.9503 36.8503 67.8303 36.8503C71.7103 36.8503 74.8503 39.9903 74.8503 43.8703Z" fill="#4B4949"/>
<path opacity="0.52" fill-rule="evenodd" clip-rule="evenodd" d="M74.8504 41.5303C74.8504 44.9703 72.0604 47.7703 68.6104 47.7703C65.1604 47.7703 62.3704 44.9803 62.3704 41.5303C62.3704 38.0803 65.1604 35.2903 68.6104 35.2903C72.0604 35.2903 74.8504 38.0803 74.8504 41.5303Z" fill="#4B4949"/>
<path fill-rule="evenodd" clip-rule="evenodd" d="M74.8504 40.7503C74.8504 43.7603 72.4104 46.2103 69.3904 46.2103C66.3704 46.2103 63.9304 43.7703 63.9304 40.7503C63.9304 37.7303 66.3704 35.2903 69.3904 35.2903C72.4104 35.2903 74.8504 37.7303 74.8504 40.7503Z" fill="url(#paint5_linear_818_177010)"/>
<path d="M71.7303 41.5303C71.7303 38.9503 69.6403 36.8503 67.0503 36.8503C66.4203 36.8503 65.8203 36.9803 65.2703 37.2103C66.2703 36.0503 67.7403 35.3003 69.3903 35.3003C72.4003 35.3003 74.8503 37.7403 74.8503 40.7603C74.8503 43.7803 72.4103 46.2203 69.3903 46.2203C68.9703 46.2203 68.5603 46.1603 68.1703 46.0703C70.2103 45.5703 71.7303 43.7403 71.7303 41.5403V41.5303Z" fill="white"/>
<path opacity="0.26" fill-rule="evenodd" clip-rule="evenodd" d="M115.4 71.9402C115.4 75.8202 112.26 78.9602 108.38 78.9602C104.5 78.9602 101.36 75.8202 101.36 71.9402C101.36 68.0602 104.5 64.9202 108.38 64.9202C112.26 64.9202 115.4 68.0602 115.4 71.9402Z" fill="#4B4949"/>
<path opacity="0.52" fill-rule="evenodd" clip-rule="evenodd" d="M115.4 69.6001C115.4 73.0401 112.61 75.8401 109.16 75.8401C105.71 75.8401 102.92 73.0501 102.92 69.6001C102.92 66.1501 105.71 63.3601 109.16 63.3601C112.61 63.3601 115.4 66.1501 115.4 69.6001Z" fill="#4B4949"/>
<path fill-rule="evenodd" clip-rule="evenodd" d="M115.4 68.8201C115.4 71.8301 112.96 74.2801 109.94 74.2801C106.92 74.2801 104.48 71.8401 104.48 68.8201C104.48 65.8001 106.92 63.3601 109.94 63.3601C112.96 63.3601 115.4 65.8001 115.4 68.8201Z" fill="url(#paint6_linear_818_177010)"/>
<path d="M112.28 69.6001C112.28 67.0201 110.19 64.9201 107.6 64.9201C106.97 64.9201 106.37 65.0501 105.82 65.2801C106.82 64.1201 108.29 63.3701 109.94 63.3701C112.95 63.3701 115.4 65.8101 115.4 68.8301C115.4 71.8501 112.96 74.2901 109.94 74.2901C109.52 74.2901 109.11 74.2301 108.72 74.1401C110.76 73.6401 112.28 71.8101 112.28 69.6101V69.6001Z" fill="white"/>
<defs>
<linearGradient id="paint0_linear_818_177010" x1="58.6004" y1="63.7903" x2="31.5004" y2="25.0903" gradientUnits="userSpaceOnUse">
<stop/>
<stop offset="1"/>
</linearGradient>
<linearGradient id="paint1_linear_818_177010" x1="111.11" y1="72.1903" x2="70.1705" y2="72.1903" gradientUnits="userSpaceOnUse">
<stop/>
<stop offset="1"/>
</linearGradient>
<linearGradient id="paint2_linear_818_177010" x1="47.7904" y1="66.1202" x2="108.91" y2="-6.71983" gradientUnits="userSpaceOnUse">
<stop stop-color="#857F7F"/>
<stop offset="0.29" stop-color="#8D8888"/>
<stop offset="0.78" stop-color="#A5A3A2"/>
<stop offset="1" stop-color="#B3B2B0"/>
</linearGradient>
<linearGradient id="paint3_linear_818_177010" x1="47.7904" y1="66.1202" x2="108.91" y2="-6.71983" gradientUnits="userSpaceOnUse">
<stop stop-color="white"/>
<stop offset="1" stop-color="white"/>
</linearGradient>
<linearGradient id="paint4_linear_818_177010" x1="25.7305" y1="22.8201" x2="25.7305" y2="11.9001" gradientUnits="userSpaceOnUse">
<stop stop-color="#B1AFAD"/>
<stop offset="0.38" stop-color="#BAB8B6"/>
<stop offset="1" stop-color="#D2D1D0"/>
</linearGradient>
<linearGradient id="paint5_linear_818_177010" x1="69.3904" y1="46.2103" x2="69.3904" y2="35.2903" gradientUnits="userSpaceOnUse">
<stop stop-color="#B1AFAD"/>
<stop offset="0.38" stop-color="#BAB8B6"/>
<stop offset="1" stop-color="#D2D1D0"/>
</linearGradient>
<linearGradient id="paint6_linear_818_177010" x1="109.94" y1="74.2801" x2="109.94" y2="63.3601" gradientUnits="userSpaceOnUse">
<stop stop-color="#B1AFAD"/>
<stop offset="0.38" stop-color="#BAB8B6"/>
<stop offset="1" stop-color="#D2D1D0"/>
</linearGradient>
</defs>
</svg>
