<svg width="72" height="71" viewBox="0 0 72 71" fill="none" xmlns="http://www.w3.org/2000/svg">
<path d="M3.38893 47.1956C7.05947 39.9783 16.8373 42.8913 12.9915 34.5961C-0.316048 5.89219 12.9912 -4.60383 26.5389 2.88381C30.8118 6.00637 33.2074 7.75706 37.4804 10.8796C48.0477 7.3677 51.1245 8.79819 57.5037 10.9543C63.8829 13.1104 69.3201 19.5738 67.8537 26.1101C66.8018 30.8277 62.4614 34.772 63.0138 39.5706C63.5914 44.5461 69.0961 47.4914 70.8513 52.1808C73.1148 58.2049 68.1002 64.969 61.9688 67.0762C55.8374 69.1834 49.113 67.9517 42.7501 66.7666C36.371 65.5822 29.6041 64.4822 23.5493 66.8123C18.023 68.9376 13.4204 73.8344 5.56774 68.0437C5.05873 67.6645 4.57985 67.2352 4.17996 66.7533C-0.583699 61.0172 0.269359 53.3294 3.38893 47.1956Z" fill="white"/>
</svg>
