<svg width="354" height="401" viewBox="0 0 354 401" fill="none" xmlns="http://www.w3.org/2000/svg">
<path d="M179.665 9.01124H183.675V2.0025L179.665 0V9.01124Z" fill="white"/>
<path d="M184.678 4.75595V6.50813H187.936C189.741 6.50813 191.194 6.40801 191.194 6.25782C191.194 6.00751 185.43 3.00376 184.928 3.00376C184.778 3.00376 184.678 3.80476 184.678 4.75595Z" fill="white"/>
<path d="M166.129 6.95866C132.643 33.6419 86.5731 52.6657 36.9945 60.2751C29.5753 61.4266 19.2986 62.4779 6.61574 63.379L1.75313 63.6794L1.45235 65.782C-0.0515545 77.3965 -0.352335 114.092 0.900916 129.912C2.7056 151.639 5.06171 166.458 10.0246 186.683C20.8527 230.988 40.3031 271.789 68.5263 309.336C87.9768 335.268 113.443 360.85 139.561 380.775C149.486 388.334 168.486 401 169.939 401C170.04 401 170.14 396.194 170.14 390.287V379.523L167.282 377.921C146.629 366.307 117.804 342.227 97.8022 319.899C51.1312 267.734 25.0135 207.509 19.1482 138.423C17.9451 124.405 18.5968 80.0498 20.0005 78.6481C20.201 78.4979 23.6098 78.1975 27.6703 78.0473C48.9756 77.0461 74.6923 72.1399 96.6994 64.8809C107.477 61.2764 117.152 57.2714 128.281 51.8146C144.122 44.0549 155.301 36.9961 168.034 26.8334L171.142 24.3804V13.9173C171.142 8.21022 170.992 3.50435 170.792 3.50435C170.541 3.55441 168.486 5.05628 166.129 6.95866Z" fill="white"/>
<path d="M184.678 12.4655C184.678 15.219 184.828 17.5218 185.079 17.622C185.279 17.7221 187.635 17.7221 190.342 17.622L195.255 17.4217L194.954 7.75966L184.678 7.45929V12.4655Z" fill="white"/>
<path d="M196.709 17.5218H201.722C206.183 17.5218 206.735 17.4217 206.735 16.6207C206.685 16.1201 205.281 14.8685 203.125 13.5168C201.17 12.2653 198.914 10.8635 198.112 10.3629L196.709 9.41172V17.5218Z" fill="white"/>
<path d="M179.665 14.468C179.665 18.1726 179.765 18.5231 180.968 19.4743C183.424 21.3766 183.675 21.0262 183.675 15.5193V10.5131H179.665V14.468Z" fill="white"/>
<path d="M185.179 20.876C185.179 22.6783 185.43 22.9286 189.49 25.8823C191.896 27.6345 194.152 29.0362 194.503 29.0362C195.054 29.0362 195.205 27.9348 195.205 24.03V19.0237H185.179V20.876Z" fill="white"/>
<path d="M196.709 29.0362H206.735V19.0237H196.709V29.0362Z" fill="white"/>
<path d="M208.239 29.0362H218.816L218.515 22.7784L215.257 20.9261C213.051 19.6245 211.397 19.0237 210.144 19.0237H208.239V29.0362Z" fill="white"/>
<path d="M220.27 26.5331C220.27 29.3866 219.969 29.2865 225.985 28.6858L229.444 28.3854L225.233 26.2327C222.927 25.0312 220.871 24.08 220.671 24.08C220.42 24.03 220.27 25.1313 220.27 26.5331Z" fill="white"/>
<path d="M197.21 30.9886C197.21 31.5393 205.832 37.0462 206.685 37.0462C207.286 37.0462 207.437 34.5931 206.935 32.09L206.635 30.5381H201.922C199.316 30.5381 197.21 30.7383 197.21 30.9886Z" fill="white"/>
<path d="M208.59 30.8885C208.138 31.289 208.138 34.9436 208.539 36.9961C209.041 39.3491 211.347 40.5506 215.508 40.5506H218.916L218.565 37.4968C218.415 35.7946 218.265 33.5418 218.265 32.4905V30.5381H213.603C210.996 30.5381 208.74 30.6883 208.59 30.8885Z" fill="white"/>
<path d="M220.27 40.5506H230.296V37.0963C230.296 35.1939 230.145 32.9411 229.995 32.09L229.694 30.5381H220.27V40.5506Z" fill="white"/>
<path d="M231.8 35.1939C231.8 37.8472 231.95 40.1 232.201 40.2001C232.401 40.3503 234.657 40.3503 237.214 40.2001L241.826 39.8998V34.1426L238.467 32.5406C236.562 31.6895 234.306 30.8385 233.454 30.6883L231.8 30.3879V35.1939Z" fill="white"/>
<path d="M243.33 37.5468V40.0499H248.343C254.86 40.0499 254.91 39.349 248.694 36.896C246.137 35.8947 243.881 35.0437 243.681 35.0437C243.48 35.0437 243.33 36.1451 243.33 37.5468Z" fill="white"/>
<path d="M216.46 42.8034C217.713 43.7546 218.766 43.7546 218.766 42.8034C218.766 42.3028 218.265 42.0524 217.162 42.0524C215.608 42.1025 215.558 42.1025 216.46 42.8034Z" fill="white"/>
<path d="M220.27 43.4542C220.27 44.7058 220.721 45.0562 225.082 47.2089C227.739 48.5606 229.995 49.5117 230.095 49.4116C230.246 49.3115 230.145 47.6094 229.995 45.6069L229.644 42.0524H220.27V43.4542Z" fill="white"/>
<path d="M232 43.6044C232.151 44.4554 232.301 46.4079 232.301 47.9097C232.301 50.513 232.351 50.6632 234.056 51.364C235.008 51.7145 237.164 52.0649 238.818 52.0649H241.826V42.0524H231.7L232 43.6044Z" fill="white"/>
<path d="M243.681 42.4029C243.229 42.8034 243.229 47.2089 243.63 49.6619L243.981 51.5643H253.356V42.0524H248.694C246.087 42.0524 243.831 42.2026 243.681 42.4029Z" fill="white"/>
<path d="M255.361 51.5643H264.886V47.1087C264.886 41.9523 265.036 42.0524 259.02 42.0524H255.361V51.5643Z" fill="white"/>
<path d="M179.665 47.5593V52.5655H183.675V48.4104C183.675 43.8547 183.023 42.5531 180.767 42.5531C179.715 42.5531 179.665 42.7533 179.665 47.5593Z" fill="white"/>
<path d="M266.891 47.2589V51.0637H276.416V46.3077L272.255 45.1062C269.999 44.4054 267.843 43.8046 267.542 43.6544C267.041 43.5042 266.891 44.4054 266.891 47.2589Z" fill="white"/>
<path d="M185.68 49.2614V52.5655H190.192C192.698 52.5655 194.704 52.4654 194.704 52.3653C194.704 52.165 186.783 46.4579 186.081 46.1576C185.831 46.0574 185.68 47.4592 185.68 49.2614Z" fill="white"/>
<path d="M167.633 49.3615C151.692 62.3778 128.432 74.6931 105.973 82.1024C86.8739 88.4102 68.9775 91.8645 46.4691 93.6668L38.8493 94.2675L38.5987 96.8207C36.794 113.742 36.9945 137.772 39.1 156.195C41.1052 173.817 45.266 192.64 50.9307 209.762C55.2419 222.878 63.0621 241.401 64.1149 241.151C64.4658 241.101 67.624 242.853 71.1832 245.056C74.7424 247.208 79.605 249.862 82.0113 250.963C90.5334 254.668 102.264 256.72 109.984 255.819C117.052 254.968 120.912 253.466 124.171 250.362C127.329 247.408 128.181 245.256 128.432 239.749C128.632 235.644 128.482 234.643 127.529 232.34C125.123 226.833 118.305 222.377 103.216 216.47C89.3303 211.063 80.7079 205.957 73.2385 198.798C66.1702 191.989 61.7588 184.48 59.5029 175.419C58.1995 169.962 58.3499 158.247 59.8037 152.44C62.1097 143.329 66.471 135.919 73.3889 129.161C82.2118 120.55 94.7443 114.793 108.229 113.141C112.34 112.69 163.823 112.19 164.275 112.64C164.676 113.041 163.924 146.583 163.523 146.983C163.322 147.184 152.243 147.534 138.959 147.734C125.223 147.934 113.543 148.335 111.989 148.635C103.066 150.387 97.3009 156.796 98.1531 163.904C99.0054 171.264 104.77 175.769 122.316 182.728C137.355 188.735 146.629 194.242 153.898 201.451C163.473 211.013 167.834 220.825 168.486 234.292C168.937 244.505 167.282 253.015 163.222 261.076C155.552 276.295 142.669 285.756 123.268 290.212C118.556 291.313 116.15 291.513 106.876 291.714C100.86 291.864 95.9474 292.114 95.9474 292.214C95.9474 293.115 108.48 306.933 117.203 315.694C128.382 326.858 133.595 331.513 144.874 340.274C154.499 347.784 169.238 357.496 169.939 356.795C170.24 356.495 170.892 47.0587 170.591 47.1087C170.491 47.1087 169.137 48.16 167.633 49.3615Z" fill="white"/>
<path d="M278.922 49.0612V51.0637H283.484C287.444 51.0637 287.996 50.9635 287.845 50.2126C287.695 49.4617 285.69 48.7107 280.326 47.3591C278.972 47.0587 278.922 47.1087 278.922 49.0612Z" fill="white"/>
<path d="M290.452 50.5631C290.452 50.8134 291.304 51.0637 292.357 51.0136C294.011 50.9636 294.061 50.9135 292.958 50.5631C291.154 50.0124 290.452 50.0124 290.452 50.5631Z" fill="white"/>
<path d="M292.608 53.4166L290.452 53.6168V62.578H299.977V53.0662L297.37 53.1663C295.916 53.2163 293.761 53.3165 292.608 53.4166Z" fill="white"/>
<path d="M301.982 62.6281L311.256 62.3277V54.3177L308.499 53.7169C306.995 53.4166 304.889 53.1162 303.887 53.1162L301.982 53.0661V62.6281Z" fill="white"/>
<path d="M240.322 53.767C240.322 53.8672 240.673 54.0674 241.074 54.2677C241.475 54.4178 241.826 54.3177 241.826 54.0674C241.826 53.767 241.475 53.5668 241.074 53.5668C240.673 53.5668 240.322 53.6669 240.322 53.767Z" fill="white"/>
<path d="M243.831 54.4679C243.831 55.1187 244.934 55.7695 248.242 56.971C250.649 57.8722 252.754 58.573 253.005 58.573C253.205 58.573 253.356 57.4216 253.356 56.0699V53.5668H248.593C244.382 53.5668 243.831 53.6669 243.831 54.4679Z" fill="white"/>
<path d="M255.361 59.5242L258.97 60.6256C260.975 61.1763 263.131 61.8772 263.733 62.1275C264.886 62.528 264.886 62.528 264.886 58.0724V53.5668H255.361V59.5242Z" fill="white"/>
<path d="M267.141 62.8283L276.917 63.1287V53.5668H266.841L267.141 62.8283Z" fill="white"/>
<path d="M278.922 62.578H287.945V53.5668H278.922V62.578Z" fill="white"/>
<path d="M179.665 64.0799H184.176V54.0674H179.665V64.0799Z" fill="white"/>
<path d="M185.68 64.0799H195.205V54.0674H185.68V64.0799Z" fill="white"/>
<path d="M197.21 59.0236V64.0799H207.236V59.8246L202.574 57.0711C200.067 55.5693 197.812 54.2176 197.611 54.1675C197.36 54.0674 197.21 56.2701 197.21 59.0236Z" fill="white"/>
<path d="M313.762 55.0186C313.612 55.319 313.612 57.1713 313.813 59.0737C314.214 63.0786 313.863 62.8784 319.979 62.2777L323.036 61.9272V59.0236C323.036 55.7695 323.287 55.9698 318.525 55.319C317.271 55.1688 315.768 54.9185 315.216 54.7683C314.615 54.6181 313.963 54.7182 313.762 55.0186Z" fill="white"/>
<path d="M325.543 62.0774H334.566V57.2213L330.055 56.7708L325.543 56.2702V62.0774Z" fill="white"/>
<path d="M337.073 62.0774H346.096V60.125C346.096 58.2226 346.096 58.2226 343.79 57.8722C342.487 57.722 340.482 57.5718 339.279 57.5718H337.073V62.0774Z" fill="white"/>
<path d="M208.74 62.3277C208.74 63.4791 208.94 63.5793 210.996 63.5793C212.249 63.5793 213.252 63.4791 213.252 63.329C213.252 63.0786 209.492 61.0761 208.991 61.0761C208.84 61.0761 208.74 61.6268 208.74 62.3277Z" fill="white"/>
<path d="M294.362 64.931L290.452 65.1312V66.8334C290.452 67.7845 290.552 68.5855 290.652 68.5855C290.753 68.5855 292.658 68.936 294.813 69.3365C300.328 70.3878 300.077 70.4879 299.876 67.4842C299.726 64.5305 300.077 64.6807 294.362 64.931Z" fill="white"/>
<path d="M302.182 65.3315C301.982 65.732 302.032 67.0837 302.182 68.2852C302.583 70.7883 302.634 70.7883 308.148 71.339L311.507 71.6894V64.5805H306.995C303.385 64.5805 302.383 64.7307 302.182 65.3315Z" fill="white"/>
<path d="M314.013 71.9397L316.319 72.2901C317.622 72.4403 319.628 72.5905 320.831 72.5905H323.036V64.5805H314.013V71.9397Z" fill="white"/>
<path d="M325.543 73.0911H328.501C330.105 73.0911 332.16 73.2413 333.012 73.3915L334.566 73.6919V64.5805H325.543V73.0911Z" fill="white"/>
<path d="M337.073 73.5918H346.096V64.5805H337.073V73.5918Z" fill="white"/>
<path d="M348.603 66.4328C348.603 67.4841 348.753 69.5367 348.904 70.9385C349.204 73.4416 349.305 73.5918 350.658 73.5918H352.112V69.8871C352.112 65.1813 351.861 64.5805 350.056 64.5805C348.703 64.5805 348.603 64.7307 348.603 66.4328Z" fill="white"/>
<path d="M278.922 65.5317C278.922 66.0824 279.423 66.2326 284.085 67.3339C288.547 68.3352 288.447 68.3352 288.447 66.583V65.0811H283.684C281.078 65.0811 278.922 65.2814 278.922 65.5317Z" fill="white"/>
<path d="M179.665 75.5942H184.226L183.926 65.8321L181.82 65.6819L179.665 65.5317V75.5942Z" fill="white"/>
<path d="M185.68 75.5942H195.706V65.5818H185.68V75.5942Z" fill="white"/>
<path d="M197.21 70.3377C197.21 74.1424 197.36 75.1937 197.962 75.394C198.413 75.5942 200.669 75.5442 202.975 75.3439L207.236 74.9935V65.5818H197.21V70.3377Z" fill="white"/>
<path d="M208.74 67.6844C208.74 68.8859 208.89 71.0386 209.041 72.4403L209.392 75.0936H218.816L218.515 65.8321L208.74 65.5317V67.6844Z" fill="white"/>
<path d="M220.771 71.0386V75.0936H230.296V71.2388L225.935 69.2864C223.578 68.2351 221.423 67.2338 221.172 67.1838C220.972 67.0836 220.771 68.8358 220.771 71.0386Z" fill="white"/>
<path d="M232.301 73.5918V75.0936H235.91C237.866 75.0936 239.369 74.9935 239.269 74.8934C239.069 74.6931 232.752 72.0899 232.451 72.0899C232.351 72.0899 232.301 72.7407 232.301 73.5918Z" fill="white"/>
<path d="M333.263 78.3978C333.413 79.6994 333.564 81.7019 333.564 82.9034C333.564 84.1049 333.814 85.1061 334.065 85.1061C334.366 85.1061 334.566 83.2538 334.566 80.6005C334.566 76.7457 334.466 76.0949 333.764 76.0949C333.062 76.0949 332.962 76.4954 333.263 78.3978Z" fill="white"/>
<path d="M337.574 85.1061H346.648L346.347 76.3452L337.574 76.0448V85.1061Z" fill="white"/>
<path d="M349.104 85.1061H352.613V76.0949H349.104V85.1061Z" fill="white"/>
<path d="M197.711 87.1086H207.236V77.0961H197.711V87.1086Z" fill="white"/>
<path d="M209.241 87.2588L212.299 86.9084C214.004 86.7582 216.159 86.608 217.062 86.608H218.766V77.0961H209.241V87.2588Z" fill="white"/>
<path d="M220.771 86.658L225.634 86.5079C231.298 86.3577 231.098 86.608 230.547 80.7507L230.196 77.0961H220.771V86.658Z" fill="white"/>
<path d="M232.301 86.608H241.826V77.0961H232.301V86.608Z" fill="white"/>
<path d="M244.332 81.8521V86.658L253.606 86.3577V79.399L249.847 78.2476C244.082 76.4954 244.332 76.2951 244.332 81.8521Z" fill="white"/>
<path d="M179.665 87.1086H184.176V77.5968H179.665V87.1086Z" fill="white"/>
<path d="M185.68 87.1086H195.706V77.5968H185.68V87.1086Z" fill="white"/>
<path d="M255.862 83.1036V86.1074H265.387V84.3552C265.387 82.7532 265.237 82.603 263.281 82.1024C262.078 81.802 260.023 81.2012 258.669 80.8007C257.316 80.4002 256.113 80.0999 256.013 80.0999C255.912 80.0999 255.862 81.4516 255.862 83.1036Z" fill="white"/>
<path d="M267.392 84.6055V86.1074H272.205C277.97 86.1074 278.421 85.2563 273.107 84.255C271.202 83.9046 269.147 83.5041 268.545 83.3539C267.542 83.1036 267.392 83.3039 267.392 84.6055Z" fill="white"/>
<path d="M340.983 87.9597L337.574 88.1599V96.6205H346.598V93.6668C346.598 89.4615 346.146 87.6092 345.144 87.7094C344.693 87.7594 342.838 87.8595 340.983 87.9597Z" fill="white"/>
<path d="M349.104 96.6205H353.114V87.6092H349.104V96.6205Z" fill="white"/>
<path d="M259.221 88.4603L255.812 88.6606L256.113 97.872H265.136V93.1161C265.136 87.6593 265.738 88.1099 259.221 88.4603Z" fill="white"/>
<path d="M268.294 88.4603C267.492 88.6606 267.392 89.3114 267.392 93.1662V97.6217H276.917V88.1099L273.057 88.1599C270.901 88.21 268.746 88.3101 268.294 88.4603Z" fill="white"/>
<path d="M279.423 97.6217H288.447V88.1099H279.423V97.6217Z" fill="white"/>
<path d="M290.953 97.1211H299.977V88.1099H290.953V97.1211Z" fill="white"/>
<path d="M334.115 92.215C334.115 94.8683 334.266 96.6205 334.566 96.6205C335.168 96.6205 335.168 93.3163 334.616 90.1124C334.215 88.1599 334.165 88.4102 334.115 92.215Z" fill="white"/>
<path d="M190.342 88.9609L186.181 89.1612V98.623H190.894C193.5 98.623 195.706 98.4728 195.806 98.2225C195.907 98.0222 195.907 95.7694 195.806 93.2162C195.706 90.0623 195.456 88.6606 195.054 88.7106C194.704 88.7607 192.598 88.9109 190.342 88.9609Z" fill="white"/>
<path d="M199.366 88.9609L197.711 89.1612V98.623H207.236V88.6105L204.128 88.7106C202.373 88.7106 200.218 88.8608 199.366 88.9609Z" fill="white"/>
<path d="M209.241 98.673L219.017 98.3727L219.167 95.6192C219.267 94.1173 219.217 91.9146 219.017 90.7131L218.716 88.6105H209.241V98.673Z" fill="white"/>
<path d="M220.771 98.1223H230.948L230.597 95.469C230.446 94.0673 230.296 91.9146 230.296 90.7131V88.6105H220.771V98.1223Z" fill="white"/>
<path d="M232.802 98.1223H242.327V94.9183C242.327 93.1662 242.177 91.0135 242.026 90.1624L241.726 88.6105H232.802V98.1223Z" fill="white"/>
<path d="M244.332 98.1724L253.606 97.872L253.907 88.6105H244.332V98.1724Z" fill="white"/>
<path d="M302.483 97.1211H311.507V89.2613L309.652 88.9109C308.599 88.7607 306.544 88.6105 305.14 88.6105H302.483V97.1211Z" fill="white"/>
<path d="M179.665 94.1674C179.665 99.1737 179.665 99.2237 180.818 98.9234C181.419 98.7732 182.422 98.623 183.073 98.623C184.126 98.623 184.176 98.4728 184.176 93.8671V89.1111H179.665V94.1674Z" fill="white"/>
<path d="M291.805 99.9747C291.003 100.175 290.953 100.726 291.053 104.53L291.204 108.886L299.977 109.186V99.6242L296.367 99.6743C294.362 99.7243 292.307 99.8245 291.805 99.9747Z" fill="white"/>
<path d="M302.483 101.477C302.483 102.528 302.634 104.58 302.784 105.982L303.135 108.635H311.507V99.6242H302.483V101.477Z" fill="white"/>
<path d="M337.574 108.135H346.598V99.6242H337.574V108.135Z" fill="white"/>
<path d="M349.104 102.328C349.104 106.933 349.505 108.135 351.109 108.135C352.413 108.135 352.463 107.985 352.814 105.081C353.365 99.5742 353.365 99.6242 351.109 99.6242H349.104V102.328Z" fill="white"/>
<path d="M213.352 100.475L209.191 100.676L209.492 109.887L214.254 109.687C216.861 109.587 219.067 109.436 219.167 109.386C219.267 109.286 219.167 107.184 219.017 104.681C218.766 101.777 218.415 100.175 218.064 100.225C217.763 100.275 215.658 100.425 213.352 100.475Z" fill="white"/>
<path d="M221.272 109.637H230.847L230.547 100.375L221.272 100.075V109.637Z" fill="white"/>
<path d="M232.802 109.637H242.327V108.235C242.327 107.484 242.177 105.381 241.976 103.479L241.675 100.125H232.802V109.637Z" fill="white"/>
<path d="M244.332 109.637H253.857V100.125H244.332V109.637Z" fill="white"/>
<path d="M256.063 101.977C256.213 103.028 256.364 105.081 256.364 106.483V109.136H265.387V100.125H255.712L256.063 101.977Z" fill="white"/>
<path d="M267.893 109.136H276.917V100.125H267.893V109.136Z" fill="white"/>
<path d="M279.423 109.136H288.447V100.125H279.423V109.136Z" fill="white"/>
<path d="M179.665 110.638H181.87C183.124 110.638 184.226 110.488 184.327 110.237C184.477 110.037 184.477 107.784 184.327 105.231L184.026 100.625H179.665V110.638Z" fill="white"/>
<path d="M186.181 110.137H195.706V100.625H186.181V110.137Z" fill="white"/>
<path d="M197.711 110.137H207.888L207.537 108.235C207.386 107.234 207.236 105.081 207.236 103.479V100.625H197.711V110.137Z" fill="white"/>
<path d="M334.667 107.134C334.667 107.834 334.767 108.085 334.917 107.734C335.018 107.434 335.018 106.833 334.917 106.483C334.767 106.182 334.667 106.433 334.667 107.134Z" fill="white"/>
<path d="M302.984 115.594C302.984 118.097 303.235 120.25 303.486 120.4C303.786 120.6 305.792 120.55 308.048 120.35L312.058 120L311.757 111.389L302.984 111.089V115.594Z" fill="white"/>
<path d="M334.366 113.441C333.915 116.896 334.015 120.15 334.566 120.15C334.867 120.15 335.068 118.298 335.068 115.644C335.068 113.141 334.967 111.139 334.867 111.139C334.767 111.139 334.566 112.19 334.366 113.441Z" fill="white"/>
<path d="M337.574 119.649H346.598V111.139H337.574V119.649Z" fill="white"/>
<path d="M349.605 115.394C349.605 119.549 349.656 119.649 350.808 119.649C352.262 119.649 352.613 118.598 352.613 114.242V111.139H349.605V115.394Z" fill="white"/>
<path d="M238.567 112.14L236.061 112.49L239.219 112.54C241.024 112.59 242.327 112.44 242.327 112.14C242.327 111.839 242.026 111.689 241.726 111.739C241.375 111.739 239.971 111.94 238.567 112.14Z" fill="white"/>
<path d="M245.736 111.99C243.43 112.34 244.132 112.991 247.24 113.291C248.794 113.492 250.949 113.792 252.002 113.942C253.757 114.242 253.857 114.192 253.857 112.941C253.857 111.639 253.807 111.639 250.498 111.689C248.593 111.739 246.488 111.89 245.736 111.99Z" fill="white"/>
<path d="M256.364 113.241C256.364 114.843 256.464 114.893 260.023 115.945C261.978 116.495 264.033 117.146 264.535 117.396C265.287 117.697 265.387 117.396 265.387 114.693V111.639H256.364V113.241Z" fill="white"/>
<path d="M267.893 118.648L269.899 119.649C271.102 120.25 272.856 120.65 274.41 120.65H276.917V111.639H267.893V118.648Z" fill="white"/>
<path d="M279.423 120.65H288.447V111.639H279.423V120.65Z" fill="white"/>
<path d="M291.204 120.4L299.977 120.7V111.639H290.903L291.204 120.4Z" fill="white"/>
<path d="M179.665 117.196C179.665 122.202 179.665 122.252 180.818 121.952C181.419 121.802 182.422 121.652 183.073 121.652C184.126 121.652 184.176 121.502 184.176 116.896V112.14H179.665V117.196Z" fill="white"/>
<path d="M333.865 124.956C333.313 129.111 333.463 131.664 334.316 131.664C334.917 131.664 335.068 130.813 335.068 127.159C335.068 122.353 334.416 121.151 333.865 124.956Z" fill="white"/>
<path d="M338.075 131.714L346.347 131.414L346.648 122.653H338.075V131.714Z" fill="white"/>
<path d="M349.605 126.908C349.605 130.813 349.706 131.164 350.608 131.164C351.46 131.164 351.611 130.813 351.611 129.211C351.611 128.16 351.761 126.257 351.911 124.956C352.262 122.703 352.212 122.653 350.909 122.653H349.605V126.908Z" fill="white"/>
<path d="M279.423 124.205C279.423 125.456 286.241 132.115 287.595 132.165C288.346 132.165 288.447 131.614 288.447 127.659V123.154H283.935C279.674 123.154 279.423 123.204 279.423 124.205Z" fill="white"/>
<path d="M291.455 132.165H300.478V123.154H291.455V132.165Z" fill="white"/>
<path d="M302.984 131.664H312.008V123.154H302.984V131.664Z" fill="white"/>
<path d="M179.665 133.667H184.176V124.155H179.665V133.667Z" fill="white"/>
<path d="M340.231 134.518L338.075 134.718V143.179H346.598V134.167L344.492 134.267C343.289 134.317 341.384 134.418 340.231 134.518Z" fill="white"/>
<path d="M349.956 134.518C349.756 134.668 349.605 136.32 349.605 138.122C349.655 142.027 350.357 141.326 350.758 137.021C351.009 134.368 350.758 133.667 349.956 134.518Z" fill="white"/>
<path d="M291.455 136.72C291.455 138.022 291.956 139.674 292.858 141.226L294.212 143.679H300.478V134.668H291.455V136.72Z" fill="white"/>
<path d="M303.235 143.429L312.008 143.729V134.668H302.934L303.235 143.429Z" fill="white"/>
<path d="M333.062 136.27C333.062 137.171 332.912 139.123 332.762 140.525C332.411 143.128 332.461 143.179 333.764 143.179H335.068V138.923C335.068 135.018 334.967 134.668 334.065 134.668C333.263 134.668 333.062 135.018 333.062 136.27Z" fill="white"/>
<path d="M179.665 145.231L181.82 145.081L183.926 144.931L184.226 135.669H179.665V145.231Z" fill="white"/>
<path d="M295.465 146.533C295.515 146.783 296.016 148.735 296.668 150.938C297.721 154.543 297.971 154.943 299.175 155.093L300.478 155.244V146.182H297.971C296.618 146.182 295.465 146.332 295.465 146.533Z" fill="white"/>
<path d="M303.486 155.194H312.008V146.182H303.486V155.194Z" fill="white"/>
<path d="M331.859 148.035C331.709 149.086 331.458 150.988 331.258 152.29L330.957 154.693H335.068V146.182H333.614C332.31 146.182 332.11 146.383 331.859 148.035Z" fill="white"/>
<path d="M338.075 147.784C338.075 148.685 338.226 150.638 338.376 152.04L338.727 154.693H342.637C344.793 154.693 346.698 154.443 346.848 154.192C347.049 153.892 346.999 151.99 346.848 149.937L346.497 146.182H338.075V147.784Z" fill="white"/>
<path d="M179.665 156.695H184.678V147.184H179.665V156.695Z" fill="white"/>
<path d="M187.034 147.484C186.833 147.684 186.683 149.837 186.683 152.29V156.695H196.258L195.957 147.434L191.696 147.284C189.34 147.234 187.234 147.284 187.034 147.484Z" fill="white"/>
<path d="M198.413 147.834C198.263 148.235 198.213 150.287 198.313 152.49L198.463 156.445H203.226C206.735 156.445 207.988 156.295 207.938 155.794C207.888 155.494 207.838 153.391 207.838 151.189L207.737 147.184H203.226C199.867 147.184 198.614 147.384 198.413 147.834Z" fill="white"/>
<path d="M210.244 156.195H219.267V147.184H210.244V156.195Z" fill="white"/>
<path d="M221.774 156.195H231.298V152.24C231.298 150.037 231.098 148.085 230.797 147.934C230.547 147.784 228.391 147.484 226.035 147.334L221.774 147.033V156.195Z" fill="white"/>
<path d="M233.304 155.694H242.879L242.528 152.04C242.377 150.087 242.177 148.385 242.127 148.385C242.127 148.335 240.121 148.185 237.715 147.985L233.304 147.684V155.694Z" fill="white"/>
<path d="M244.834 152.44V155.694H249.646C253.907 155.694 254.408 155.594 254.258 154.843C254.108 154.092 246.287 149.236 245.235 149.186C244.984 149.186 244.834 150.638 244.834 152.44Z" fill="white"/>
<path d="M330.406 158.548C330.255 159.048 330.005 160.35 329.854 161.451C329.654 162.553 329.403 164.055 329.253 164.805L328.952 166.207H335.569V157.697H333.113C331.157 157.697 330.556 157.897 330.406 158.548Z" fill="white"/>
<path d="M338.577 166.257L346.347 165.957L346.648 157.697H338.577V166.257Z" fill="white"/>
<path d="M236.161 158.548L233.254 158.748L233.554 167.459L242.879 167.759L242.578 158.448L240.823 158.398C239.871 158.398 237.765 158.448 236.161 158.548Z" fill="white"/>
<path d="M245.134 158.598C245.034 158.798 245.034 160.851 245.185 163.103L245.485 167.208H249.897C255.01 167.208 254.609 167.709 254.007 161.551L253.707 158.197H249.546C247.29 158.197 245.285 158.347 245.134 158.598Z" fill="white"/>
<path d="M256.865 162.653C256.865 167.158 256.865 167.208 258.118 167.208C259.221 167.208 259.371 167.008 259.371 165.556C259.371 163.554 258.018 158.848 257.366 158.448C257.065 158.247 256.865 159.849 256.865 162.653Z" fill="white"/>
<path d="M298.673 159.749C298.824 160.6 298.974 162.553 298.974 164.004C298.974 166.057 299.175 166.708 299.726 166.708C300.328 166.708 300.478 165.907 300.478 162.453C300.478 158.448 300.428 158.197 299.425 158.197C298.473 158.197 298.372 158.398 298.673 159.749Z" fill="white"/>
<path d="M303.486 166.708H310.905L311.206 165.056C311.356 164.205 311.607 162.252 311.807 160.8L312.158 158.197H303.486V166.708Z" fill="white"/>
<path d="M179.665 168.21H184.678V158.698H179.665V168.21Z" fill="white"/>
<path d="M186.683 168.21H196.207V158.698H186.683V168.21Z" fill="white"/>
<path d="M198.664 163.304C198.714 165.857 198.864 168.01 198.915 168.06C198.965 168.11 200.97 168.06 203.376 167.859L207.737 167.559V158.698H198.463L198.664 163.304Z" fill="white"/>
<path d="M210.244 167.709H219.919L219.568 166.157C219.418 165.306 219.267 163.254 219.267 161.652V158.698H210.244V167.709Z" fill="white"/>
<path d="M221.774 167.709H226.235C228.742 167.709 230.897 167.459 231.048 167.208C231.248 166.908 231.198 164.906 230.998 162.703L230.647 158.698H221.774V167.709Z" fill="white"/>
<path d="M328.35 169.812C327.899 171.063 327.047 175.769 327.047 176.72C327.047 177.621 327.398 177.722 331.308 177.722H335.619L335.318 169.461L331.909 169.311C329.503 169.211 328.501 169.361 328.35 169.812Z" fill="white"/>
<path d="M338.577 177.722H343.891L344.542 174.568C344.893 172.866 345.294 170.963 345.445 170.312C345.695 169.261 345.595 169.211 342.136 169.211H338.577V177.722Z" fill="white"/>
<path d="M237.615 170.112C233.354 170.262 233.203 170.262 233.504 171.364C233.655 171.964 233.805 174.017 233.805 175.869V179.274L242.578 178.973L242.728 174.768C242.828 172.465 242.678 170.412 242.477 170.262C242.277 170.112 240.071 170.012 237.615 170.112Z" fill="white"/>
<path d="M245.535 170.362C245.385 170.763 245.335 172.815 245.435 175.018L245.586 178.973H254.108L254.408 169.712H250.097C246.989 169.712 245.736 169.912 245.535 170.362Z" fill="white"/>
<path d="M257.216 170.062C256.664 170.563 256.815 178.723 257.366 178.723C257.968 178.723 258.82 175.719 259.221 172.315C259.472 169.962 259.421 169.712 258.519 169.712C257.968 169.712 257.366 169.862 257.216 170.062Z" fill="white"/>
<path d="M298.974 171.664C298.974 172.715 298.824 174.618 298.673 175.919C298.372 178.022 298.423 178.222 299.425 178.222C300.428 178.222 300.478 177.972 300.478 173.967C300.478 170.513 300.328 169.712 299.726 169.712C299.175 169.712 298.974 170.262 298.974 171.664Z" fill="white"/>
<path d="M303.486 178.272L308.699 177.972L309.551 173.817L310.354 169.712H303.486V178.272Z" fill="white"/>
<path d="M190.593 170.563L187.184 170.763V179.724H196.207V174.968C196.207 170.362 196.157 170.212 195.105 170.312C194.453 170.362 192.448 170.463 190.593 170.563Z" fill="white"/>
<path d="M198.714 179.724H208.239V170.212H198.714V179.724Z" fill="white"/>
<path d="M210.244 174.668C210.244 177.171 210.394 179.223 210.645 179.324C210.845 179.424 212.851 179.424 215.157 179.324L219.267 179.123V170.212H210.244V174.668Z" fill="white"/>
<path d="M222.275 179.223H231.298V170.212H222.275V179.223Z" fill="white"/>
<path d="M179.665 179.724H184.678V170.713H179.665V179.724Z" fill="white"/>
<path d="M330.456 181.076L327.047 181.276V185.181C327.047 187.334 327.147 189.186 327.247 189.286C327.348 189.386 329.303 189.436 331.508 189.336L335.569 189.136V184.931C335.569 181.226 335.469 180.725 334.717 180.825C334.215 180.876 332.31 180.976 330.456 181.076Z" fill="white"/>
<path d="M339.479 181.076C338.727 181.276 338.577 181.877 338.577 184.13C338.577 187.884 338.978 189.236 340.081 189.236C340.782 189.236 341.184 188.335 341.986 185.231C342.537 183.078 342.838 181.126 342.687 180.976C342.387 180.675 340.782 180.725 339.479 181.076Z" fill="white"/>
<path d="M297.721 181.827C297.621 182.177 297.169 183.779 296.768 185.331C296.317 186.933 295.816 188.535 295.665 188.986C295.415 189.586 295.816 189.737 297.921 189.737H300.478V185.481C300.478 181.276 300.478 181.226 299.225 181.226C298.523 181.226 297.871 181.526 297.721 181.827Z" fill="white"/>
<path d="M303.987 185.481C303.987 189.286 304.087 189.737 304.939 189.737C305.691 189.737 306.042 189.036 306.694 186.332C307.145 184.48 307.647 182.578 307.797 182.077C307.997 181.376 307.747 181.226 306.042 181.226H303.987V185.481Z" fill="white"/>
<path d="M188.838 182.077L187.184 182.277V191.238H196.759L196.458 181.977L193.45 181.927C191.796 181.877 189.691 181.977 188.838 182.077Z" fill="white"/>
<path d="M199.065 182.027C198.864 182.227 198.714 184.38 198.714 186.833V191.289L207.988 190.988V181.977L203.727 181.827C201.371 181.777 199.265 181.827 199.065 182.027Z" fill="white"/>
<path d="M210.595 182.077C210.495 182.327 210.545 184.43 210.645 186.833L210.845 191.238H219.769V181.727H215.307C212.801 181.727 210.695 181.877 210.595 182.077Z" fill="white"/>
<path d="M222.275 190.738H231.298V181.727H222.275V190.738Z" fill="white"/>
<path d="M233.805 190.738H242.828V181.727H233.805V190.738Z" fill="white"/>
<path d="M245.335 189.336L246.739 188.986C249.847 188.235 254.358 184.63 254.358 182.878C254.358 181.777 254.258 181.727 249.847 181.727H245.335V189.336Z" fill="white"/>
<path d="M179.665 191.489L182.171 191.339L184.678 191.138V182.227H179.665V191.489Z" fill="white"/>
<path d="M293.309 194.493C292.808 195.494 292.457 197.496 292.457 199.098V201.902L295.515 201.551C297.219 201.401 299.175 201.251 299.776 201.251C300.929 201.251 300.979 201.151 300.979 196.996V192.74H294.162L293.309 194.493Z" fill="white"/>
<path d="M303.987 194.342C303.987 196.145 304.188 196.094 304.689 194.092C304.889 193.291 304.789 192.74 304.488 192.74C304.238 192.74 303.987 193.441 303.987 194.342Z" fill="white"/>
<path d="M322.786 193.341C322.234 194.943 320.53 200.55 320.53 200.85C320.53 201.101 321.332 201.251 322.284 201.251H324.039V196.996C324.039 194.392 323.839 192.74 323.538 192.74C323.237 192.74 322.886 193.041 322.786 193.341Z" fill="white"/>
<path d="M327.047 196.695C327.047 198.898 327.297 200.85 327.548 201.001C327.849 201.201 329.754 201.151 331.809 201.001L335.569 200.65V192.74H327.047V196.695Z" fill="white"/>
<path d="M339.078 193.992C339.078 194.693 339.178 195.243 339.279 195.243C339.379 195.243 339.579 194.693 339.68 193.992C339.83 193.291 339.73 192.74 339.529 192.74C339.279 192.74 339.078 193.291 339.078 193.992Z" fill="white"/>
<path d="M179.665 203.303L181.57 203.153L183.424 203.003L183.725 193.742H179.665V203.303Z" fill="white"/>
<path d="M319.277 204.855C319.126 205.206 318.475 207.158 317.823 209.111L316.57 212.765H324.039V204.255H321.783C320.43 204.255 319.427 204.505 319.277 204.855Z" fill="white"/>
<path d="M327.548 212.815L333.714 212.515L334.616 210.012C335.118 208.61 335.519 206.758 335.519 205.857L335.569 204.255H327.548V212.815Z" fill="white"/>
<path d="M283.835 207.759C281.88 209.762 280.927 211.163 280.927 212.014C280.927 213.266 280.977 213.266 285.188 213.266H289.449V204.755H288.096C287.043 204.755 285.94 205.556 283.835 207.759Z" fill="white"/>
<path d="M292.457 213.316L298.623 213.016L299.826 209.561C300.428 207.609 300.979 205.757 300.979 205.406C300.979 204.906 299.876 204.755 296.718 204.755H292.457V213.316Z" fill="white"/>
<path d="M179.665 214.568L183.675 214.167V205.256H179.665V214.568Z" fill="white"/>
<path d="M316.018 224.28H324.039V215.769H316.018V224.28Z" fill="white"/>
<path d="M327.899 216.119C327.699 216.27 327.548 218.222 327.548 220.375C327.548 223.879 327.648 224.28 328.501 224.28C329.202 224.28 329.704 223.629 330.355 221.877C330.807 220.575 331.508 218.823 331.859 217.922C332.21 217.071 332.361 216.22 332.16 216.069C331.759 215.669 328.3 215.669 327.899 216.119Z" fill="white"/>
<path d="M271.302 217.421C269.447 218.522 269.397 218.573 269.397 221.626C269.397 223.328 269.598 224.83 269.798 224.981C269.999 225.131 271.954 225.081 274.059 224.93L277.919 224.63V216.27H275.563C274.009 216.32 272.455 216.72 271.302 217.421Z" fill="white"/>
<path d="M280.927 224.78H289.449V216.27H280.927V224.78Z" fill="white"/>
<path d="M292.457 220.525C292.457 224.029 292.608 224.78 293.209 224.78C293.66 224.78 294.212 224.28 294.462 223.629C294.663 223.028 295.465 221.126 296.167 219.374L297.42 216.27H292.457V220.525Z" fill="white"/>
<path d="M179.665 226.282H183.675V217.271H179.665V226.282Z" fill="white"/>
<path d="M261.627 222.027C256.163 224.18 256.213 225.031 261.878 225.031H266.139L266.289 223.429C266.59 220.425 266.089 220.275 261.627 222.027Z" fill="white"/>
<path d="M252.854 224.78C251.651 225.181 251.701 225.181 253.255 225.231C254.108 225.281 254.86 225.031 254.86 224.78C254.86 224.23 254.609 224.23 252.854 224.78Z" fill="white"/>
<path d="M260.524 228.134L257.867 228.335V236.795H266.39V227.784L264.785 227.884C263.883 227.934 261.928 228.034 260.524 228.134Z" fill="white"/>
<path d="M269.748 228.134C269.548 228.285 269.397 230.237 269.397 232.39V236.295H277.919V227.784H274.009C271.854 227.784 269.899 227.934 269.748 228.134Z" fill="white"/>
<path d="M280.927 236.295H289.449V227.784H280.927V236.295Z" fill="white"/>
<path d="M309.1 231.639C308.198 233.791 307.496 235.694 307.496 235.894C307.496 236.144 308.649 236.295 310.003 236.295H312.509V232.039C312.509 228.285 312.409 227.784 311.607 227.784C310.955 227.784 310.253 228.835 309.1 231.639Z" fill="white"/>
<path d="M316.018 235.794H324.039V227.784H316.018V235.794Z" fill="white"/>
<path d="M223.027 230.387C222.827 231.589 222.776 233.541 222.877 234.793L223.027 237.046L231.298 237.346V228.285H223.328L223.027 230.387Z" fill="white"/>
<path d="M234.557 237.046L237.815 237.196C243.33 237.446 243.33 237.446 243.33 232.54V228.285H234.256L234.557 237.046Z" fill="white"/>
<path d="M246.337 236.795H254.86V228.285H246.337V236.795Z" fill="white"/>
<path d="M179.665 237.796H183.174V228.785H179.665V237.796Z" fill="white"/>
<path d="M283.734 239.699L280.777 239.849L281.128 243.704C281.529 247.909 281.579 248.059 282.582 247.659C283.333 247.408 287.093 240.5 286.843 239.899C286.742 239.699 285.389 239.599 283.734 239.699Z" fill="white"/>
<path d="M304.488 247.809H312.509V239.298H304.488V247.809Z" fill="white"/>
<path d="M316.018 247.308H317.723C319.327 247.308 319.477 247.158 321.232 243.504C322.234 241.401 323.036 239.599 323.036 239.499C323.036 239.398 321.482 239.298 319.527 239.298H316.018V247.308Z" fill="white"/>
<path d="M223.127 240.149C222.927 240.3 222.776 242.352 222.776 244.655V248.81H231.8V239.799H227.639C225.333 239.799 223.278 239.949 223.127 240.149Z" fill="white"/>
<path d="M234.657 240.149C234.507 240.35 234.557 242.302 234.657 244.405L234.958 248.31H243.38L243.079 240.049L238.968 239.899C236.713 239.849 234.808 239.949 234.657 240.149Z" fill="white"/>
<path d="M246.337 248.31H254.86V239.799H246.337V248.31Z" fill="white"/>
<path d="M257.867 248.31H266.39V239.799H257.867V248.31Z" fill="white"/>
<path d="M269.648 248.059L277.919 248.36V239.799H269.347L269.648 248.059Z" fill="white"/>
<path d="M179.665 249.311H183.174V240.3H179.665V249.311Z" fill="white"/>
<path d="M307.245 251.163L304.739 251.363L304.889 255.318L305.09 259.323H313.01V250.813L311.406 250.913C310.504 250.963 308.649 251.063 307.245 251.163Z" fill="white"/>
<path d="M316.169 251.564C315.768 252.665 316.469 253.216 317.021 252.315C317.673 251.313 317.622 250.813 317.021 250.813C316.72 250.813 316.369 251.163 316.169 251.564Z" fill="white"/>
<path d="M234.808 260.375L243.079 260.074L243.38 251.313H234.808V260.375Z" fill="white"/>
<path d="M246.337 259.824H254.86V251.313H246.337V259.824Z" fill="white"/>
<path d="M258.369 259.824H262.329C264.685 259.824 266.49 259.574 266.69 259.273C266.841 258.973 266.841 257.071 266.64 255.018L266.289 251.313H258.369V259.824Z" fill="white"/>
<path d="M269.598 253.616C269.748 254.918 269.899 256.82 269.899 257.872V259.824H273.057C276.014 259.824 276.265 259.724 277.067 258.372C277.619 257.471 277.919 255.869 277.919 254.117V251.313H269.247L269.598 253.616Z" fill="white"/>
<path d="M297.57 255.368L295.415 259.373L301.23 259.073L301.38 256.37C301.581 253.116 301.18 251.313 300.328 251.313C300.027 251.313 298.774 253.116 297.57 255.368Z" fill="white"/>
<path d="M179.665 260.825H183.174V251.814H179.665V260.825Z" fill="white"/>
<path d="M223.328 260.325H231.8V251.814H223.027L223.328 260.325Z" fill="white"/>
<path d="M261.527 263.178L258.369 263.378V271.338H262.329C264.535 271.338 266.44 271.188 266.54 270.938C266.64 270.738 266.64 268.835 266.49 266.683C266.339 263.479 266.139 262.828 265.437 262.928C264.986 262.978 263.231 263.078 261.527 263.178Z" fill="white"/>
<path d="M269.899 269.586L271.904 266.582C273.007 264.93 273.909 263.428 273.909 263.178C273.909 262.978 273.007 262.828 271.904 262.828H269.899V269.586Z" fill="white"/>
<path d="M292.958 264.93C292.958 266.132 293.109 267.934 293.259 268.935L293.61 270.838H301.481V262.828H292.958V264.93Z" fill="white"/>
<path d="M304.99 266.833C304.99 270.487 305.09 270.838 305.992 270.838C306.844 270.838 308.148 268.935 311.356 263.178C311.456 262.978 310.103 262.828 308.298 262.828H304.99V266.833Z" fill="white"/>
<path d="M223.278 271.839H231.8V263.328H223.278V271.839Z" fill="white"/>
<path d="M235.058 271.589L243.33 271.889V263.328H234.757L235.058 271.589Z" fill="white"/>
<path d="M246.538 265.631C246.688 266.933 246.839 268.835 246.839 269.887C246.839 271.839 246.839 271.839 248.794 271.839C249.847 271.839 251.752 271.689 253.055 271.539L255.361 271.188V268.385C255.361 263.278 255.361 263.328 250.448 263.328H246.187L246.538 265.631Z" fill="white"/>
<path d="M179.464 266.883C178.913 272.39 178.913 272.34 181.168 272.34H183.174V263.829H179.815L179.464 266.883Z" fill="white"/>
<path d="M288.948 270.337C288.948 270.587 289.199 270.838 289.449 270.838C289.75 270.838 289.951 270.587 289.951 270.337C289.951 270.037 289.75 269.836 289.449 269.836C289.199 269.836 288.948 270.037 288.948 270.337Z" fill="white"/>
<path d="M259.772 274.693C258.369 274.893 258.369 274.943 258.369 278.898C258.369 282.702 258.419 282.853 259.522 282.853C260.374 282.853 261.376 281.851 263.482 278.898C265.036 276.695 266.189 274.793 265.988 274.642C265.688 274.342 261.978 274.342 259.772 274.693Z" fill="white"/>
<path d="M284.186 277.846C282.932 279.799 281.93 281.701 281.93 282.102C281.93 282.702 282.732 282.853 285.94 282.853H289.951V274.342H288.196C286.642 274.342 286.291 274.642 284.186 277.846Z" fill="white"/>
<path d="M293.46 282.352H301.531L301.23 274.592L293.46 274.292V282.352Z" fill="white"/>
<path d="M223.278 283.353H231.8V274.843H223.278V283.353Z" fill="white"/>
<path d="M235.058 283.103H239.319C242.427 283.103 243.58 282.953 243.53 282.452C243.48 282.152 243.43 280.249 243.43 278.347L243.33 274.843H234.757L235.058 283.103Z" fill="white"/>
<path d="M246.839 282.853H250.799C253.005 282.853 254.91 282.652 255.11 282.402C255.261 282.152 255.211 280.35 255.06 278.397L254.709 274.843H246.839V282.853Z" fill="white"/>
<path d="M179.163 283.854H183.174V275.343H179.163V283.854Z" fill="white"/>
<path d="M283.333 286.207C281.93 286.407 281.93 286.457 281.93 290.412V294.367H290.001L289.7 286.107L287.193 286.057C285.84 286.007 284.085 286.107 283.333 286.207Z" fill="white"/>
<path d="M293.46 288.86C293.46 290.512 293.56 291.864 293.71 291.864C294.011 291.864 297.47 286.557 297.47 286.107C297.47 285.957 296.568 285.856 295.465 285.856H293.46V288.86Z" fill="white"/>
<path d="M223.629 286.707C223.177 287.108 223.177 291.213 223.578 293.316L223.929 294.868H231.8V286.357H227.89C225.734 286.357 223.779 286.507 223.629 286.707Z" fill="white"/>
<path d="M235.309 294.868H243.33V286.357H235.309V294.868Z" fill="white"/>
<path d="M246.839 294.868H248.994C250.949 294.868 251.25 294.667 253.205 292.214C254.759 290.362 255.361 289.161 255.361 287.959V286.357H246.839V294.868Z" fill="white"/>
<path d="M179.414 295.619L185.68 295.919V291.864C185.68 287.909 185.68 287.859 184.427 287.859C183.725 287.859 183.174 287.609 183.174 287.358C183.174 287.058 182.271 286.858 181.168 286.858H179.113L179.414 295.619Z" fill="white"/>
<path d="M275.513 290.412L272.806 294.117L275.413 294.267C276.867 294.367 278.12 294.317 278.27 294.217C278.371 294.067 278.421 292.365 278.32 290.362L278.17 286.758L275.513 290.412Z" fill="white"/>
<path d="M188.688 295.368H197.21V287.859H188.688V295.368Z" fill="white"/>
<path d="M200.218 295.368H208.74V287.859H200.218V295.368Z" fill="white"/>
<path d="M212.099 288.209C211.898 288.36 211.748 289.962 211.748 291.714V294.868H220.27V287.859H216.36C214.204 287.859 212.249 288.009 212.099 288.209Z" fill="white"/>
<path d="M235.66 298.222C235.459 298.372 235.309 300.324 235.309 302.477V306.382H243.831V297.871H239.921C237.765 297.871 235.81 298.022 235.66 298.222Z" fill="white"/>
<path d="M246.839 298.672C246.839 299.073 247.089 299.273 247.34 299.123C247.641 298.973 247.841 298.622 247.841 298.322C247.841 298.072 247.641 297.871 247.34 297.871C247.089 297.871 246.839 298.222 246.839 298.672Z" fill="white"/>
<path d="M270.4 305.881H278.421V297.871H270.4V305.881Z" fill="white"/>
<path d="M281.93 301.876C281.93 305.531 282.03 305.881 282.932 305.881C283.584 305.881 284.837 304.63 286.692 302.177C288.196 300.124 289.449 298.322 289.449 298.172C289.449 297.972 287.745 297.871 285.69 297.871H281.93V301.876Z" fill="white"/>
<path d="M179.163 306.883H185.68V298.372H179.163V306.883Z" fill="white"/>
<path d="M188.688 306.883H197.21V298.372H188.688V306.883Z" fill="white"/>
<path d="M200.218 306.883H208.74V298.372H200.218V306.883Z" fill="white"/>
<path d="M212.249 306.883H220.771V298.372H212.249V306.883Z" fill="white"/>
<path d="M223.779 306.382H231.8V298.372H223.779V306.382Z" fill="white"/>
<path d="M265.186 303.879L263.733 305.631L265.086 305.781C266.841 305.982 266.991 305.831 266.791 303.829L266.64 302.177L265.186 303.879Z" fill="white"/>
<path d="M261.627 309.736C259.522 310.037 258.87 311.138 258.87 314.492V317.396H266.891V309.386L265.036 309.436C263.983 309.486 262.479 309.636 261.627 309.736Z" fill="white"/>
<path d="M270.4 317.396H272.806C275.012 317.346 275.263 317.196 276.817 315.193C277.919 313.691 278.421 312.49 278.421 311.238V309.386H270.4V317.396Z" fill="white"/>
<path d="M180.567 310.237L179.163 310.437V318.948L185.931 318.647L186.081 316.394C186.181 315.143 186.131 313.19 185.931 311.989C185.63 309.936 185.58 309.886 183.775 309.936C182.773 309.986 181.319 310.137 180.567 310.237Z" fill="white"/>
<path d="M189.039 310.237C188.838 310.387 188.688 312.339 188.688 314.492V318.397H197.21V309.886H193.3C191.144 309.886 189.189 310.037 189.039 310.237Z" fill="white"/>
<path d="M200.719 318.397H209.291L208.991 310.137L200.719 309.836V318.397Z" fill="white"/>
<path d="M212.249 318.397H220.771V309.886H212.249V318.397Z" fill="white"/>
<path d="M224.03 318.147L226.486 318.297C228.692 318.447 229.093 318.297 230.597 316.845C232.101 315.393 232.301 314.893 232.301 312.54V309.886H223.729L224.03 318.147Z" fill="white"/>
<path d="M235.309 310.637C235.309 311.038 235.509 311.388 235.76 311.388C236.011 311.388 236.462 311.038 236.813 310.637C237.314 309.987 237.264 309.886 236.362 309.886C235.76 309.886 235.309 310.187 235.309 310.637Z" fill="white"/>
<path d="M254.459 316.495C253.656 317.296 253.707 317.896 254.609 317.896C255.01 317.896 255.361 317.446 255.361 316.895C255.361 315.744 255.261 315.694 254.459 316.495Z" fill="white"/>
<path d="M259.221 321.251C259.02 321.401 258.87 323.353 258.87 325.506V329.411H261.778C265.838 329.411 266.891 328.309 266.891 324.004V320.9H263.231C261.176 320.9 259.371 321.05 259.221 321.251Z" fill="white"/>
<path d="M212.249 329.911H214.204C215.758 329.911 216.56 329.511 218.465 327.859C220.571 326.006 220.771 325.606 220.771 323.604V321.401H212.249V329.911Z" fill="white"/>
<path d="M223.779 322.202C223.779 322.903 223.929 322.903 224.531 322.402C224.932 322.052 225.283 321.701 225.283 321.601C225.283 321.501 224.932 321.401 224.531 321.401C224.13 321.401 223.779 321.751 223.779 322.202Z" fill="white"/>
<path d="M248.694 322.802C247.591 323.954 247.34 324.655 247.34 326.807V329.411H255.361V321.401H252.704C250.448 321.401 249.847 321.601 248.694 322.802Z" fill="white"/>
<path d="M179.414 330.162L182.372 330.312C183.976 330.412 185.53 330.262 185.78 330.011C186.031 329.761 186.081 327.859 185.881 325.706L185.53 321.901H179.113L179.414 330.162Z" fill="white"/>
<path d="M189.189 330.462L197.461 330.162L197.761 321.901H189.189V330.462Z" fill="white"/>
<path d="M200.719 329.911H209.241V321.901H200.719V329.911Z" fill="white"/>
<path d="M242.828 328.66C242.327 329.261 242.327 329.411 243.029 329.411C243.48 329.411 243.831 329.06 243.831 328.66C243.831 328.259 243.731 327.909 243.63 327.909C243.53 327.909 243.179 328.259 242.828 328.66Z" fill="white"/>
<path d="M204.128 333.266L200.719 333.466V337.521C200.719 342.227 200.569 342.227 205.782 338.322C208.59 336.169 209.191 335.418 209.091 334.417C208.991 333.015 208.941 333.015 204.128 333.266Z" fill="white"/>
<path d="M237.364 334.217C235.961 335.368 235.81 335.819 235.81 338.222V340.925H243.831V332.915H241.375C239.42 332.915 238.567 333.215 237.364 334.217Z" fill="white"/>
<path d="M247.34 340.925H251.651C255.361 340.925 255.912 340.825 255.662 340.124C255.511 339.674 255.361 337.871 255.361 336.119V332.915H247.34V340.925Z" fill="white"/>
<path d="M179.163 341.926H186.181V333.416H179.163V341.926Z" fill="white"/>
<path d="M189.189 341.426H197.711V339.273C197.711 338.122 197.561 336.319 197.411 335.268L197.06 333.416H189.189V341.426Z" fill="white"/>
<path d="M231.198 340.124C230.045 340.975 230.045 341.426 231.299 341.426C231.95 341.426 232.301 341.075 232.301 340.424C232.301 339.273 232.301 339.273 231.198 340.124Z" fill="white"/>
<path d="M228.291 344.83C226.787 344.93 225.283 345.23 224.932 345.531C224.531 345.881 224.28 347.333 224.28 349.486V352.94H232.351L232.201 348.835C232.101 346.582 231.85 344.73 231.549 344.68C231.298 344.68 229.795 344.73 228.291 344.83Z" fill="white"/>
<path d="M236.161 344.78C236.011 345.03 236.061 346.933 236.161 349.035L236.462 352.94H243.831V344.429H240.121C238.066 344.429 236.261 344.58 236.161 344.78Z" fill="white"/>
<path d="M179.514 345.23C179.314 345.431 179.163 347.383 179.163 349.536V353.441H181.62C185.379 353.441 186.282 352.49 186.081 348.434L185.931 345.18L182.923 345.03C181.219 344.93 179.715 345.03 179.514 345.23Z" fill="white"/>
<path d="M189.691 347.183C189.691 348.434 189.791 349.436 189.991 349.436C190.392 349.436 196.207 345.431 196.207 345.18C196.207 345.03 194.754 344.93 192.949 344.93H189.691V347.183Z" fill="white"/>
<path d="M218.515 351.188L216.51 352.89L218.666 352.94C220.721 352.94 220.771 352.94 220.771 351.188C220.771 350.237 220.721 349.436 220.671 349.436C220.571 349.436 219.618 350.237 218.515 351.188Z" fill="white"/>
<path d="M212.75 364.454H220.771V356.444H212.75V364.454Z" fill="white"/>
<path d="M224.28 359.799C224.28 361.701 224.481 363.503 224.731 363.854C224.982 364.304 226.185 364.454 228.842 364.354L232.552 364.204L232.853 356.444H224.28V359.799Z" fill="white"/>
<path d="M205.231 361.501C203.426 362.902 201.772 364.254 201.521 364.504C201.22 364.755 202.574 364.955 205.131 364.955H209.241V361.951C209.241 360.299 209.091 358.948 208.89 358.998C208.64 358.998 207.036 360.149 205.231 361.501Z" fill="white"/>
<path d="M205.081 368.309L201.17 368.509L201.471 376.219L209.241 376.519V372.214C209.241 369.861 209.191 368.009 209.141 368.059C209.041 368.109 207.236 368.259 205.081 368.309Z" fill="white"/>
<path d="M213.101 368.259C212.199 369.16 213.001 376.469 214.004 376.469C214.355 376.469 216.109 375.318 217.964 373.866C220.972 371.563 221.323 371.163 221.172 369.761L221.022 368.209L217.262 368.059C215.157 368.009 213.302 368.059 213.101 368.259Z" fill="white"/>
<path d="M192.598 370.362C189.841 372.114 189.741 372.314 189.691 374.367V376.519L197.962 376.219L198.112 373.966C198.213 372.765 198.163 371.013 197.962 370.111C197.561 367.909 196.308 368.009 192.598 370.362Z" fill="white"/>
<path d="M184.377 375.718C183.474 376.419 183.474 376.419 184.828 376.469C185.68 376.469 186.181 376.219 186.181 375.718C186.181 374.767 185.63 374.767 184.377 375.718Z" fill="white"/>
<path d="M203.877 379.824L201.722 380.024V383.028C201.722 385.33 201.872 385.931 202.373 385.681C205.081 384.029 209.692 380.324 209.442 379.924C209.191 379.473 208.038 379.473 203.877 379.824Z" fill="white"/>
<path d="M179.163 387.984H186.683V379.974H179.163V387.984Z" fill="white"/>
<path d="M189.691 387.984H193.651C195.857 387.984 197.812 387.733 197.962 387.483C198.112 387.183 198.112 385.381 197.912 383.478L197.561 379.974H189.691V387.984Z" fill="white"/>
<path d="M179.163 395.493C179.163 400.149 179.464 400.349 183.324 398.247C186.432 396.494 186.783 395.994 186.382 393.541L186.031 391.488H179.163V395.493Z" fill="white"/>
<path d="M190.192 392.79V394.041L191.846 392.94C192.698 392.339 193.551 391.738 193.651 391.638C193.751 391.538 193.049 391.488 192.047 391.488C190.392 391.488 190.192 391.638 190.192 392.79Z" fill="white"/>
</svg>
