<svg width="267" height="267" viewBox="0 0 267 267" fill="none" xmlns="http://www.w3.org/2000/svg">
<path d="M133.5 267C207.482 267 267 207.482 267 133.5C267 59.5183 207.482 0 133.5 0C59.5183 0 0 59.5183 0 133.5C0 207.482 59.5183 267 133.5 267Z" fill="#50AF95"/>
<g clip-path="url(#clip0_908_142)">
<path fill-rule="evenodd" clip-rule="evenodd" d="M73.5003 59.0889L38.9793 133.896C38.848 134.174 38.8063 134.488 38.8605 134.793C38.9147 135.097 39.0619 135.375 39.2805 135.587L132.513 227.755C132.778 228.017 133.131 228.163 133.498 228.163C133.865 228.163 134.218 228.017 134.482 227.755L227.715 135.593C227.934 135.381 228.081 135.103 228.135 134.798C228.19 134.494 228.148 134.18 228.017 133.901L193.496 59.0946C193.384 58.8434 193.205 58.6306 192.979 58.4816C192.754 58.3326 192.492 58.2538 192.224 58.2545H74.7832C74.5142 58.2511 74.2499 58.328 74.0222 58.476C73.7946 58.6241 73.6133 58.8369 73.5003 59.0889Z" fill="white"/>
<path fill-rule="evenodd" clip-rule="evenodd" d="M145.478 141.578C144.809 141.629 141.351 141.842 133.637 141.842C127.501 141.842 123.145 141.652 121.617 141.578C97.9053 140.502 80.2069 136.243 80.2069 131.145C80.2069 126.047 97.9053 121.794 121.617 120.701V137.337C123.167 137.452 127.607 137.722 133.743 137.722C141.105 137.722 144.792 137.406 145.456 137.342V120.712C169.117 121.8 186.776 126.058 186.776 131.145C186.776 136.232 169.123 140.49 145.456 141.572L145.478 141.578ZM145.478 118.992V104.105H178.499V81.4043H88.5959V104.105H121.611V118.986C94.7761 120.258 74.5956 125.742 74.5956 132.313C74.5956 138.885 94.7761 144.363 121.611 145.64V193.344H145.473V145.623C172.246 144.351 192.393 138.873 192.393 132.307C192.393 125.742 172.263 120.264 145.473 118.986L145.478 118.992Z" fill="#50AF95"/>
</g>
<defs>
<clipPath id="clip0_908_142">
<rect width="189.327" height="169.909" fill="white" transform="translate(38.8364 58.2544)"/>
</clipPath>
</defs>
</svg>
