<svg width="294" height="295" viewBox="0 0 294 295" fill="none" xmlns="http://www.w3.org/2000/svg">
<g clip-path="url(#clip0_908_151)">
<path d="M147 294.5C228.463 294.5 294 228.963 294 147.5C294 66.037 228.463 0.5 147 0.5C65.537 0.5 0 66.037 0 147.5C0 228.963 65.537 294.5 147 294.5Z" fill="#2775CA"/>
<path d="M187.425 170.775C187.425 149.338 174.563 141.988 148.838 138.926C130.463 136.475 126.788 131.576 126.788 123C126.788 114.424 132.913 108.913 145.163 108.913C156.188 108.913 162.313 112.588 165.375 121.775C165.988 123.613 167.826 124.837 169.663 124.837H179.462C181.913 124.837 183.75 123 183.75 120.551V119.938C181.3 106.462 170.275 96.0501 156.188 94.8256V80.1256C156.188 77.6751 154.35 75.8376 151.288 75.2246H142.1C139.65 75.2246 137.813 77.0621 137.2 80.1256V94.2126C118.825 96.6631 107.188 108.913 107.188 124.226C107.188 144.438 119.438 152.4 145.163 155.463C162.313 158.525 167.826 162.2 167.826 172.001C167.826 181.801 159.25 188.538 147.613 188.538C131.687 188.538 126.175 181.8 124.337 172.612C123.725 170.163 121.888 168.937 120.05 168.937H109.637C107.188 168.937 105.35 170.775 105.35 173.225V173.838C107.8 189.15 117.6 200.175 137.813 203.238V217.938C137.813 220.387 139.65 222.225 142.712 222.838H151.9C154.35 222.838 156.188 221 156.801 217.938V203.238C175.176 200.175 187.425 187.312 187.425 170.775Z" fill="white"/>
<path d="M115.763 235.087C67.9875 217.938 43.487 164.65 61.2505 117.487C70.438 91.762 90.6505 72.1625 115.763 62.975C118.213 61.7505 119.438 59.913 119.438 56.8495V48.275C119.438 45.8245 118.213 43.987 115.763 43.3755C115.15 43.3755 113.925 43.3755 113.312 43.987C55.125 62.362 23.2745 124.225 41.6495 182.412C52.6745 216.712 79.0125 243.05 113.312 254.075C115.763 255.299 118.213 254.075 118.825 251.624C119.438 251.013 119.438 250.4 119.438 249.175V240.599C119.438 238.762 117.6 236.313 115.763 235.087ZM180.688 43.987C178.238 42.7625 175.787 43.987 175.176 46.4375C174.563 47.0505 174.563 47.662 174.563 48.888V57.4625C174.563 59.913 176.4 62.362 178.238 63.588C226.013 80.737 250.513 134.024 232.75 181.188C223.562 206.913 203.35 226.512 178.238 235.7C175.787 236.924 174.563 238.762 174.563 241.825V250.4C174.563 252.85 175.787 254.688 178.238 255.299C178.851 255.299 180.075 255.299 180.688 254.688C238.875 236.313 270.726 174.449 252.351 116.262C241.326 81.35 214.375 55.012 180.688 43.987Z" fill="white"/>
</g>
<defs>
<clipPath id="clip0_908_151">
<rect width="294" height="294" fill="white" transform="translate(0 0.5)"/>
</clipPath>
</defs>
</svg>
