<svg width="13" height="13" viewBox="0 0 13 13" fill="none" xmlns="http://www.w3.org/2000/svg">
<path d="M0 13C0 11.6865 0.52219 10.4269 1.45169 9.49814C2.3812 8.56939 3.64188 8.04762 4.95639 8.04762C6.27091 8.04762 7.53159 8.56939 8.46109 9.49814C9.3906 10.4269 9.91279 11.6865 9.91279 13H0ZM4.95639 7.42857C2.90259 7.42857 1.2391 5.76643 1.2391 3.71429C1.2391 1.66214 2.90259 0 4.95639 0C7.0102 0 8.67369 1.66214 8.67369 3.71429C8.67369 5.76643 7.0102 7.42857 4.95639 7.42857ZM9.51813 8.8109C10.4658 9.05428 11.3125 9.59019 11.9377 10.3423C12.5628 11.0945 12.9346 12.0245 13 13H11.1519C11.1519 11.3843 10.5323 9.91343 9.51813 8.8109ZM8.26479 7.40195C8.78397 6.93796 9.19916 6.36959 9.48317 5.73408C9.76717 5.09857 9.91358 4.41027 9.91279 3.71429C9.9141 2.86834 9.69755 2.03628 9.28394 1.29814C9.98567 1.43903 10.6169 1.81837 11.0704 2.37169C11.5239 2.92501 11.7716 3.61816 11.7714 4.33333C11.7716 4.77438 11.6774 5.21037 11.4952 5.61208C11.313 6.01379 11.0469 6.37194 10.7148 6.66253C10.3828 6.95311 9.99238 7.16941 9.56982 7.29694C9.14727 7.42447 8.70232 7.46027 8.26479 7.40195Z" fill="#FFC300"/>
</svg>
