<svg width="215" height="40" viewBox="0 0 215 40" fill="none" xmlns="http://www.w3.org/2000/svg">
<path fill-rule="evenodd" clip-rule="evenodd" d="M214.697 40L214.697 0L-0.000183105 -5.01356e-06L-0.000183105 0.000257675L12.9533 20L-0.000184854 40L214.697 40Z" fill="#53BB7B"/>
<mask id="mask0_748_99" style="mask-type:alpha" maskUnits="userSpaceOnUse" x="0" y="0" width="215" height="40">
<path fill-rule="evenodd" clip-rule="evenodd" d="M214.697 40L214.697 0L-0.000183105 -5.01356e-06L-0.000183105 0.000257675L12.9533 20L-0.000184854 40L214.697 40Z" fill="#53BB7B"/>
</mask>
<g mask="url(#mask0_748_99)">
<g filter="url(#filter0_f_748_99)">
<path d="M133.274 41.398L139.416 37.9325C139.589 35.4106 139.832 33.8169 140.587 31.3627L140.889 30.5425L148.828 33.1446L148.514 34.2137C147.876 36.1972 147.285 39.203 148.194 40.7774C148.648 41.5646 149.428 41.841 150.184 41.4044C151.173 40.8335 151.893 39.1259 152.3 37.6802C152.833 35.1116 152.982 32.2803 153.085 29.6373C153.131 29.449 153.201 29.1666 153.212 28.9178L153.444 27.5729C153.954 24.6949 154.953 22.261 157.512 20.7835C160.711 18.9365 164.924 19.2491 168.011 22.3116L172.618 19.8133L176.755 27.5171L171.45 30.4183C171.814 33.5997 170.932 37.1769 170.073 39.8529L169.887 40.606L161.96 38.1585L162.25 37.1836C162.935 35.0118 163.607 31.0713 162.593 29.3152C162.453 29.073 162.255 28.8643 162.127 28.7768L162.011 28.8439C161.894 28.9111 161.72 29.0119 161.569 29.422C161.511 29.4556 161.487 29.5497 161.453 29.8927C161.418 30.2356 161.383 30.5786 161.326 31.0157C161.268 31.8563 161.152 32.7305 161.176 33.0399C161.014 34.5059 160.887 36.0325 160.667 37.5321C159.879 41.9433 158.417 46.6633 154.403 48.9805C151.96 50.3909 148.609 50.6304 145.71 49.236C144.569 48.6029 143.195 47.7006 142.158 46.4422L137.237 49.2025L133.274 41.398Z" fill="#67EB9A"/>
</g>
<g filter="url(#filter1_f_748_99)">
<path d="M-3.30424 48.4328L2.51027 45.1522C2.67367 42.7649 2.90386 41.2562 3.61817 38.933L3.90401 38.1565L11.4196 40.6198L11.123 41.6318C10.5185 43.5095 9.95881 46.3549 10.8193 47.8453C11.2496 48.5905 11.9879 48.8521 12.7037 48.4388C13.6397 47.8984 14.3216 46.2819 14.7061 44.9134C15.211 42.4818 15.3521 39.8016 15.4493 37.2996C15.4933 37.1214 15.5592 36.8541 15.57 36.6185L15.7893 35.3454C16.272 32.6209 17.2177 30.317 19.6404 28.9183C22.6687 27.1698 26.6572 27.4658 29.579 30.3648L33.9399 27.9999L37.8567 35.2925L32.835 38.039C33.1789 41.0506 32.3442 44.4369 31.5309 46.9701L31.3552 47.683L23.8507 45.3662L24.1254 44.4432C24.7738 42.3874 25.4099 38.6571 24.4501 36.9947C24.3177 36.7654 24.1303 36.5679 24.009 36.485L23.8989 36.5486C23.7888 36.6122 23.6236 36.7076 23.4807 37.0958C23.4256 37.1276 23.4037 37.2167 23.3709 37.5414C23.3381 37.866 23.3053 38.1907 23.2505 38.6045C23.196 39.4002 23.0865 40.2278 23.1088 40.5207C22.9556 41.9085 22.8355 43.3536 22.6273 44.7731C21.8814 48.9489 20.4967 53.4171 16.6975 55.6106C14.3849 56.9458 11.2122 57.1725 8.46787 55.8525C7.38772 55.2532 6.08703 54.3991 5.10557 53.2078L0.447343 55.8208L-3.30424 48.4328Z" fill="#67EB9A"/>
</g>
<g filter="url(#filter2_f_748_99)">
<path d="M101.945 11.2807L105.595 9.22135C105.698 7.72278 105.842 6.77575 106.291 5.31742L106.47 4.83L111.188 6.37628L111.002 7.01156C110.622 8.1902 110.271 9.97631 110.811 10.9119C111.081 11.3797 111.545 11.5439 111.994 11.2845C112.582 10.9452 113.01 9.93049 113.251 9.07145C113.568 7.54508 113.656 5.86266 113.718 4.29213C113.745 4.18025 113.786 4.01243 113.793 3.86457L113.931 3.0654C114.234 1.35518 114.828 -0.0910538 116.348 -0.969077C118.249 -2.06661 120.753 -1.88082 122.587 -0.0610344L125.324 -1.54556L127.783 3.03222L124.631 4.75621C124.847 6.64668 124.323 8.77235 123.812 10.3625L123.702 10.81L118.991 9.35567L119.164 8.77633C119.571 7.48581 119.97 5.14423 119.368 4.1007C119.284 3.95677 119.167 3.83279 119.091 3.78078L119.022 3.82069C118.952 3.8606 118.849 3.92046 118.759 4.16417C118.724 4.18413 118.711 4.24007 118.69 4.44387C118.669 4.64767 118.649 4.85147 118.614 5.1112C118.58 5.61073 118.512 6.13021 118.526 6.31405C118.429 7.18519 118.354 8.09231 118.223 8.98341C117.755 11.6047 116.886 14.4095 114.501 15.7864C113.049 16.6245 111.058 16.7668 109.335 15.9382C108.657 15.562 107.841 15.0259 107.224 14.2781L104.3 15.9183L101.945 11.2807Z" fill="#67EB9A"/>
</g>
</g>
<defs>
<filter id="filter0_f_748_99" x="129.274" y="15.6413" width="51.481" height="38.5269" filterUnits="userSpaceOnUse" color-interpolation-filters="sRGB">
<feFlood flood-opacity="0" result="BackgroundImageFix"/>
<feBlend mode="normal" in="SourceGraphic" in2="BackgroundImageFix" result="shape"/>
<feGaussianBlur stdDeviation="2" result="effect1_foregroundBlur_748_99"/>
</filter>
<filter id="filter1_f_748_99" x="-6.0042" y="25.137" width="46.5606" height="34.2979" filterUnits="userSpaceOnUse" color-interpolation-filters="sRGB">
<feFlood flood-opacity="0" result="BackgroundImageFix"/>
<feBlend mode="normal" in="SourceGraphic" in2="BackgroundImageFix" result="shape"/>
<feGaussianBlur stdDeviation="1.35" result="effect1_foregroundBlur_748_99"/>
</filter>
<filter id="filter2_f_748_99" x="97.9453" y="-5.64777" width="33.8379" height="26.1399" filterUnits="userSpaceOnUse" color-interpolation-filters="sRGB">
<feFlood flood-opacity="0" result="BackgroundImageFix"/>
<feBlend mode="normal" in="SourceGraphic" in2="BackgroundImageFix" result="shape"/>
<feGaussianBlur stdDeviation="2" result="effect1_foregroundBlur_748_99"/>
</filter>
</defs>
</svg>
