<svg width="827" height="209" viewBox="0 0 827 209" fill="none" xmlns="http://www.w3.org/2000/svg">
<path d="M231.642 208.977C153.683 199.86 76.2541 184.836 0 163.95C21.6783 150.311 42.8267 136.233 63.3992 121.739C51.5579 99.4915 40.3847 77.1284 29.8336 54.6729C100.582 74.0589 172.436 87.9984 244.75 96.4452C240.373 133.971 235.996 171.474 231.619 209L231.642 208.977Z" fill="#356AAB"/>
<path d="M231.642 208.977C189.092 184.975 148.315 159.243 109.428 131.964C119.035 126.24 128.549 120.401 137.949 114.493C171.307 125.086 205.126 134.502 239.337 142.764C236.779 164.851 234.199 186.914 231.642 209V208.977Z" fill="#1C4271"/>
<path d="M595.335 208.977C673.294 199.86 750.723 184.836 826.977 163.95C805.299 150.311 784.15 136.233 763.578 121.739C775.419 99.4915 786.592 77.1284 797.12 54.6729C726.372 74.0589 654.518 87.9984 582.204 96.4452C586.581 133.971 590.958 171.474 595.335 209V208.977Z" fill="#356AAB"/>
<path d="M595.197 209C637.747 185.022 678.523 159.266 717.411 131.987C707.804 126.264 698.29 120.425 688.89 114.517C655.532 125.11 621.713 134.526 587.502 142.765C590.059 164.851 592.64 186.914 595.197 209Z" fill="#1C4271"/>
<path d="M717.388 131.987C516.846 173.251 309.97 173.251 109.428 131.964C117.007 94.9686 124.61 57.9735 132.189 20.9785C317.71 59.1736 509.083 59.1736 694.627 21.0016C702.206 57.9966 709.808 94.9917 717.388 131.987Z" fill="#5596E6"/>
<path d="M166.331 71.6133C168.22 71.9364 170.086 72.2595 171.975 72.5826C170.869 78.9754 169.786 85.3681 168.681 91.7378C170.892 92.0148 173.104 92.2917 175.315 92.5687C175.062 94.0919 174.808 95.6381 174.555 97.1613C170.431 96.6536 166.285 96.1459 162.161 95.615C163.543 87.6298 164.948 79.6216 166.331 71.6364V71.6133Z" fill="white"/>
<path d="M179.278 80.683C181.19 81.0291 183.125 81.3753 185.037 81.7215C183.839 88.3681 182.641 95.0379 181.42 101.685C179.462 101.361 177.504 101.061 175.546 100.738C176.79 94.0455 178.034 87.3758 179.255 80.683H179.278ZM180.107 76.7827C180.291 75.6288 181.443 74.1979 183.355 74.521C183.609 74.5671 183.862 74.5902 184.093 74.6364C185.774 74.9133 186.074 76.3442 185.866 77.7289C185.682 78.8367 184.553 80.2445 182.664 79.9445C182.388 79.8983 182.111 79.8521 181.835 79.806C180.821 79.6444 180.314 79.0444 180.107 78.4213C179.969 77.8212 180.038 77.1981 180.107 76.8058V76.7827Z" fill="white"/>
<path d="M185.567 101.616C185.244 96.9999 185.129 92.315 185.843 87.7454C186.327 84.699 187.663 79.0217 191.649 77.2446C192.616 76.76 193.768 76.6215 194.966 76.8061C198.56 77.36 199.919 80.0141 200.426 82.5296C201.924 80.4987 204.435 78.8371 207.568 79.2755C213.488 80.1295 213.511 87.1684 212.889 91.5303C212.244 96.1691 210.77 100.739 209.065 105.124C208.996 105.285 208.904 105.447 208.835 105.608C206.923 105.331 205.011 105.077 203.122 104.801C203.214 104.547 203.329 104.316 203.421 104.062C204.066 102.608 204.481 101.062 204.895 99.5386C205.748 96.5845 206.531 93.5612 206.969 90.5148C207.199 88.9224 207.43 86.4299 206.9 84.8375C206.669 84.2836 206.416 84.1913 206.232 84.1451C203.122 83.6836 201.924 91.7842 201.647 93.6766C201.256 96.3076 200.818 98.8462 200.38 101.454C200.357 101.662 200.311 101.87 200.288 102.054C198.376 101.731 196.441 101.385 194.529 101.039C194.552 100.854 194.598 100.646 194.621 100.462C194.713 99.8155 194.805 99.1693 194.92 98.5231C195.128 97.2538 195.335 95.9614 195.542 94.6921C195.634 94.0459 195.727 93.3997 195.842 92.7535C196.21 90.2841 196.763 85.6222 195.865 83.1528C195.588 82.1835 195.174 81.8604 194.828 81.8142C193.031 81.5373 191.971 86.5915 191.81 87.7454C191.073 92.5227 191.28 97.4384 191.603 102.285C191.603 102.539 191.626 102.77 191.649 103.023C189.645 102.723 187.64 102.4 185.636 102.077C185.636 101.893 185.613 101.731 185.59 101.546L185.567 101.616Z" fill="white"/>
<path d="M215.654 86.1988C217.589 86.4988 219.501 86.7988 221.436 87.0989C220.4 93.7917 219.363 100.461 218.326 107.131C216.368 106.877 214.41 106.6 212.452 106.323C213.512 99.6075 214.594 92.8916 215.654 86.1757V86.1988ZM216.391 82.2523C216.552 81.0984 217.658 79.6445 219.57 79.8983C219.824 79.9214 220.077 79.9676 220.331 79.9906C222.012 80.2214 222.358 81.6523 222.174 83.037C222.035 84.1448 220.907 85.5757 219.041 85.3218C218.764 85.2757 218.488 85.2526 218.211 85.2064C217.198 85.0679 216.668 84.491 216.437 83.8679C216.299 83.2678 216.345 82.6447 216.391 82.2523Z" fill="white"/>
<path d="M237.125 103.046C237.01 103.185 236.918 103.346 236.802 103.485C235.489 105.377 232.863 106.878 229.845 106.508C224.086 105.77 223.51 99.1 224.086 94.8074C224.293 93.1457 224.708 91.4841 225.191 89.8686C224.938 89.8224 224.639 89.7532 224.408 89.6839C223.809 89.5685 223.164 89.4531 222.75 89.2454C222.565 89.1531 222.358 89.0608 222.174 88.9916C222.634 87.5838 223.118 86.1529 223.579 84.7451C223.809 84.7913 224.04 84.8605 224.293 84.9067C225.145 85.1374 225.952 85.3221 226.85 85.5298C227.357 84.2835 227.933 83.1065 228.578 81.8603C228.877 81.3526 229.2 80.7987 229.5 80.2679C229.592 80.1063 229.661 79.9448 229.753 79.7832C231.55 80.2909 233.37 80.7756 235.167 81.2833C235.029 81.491 234.913 81.7218 234.775 81.9295C233.877 83.3835 233.139 84.9759 232.448 86.5452C233.416 86.6606 234.522 86.7299 235.489 86.7529C235.789 86.7529 236.065 86.7529 236.365 86.776C236.203 88.2992 236.042 89.8224 235.881 91.3225C235.651 91.3225 235.42 91.3225 235.19 91.3225C233.784 91.2533 232.333 91.161 230.905 90.9302C230.444 92.7765 229.937 94.6228 229.684 96.5383C229.499 97.8999 229.177 101.754 231.273 102.008C231.918 102.1 232.863 101.662 233.232 101.108C233.393 100.9 233.531 100.692 233.692 100.462C234.844 101.316 235.973 102.193 237.125 103.046Z" fill="white"/>
<path d="M253.32 101.754C253.32 101.962 253.343 102.169 253.366 102.377C253.366 102.931 253.366 103.439 253.32 103.946C252.929 107.477 250.74 110.57 245.534 109.97C243.898 109.785 242.493 109.07 241.364 108.124C237.447 104.8 237.171 98.9383 237.655 95.038C238.023 91.9455 239.406 87.6759 243.437 86.1527C244.359 85.8296 245.441 85.6219 246.524 85.7604C251.662 86.3604 254.173 90.0299 253.735 93.9302C253.297 97.969 250.118 101.315 244.566 100.669C244.22 100.623 243.898 100.554 243.506 100.508C243.783 102.331 245.188 104.985 246.639 105.146C247.791 105.285 247.999 103.993 248.091 103.185C248.137 102.862 248.16 102.539 248.16 102.239C248.16 102.054 248.16 101.846 248.183 101.662C249.911 101.685 251.615 101.708 253.343 101.731L253.32 101.754ZM244.359 96.6766C246.708 96.9535 248.022 95.638 248.252 93.584C248.436 91.9916 247.953 90.7685 246.455 90.5838C244.267 90.33 243.552 93.5379 243.368 95.0842C243.322 95.5227 243.299 95.9611 243.276 96.4227C243.598 96.5381 243.99 96.6074 244.359 96.6535V96.6766Z" fill="white"/>
<path d="M256.776 86.9609C256.937 86.9378 257.098 86.8917 257.237 86.8686C258.365 86.5916 260.877 86.707 261.89 86.8224C262.835 86.9147 263.733 87.1224 264.563 87.3994C271.266 89.4072 273.225 93.9999 272.718 99.3541C272.188 104.916 269.585 109.786 262.005 110.616C260.83 110.755 259.679 110.778 258.435 110.686C257.283 110.686 256.131 110.593 254.979 110.501C254.702 110.501 254.449 110.478 254.173 110.455C255.048 102.631 255.9 94.8076 256.776 86.984V86.9609ZM260.508 106.208C264.747 105.585 266.244 101.662 266.613 97.9925C266.935 94.8076 265.438 92.569 262.005 91.8074C261.499 96.6078 260.992 101.385 260.485 106.185L260.508 106.208Z" fill="white"/>
<path d="M286.54 106.693C286.679 106.993 286.794 107.27 286.932 107.57C287.185 108.147 287.876 108.608 288.683 108.678C290.203 108.816 291.24 107.662 291.355 106.208C291.447 105.124 291.125 104.293 290.549 103.508C290.226 103.116 289.858 102.746 289.489 102.4C286.609 99.9308 284.329 97.9461 284.697 93.815C284.974 90.8379 287.9 88.0915 291.816 88.4146C293.659 88.5762 296.216 89.6839 296.746 91.5995C296.792 91.7148 296.838 91.8533 296.861 91.9687C296.746 92.0379 296.631 92.1303 296.492 92.1995C295.778 92.6842 295.018 93.1688 294.212 93.6535C293.981 93.7919 293.728 93.9304 293.498 94.0689C293.359 93.8381 293.221 93.6073 293.106 93.3765C292.876 92.9611 292.553 92.7534 292.138 92.7072C290.94 92.6149 290.226 93.3534 290.111 94.5074C290.019 95.5228 290.365 95.9613 291.033 96.6998C291.424 97.0691 291.77 97.4614 292.138 97.7384C292.668 98.2692 293.198 98.7077 293.659 99.2154C295.824 101.316 297.207 103.185 296.953 106.347C296.677 109.716 293.82 113.616 288.775 113.178C286.402 112.97 284.144 111.309 283.591 109.37C283.545 109.255 283.499 109.139 283.476 109.024C284.513 108.262 285.527 107.478 286.563 106.716L286.54 106.693Z" fill="white"/>
<path d="M312.135 115.255C312.135 114.309 312.135 113.363 312.112 112.371C310.73 114.101 308.587 115.371 305.8 115.163C298.935 114.655 298.359 108.17 298.773 103.07C299.165 98.2465 300.409 93.4231 301.883 88.7612C301.952 88.5535 302.022 88.3688 302.091 88.1611C302.321 88.2304 302.551 88.2996 302.805 88.3688C304.095 88.6919 305.454 88.9689 306.744 89.3151C306.975 89.3612 307.182 89.4305 307.412 89.4766C307.366 89.6612 307.297 89.869 307.251 90.0536C305.938 94.6231 304.993 99.585 304.625 104.293C304.51 105.886 304.21 110.455 306.675 110.64C310.545 110.917 311.628 98.7081 311.789 96.331C311.928 94.2539 311.974 92.1999 311.974 90.0767C311.974 89.8459 311.974 89.6382 311.951 89.4074C313.909 89.5228 315.844 89.6612 317.802 89.7766C317.802 89.9843 317.802 90.192 317.802 90.3998C317.802 98.7773 317.802 107.109 318.102 115.509C318.102 115.717 318.125 115.925 318.148 116.132C316.167 116.04 314.208 115.948 312.227 115.832C312.227 115.648 312.204 115.44 312.181 115.255H312.135Z" fill="white"/>
<path d="M322.364 89.3379C324.114 89.4533 325.842 89.5456 327.593 89.661C327.593 90.0072 327.547 90.3534 327.524 90.7226C328.492 90.3072 329.574 90.1226 330.703 90.1918C335.288 90.4457 336.946 95.823 336.739 99.5156C336.532 103.254 334.435 107.732 329.114 108.447C328.653 108.539 328.192 108.539 327.731 108.516C327.225 108.493 326.718 108.378 326.188 108.216C326.027 110.432 325.842 112.67 325.681 114.886C323.723 114.771 321.742 114.655 319.783 114.517C320.659 106.139 321.511 97.7616 322.387 89.384L322.364 89.3379ZM326.971 99.4233C326.879 100.231 326.718 101.016 326.672 101.847C326.649 102.4 326.718 103.024 326.994 103.462C327.225 103.947 327.593 104.177 328.054 104.224C328.353 104.224 328.63 104.154 329.022 103.993C330.957 102.977 331.302 100 331.417 98.1308C331.487 96.7231 330.703 95.2229 329.505 95.1537C327.985 95.0614 327.248 97.2769 327.063 98.4078C327.063 98.7309 327.017 99.1002 326.971 99.4463V99.4233Z" fill="white"/>
<path d="M339.757 90.3532C341.508 90.4455 343.259 90.5378 344.986 90.607C344.986 90.9532 344.963 91.2994 344.94 91.6686C345.908 91.2532 346.968 91.0455 348.096 91.0917C352.681 91.2994 354.409 96.6305 354.247 100.346C354.086 104.085 352.036 108.585 346.737 109.37C346.276 109.462 345.816 109.462 345.355 109.439C344.848 109.416 344.318 109.324 343.788 109.139C343.65 111.355 343.489 113.593 343.351 115.809C341.393 115.717 339.411 115.624 337.453 115.509C338.213 107.108 338.974 98.7307 339.734 90.3301L339.757 90.3532ZM344.48 100.369C344.41 101.177 344.249 101.962 344.203 102.793C344.18 103.346 344.272 103.97 344.549 104.408C344.802 104.893 345.171 105.123 345.608 105.147C345.908 105.147 346.184 105.054 346.576 104.893C348.488 103.854 348.811 100.877 348.903 98.9846C348.972 97.5768 348.166 96.0767 346.945 96.0305C345.424 95.9613 344.71 98.1768 344.549 99.3077C344.549 99.6308 344.526 100 344.457 100.346L344.48 100.369Z" fill="white"/>
<path d="M370.95 112.624C370.904 112.786 370.834 112.97 370.788 113.132C369.913 115.532 367.425 118.024 363.854 117.886C360.675 117.77 358.786 115.416 357.703 113.039C355.791 109.047 355.676 104.2 355.86 99.8845C355.929 97.9229 356.09 95.9612 356.321 94.0457C356.436 93.2379 356.62 92.4302 356.689 91.5762C356.689 91.3685 356.735 91.1608 356.759 90.9531C358.694 91.1147 360.629 91.2762 362.564 91.4147C362.564 91.6224 362.518 91.8301 362.495 92.0378C362.126 94.8534 361.735 97.6459 361.619 100.438C361.55 102.654 361.366 112.947 364.845 113.062C365.582 113.086 366.089 112.485 366.434 111.562C366.503 111.332 366.572 111.078 366.642 110.847C368.093 111.447 369.544 112.024 370.996 112.624H370.95Z" fill="white"/>
<path d="M374.06 110.755C374.175 110.986 374.313 111.217 374.428 111.447C374.981 112.44 375.765 113.155 376.87 113.178C377.262 113.178 377.723 112.994 378.23 112.486C379.289 111.378 379.865 109.624 379.888 108.17C378.99 108.632 377.999 108.886 376.893 108.863C371.042 108.701 369.752 102.308 369.844 99.1696C369.89 97.3464 370.328 95.4309 371.134 93.7461C371.203 93.6077 371.272 93.4923 371.341 93.3538C372.862 93.3076 374.359 93.2615 375.88 93.2153C375.788 93.4692 375.718 93.7461 375.626 94C375.166 95.4078 374.935 96.8617 374.912 98.3157C374.866 100.024 375.212 103.993 377.7 104.062C379.52 104.108 380.372 102.008 380.487 100.577C380.625 99.3773 380.649 98.1541 380.695 96.954C380.741 96.1694 380.787 95.3847 380.833 94.6C380.833 94.2077 380.879 93.8384 380.902 93.4461C380.902 93.2615 380.902 93.0538 380.902 92.8691C382.768 92.8691 384.657 92.8691 386.523 92.8691C386.523 93.0768 386.523 93.2845 386.523 93.4923C386.454 96.654 386.339 99.8158 386.201 102.978C386.085 105.147 385.97 107.363 385.648 109.578C385.256 112.486 383.92 115.763 380.349 117.356C379.335 117.817 378.137 118.094 376.87 118.071C373.484 117.979 370.927 115.902 369.982 113.455C369.913 113.294 369.867 113.132 369.798 112.971C371.226 112.232 372.654 111.494 374.06 110.755Z" fill="white"/>
<path d="M397.719 106.762C397.765 102.4 399.102 94.7148 406.911 94.7609C414.951 94.784 416.034 102.331 416.034 106.831C416.034 111.008 414.375 118.901 406.796 118.878C399.862 118.832 397.65 112.416 397.696 106.739L397.719 106.762ZM406.543 114.562C409.445 114.562 409.63 107.593 409.63 105.769C409.63 104.315 409.422 99.4459 407.257 99.4459C404.538 99.4459 404.101 106.67 404.101 108.377C404.101 109.901 404.216 114.562 406.543 114.562Z" fill="white"/>
<path d="M420.273 118.324C419.674 114.285 419.006 110.293 418.384 106.231C417.693 102.008 417.094 97.6918 416.264 93.4915C416.218 93.2838 416.195 93.053 416.149 92.8453C418.038 92.7068 419.95 92.5684 421.839 92.4299C421.886 92.6145 421.909 92.7992 421.955 92.9838C422.139 93.8146 422.277 94.7377 422.415 95.5917C422.461 95.6378 422.461 95.7071 422.461 95.7763C423.613 93.6992 425.756 92.1299 428.889 92.0837C436.238 91.9914 437.113 100.946 437.182 106.185C437.252 109.993 436.929 113.778 436.445 117.563C436.422 117.747 436.399 117.955 436.376 118.139C436.123 118.139 435.892 118.139 435.639 118.116C434.257 118.07 432.828 118.024 431.492 117.909C431.239 117.886 431.008 117.839 430.755 117.816C430.778 117.632 430.801 117.424 430.824 117.239C431.239 113.962 431.354 110.616 431.308 107.339C431.285 105.423 431.216 103.461 430.962 101.523C430.801 100.184 430.064 96.6533 428.221 96.6764C426.332 96.6764 425.664 99.6073 425.387 100.992C424.996 103.508 425.042 106.231 425.065 107.316C425.088 110.847 425.387 114.401 425.848 117.955C425.871 118.163 425.894 118.393 425.94 118.601C424.074 118.693 422.208 118.809 420.342 118.901C420.319 118.716 420.296 118.509 420.273 118.324Z" fill="white"/>
<path d="M454.484 112.67C454.438 112.832 454.392 113.017 454.345 113.178C453.608 115.625 451.258 118.255 447.688 118.325C444.508 118.394 442.504 116.155 441.26 113.847C439.118 109.97 438.726 105.124 438.657 100.808C438.634 98.8463 438.657 96.8847 438.772 94.9461C438.841 94.1383 438.979 93.3075 439.003 92.4766C439.003 92.2689 439.003 92.0612 439.026 91.8535C440.961 91.8997 442.896 91.9458 444.831 91.992C444.831 92.1997 444.831 92.4074 444.808 92.6151C444.601 95.4538 444.37 98.2694 444.416 101.062C444.462 103.277 444.877 113.547 448.356 113.478C449.093 113.478 449.577 112.832 449.853 111.886C449.899 111.632 449.968 111.401 450.014 111.147C451.489 111.655 452.963 112.163 454.461 112.67H454.484Z" fill="white"/>
<path d="M457.479 110.616C457.617 110.847 457.755 111.077 457.87 111.285C458.469 112.254 459.298 112.924 460.404 112.877C460.796 112.877 461.234 112.624 461.717 112.116C462.708 110.962 463.192 109.162 463.146 107.708C462.293 108.216 461.303 108.539 460.197 108.562C454.345 108.746 452.687 102.423 452.618 99.3072C452.572 97.484 452.894 95.5454 453.608 93.8376C453.677 93.6991 453.723 93.5607 453.792 93.4222C455.29 93.2837 456.81 93.1683 458.308 93.0299C458.239 93.3068 458.17 93.5607 458.101 93.8376C457.732 95.2685 457.594 96.7224 457.617 98.1764C457.663 99.8842 458.239 103.831 460.727 103.761C462.547 103.692 463.284 101.569 463.307 100.115C463.376 98.9149 463.33 97.6687 463.307 96.4686V94.1145C463.307 93.7222 463.307 93.3529 463.307 92.9606C463.307 92.776 463.307 92.5683 463.307 92.3836C465.173 92.2913 467.062 92.1759 468.928 92.0605C468.928 92.2683 468.928 92.476 468.951 92.6837C469.066 95.8454 469.112 99.0072 469.158 102.169C469.158 104.361 469.159 106.577 468.997 108.793C468.767 111.7 467.638 115.07 464.159 116.87C463.169 117.378 461.994 117.747 460.727 117.793C457.34 117.909 454.691 115.97 453.585 113.57C453.516 113.408 453.447 113.247 453.378 113.108C454.76 112.3 456.142 111.47 457.525 110.662L457.479 110.616Z" fill="white"/>
<path d="M473.605 98.4767C474.826 98.4305 476.323 99.169 476.392 100.508C476.438 101.708 475.217 103.092 473.812 103.162C472.522 103.208 470.84 102.308 470.794 100.946C470.748 99.6075 472.338 98.5228 473.628 98.4767H473.605ZM474.204 112.601C475.425 112.555 476.945 113.247 477.014 114.586C477.06 115.786 475.816 117.193 474.388 117.24C473.075 117.286 471.393 116.386 471.347 115.047C471.301 113.709 472.937 112.647 474.204 112.601Z" fill="white"/>
<path d="M490.238 109.047C491.92 108.632 493.601 108.239 495.306 107.824C495.352 107.939 495.398 108.031 495.444 108.147C495.652 109.001 496.251 110.755 496.896 111.424C497.149 111.747 497.287 111.77 497.38 111.77C497.541 111.77 497.748 111.632 498.048 111.216C499.038 109.878 499.269 107.131 499.315 105.562C498.393 106.047 497.403 106.393 496.343 106.462C493.532 106.624 490.906 104.916 489.362 103.07C488.303 101.823 487.796 99.4001 487.727 97.9231C487.566 94.9459 488.464 92.3149 491.712 90.9764C492.45 90.6764 493.187 90.4917 493.993 90.4456C499.269 90.1456 502.079 95.546 503.346 99.1462C503.991 100.969 504.314 102.954 504.429 104.916C504.636 108.17 504.153 112.693 501.181 115.232C500.19 116.086 498.992 116.778 497.541 116.871C493.233 117.124 491.044 112.093 490.33 109.393C490.307 109.278 490.261 109.185 490.238 109.07V109.047ZM495.675 95.9383C495.283 95.569 494.73 95.2921 494.246 95.3383C493.187 95.4075 492.657 96.6537 492.703 97.7615C492.818 99.8617 494.5 102.031 496.85 101.893C497.38 101.87 498.094 101.685 498.462 101.362C497.909 99.8617 496.642 96.8845 495.675 95.9614V95.9383Z" fill="#14110E"/>
<path d="M507.355 108.031C509.036 107.616 510.718 107.178 512.4 106.739C512.446 106.854 512.492 106.947 512.538 107.062C512.745 107.916 513.367 109.67 514.036 110.316C514.289 110.616 514.45 110.662 514.519 110.639C514.681 110.639 514.888 110.501 515.164 110.085C516.155 108.747 516.339 106.001 516.385 104.431C515.464 104.939 514.496 105.285 513.437 105.377C510.626 105.562 507.977 103.877 506.41 102.054C505.35 100.808 504.797 98.4076 504.705 96.9075C504.521 93.9304 505.373 91.2994 508.622 89.9147C509.359 89.6147 510.096 89.407 510.902 89.3608C516.178 88.9916 519.058 94.3689 520.348 97.9461C521.016 99.7462 521.361 101.731 521.5 103.693C521.753 106.947 521.315 111.47 518.39 114.055C517.422 114.932 516.224 115.624 514.773 115.74C510.465 116.04 508.23 111.032 507.47 108.355C507.447 108.239 507.401 108.147 507.378 108.031H507.355ZM512.653 94.8535C512.239 94.4843 511.709 94.2304 511.202 94.2535C510.142 94.3227 509.612 95.5921 509.681 96.6767C509.82 98.7769 511.524 100.923 513.874 100.762C514.404 100.716 515.118 100.531 515.464 100.208C514.911 98.7077 513.598 95.7536 512.607 94.8305L512.653 94.8535Z" fill="#14110E"/>
<path d="M524.472 106.831C526.153 106.392 527.835 105.931 529.494 105.492C529.54 105.608 529.586 105.7 529.632 105.815C529.862 106.669 530.484 108.4 531.152 109.046C531.406 109.346 531.567 109.37 531.636 109.37C531.797 109.37 532.005 109.231 532.281 108.816C533.249 107.454 533.41 104.708 533.433 103.138C532.512 103.646 531.544 104.015 530.484 104.108C527.674 104.338 525.001 102.677 523.435 100.877C522.352 99.6535 521.776 97.2533 521.684 95.7532C521.454 92.7761 522.283 90.1451 525.508 88.7142C526.245 88.3911 526.983 88.2065 527.766 88.1372C533.041 87.7218 535.99 93.0299 537.326 96.6071C538.018 98.4072 538.386 100.392 538.547 102.331C538.824 105.585 538.455 110.108 535.553 112.716C534.585 113.593 533.41 114.308 531.959 114.424C527.651 114.77 525.347 109.808 524.587 107.131C524.564 107.016 524.518 106.923 524.495 106.808L524.472 106.831ZM529.632 93.5838C529.217 93.2145 528.664 92.9607 528.181 93.0068C527.121 93.0991 526.614 94.3685 526.706 95.4532C526.867 97.5533 528.595 99.6766 530.945 99.4919C531.475 99.4458 532.189 99.2381 532.535 98.915C531.959 97.4379 530.599 94.4839 529.632 93.5838Z" fill="#14110E"/>
<path d="M541.312 115.947C541.22 113.063 541.151 110.178 541.059 107.293C543.063 107.478 545.067 107.662 547.071 107.847C547.094 110.039 547.14 112.255 547.164 114.447C545.205 114.955 543.27 115.463 541.312 115.947Z" fill="#14110E"/>
<path d="M548.062 101.108C547.647 96.6766 548.407 87.0759 555.457 86.3835C561.7 85.7604 563.727 92.4301 564.142 96.492C564.603 100.9 563.889 110.385 556.701 111.101C550.343 111.724 548.43 105.17 548.062 101.131V101.108ZM558.705 104.939C559.051 104.062 559.12 103 559.189 102.077C559.212 100.831 559.12 99.6076 559.051 98.4075C559.051 98.1767 559.005 97.9459 558.982 97.7151C558.774 95.7534 558.06 90.5377 555.157 90.8377C553.844 90.9762 553.222 92.5224 553.015 94.6918C552.831 96.792 553.13 99.0306 553.222 99.9768C553.268 100.438 553.291 101.131 553.407 101.869C553.637 103.416 554.374 106.739 556.517 106.531C557.692 106.416 558.337 105.77 558.705 104.962V104.939Z" fill="#14110E"/>
<path d="M566.008 99.3304C565.547 94.9224 566.169 85.2986 573.219 84.514C579.439 83.8216 581.558 90.4682 582.042 94.507C582.549 98.915 581.973 108.4 574.762 109.208C568.404 109.9 566.423 103.392 565.985 99.3304H566.008ZM576.721 103.023C577.043 102.146 577.112 101.084 577.158 100.161C577.158 98.915 577.066 97.6919 576.974 96.4918C576.951 96.261 576.928 96.0302 576.905 95.7994C576.675 93.8377 575.914 88.645 573.012 88.9681C571.698 89.1066 571.099 90.6759 570.915 92.8453C570.754 94.9455 571.076 97.1841 571.192 98.1073C571.238 98.5688 571.284 99.2612 571.399 99.9766C571.652 101.523 572.436 104.846 574.555 104.592C575.73 104.454 576.352 103.808 576.721 103V103.023Z" fill="#14110E"/>
<path d="M583.954 97.3233C583.448 92.9153 583.954 83.2915 591.004 82.4145C597.224 81.6298 599.413 88.2534 599.943 92.2921C600.518 96.6771 600.035 106.185 592.847 107.086C586.512 107.87 584.415 101.362 583.954 97.3233ZM594.69 100.877C595.013 100 595.059 98.9157 595.105 98.0156C595.105 96.7694 594.989 95.5462 594.874 94.3461C594.851 94.1154 594.828 93.8846 594.782 93.6538C594.529 91.7152 593.699 86.4994 590.797 86.8687C589.484 87.0302 588.908 88.5996 588.746 90.792C588.608 92.8922 588.954 95.1308 589.069 96.054C589.115 96.5155 589.161 97.2079 589.299 97.9233C589.553 99.4696 590.382 102.77 592.524 102.516C593.699 102.377 594.321 101.708 594.667 100.9L594.69 100.877Z" fill="#14110E"/>
<path d="M603.697 109.139C603.49 106.254 603.283 103.37 603.075 100.508C605.08 100.6 607.107 100.716 609.111 100.808C609.249 103 609.365 105.193 609.503 107.385C607.568 107.985 605.633 108.562 603.697 109.139Z" fill="#14110E"/>
<path d="M609.802 94.0226C609.203 89.6145 609.549 79.9907 616.575 78.9984C622.796 78.0983 625.099 84.6988 625.698 88.7145C626.343 93.0994 626.044 102.608 618.879 103.623C612.544 104.523 610.355 98.0613 609.802 94.0226ZM620.63 97.392C620.93 96.515 620.976 95.4303 620.999 94.5072C620.976 93.261 620.837 92.0378 620.699 90.8377C620.676 90.6069 620.63 90.3761 620.607 90.1453C620.331 88.2067 619.386 83.0141 616.506 83.4295C615.193 83.6141 614.64 85.2065 614.525 87.3759C614.433 89.4761 614.825 91.6916 614.963 92.6378C615.032 93.0994 615.078 93.7918 615.216 94.5072C615.516 96.0535 616.391 99.3306 618.511 99.0306C619.686 98.8691 620.284 98.1998 620.63 97.3689V97.392Z" fill="#14110E"/>
<path d="M627.703 91.4835C627.058 87.0986 627.265 77.4517 634.291 76.367C640.488 75.3977 642.884 81.9521 643.529 85.9678C644.244 90.3527 644.036 99.838 636.872 100.969C630.536 101.938 628.279 95.4992 627.68 91.4835H627.703ZM638.553 94.7146C638.853 93.8145 638.876 92.7529 638.876 91.8297C638.83 90.5835 638.692 89.3603 638.53 88.1602C638.484 87.9294 638.461 87.6987 638.415 87.4679C638.116 85.5293 637.102 80.3596 634.222 80.7981C632.909 81.0058 632.379 82.5983 632.287 84.7677C632.218 86.8678 632.633 89.0834 632.771 90.0296C632.84 90.4912 632.909 91.1835 633.047 91.899C633.347 93.4221 634.291 96.7224 636.411 96.3762C637.586 96.1916 638.185 95.5223 638.507 94.6915L638.553 94.7146Z" fill="#14110E"/>
<path d="M645.557 88.6913C644.865 84.3063 644.958 74.6595 651.961 73.4824C658.158 72.4439 660.623 78.9752 661.337 82.9678C662.098 87.3296 662.028 96.838 654.864 98.0381C648.551 99.0997 646.202 92.6839 645.557 88.6682V88.6913ZM656.453 91.7838C656.73 90.8837 656.753 89.8221 656.753 88.899C656.707 87.6527 656.522 86.4295 656.361 85.2525C656.315 85.0218 656.292 84.791 656.246 84.5833C655.923 82.6447 654.841 77.475 651.961 77.9597C650.648 78.1905 650.141 79.7829 650.072 81.9523C650.026 84.0524 650.487 86.268 650.625 87.1911C650.694 87.6527 650.786 88.3451 650.924 89.0605C651.247 90.5837 652.214 93.8609 654.334 93.4916C655.509 93.307 656.085 92.6146 656.43 91.7838H656.453Z" fill="#14110E"/>
</svg>
