<svg width="186" height="186" viewBox="0 0 186 186" fill="none" xmlns="http://www.w3.org/2000/svg">
<g clip-path="url(#clip0_83_13604)">
<path opacity="0.21" d="M93 186C144.362 186 186 144.362 186 93C186 41.6375 144.362 0 93 0C41.6375 0 0 41.6375 0 93C0 144.362 41.6375 186 93 186Z" fill="#7A7A7A"/>
<path opacity="0.21" d="M114.521 151.814C159.347 136.484 186.046 95.8731 174.157 61.1069C162.267 26.3406 116.291 10.5842 71.4651 25.914C26.6395 41.2437 -0.06032 81.8545 11.8293 116.621C23.7188 151.387 69.6955 167.143 114.521 151.814Z" fill="#8D8D8D"/>
<path d="M92.9999 163.667C132.028 163.667 163.666 132.028 163.666 93.0003C163.666 53.9724 132.028 22.334 92.9999 22.334C53.972 22.334 22.3336 53.9724 22.3336 93.0003C22.3336 132.028 53.972 163.667 92.9999 163.667Z" fill="white"/>
<path opacity="0.07" d="M159.297 68.4922C159.201 68.7179 159.126 68.9504 159.016 69.1692C155.365 76.787 150.325 77.8469 142.837 80.0899C135.014 82.4422 135.076 88.706 133.366 95.5785C132.361 99.6267 130.788 104.557 126.453 106.123C120.633 108.222 119.649 99.9754 113.713 102.772C108.174 105.384 105.288 111.942 99.4347 114.226C95.3933 115.806 90.5929 115.293 86.3532 115.273C84.0966 115.259 81.5459 115.047 79.3166 115.546C75.4052 116.428 77.9558 118.733 79.9663 120.723C80.4928 121.242 80.3492 122.111 79.7406 122.487C70.4748 128.231 59.2738 116.873 54.7674 109.693C52.4287 105.966 51.0474 102.205 52.1757 97.8351C53.8716 91.2567 60.1286 85.5741 60.0397 78.5718C59.9918 74.8176 56.8462 73.9149 56.1761 70.7967C55.5948 68.1161 58.8566 65.7774 56.3333 63.0353C55.6153 62.2557 54.3502 62.4335 53.6391 61.3462C52.8322 60.1017 53.1535 58.3306 53.4544 56.9698C54.8905 50.4256 62.6177 45.3585 67.2335 41.0846C70.5637 38.0005 74.1811 34.8754 76.807 31.1418C79.4876 27.3329 78.4892 25.4182 74.2769 24.8574C44.3322 33.0633 22.3199 60.4573 22.3199 93.0004C22.3199 132.026 53.9605 163.667 92.9863 163.667C132.012 163.667 163.653 132.026 163.653 93.0004C163.653 84.3843 162.107 76.1237 159.283 68.4854L159.297 68.4922Z" fill="#565BA4"/>
<g opacity="0.09">
<path d="M161.458 79.3441C159.379 84.8147 155.023 88.9382 151.323 93.3078C149.279 95.7217 146.967 97.5954 146.065 100.727C144.034 107.778 142.557 115.388 138.7 121.734C136.997 124.531 134.932 127.39 131.506 127.991C129.872 128.279 128.162 126.815 126.74 127.294C122.986 128.552 121.16 132.368 118.445 134.918C112.407 140.594 102.82 142.27 94.8599 142.434C88.6645 142.564 79.9868 136.826 74.735 138.775C72.0339 139.78 70.5774 142.242 67.2882 142.447C62.7544 142.728 60.7713 138.317 57.1402 136.478C53.5707 134.665 51.7107 137.462 50.5824 140.307C38.7864 136.874 26.7101 113.624 29.6027 101.753C30.0813 99.8041 31.5174 98.1971 31.9345 96.2346C32.4337 93.8343 30.9635 92.4393 29.083 91.482C26.5528 90.1964 25.7049 87.591 25.2125 84.9241C24.0979 78.8518 25.5544 72.4717 27.4213 66.6113C24.1389 74.7625 22.3268 83.6659 22.3268 92.9864C22.3268 132.012 53.9673 163.653 92.9931 163.653C132.019 163.653 163.659 132.012 163.659 92.9864C163.659 87.7278 163.078 82.606 161.991 77.6756C161.834 78.2295 161.656 78.7834 161.451 79.3304L161.458 79.3441Z" fill="#565BA4"/>
</g>
</g>
<defs>
<clipPath id="clip0_83_13604">
<rect width="186" height="186" fill="white"/>
</clipPath>
</defs>
</svg>
